<?xml version="1.0" encoding="UTF-8"?>
<!DOCTYPE svg PUBLIC "-//W3C//DTD SVG 1.1//EN" "http://www.w3.org/Graphics/SVG/1.1/DTD/svg11.dtd">
<!-- Creator: CorelDRAW 2017 -->
<svg xmlns="http://www.w3.org/2000/svg" xml:space="preserve" width="49.6992mm" height="62.3146mm" version="1.1" style="shape-rendering:geometricPrecision; text-rendering:geometricPrecision; image-rendering:optimizeQuality; fill-rule:evenodd; clip-rule:evenodd"
viewBox="0 0 4969.92 6231.46"
 xmlns:xlink="http://www.w3.org/1999/xlink">
 <defs>
  <style type="text/css">
   <![CDATA[
    .fil0 {fill:#FEFEFE}
    .fil1 {fill:#B22219}
   ]]>
  </style>
    <clipPath id="id0">
     <path d="M499.86 1078.64l3969.43 -13.15 0 5108.58 -3969.43 -1.19 0 -5094.24z"/>
    </clipPath>
    <clipPath id="id1">
     <rect x="499.86" y="57.39" width="3970.19" height="1039.77"/>
    </clipPath>
     <clipPath id="id2">
      <path d="M1234.94 5183l3217.44 0 0 875.31 -3217.44 0 0 -875.31z"/>
     </clipPath>
 </defs>
 <g id="Capa_x0020_1">
  <metadata id="CorelCorpID_0Corel-Layer"/>
  <g id="_2607307716896">
   <g style="clip-path:url(#id0)">
    <image x="-1295.01" y="405.76" width="7739.42" height="5804.56" xlink:href="00-las-durango_Images\00-las-durango_ImgID1.png"/>
   </g>
   <g style="clip-path:url(#id1)">
    <image x="499.86" y="57.39" width="3970.18" height="1039.77" xlink:href="00-las-durango_Images\00-las-durango_ImgID2.png"/>
   </g>
   <path class="fil0" d="M3799.15 3758.59c-6.46,0 -12.12,-0.86 -16.97,-2.55 -4.82,-1.69 -8.94,-4.24 -12.35,-7.58 -3.84,-3.86 -6.57,-8.46 -8.13,-13.82 -1.6,-5.32 -2.38,-11.94 -2.38,-19.77l0 -68.73 14.7 0 0 68.58c0,5.05 0.33,9.32 0.96,12.8 0.63,3.46 1.9,6.57 3.77,9.32 1.96,2.96 4.64,5.21 8.03,6.72 3.36,1.54 7.47,2.3 12.37,2.3 4.58,0 8.64,-0.76 12.18,-2.3 3.56,-1.51 6.31,-3.76 8.28,-6.72 1.82,-2.8 3.06,-5.88 3.74,-9.29 0.66,-3.39 0.99,-7.55 0.99,-12.48l0 -68.93 14.69 0 0 68.73c0,7.65 -0.78,14.19 -2.32,19.68 -1.57,5.48 -4.29,10.1 -8.18,13.91 -3.51,3.38 -7.58,5.94 -12.25,7.61 -4.68,1.69 -10.38,2.52 -17.13,2.52zm126.48 -2.27l-13.94 0 0 -47.06c0,-3.79 -0.17,-7.32 -0.55,-10.61 -0.38,-3.28 -1.06,-5.91 -2.1,-7.88 -1.13,-2.07 -2.73,-3.61 -4.75,-4.62 -2.02,-1.01 -4.77,-1.51 -8.28,-1.51 -3.44,0 -7,0.93 -10.69,2.77 -3.66,1.85 -7.24,4.25 -10.76,7.2l0 61.71 -13.94 0 0 -82.6 13.94 0 0 9.2c4.15,-3.71 8.24,-6.54 12.28,-8.51 4.07,-1.97 8.33,-2.96 12.81,-2.96 8.15,0 14.52,2.68 19.09,8.03 4.6,5.33 6.89,13.09 6.89,23.24l0 53.6zm46.32 1.66c-7.6,0 -13.54,-2.14 -17.78,-6.46 -4.24,-4.3 -6.36,-11.12 -6.36,-20.41l0 -45.72 -9.4 0 0 -11.67 9.4 0 0 -23.79 13.94 0 0 23.79 25.61 0 0 11.67 -25.61 0 0 39.25c0,4.2 0.07,7.43 0.23,9.68 0.15,2.27 0.7,4.39 1.69,6.36 0.83,1.72 2.2,3.03 4.06,3.89 1.9,0.86 4.42,1.29 7.63,1.29 2.27,0 4.47,-0.35 6.59,-1.03 2.12,-0.69 3.67,-1.24 4.6,-1.7l0.81 0 0 12.48c-2.63,0.76 -5.28,1.34 -7.96,1.74 -2.7,0.43 -5.18,0.63 -7.45,0.63zm91.96 -1.66l-13.94 0 0 -9.2c-4.3,3.74 -8.36,6.59 -12.23,8.54 -3.84,1.94 -8.13,2.93 -12.85,2.93 -3.61,0 -7,-0.58 -10.18,-1.77 -3.19,-1.18 -5.96,-3.05 -8.34,-5.63 -2.37,-2.55 -4.22,-5.79 -5.5,-9.68 -1.32,-3.88 -1.97,-8.63 -1.97,-14.19l0 -53.6 13.94 0 0 47.06c0,4.37 0.15,8.01 0.48,10.91 0.33,2.88 1.06,5.41 2.17,7.58 1.14,2.12 2.68,3.66 4.62,4.65 1.97,0.98 4.75,1.48 8.41,1.48 3.41,0 7.02,-0.95 10.86,-2.9 3.87,-1.94 7.38,-4.32 10.59,-7.15l0 -61.63 13.94 0 0 82.6zm54.55 1.82c-5.69,0 -10.89,-0.89 -15.63,-2.63 -4.73,-1.74 -8.82,-4.4 -12.23,-7.96 -3.41,-3.53 -6.04,-8 -7.93,-13.41 -1.87,-5.41 -2.8,-11.74 -2.8,-19.04 0,-7.25 0.98,-13.52 2.92,-18.79 1.95,-5.28 4.55,-9.71 7.81,-13.32 3.26,-3.58 7.32,-6.36 12.2,-8.31 4.85,-1.94 10.08,-2.93 15.66,-2.93 4.55,0 8.94,0.64 13.16,1.93 4.22,1.28 7.98,2.77 11.29,4.44l0 15.61 -0.81 0c-0.99,-0.83 -2.27,-1.79 -3.84,-2.88 -1.54,-1.06 -3.43,-2.17 -5.66,-3.31 -1.92,-0.96 -4.19,-1.82 -6.82,-2.55 -2.62,-0.73 -5.15,-1.11 -7.57,-1.11 -7.2,0 -13.01,2.72 -17.38,8.16 -4.37,5.43 -6.57,13.1 -6.57,23.06 0,9.72 2.13,17.32 6.34,22.75 4.22,5.43 10.1,8.16 17.61,8.16 4.54,0 8.89,-0.93 12.98,-2.8 4.12,-1.85 7.73,-4.27 10.91,-7.2l0.81 0 0 15.61c-1.39,0.65 -3.11,1.41 -5.18,2.32 -2.07,0.94 -3.96,1.59 -5.63,2.05 -2.38,0.68 -4.5,1.21 -6.37,1.59 -1.89,0.38 -4.32,0.56 -7.27,0.56zm107.51 -1.82l-18.26 0 -30.86 -39.88 -5.58 5.35 0 34.53 -13.94 0 0 -115.18 13.94 0 0 67.52 32.81 -34.94 17.35 0 -34 34.53 38.54 48.07zm43.16 1.82c-13.18,0 -23.43,-3.72 -30.73,-11.12 -7.3,-7.4 -10.94,-17.93 -10.94,-31.57 0,-13.44 3.53,-24.12 10.61,-32.08 7.04,-7.95 16.29,-11.92 27.7,-11.92 5.16,0 9.7,0.73 13.64,2.23 3.97,1.46 7.43,3.78 10.38,6.94 2.98,3.16 5.26,7 6.82,11.57 1.59,4.54 2.38,10.13 2.38,16.72l0 7.55 -57.44 0c0,9.57 2.43,16.9 7.28,21.95 4.85,5.08 11.56,7.6 20.12,7.6 3.06,0 6.09,-0.35 9.02,-1.04 2.96,-0.68 5.61,-1.59 7.98,-2.67 2.53,-1.14 4.68,-2.22 6.39,-3.29 1.75,-1.05 3.19,-2.07 4.32,-3l0.81 0 0 15.18c-1.64,0.63 -3.66,1.44 -6.09,2.4 -2.42,0.96 -4.59,1.72 -6.51,2.25 -2.73,0.73 -5.18,1.31 -7.38,1.71 -2.19,0.38 -5,0.59 -8.36,0.59zm16.37 -52.29c-0.1,-3.74 -0.56,-6.97 -1.34,-9.67 -0.78,-2.7 -1.94,-5 -3.41,-6.87 -1.64,-2.05 -3.74,-3.64 -6.29,-4.72 -2.55,-1.09 -5.71,-1.62 -9.49,-1.62 -3.72,0 -6.87,0.56 -9.48,1.67 -2.6,1.11 -4.97,2.7 -7.09,4.82 -2.1,2.17 -3.67,4.57 -4.78,7.2 -1.08,2.63 -1.76,5.71 -2.07,9.19l43.95 0zm93.04 50.47l-13.94 0 0 -8.46c-2.17,1.81 -4.07,3.33 -5.63,4.52 -1.59,1.18 -3.46,2.27 -5.58,3.26 -1.98,0.93 -4.05,1.66 -6.17,2.17 -2.12,0.53 -4.59,0.78 -7.42,0.78 -4.5,0 -8.66,-0.93 -12.51,-2.8 -3.84,-1.87 -7.09,-4.63 -9.77,-8.21 -2.73,-3.64 -4.83,-8.14 -6.31,-13.49 -1.5,-5.36 -2.23,-11.49 -2.23,-18.44 0,-7.25 0.94,-13.51 2.83,-18.81 1.87,-5.31 4.47,-9.9 7.78,-13.87 3.03,-3.59 6.67,-6.42 10.96,-8.46 4.3,-2.05 8.77,-3.06 13.49,-3.06 4.14,0 7.75,0.46 10.84,1.37 3.05,0.9 6.31,2.32 9.72,4.27l0 -35.95 13.94 0 0 115.18zm-13.94 -20.16l0 -47.53c-3.46,-1.62 -6.57,-2.76 -9.32,-3.36 -2.75,-0.63 -5.73,-0.94 -8.94,-0.94 -7.2,0 -12.81,2.68 -16.87,8.01 -4.07,5.33 -6.09,13.03 -6.09,23.11 0,9.7 1.57,17.1 4.67,22.25 3.13,5.13 8.14,7.7 15.01,7.7 3.66,0 7.35,-0.83 11.06,-2.5 3.71,-1.66 7.22,-3.91 10.48,-6.74z"/>
   <path class="fil0" d="M3455.68 3985.22l-62.57 0 0 -29.85 62.57 0c19.58,0 33.99,-3.03 43.22,-9.08 11.15,-7.48 16.72,-20.3 16.72,-38.45l0 -94.33 29.85 0 0 94.33c0,27.7 -8.2,47.84 -24.6,60.42 -14.48,11.3 -36.22,16.96 -65.19,16.96zm197.59 -141.86c-17.2,0 -31.13,5.66 -41.79,16.96 -9.4,10.03 -14.41,22.45 -15.05,37.26 -0.48,15.6 3.98,28.81 13.37,39.64 10.51,12.1 25,18.15 43.47,18.15l48 0c18.46,0 32.95,-6.05 43.46,-18.15 9.39,-10.83 13.77,-24.04 13.13,-39.64 -0.47,-14.81 -5.49,-27.23 -15.04,-37.26 -10.51,-11.3 -24.36,-16.96 -41.55,-16.96l-48 0zm0 141.86c-26.75,0 -48.24,-9.16 -64.48,-27.47 -14.65,-16.71 -21.97,-36.77 -21.97,-60.17 0,-23.09 7,-42.35 21.01,-57.8 15.92,-17.51 37.74,-26.27 65.44,-26.27l48 0c27.7,0 49.43,8.76 65.19,26.27 14.17,15.45 21.25,34.71 21.25,57.8 0,23.4 -7.32,43.46 -21.96,60.17 -16.24,18.31 -37.74,27.47 -64.48,27.47l-48 0zm291.24 -48.24l-81.48 0 18.19 -29.85 45.45 0 -29.89 -49.44 -77.45 127.29 -38.45 0 93.14 -155.23c3.02,-4.93 6.92,-8.99 11.7,-12.18 4.14,-2.86 7.8,-4.38 10.99,-4.53 3.5,-0.32 7.4,0.87 11.7,3.58 4.93,3.18 9.07,7.56 12.41,13.13l91.23 155.23 -38.49 0 -29.05 -48zm226.44 39.64l-110.09 -110.65 0 119.25 -29.85 0 0 -156.66c0,-4.62 1.19,-8.28 3.58,-10.99 2.39,-2.7 5.49,-4.06 9.31,-4.06 5.58,0 11.23,2.95 16.96,8.84l110.09 110.33 0 -119.17 29.85 0 0 156.9c0,10.98 -3.74,16.48 -11.22,16.48 -5.58,0 -11.79,-3.42 -18.63,-10.27zm194.48 -93.37l0 29.85 -98.15 0 0 -29.85 98.15 0zm-110.81 72.11l118.45 0 0 29.86 -148.3 0 0 -171.71 148.3 0 0 29.85 -118.45 0 0 112zm14.81 -149.01l60.66 -20.78 -4.3 -13.61 -60.66 20.78 4.3 13.61zm-1162.6 285.7c12.1,9.39 18.15,21.09 18.15,35.1 0,13.38 -5.73,24.76 -17.19,34.15 -12.58,10.35 -29.69,15.52 -51.35,15.52l-122.98 0 0 -171.7 122.98 0c21.66,0 38.77,5.34 51.35,16 11.46,9.55 17.19,21.26 17.19,35.11 0,14.17 -6.05,26.11 -18.15,35.82zm-45.61 54.92c10.99,0 19.74,-2.07 26.27,-6.21 5.73,-3.66 8.6,-8.19 8.6,-13.61 0,-5.41 -2.95,-9.95 -8.84,-13.61 -6.37,-4.3 -15.04,-6.45 -26.03,-6.45l-80.48 0 0 -29.85 80.48 0c10.99,0 19.66,-2.23 26.03,-6.68 5.89,-3.99 8.84,-8.84 8.84,-14.57 0,-5.73 -2.87,-10.59 -8.6,-14.57 -6.53,-4.3 -15.28,-6.45 -26.27,-6.45l-97.91 0 0 112 97.91 0zm201.17 30.09l-10.27 0c-28.97,0 -50.78,-5.65 -65.43,-16.95 -16.24,-12.58 -24.36,-32.72 -24.36,-60.42l0 -94.33 29.85 0 0 94.33c0,18.15 5.57,30.96 16.72,38.45 9.23,6.05 23.64,9.07 43.22,9.07l10.27 0c19.58,0 33.99,-3.02 43.22,-9.07 11.15,-7.49 16.72,-20.3 16.72,-38.45l0 -94.33 29.85 0 0 94.33c0,27.7 -8.2,47.84 -24.59,60.42 -14.49,11.3 -36.22,16.95 -65.2,16.95zm215.98 -141.85l0 141.85 -29.85 0 0 -141.85 -67.82 0 0 -29.85 165.25 0 0 29.85 -67.58 0zm178 0l0 141.85 -29.85 0 0 -141.85 -67.82 0 0 -29.85 165.25 0 0 29.85 -67.58 0zm173.23 0c-17.19,0 -31.12,5.65 -41.79,16.96 -9.39,10.03 -14.41,22.44 -15.04,37.25 -0.48,15.6 3.98,28.82 13.37,39.64 10.51,12.1 25,18.15 43.46,18.15l48 0c18.47,0 32.96,-6.05 43.46,-18.15 9.4,-10.82 13.78,-24.04 13.14,-39.64 -0.48,-14.81 -5.49,-27.22 -15.05,-37.25 -10.5,-11.31 -24.35,-16.96 -41.55,-16.96l-48 0zm0 141.85c-26.74,0 -48.24,-9.15 -64.48,-27.46 -14.64,-16.72 -21.97,-36.78 -21.97,-60.18 0,-23.08 7.01,-42.35 21.02,-57.79 15.92,-17.51 37.73,-26.27 65.43,-26.27l48 0c27.7,0 49.44,8.76 65.2,26.27 14.16,15.44 21.25,34.71 21.25,57.79 0,23.4 -7.32,43.46 -21.97,60.18 -16.24,18.31 -37.73,27.46 -64.48,27.46l-48 0zm303.62 -8.59l-110.09 -110.65 0 119.24 -29.85 0 0 -156.65c0,-4.62 1.19,-8.28 3.58,-10.99 2.39,-2.71 5.49,-4.06 9.31,-4.06 5.58,0 11.23,2.95 16.96,8.84l110.09 110.33 0 -119.17 29.85 0 0 156.9c0,10.98 -3.74,16.48 -11.22,16.48 -5.58,0 -11.78,-3.43 -18.63,-10.27zm198.3 8.59l-130.86 0 0 -29.85 130.86 0c9.88,0 17.75,-2.47 23.65,-7.4 5.41,-4.62 8.11,-10.11 8.11,-16.48 0,-6.37 -2.62,-11.7 -7.88,-16 -5.89,-4.78 -13.85,-7.16 -23.88,-7.16l-81.19 0c-16.87,0 -30.25,-4.94 -40.12,-14.81 -8.92,-8.92 -13.37,-19.82 -13.37,-32.71 0,-12.74 4.45,-23.57 13.37,-32.48 9.87,-9.87 23.25,-14.81 40.12,-14.81l129.67 0 0 29.85 -129.67 0c-6.37,0 -11.38,1.75 -15.04,5.25 -3.67,3.51 -5.5,7.65 -5.5,12.42 0,4.78 1.67,8.76 5.02,11.94 3.82,3.66 8.99,5.5 15.52,5.5l81.19 0c18.31,0 32.96,5.57 43.94,16.71 9.88,10.19 14.81,22.53 14.81,37.02 0,14.48 -4.86,26.67 -14.57,36.54 -10.82,10.98 -25.55,16.47 -44.18,16.47z"/>
   <path class="fil0" d="M3724.88 4343.51c0,-3.79 -0.92,-8.4 -2.94,-13.84 -1.54,-4.44 -4.94,-9.05 -10.35,-14.16 -3.71,-3.46 -7.89,-5.76 -12.68,-6.75 -2.47,-0.49 -6.34,-0.82 -11.74,-0.82 -2.32,0 -5.11,0.16 -8.35,0.33 -3.25,0.16 -5.26,0.33 -5.87,0.33 -0.62,0 -0.93,-0.66 -1.55,-0.66l-40.34 -0.33c-0.16,0 -0.93,0.33 -2.48,1.15l0 19.93c0,0.98 0.31,1.81 1.09,2.63l-0.31 105.06c0.15,2.47 0.92,3.79 2.47,3.79l10.05 0c1.39,-0.82 2.16,-2.8 2.32,-5.6l0 -9.55c0.15,-17.62 0,-31.45 -0.31,-41.5 0,-0.99 0.92,-1.81 2.62,-2.47l31.23 0c1.39,0 2.63,0.99 3.55,3.13 11.44,24.37 20.41,43.31 27.05,56.81 0.47,0 1.24,0.33 1.86,0.33 6.95,0 10.51,-1.64 10.51,-5.1 0,-1.15 -1.24,-4.12 -3.56,-8.73 -7.57,-14.82 -11.59,-22.56 -11.9,-23.22 -0.62,-1.48 -2.94,-6.09 -7.11,-13.83 -2.63,-4.94 -3.71,-7.91 -3.24,-8.73 0.77,-0.82 1.39,-1.15 1.85,-1.32 8.35,-0.98 15.3,-5.76 20.87,-14.16 4.79,-7.41 7.26,-14.98 7.26,-22.72zm-11.75 0.66c0,5.1 -2.16,10.37 -6.33,15.81 -4.49,5.76 -9.12,8.56 -14.23,8.56l-31.84 0.33c-0.15,0 -1.23,-0.17 -2.93,-0.33 -1.7,-0.17 -2.63,-0.33 -2.94,-0.33 0.16,0 -1.7,0 -5.56,0.16 -3.4,0.17 -5.72,0.33 -6.8,0.17 0.3,-1.48 0.46,-4.78 0.3,-9.72 0,-0.82 -0.77,-3.13 -0.77,-3.62 0,-0.33 0.16,-1.65 0.31,-3.95 0.31,-2.31 0.46,-3.63 0.46,-3.79l0 -9.22c0,-5.6 0,-11.04 0.16,-16.3 2.63,-0.83 5.41,-1.16 8.19,-1.16l34.16 -0.33c6.03,0 10.05,0.33 12.21,0.83 10.2,5.43 12.21,9.05 13.76,13.17 1.24,2.8 1.85,5.93 1.85,9.72zm119.95 40.84c0,-0.33 -0.15,-1.98 -0.31,-5.11 -0.15,-3.13 -0.15,-4.78 -0.15,-5.1l0 -9.06c0,1.15 -0.16,-6.92 -0.31,-24.37 -0.31,-14.49 -0.31,-25.2 -0.16,-32.12 -1.08,-0.82 -2.47,-1.15 -4.48,-0.98 -1.54,0.16 -3.09,0.16 -4.79,0.33 -2.17,0 -3.4,0.65 -3.86,1.97l0 86.79c0,0.49 -0.62,2.63 -2.01,6.58 -1.24,3.96 -1.86,6.26 -2.01,6.92 -0.31,2.14 -3.09,5.27 -8.5,9.39 -6.03,4.61 -11.13,6.91 -15.46,6.91 -0.16,0 -1.24,0 -3.09,-0.16 -1.86,-0.17 -2.94,-0.17 -3.25,-0.17 -0.46,0 -1.24,0.66 -1.85,0.66 -2.32,0 -5.1,-0.66 -8.51,-1.81 -7.57,-2.8 -13.13,-8.23 -16.69,-16.3 -2.94,-6.26 -4.33,-13.34 -4.33,-21.41l0 -34.25c0,0.33 -0.31,-0.66 -1.08,-2.97l0 -13.01c0.47,-0.33 0.93,-1.31 1.08,-2.8 0.16,-1.31 0,-2.3 -0.15,-2.79 -0.62,-1.82 -0.93,-2.48 -0.93,-2.15 0.77,-8.89 0.62,-14.16 -0.31,-15.97 0.62,-1.15 0.93,-2.14 0.93,-3.13 0,-2.14 -1.24,-3.29 -3.87,-3.29 -7.26,0 -10.81,1.32 -10.81,3.95 0,0.49 0.15,3.79 0.3,9.55 0.16,5.77 0.31,9.55 0.31,11.04 -0.46,22.06 -0.46,41.16 0,57.3 0.16,8.4 0.93,14.82 2.32,19.27 2.01,6.75 5.57,12.51 10.82,17.29 3.09,3.13 5.57,5.76 7.57,7.9 2.63,1.82 6.34,3.79 11.13,5.6 4.95,1.81 9.13,2.64 12.37,2.64l6.65 0c9.73,0 19.16,-4.61 27.97,-13.67 8.82,-9.22 13.76,-19.27 14.53,-30.3 0.62,-7.41 0.93,-11.69 0.93,-13.17zm112.38 51.7c-0.47,-11.69 -0.62,-44.95 -0.62,-99.79 0,-1.15 0,-5.43 0.15,-12.52 0.15,-5.43 0.15,-9.55 0,-12.02 -0.15,-1.64 -0.93,-2.47 -2.47,-2.47 -4.18,0 -7.58,0.17 -10.36,0.5 -1.08,1.48 -1.55,2.63 -1.55,3.78l0 11.04c0.47,0.99 0.78,1.65 0.78,1.81 -0.16,2.63 -0.16,10.7 -0.16,24.37 0,0.66 0.47,1.32 0.47,1.98l0 49.56c0,4.95 -0.77,7.91 -2.17,9.06 -3.24,-3.46 -6.18,-7.41 -8.81,-12.18 -3.71,-6.59 -6.95,-11.7 -9.58,-15.48 -0.62,-1.48 -1.08,-2.8 -1.24,-3.79l-36.17 -58.13c-1.23,-2.31 -2.47,-4.61 -3.71,-7.08 -2.62,-4.61 -4.48,-6.92 -5.72,-6.92 -5.41,0 -8.65,0.33 -10.04,0.99 -2.01,0.82 -2.94,1.65 -2.94,2.63l0 32.77c0,19.11 0.31,35.9 0.77,50.56 0.31,6.42 0.16,20.58 -0.31,42.32 0,0.49 0.31,1.48 1.09,2.8l6.95 0 3.71 0c1.7,0 2.63,-6.42 2.63,-19.43l0 -22.89c0,-0.66 0.31,-3.62 0.31,-4.28l0 -29.31c0,-0.99 -0.16,-3.46 -0.46,-7.58 -0.31,-4.12 -0.47,-7.24 -0.47,-9.39 0,-4.77 0.62,-7.57 1.86,-8.4 2.31,0.83 4.94,3.96 7.88,9.23 4.79,9.22 7.57,14.32 8.19,15.15 11.9,18.93 21.33,34.09 28.13,45.45 3.71,6.09 7.42,12.35 10.98,18.44 5.72,9.72 9.12,14.49 9.89,14.49l3.87 0c0.61,0 2.78,-1.81 3.4,-1.81 0.61,0 2.62,1.15 3.09,1.15 0.77,0 1.39,-0.82 2.01,-2.3 0.46,-1.15 0.62,-1.81 0.62,-2.31l0 0zm182.85 -125.97c-1.85,-1.32 -3.09,-1.98 -3.71,-1.98l-8.65 0c-7.11,17.62 -12.52,30.8 -16.08,39.69 -4.79,12.18 -8.66,22.06 -11.59,29.64 -1.09,1.81 -1.86,3.13 -2.48,3.95 -0.3,1.32 -0.46,2.31 -0.61,2.97 -1.86,3.78 -4.79,11.03 -8.97,22.06 -3.24,9.06 -5.72,14.49 -7.11,15.98 -7.88,-18.61 -14.84,-35.9 -20.56,-51.88l23.65 -59.28 0 -1.15c-1.7,-1.32 -2.93,-1.98 -3.55,-1.98l-8.66 0 -18.08 45.45 -19.02 -44.96c-0.15,0 -1.69,-0.82 -2.16,-0.82 -7.42,0 -11.28,1.32 -11.75,3.95l24.74 61.92c-9.13,19.76 -15.31,35.57 -18.4,47.43 -0.15,0.49 -0.46,0.66 -0.93,0.66 -0.46,-1.16 -0.93,-1.98 -1.08,-2.64 -2.01,-1.81 -4.02,-5.27 -6.34,-10.54 -0.46,-1.15 -2.31,-6.26 -5.56,-15.31 -2.78,-7.41 -5.1,-13.18 -7.11,-16.96 -6.03,-15.98 -11.28,-28.99 -15.46,-39.2l-11.9 -28.49c-0.46,0 -1.7,-0.82 -2.32,-0.82 -0.62,0 -3.71,0.17 -9.43,0.5 -0.77,0 -2.16,2.63 -2.16,3.45 0,0.33 3.09,8.24 9.43,23.72 7.57,18.6 12.83,31.45 15.45,38.53 13.61,35.08 22.26,57.14 26.13,66.2 1.08,0.82 1.85,1.32 2.31,1.32 0.62,0 0.47,-0.83 1.09,-0.83 0.31,0 1.7,0 4.33,0.17 2.62,0.16 4.17,0.16 4.48,0.16 1.85,0 3.09,-0.33 3.55,-1.15 2.63,-5.27 4.33,-9.22 5.1,-12.02 6.34,-15.64 11.44,-27.99 15.15,-36.89 9.12,21.91 15.77,38.21 19.94,49.24 0.77,0.49 1.7,0.82 2.48,0.82l9.73 0c2.63,0 4.8,-1.97 6.19,-6.09 1.54,-4.12 3.09,-8.07 4.63,-12.19 3.25,-7.73 5.41,-13.5 6.8,-17.29 5.72,-14.32 9.59,-23.05 11.29,-26.34l27.2 -67.85 0 -1.15zm132.47 129.6c0.15,-1.65 0,-2.8 -0.47,-3.63 -4.32,-10.7 -7.41,-18.77 -9.11,-24.04 -2.94,-7.08 -5.26,-12.18 -6.96,-15.64 -12.83,-33.43 -22.57,-58.13 -28.91,-73.78 -1.85,-5.43 -3.71,-11.86 -6.18,-13.83 -1.39,-0.17 -2.62,-0.33 -3.55,-0.17 -0.93,-0.82 -1.55,-1.31 -1.86,-1.31 -0.46,0.82 -1.39,1.31 -3.09,1.31 -0.62,0 -1.7,-0.32 -2.16,-0.32 -1.39,0 -2.48,0.16 -3.09,0.49 -2.32,1.15 -2.79,4.61 -3.4,7.25 -1.4,3.12 -2.63,5.43 -3.41,6.91 -2.31,5.44 -2.62,9.06 -5.1,12.35 -0.46,0.66 -0.46,3.95 -2.16,5.11 -2.16,6.09 -4.17,11.36 -5.88,15.64 -0.3,1.98 -1.69,5.6 -4.32,10.71 -2.63,5.1 -4.02,8.72 -4.18,10.86 -0.46,0.33 -0.92,0.5 -1.23,0.66 -0.47,2.14 -0.77,3.62 -0.93,4.78 -1.7,5.27 -3.25,9.05 -4.33,11.53 -0.93,0.65 -1.55,1.15 -1.85,1.48 -1.09,3.95 -1.86,7.41 -2.32,10.21 -1.39,1.81 -2.17,3.29 -2.63,4.28 -2.94,8.23 -5.25,14.16 -6.95,17.78 -0.31,1.16 -0.93,3.3 -2.01,6.26 -1.09,2.47 -1.55,3.95 -1.55,4.12 0,1.32 1.85,2.96 2.94,2.96l9.43 0c0.46,0 1.08,-0.33 1.85,-0.82 1.39,-4.12 2.48,-7.08 3.25,-9.06 3.4,-8.56 6.03,-14.98 7.88,-19.27 0.93,-2.3 2.32,-3.62 4.17,-4.11 3.87,-0.33 6.8,-0.5 8.81,-0.5l49.93 -0.33c1.7,0 2.47,0 2.63,0.17 1.08,0.82 2.16,1.97 2.93,3.79 0.47,1.32 1.09,2.63 1.55,3.95 4.17,9.88 6.49,15.48 6.96,16.63 1.7,4.94 3.09,7.74 4.32,8.23 0.62,0.33 2.32,0.5 4.95,0.5 3.25,0 5.26,-0.33 6.03,-1.15zm-32.31 -48.75c-0.31,1.49 -1.23,2.14 -2.62,2.14 -9.12,0 -17.01,0.33 -16.39,0.33 -0.46,0 -3.71,-0.66 -4.33,-0.66 0.47,0 -3.55,0.17 -12.21,0.5 -7.57,0.16 -13.14,0.33 -16.69,0.16 4.17,-11.69 8.5,-23.55 12.67,-35.24 5.1,-14 9.74,-25.52 13.92,-34.58l25.65 67.35zm134.33 -81.68c-0.93,-0.49 -1.86,-0.82 -2.63,-0.82l-10.36 0c-3.86,5.93 -10.51,16.8 -19.78,32.44 -6.49,10.7 -10.2,16.14 -10.98,16.14 -1.23,0 -3.71,-3.29 -7.57,-9.88 -4.79,-8.57 -8.35,-14.16 -10.36,-16.63 0,-0.66 0,-1.16 0.16,-1.49 -2.01,-3.45 -4.18,-6.91 -6.19,-10.37 -2.31,-3.95 -4.63,-7.57 -7.11,-10.7 -2.62,-0.33 -3.71,-0.5 -3.24,-0.5 -0.16,0 -1.55,0.17 -4.02,0.5 -2.32,0.16 -4.17,0.33 -5.26,0.33 -0.46,0.82 -0.77,1.64 -0.77,2.46 0,0.17 2.47,4.62 7.42,13.01 5.1,8.4 8.04,13.51 9.12,14.99 3.25,5.11 5.56,9.22 7.27,12.02 2.62,4.45 5.41,8.73 8.03,13.18 3.56,5.76 5.57,9.38 6.03,10.86 0.15,2.8 0.15,5.11 -0.15,6.59l0.62 39.85c0,0.33 -0.16,1.81 -0.32,4.28 -0.15,2.47 -0.3,4.45 -0.3,5.93 0,5.93 1.39,8.89 4.32,8.89l2.94 0c3.09,0 5.1,-0.65 6.03,-1.97 0.77,-0.99 1.08,-3.13 1.08,-6.26l0 -37.71c0,0.17 -0.15,-2.8 -0.46,-8.56 -0.16,-5.77 -0.31,-10.05 -0.31,-12.85 -0.16,-1.48 0.62,-3.29 2.32,-5.43 1.23,-1.81 2.47,-3.46 3.71,-5.11 3.55,-5.76 6.03,-10.04 7.42,-12.84 2.31,-4.12 3.4,-6.09 3.4,-6.09 8.65,-13.34 15.3,-24.05 19.94,-32.28l0 -1.98z"/>
   <path class="fil0" d="M3403.32 4484.41l70.11 0c21.33,0 38.18,5.58 50.55,16.8 12.38,11.21 18.57,26.4 18.57,45.47 0,10.88 -2.82,22.21 -8.51,33.98 -5.69,11.71 -16.19,20.94 -31.49,27.62l59.56 88.63 -52.49 0 -55.25 -82.22 -5.31 0 0 82.22 -45.74 0 0 -212.5zm45.74 37.79l0 55.36 10.06 0c24.25,0 36.36,-9.78 36.36,-29.28 0,-8.01 -3.15,-14.37 -9.45,-19.06 -6.3,-4.7 -15.09,-7.02 -26.25,-7.02l-10.72 0zm221.78 -37.79l35.8 0 86.53 212.5 -46.08 0 -17.02 -41.78 -81.55 0 -16.69 41.78 -45.85 0 84.86 -212.5zm18.07 69.61l-25.03 62.66 50.56 0 -25.53 -62.66zm89.06 -69.61l46.36 0 53.59 141.22 53.49 -141.22 46.79 0 -80.49 212.5 -39.46 0 -80.28 -212.5zm228.36 0l119.67 0 0 42.1 -73.93 0 0 42.77 73.93 0 0 41.43 -73.93 0 0 44.09 73.93 0 0 42.11 -119.67 0 0 -212.5zm299.02 0l44.75 0 0 212.5 -44.31 0 -97.57 -137.58 0 137.58 -45.75 0 0 -212.5 45.19 0 97.69 136.58 0 -136.58z"/>
   <g>
    <g style="clip-path:url(#id2)">
     <image x="1234.94" y="5183" width="3217.44" height="875.31" xlink:href="00-las-durango_Images\00-las-durango_ImgID3.png"/>
    </g>
   </g>
   <path class="fil0" d="M2374.88 5354.42l-56.2 0 0 -37.46c0,-10.91 -0.59,-17.69 -1.77,-20.41 -1.18,-2.68 -3.82,-4.05 -7.87,-4.05 -4.54,0 -7.45,1.64 -8.68,4.91 -1.23,3.32 -1.86,10.41 -1.86,21.33l0 100.11c0,10.5 0.63,17.32 1.86,20.55 1.23,3.18 4,4.78 8.27,4.78 4.14,0 6.87,-1.6 8.14,-4.82 1.28,-3.19 1.91,-10.73 1.91,-22.6l0 -27.14 56.2 0 0 8.41c0,22.37 -1.59,38.24 -4.73,47.55 -3.14,9.37 -10.14,17.56 -20.91,24.6 -10.83,7.05 -24.1,10.55 -39.93,10.55 -16.41,0 -29.96,-2.95 -40.64,-8.91 -10.64,-5.96 -17.73,-14.19 -21.19,-24.74 -3.45,-10.54 -5.18,-26.37 -5.18,-47.51l0 -63.01c0,-15.55 0.54,-27.19 1.59,-34.97 1.09,-7.77 4.23,-15.27 9.55,-22.46 5.27,-7.18 12.59,-12.86 21.96,-17 9.36,-4.14 20.14,-6.19 32.32,-6.19 16.51,0 30.15,3.19 40.93,9.6 10.72,6.36 17.77,14.32 21.18,23.87 3.37,9.55 5.05,24.37 5.05,44.51l0 20.5zm148.04 32.38c0,21.68 -0.5,37.01 -1.55,46.01 -1,9.05 -4.18,17.28 -9.55,24.73 -5.36,7.46 -12.64,13.19 -21.78,17.19 -9.14,4 -19.77,6 -31.91,6 -11.55,0 -21.87,-1.91 -31.06,-5.68 -9.18,-3.78 -16.59,-9.41 -22.14,-16.96 -5.59,-7.55 -8.91,-15.78 -10,-24.64 -1.05,-8.92 -1.59,-24.46 -1.59,-46.65l0 -36.92c0,-21.69 0.5,-37.01 1.54,-46.01 1,-9.05 4.19,-17.28 9.55,-24.74 5.36,-7.45 12.64,-13.18 21.78,-17.18 9.14,-4.01 19.78,-6.01 31.92,-6.01 11.55,0 21.86,1.91 31.05,5.69 9.18,3.77 16.59,9.41 22.14,16.96 5.6,7.54 8.91,15.78 10.01,24.64 1.04,8.91 1.59,24.46 1.59,46.65l0 36.92zm-56.2 -70.88c0,-10.01 -0.55,-16.42 -1.64,-19.24 -1.09,-2.77 -3.32,-4.18 -6.68,-4.18 -2.87,0 -5.05,1.14 -6.59,3.41 -1.5,2.23 -2.28,8.91 -2.28,20.01l0 100.7c0,12.51 0.5,20.24 1.5,23.15 1,2.95 3.32,4.41 6.96,4.41 3.73,0 6.14,-1.69 7.18,-5.05 1.05,-3.36 1.55,-11.41 1.55,-24.1l0 -99.11zm77.29 -55.61l39.69 0c26.47,0 44.38,1 53.75,3.05 9.36,2.04 17,7.27 22.91,15.68 5.91,8.37 8.87,21.78 8.87,40.15 0,16.78 -2.09,28.05 -6.28,33.82 -4.13,5.78 -12.37,9.24 -24.64,10.37 11.09,2.78 18.6,6.46 22.42,11.1 3.81,4.59 6.18,8.86 7.09,12.73 0.95,3.86 1.41,14.5 1.41,31.91l0 56.97 -52.11 0 0 -71.79c0,-11.55 -0.91,-18.68 -2.72,-21.46 -1.78,-2.77 -6.51,-4.14 -14.19,-4.14l0 97.39 -56.2 0 0 -215.78zm56.2 36.83l0 48.01c6.27,0 10.64,-0.86 13.14,-2.59 2.5,-1.73 3.77,-7.37 3.77,-16.87l0 -11.87c0,-6.86 -1.22,-11.36 -3.63,-13.5 -2.41,-2.14 -6.87,-3.18 -13.28,-3.18zm90.7 -36.83l41.97 0c27.05,0 45.37,1.23 54.92,3.73 9.55,2.5 16.82,6.59 21.78,12.27 4.96,5.69 8.09,12.01 9.32,18.96 1.23,7 1.86,20.69 1.86,41.15l0 75.57c0,19.36 -0.91,32.32 -2.72,38.82 -1.82,6.55 -5,11.69 -9.5,15.37 -4.55,3.68 -10.15,6.23 -16.83,7.73 -6.63,1.45 -16.69,2.18 -30.1,2.18l-70.7 0 0 -215.78zm56.2 36.83l0 142.13c7.96,0 12.87,-1.64 14.69,-4.87 1.86,-3.27 2.77,-12.09 2.77,-26.51l0 -83.93c0,-9.77 -0.32,-16.05 -0.91,-18.82 -0.64,-2.77 -2,-4.77 -4.23,-6.05 -2.18,-1.32 -6.27,-1.95 -12.32,-1.95zm94.57 -36.83l93.57 0 0 43.1 -37.37 0 0 41.2 34.91 0 0 40.91 -34.91 0 0 47.47 41.19 0 0 43.1 -97.39 0 0 -215.78zm169.54 0l0 172.68 33.83 0 0 43.1 -90.02 0 0 -215.78 56.19 0zm103.76 0l0 215.78 -56.2 0 0 -215.78 56.2 0zm119.21 0l32.1 215.78 -57.33 0 -3.05 -38.73 -20.23 0 -3.05 38.73 -58.06 0 28.46 -215.78 81.16 0zm-29.78 138.85c-2.68,-24.46 -5.5,-54.74 -8.5,-90.88 -5.55,41.46 -9.05,71.74 -10.55,90.88l19.05 0zm147.44 -138.85l55.84 0c17.64,0 31,1.36 40.1,4.14 9.09,2.73 16.41,8.32 22,16.68 5.6,8.42 8.37,21.92 8.37,40.56 0,12.59 -1.96,21.37 -5.91,26.32 -3.96,5 -11.78,8.78 -23.42,11.46 13.01,2.96 21.83,7.82 26.46,14.6 4.64,6.82 6.96,17.23 6.96,31.32l0 20.01c0,14.59 -1.68,25.37 -5,32.42 -3.32,7 -8.59,11.82 -15.87,14.41 -7.27,2.59 -22.19,3.86 -44.74,3.86l-64.79 0 0 -215.78zm56.2 36.83l0 48.01c2.36,-0.09 4.18,-0.14 5.5,-0.14 5.37,0 8.82,-1.36 10.28,-4.04 1.5,-2.73 2.23,-10.51 2.23,-23.28 0,-6.78 -0.6,-11.51 -1.82,-14.23 -1.23,-2.69 -2.82,-4.41 -4.78,-5.14 -1.95,-0.68 -5.77,-1.09 -11.41,-1.18zm0 81.56l0 60.57c7.73,-0.28 12.69,-1.5 14.82,-3.73 2.14,-2.23 3.19,-7.73 3.19,-16.46l0 -20.19c0,-9.27 -0.96,-14.87 -2.87,-16.87 -1.91,-1.95 -6.96,-3.04 -15.14,-3.32zm191.23 -118.39l32.1 215.78 -57.33 0 -3.05 -38.73 -20.23 0 -3.05 38.73 -58.06 0 28.46 -215.78 81.16 0zm-29.78 138.85c-2.68,-24.46 -5.5,-54.74 -8.5,-90.88 -5.55,41.46 -9.05,71.74 -10.55,90.88l19.05 0zm71.52 -138.85l39.69 0c26.46,0 44.37,1 53.74,3.05 9.37,2.04 17.01,7.27 22.92,15.68 5.91,8.37 8.86,21.78 8.86,40.15 0,16.78 -2.09,28.05 -6.27,33.82 -4.14,5.78 -12.37,9.24 -24.64,10.37 11.09,2.78 18.59,6.46 22.41,11.1 3.82,4.59 6.18,8.86 7.09,12.73 0.96,3.86 1.41,14.5 1.41,31.91l0 56.97 -52.1 0 0 -71.79c0,-11.55 -0.91,-18.68 -2.73,-21.46 -1.77,-2.77 -6.5,-4.14 -14.19,-4.14l0 97.39 -56.19 0 0 -215.78zm56.19 36.83l0 48.01c6.28,0 10.64,-0.86 13.15,-2.59 2.5,-1.73 3.77,-7.37 3.77,-16.87l0 -11.87c0,-6.86 -1.23,-11.36 -3.64,-13.5 -2.41,-2.14 -6.87,-3.18 -13.28,-3.18zm90.71 -36.83l55.83 0c17.64,0 31.01,1.36 40.1,4.14 9.1,2.73 16.42,8.32 22.01,16.68 5.59,8.42 8.36,21.92 8.36,40.56 0,12.59 -1.95,21.37 -5.91,26.32 -3.95,5 -11.77,8.78 -23.41,11.46 13,2.96 21.82,7.82 26.46,14.6 4.64,6.82 6.96,17.23 6.96,31.32l0 20.01c0,14.59 -1.69,25.37 -5,32.42 -3.32,7 -8.6,11.82 -15.87,14.41 -7.28,2.59 -22.19,3.86 -44.74,3.86l-64.79 0 0 -215.78zm56.2 36.83l0 48.01c2.36,-0.09 4.18,-0.14 5.5,-0.14 5.36,0 8.82,-1.36 10.27,-4.04 1.5,-2.73 2.23,-10.51 2.23,-23.28 0,-6.78 -0.59,-11.51 -1.82,-14.23 -1.23,-2.69 -2.82,-4.41 -4.77,-5.14 -1.96,-0.68 -5.78,-1.09 -11.41,-1.18zm0 81.56l0 60.57c7.72,-0.28 12.68,-1.5 14.82,-3.73 2.14,-2.23 3.18,-7.73 3.18,-16.46l0 -20.19c0,-9.27 -0.95,-14.87 -2.86,-16.87 -1.91,-1.95 -6.96,-3.04 -15.14,-3.32zm191.23 -118.39l32.09 215.78 -57.33 0 -3.04 -38.73 -20.24 0 -3.04 38.73 -58.06 0 28.46 -215.78 81.16 0zm-29.78 138.85c-2.69,-24.46 -5.51,-54.74 -8.51,-90.88 -5.54,41.46 -9.04,71.74 -10.54,90.88l19.05 0zm71.51 -138.85l39.69 0c26.47,0 44.38,1 53.75,3.05 9.36,2.04 17,7.27 22.91,15.68 5.91,8.37 8.87,21.78 8.87,40.15 0,16.78 -2.09,28.05 -6.28,33.82 -4.13,5.78 -12.36,9.24 -24.64,10.37 11.1,2.78 18.6,6.46 22.42,11.1 3.82,4.59 6.18,8.86 7.09,12.73 0.96,3.86 1.41,14.5 1.41,31.91l0 56.97 -52.11 0 0 -71.79c0,-11.55 -0.9,-18.68 -2.72,-21.46 -1.78,-2.77 -6.51,-4.14 -14.19,-4.14l0 97.39 -56.2 0 0 -215.78zm56.2 36.83l0 48.01c6.27,0 10.64,-0.86 13.14,-2.59 2.5,-1.73 3.77,-7.37 3.77,-16.87l0 -11.87c0,-6.86 -1.22,-11.36 -3.63,-13.5 -2.41,-2.14 -6.87,-3.18 -13.28,-3.18zm187.5 -36.83l32.1 215.78 -57.33 0 -3.05 -38.73 -20.23 0 -3.05 38.73 -58.06 0 28.46 -215.78 81.16 0zm-29.78 138.85c-2.68,-24.46 -5.5,-54.74 -8.5,-90.88 -5.55,41.46 -9.05,71.74 -10.55,90.88l19.05 0zm-941.94 -32.85l-9.57 79.43c-1.53,12.59 -2.8,21.18 -3.81,25.75 -1.02,4.57 -2.71,8.36 -5.08,11.32 -2.35,3 -5.65,5.17 -9.86,6.58 -4.21,1.41 -10.96,2.12 -20.19,2.12l-20.24 0 0 -17.62c5.19,0 8.52,-0.25 9.99,-0.79 1.5,-0.51 2.26,-1.69 2.26,-3.5 0,-0.91 -0.7,-4.72 -2.09,-11.49l-18.3 -91.8 30.3 0 10.96 74.24 5.39 -74.24 30.24 0zm-1922.11 152.04l0 365.87 71.67 0 0 91.33 -190.74 0 0 -457.2 119.07 0zm320.21 0l68.01 457.2 -121.48 0 -6.45 -82.08 -42.87 0 -6.46 82.08 -123.01 0 60.3 -457.2 171.96 0zm-63.1 294.2c-5.69,-51.83 -11.66,-115.98 -18.02,-192.57 -11.75,87.86 -19.17,152.02 -22.35,192.57l40.37 0zm402.96 -155.48l-110.4 0 0 -33.81c0,-15.8 -1.44,-25.92 -4.24,-30.25 -2.79,-4.34 -7.42,-6.45 -13.97,-6.45 -7.13,0 -12.52,2.89 -16.18,8.76 -3.66,5.78 -5.49,14.55 -5.49,26.4 0,15.22 2.12,26.68 6.26,34.39 4.05,7.61 15.22,16.95 33.62,27.93 52.69,31.5 85.93,57.42 99.61,77.55 13.77,20.13 20.61,52.6 20.61,97.3 0,32.56 -3.85,56.54 -11.46,72.05 -7.61,15.42 -22.25,28.33 -44.12,38.73 -21.77,10.5 -47.11,15.7 -76.1,15.7 -31.8,0 -58.86,-6.07 -81.41,-18.11 -22.44,-12.04 -37.08,-27.36 -44.12,-45.95 -6.93,-18.69 -10.4,-45.18 -10.4,-79.38l0 -29.96 110.4 0 0 55.59c0,17.14 1.54,28.13 4.62,33.04 3.08,4.91 8.58,7.32 16.47,7.32 7.9,0 13.78,-3.08 17.63,-9.34 3.86,-6.17 5.78,-15.42 5.78,-27.55 0,-26.88 -3.66,-44.51 -10.98,-52.7 -7.61,-8.28 -26.1,-22.16 -55.58,-41.61 -29.48,-19.56 -48.94,-33.82 -58.57,-42.68 -9.54,-8.86 -17.54,-21.1 -23.8,-36.7 -6.26,-15.61 -9.44,-35.55 -9.44,-59.82 0,-34.97 4.43,-60.6 13.39,-76.78 8.96,-16.19 23.31,-28.81 43.26,-37.96 19.94,-9.15 43.92,-13.68 72.15,-13.68 30.82,0 57.03,5.01 78.8,14.94 21.67,10.01 36.03,22.54 43.06,37.76 7.03,15.12 10.6,40.84 10.6,77.16l0 18.11zm149.41 -138.72l88.91 0c57.32,0 96.14,2.6 116.37,7.9 20.23,5.3 35.65,13.97 46.15,26.01 10.5,12.04 17.14,25.43 19.74,40.17 2.6,14.84 3.95,43.83 3.95,87.18l0 160.11c0,41.04 -1.92,68.49 -5.78,82.26 -3.85,13.88 -10.59,24.76 -20.13,32.57 -9.63,7.8 -21.48,13.19 -35.64,16.37 -14.07,3.08 -35.36,4.63 -63.78,4.63l-149.79 0 0 -457.2zm119.07 78.03l0 301.14c16.85,0 27.26,-3.47 31.11,-10.31 3.95,-6.94 5.88,-25.62 5.88,-56.16l0 -177.83c0,-20.72 -0.68,-34.01 -1.93,-39.88 -1.35,-5.88 -4.24,-10.12 -8.96,-12.82 -4.62,-2.79 -13.29,-4.14 -26.1,-4.14zm470.29 -78.03l0 305.67c0,34.67 -1.16,59.05 -3.37,73.01 -2.31,14.07 -8.96,28.52 -20.04,43.26 -11.08,14.83 -25.72,26.01 -43.83,33.62 -18.21,7.61 -39.59,11.46 -64.25,11.46 -27.26,0 -51.35,-4.53 -72.16,-13.58 -20.9,-9.06 -36.5,-20.81 -46.81,-35.26 -10.41,-14.55 -16.48,-29.86 -18.4,-45.95 -1.83,-16.09 -2.8,-50 -2.8,-101.53l0 -270.7 119.07 0 0 342.94c0,19.95 1.06,32.76 3.18,38.25 2.12,5.59 6.45,8.38 12.91,8.38 7.32,0 12.14,-3.08 14.25,-9.15 2.12,-6.17 3.19,-20.62 3.19,-43.35l0 -337.07 119.06 0zm46.14 0l84.1 0c56.07,0 94.02,2.12 113.87,6.46 19.84,4.33 36.02,15.41 48.55,33.23 12.52,17.73 18.78,46.14 18.78,85.06 0,35.55 -4.43,59.44 -13.29,71.67 -8.77,12.24 -26.2,19.56 -52.21,21.97 23.5,5.87 39.4,13.68 47.49,23.5 8.09,9.73 13.1,18.79 15.03,26.98 2.02,8.19 2.98,30.72 2.98,67.62l0 120.71 -110.39 0 0 -152.11c0,-24.47 -1.93,-39.6 -5.78,-45.47 -3.76,-5.88 -13.78,-8.77 -30.06,-8.77l0 206.35 -119.07 0 0 -457.2zm119.07 78.03l0 101.73c13.29,0 22.54,-1.83 27.84,-5.49 5.3,-3.66 8,-15.61 8,-35.74l0 -25.14c0,-14.55 -2.6,-24.09 -7.71,-28.62 -5.11,-4.52 -14.55,-6.74 -28.13,-6.74zm397.28 -78.03l68.01 457.2 -121.48 0 -6.45 -82.08 -42.87 0 -6.46 82.08 -123.01 0 60.3 -457.2 171.96 0zm-63.1 294.2c-5.69,-51.83 -11.66,-115.98 -18.02,-192.57 -11.75,87.86 -19.17,152.02 -22.35,192.57l40.37 0zm416.83 -294.2l0 457.2 -104.04 0 -61.85 -207.89 0 207.89 -99.41 0 0 -457.2 99.41 0 66.47 205.86 0 -205.86 99.42 0zm319.92 168.78l-119.07 0 0 -41.52c0,-26.2 -1.06,-42.58 -3.27,-49.13 -2.22,-6.65 -7.52,-9.92 -15.8,-9.92 -7.13,0 -12.05,2.79 -14.65,8.47 -2.6,5.59 -3.85,20.14 -3.85,43.45l0 219.25c0,20.42 1.25,34.01 3.85,40.46 2.6,6.45 7.71,9.73 15.42,9.73 8.48,0 14.16,-3.66 17.24,-10.98 2.99,-7.32 4.53,-21.68 4.53,-42.97l0 -54.14 -23.12 0 0 -69.35 138.72 0 0 245.07 -74.85 0 -10.99 -32.76c-8.09,14.16 -18.3,24.76 -30.53,31.89 -12.33,7.13 -26.88,10.69 -43.54,10.69 -19.94,0 -38.54,-4.82 -55.97,-14.54 -17.34,-9.73 -30.54,-21.68 -39.5,-36.03 -9.06,-14.26 -14.64,-29.29 -16.95,-44.99 -2.22,-15.7 -3.38,-39.3 -3.38,-70.71l0 -135.83c0,-43.64 2.32,-75.33 7.04,-95.08 4.72,-19.84 18.2,-37.95 40.46,-54.42 22.25,-16.48 51.05,-24.67 86.41,-24.67 34.77,0 63.57,7.13 86.5,21.49 22.93,14.35 37.96,31.31 44.89,50.96 6.94,19.74 10.41,48.26 10.41,85.83l0 19.75zm317.51 99.22c0,45.95 -1.06,78.41 -3.28,97.49 -2.12,19.17 -8.86,36.6 -20.23,52.4 -11.36,15.8 -26.78,27.94 -46.14,36.42 -19.36,8.47 -41.9,12.71 -67.63,12.71 -24.46,0 -46.33,-4.04 -65.79,-12.04 -19.46,-8 -35.16,-19.94 -46.91,-35.93 -11.85,-15.99 -18.89,-33.43 -21.2,-52.22 -2.21,-18.87 -3.37,-51.82 -3.37,-98.83l0 -78.22c0,-45.95 1.06,-78.42 3.28,-97.49 2.12,-19.17 8.86,-36.61 20.23,-52.41 11.36,-15.8 26.78,-27.93 46.14,-36.41 19.36,-8.48 41.9,-12.72 67.62,-12.72 24.47,0 46.34,4.05 65.8,12.05 19.46,7.99 35.16,19.94 46.92,35.93 11.84,15.99 18.88,33.43 21.19,52.21 2.21,18.88 3.37,51.83 3.37,98.84l0 78.22zm-119.07 -150.18c0,-21.2 -1.15,-34.78 -3.47,-40.75 -2.31,-5.88 -7.03,-8.86 -14.16,-8.86 -6.06,0 -10.69,2.4 -13.97,7.22 -3.17,4.72 -4.81,18.88 -4.81,42.39l0 213.37c0,26.49 1.06,42.87 3.18,49.04 2.12,6.26 7.03,9.34 14.74,9.34 7.9,0 13,-3.56 15.22,-10.69 2.21,-7.13 3.27,-24.18 3.27,-51.06l0 -210z"/>
   <rect class="fil1" x="2503.75" y="4967.47" width="1854.08" height="255.2"/>
   <path class="fil0" d="M2738.59 5068.54l-32.71 119.48 47.58 0 47.37 -174.88 -42.7 0c-5.52,0 -10.9,1.45 -16.14,4.35 -5.24,2.89 -9.7,6.84 -13.38,11.85l-30.37 42.25 -7.02 -40.14c-0.56,-2.81 -1.59,-5.32 -3.07,-7.51 -1.49,-2.19 -3.3,-4.1 -5.42,-5.75 -2.12,-1.64 -4.46,-2.89 -7.01,-3.75 -2.55,-0.86 -5.1,-1.3 -7.65,-1.3l-47.58 0 -47.58 174.88 46.95 0 33.13 -121.59 14.44 83.56 10.41 0 60.75 -81.45zm81.36 -56.1l-36.96 133.1c-1.14,7.04 -1.14,13.02 0,17.95 1.13,4.93 3.08,9.08 5.84,12.44 2.76,3.37 6.16,6.03 10.19,7.98 4.04,1.96 8.39,3.45 13.07,4.46 4.67,1.02 9.56,1.65 14.65,1.88 5.1,0.24 10.06,0.35 14.87,0.35 6.52,0 13.77,-0.23 21.77,-0.7 8.01,-0.47 15.93,-1.84 23.79,-4.11 7.86,-2.27 15.23,-5.79 22.09,-10.56 6.87,-4.77 12.43,-11.47 16.68,-20.07l39.3 -142.95 -47.8 0c-0.42,0 -0.7,0.07 -0.85,0.23l-34.41 125.11c-1.55,3.45 -3.4,6.26 -5.52,8.45 -2.12,2.19 -4.53,3.96 -7.22,5.28 -2.69,1.33 -5.52,2.31 -8.5,2.94 -2.97,0.63 -6.09,1.1 -9.35,1.41 -3.11,-0.47 -6.12,-1.1 -9.02,-1.88 -2.9,-0.78 -5.38,-1.92 -7.44,-3.4 -2.05,-1.49 -3.54,-3.33 -4.46,-5.52 -0.92,-2.19 -0.88,-4.85 0.11,-7.98l34.2 -124.41 -45.03 0zm173.32 123.71c1.28,-13.15 3.75,-26.02 7.43,-38.62 3.69,-12.6 8.5,-24.61 14.45,-36.03 0.99,-2.03 2.41,-3.72 4.25,-5.05 1.84,-1.33 3.82,-1.99 5.95,-1.99l70.3 0 11.47 -42.02 -93.88 0c-7.93,0 -15.01,1.96 -21.24,5.87 -6.23,3.91 -11.79,9.11 -16.68,15.61 -4.88,6.49 -9.1,13.89 -12.64,22.18 -3.54,8.29 -6.62,16.78 -9.24,25.47 -2.61,8.69 -4.77,17.25 -6.47,25.7 -1.7,8.45 -3.12,15.97 -4.25,22.54 -0.99,5.94 -1.28,12.28 -0.85,19.01 0.42,6.73 1.7,12.99 3.82,18.78 2.12,5.79 5.28,10.72 9.45,14.79 4.18,4.07 9.6,6.49 16.25,7.28 29.6,3.59 59.12,2.89 88.58,-2.12l11.26 -43.42c-11.61,2.5 -23.33,3.79 -35.16,3.87 -11.82,0.08 -23.68,-0.82 -35.58,-2.7 -2.12,-0.47 -3.92,-1.56 -5.41,-3.29 -1.49,-1.72 -2.09,-3.67 -1.81,-5.86zm169.29 51.64l48.01 0 48 -174.88 -47.58 0 -14.02 50.7 -34.62 0 13.81 -50.47 -47.37 0 -14.87 53.52c-5.67,1.41 -10.65,3.68 -14.97,6.81 -4.33,3.13 -8.29,6.96 -11.9,11.5 -3.61,4.54 -7.01,9.74 -10.2,15.61 -3.18,5.87 -6.47,12.33 -9.87,19.37 -0.29,1.09 0.11,1.8 1.16,2.11 1.07,0.31 1.95,-0.08 2.66,-1.17 3.54,-4.54 8.07,-8.3 13.6,-11.27 5.52,-2.97 12.03,-5.32 19.54,-7.04l-23.58 85.44 47.79 0 24.01 -87.32 34.62 0 -24.22 87.09zm254.47 -136.85l0 -6.34c-1.84,-8.45 -5.31,-14.91 -10.41,-19.37 -5.1,-4.46 -10.94,-7.7 -17.52,-9.74 -6.59,-2.03 -13.52,-3.21 -20.82,-3.52 -7.29,-0.31 -14.05,-0.47 -20.28,-0.47 -12.61,0 -23.37,1.06 -32.29,3.17 -8.92,2.11 -16.32,4.85 -22.2,8.22 -5.88,3.36 -10.47,7.08 -13.8,11.15 -3.33,4.06 -5.7,8.06 -7.12,11.97 -2.69,7.2 -5.38,14.9 -8.07,23.12 -2.69,8.21 -5.2,16.63 -7.54,25.23 -2.34,8.61 -4.39,17.25 -6.16,25.94 -1.77,8.68 -3.01,17.1 -3.72,25.24 -0.56,7.04 -0.03,13.02 1.59,17.95 1.63,4.93 4.08,9.08 7.33,12.44 3.26,3.37 7.12,6.03 11.58,7.98 4.46,1.96 9.24,3.45 14.34,4.46 5.1,1.02 10.26,1.65 15.5,1.88 5.24,0.24 10.27,0.35 15.08,0.35 6.66,0 13.28,-0.31 19.87,-0.93 6.58,-0.63 13.2,-1.57 19.85,-2.82 8.22,-1.57 15.79,-5.09 22.73,-10.57 6.94,-5.47 12.18,-12.52 15.72,-21.12 6.66,-16.9 12.11,-34 16.36,-51.29 4.25,-17.29 7.57,-34.94 9.98,-52.93zm-72.22 89.67c-0.71,3.6 -2.27,6.41 -4.67,8.45 -2.41,2.03 -5.21,3.52 -8.4,4.46 -3.18,0.93 -6.51,1.52 -9.98,1.76 -3.46,0.23 -6.55,0.35 -9.24,0.35 -2.83,0.31 -5.45,0.07 -7.85,-0.71 -2.41,-0.78 -4.4,-1.99 -5.95,-3.64 -1.56,-1.64 -2.66,-3.67 -3.29,-6.1 -0.64,-2.42 -0.61,-5.2 0.1,-8.33 2.55,-13.3 5.66,-26.45 9.35,-39.44 3.68,-12.98 7.64,-25.58 11.89,-37.79 0.99,-2.97 2.55,-5.36 4.68,-7.16 2.12,-1.8 4.49,-3.21 7.11,-4.22 2.62,-1.02 5.35,-1.68 8.18,-2 2.83,-0.31 5.45,-0.47 7.86,-0.47 2.12,0 4.67,0.16 7.64,0.47 2.98,0.32 5.71,0.98 8.18,2 2.48,1.01 4.43,2.58 5.84,4.69 1.42,2.11 1.77,4.97 1.07,8.57 -2.41,13.61 -5.53,26.95 -9.35,40.02 -3.82,13.07 -8.21,26.1 -13.17,39.09zm184.16 47.41l20.39 -73.7 28.04 73.7 45.46 0 -41.42 -95.3 82.41 -80.28 -44.6 0 -58.63 60.56 16.78 -60.56 -46.73 0 -48.43 175.58 46.73 0zm222.39 -37.09l0 37.09 43.97 0 0 -175.11 -45.88 0c-0.99,0 -2.76,0.23 -5.31,0.71 -2.55,0.46 -5.59,1.79 -9.13,3.98 -3.54,2.2 -7.4,5.52 -11.58,9.98 -4.18,4.46 -8.46,10.68 -12.85,18.66l-76.89 141.78 49.92 0 19.11 -37.09 48.64 0zm-32.5 -31.69l33.35 -65.96 0 65.96 -33.35 0zm90.49 68.78l48.01 0 47.79 -174.88 -47.37 0 -48.43 174.88zm123.84 0l20.39 -73.7 28.04 73.7 45.45 0 -41.42 -95.3 82.42 -80.28 -44.61 0 -58.63 60.56 16.79 -60.56 -46.73 0 -48.43 175.58 46.73 0zm222.39 -37.09l0 37.09 43.97 0 0 -175.11 -45.88 0c-0.99,0 -2.77,0.23 -5.31,0.71 -2.55,0.46 -5.6,1.79 -9.14,3.98 -3.54,2.2 -7.4,5.52 -11.57,9.98 -4.18,4.46 -8.47,10.68 -12.85,18.66l-76.9 141.78 49.92 0 19.12 -37.09 48.64 0zm-32.5 -31.69l33.35 -65.96 0 65.96 -33.35 0zm90.49 68.78l48 0 47.79 -174.88 -47.37 0 -48.42 174.88z"/>
   <path class="fil1" d="M1303.44 571.65c1.29,112.74 -35.14,208.31 -109.3,286.88 -74.16,78.39 -165.08,118.01 -272.77,118.69l-239.88 2.05 0 -810.14 237.95 0c106.4,0 196.67,39.11 270.83,117.16 74.16,78.23 111.88,173.29 113.17,285.36zm-130.58 1.02c-0.64,-74.66 -25.31,-137.58 -73.99,-188.93 -48.69,-51.19 -108.5,-76.87 -179.43,-76.87l-107.37 0 0 532.61 108.33 0c70.94,-0.68 130.91,-26.7 179.92,-77.89 49,-51.35 73.19,-114.27 72.54,-188.92zm399.98 11.39c-35.47,0 -65.78,13.09 -90.93,39.28 -25.14,26.19 -37.72,57.82 -37.72,95.23l0 257.63 -130.58 0 0 -257.63c0,-76.01 25.15,-140.29 75.44,-193.01 50.3,-52.55 111.56,-78.9 183.79,-78.9l0 137.4zm592.46 392.14l-138.81 0 -27.41 -79.58c-51.58,63.94 -117.36,95.91 -197.48,95.91 -72.22,0 -133.32,-26.53 -183.3,-79.59 -49.97,-53.05 -74.96,-117.33 -74.96,-192.84 0,-57.82 15.48,-110.02 46.43,-156.62 30.95,-46.59 72.22,-79.75 123.81,-99.48 30.31,-11.56 59.97,-17.34 88.99,-17.34 54.81,0 104.3,16.49 148.48,49.48 44.16,32.99 75.6,76.7 94.3,131.11l119.95 348.95zm-235.05 -256.61c0,-47.78 -18.38,-85.02 -55.14,-111.55 -21.28,-15.82 -45.78,-23.64 -73.51,-23.64 -45.14,0 -79.96,19.05 -104.46,57.31 -15.48,23.98 -23.22,49.82 -23.22,77.88 0,47.11 18.38,84.01 55.14,110.54 22.57,16.49 46.75,24.66 72.54,24.66 35.47,0 65.77,-13.1 90.92,-39.46 25.16,-26.19 37.73,-58.16 37.73,-95.74zm725.94 392.32c0,97.95 -38.04,173.45 -114.14,226.51 -43.85,30.61 -91.89,45.91 -144.12,45.91 -91.57,0 -163.15,-40.47 -214.73,-121.42 -29.67,-46.93 -44.5,-97.27 -44.5,-151 0,-35.37 6.45,-69.38 19.35,-102.04l120.91 51.02c-6.45,16.32 -9.68,33.33 -9.68,51.02 0,37.41 12.58,69.21 37.73,95.4 25.15,26.19 55.45,39.28 90.92,39.28 34.82,0 64.8,-13.27 89.95,-39.96 25.16,-26.7 37.73,-58.33 37.73,-95.24 0,-60.02 -26.76,-102.03 -80.12,-126 -16.12,4.08 -32.09,6.12 -48.21,6.12 -72.7,0 -133.96,-26.36 -183.78,-79.08 -49.81,-52.71 -74.8,-117.5 -74.8,-194.37 0,-76.18 24.99,-140.63 75.13,-193.35 50.13,-52.72 111.23,-79.07 183.13,-79.07l75.45 -188.76 103.34 46.25 -68.68 169.03c45.46,23.13 81.73,56.8 108.66,101.02 26.92,44.21 40.46,92.51 40.46,144.88 0,77.55 -26.76,142.85 -80.28,195.9 53.52,53.74 80.28,119.72 80.28,197.95zm-130.58 -393.85c0,-36.73 -12.57,-68.36 -37.73,-94.89 -25.15,-26.53 -55.13,-39.79 -89.95,-39.79 -35.47,0 -65.77,13.09 -90.92,39.28 -25.15,26.19 -37.73,57.99 -37.73,95.4 0,37.41 12.58,69.38 37.73,95.91 25.15,26.53 55.45,39.79 90.92,39.79 35.47,0 65.61,-13.26 90.44,-39.79 24.83,-26.53 37.24,-58.5 37.24,-95.91zm547 -271.4l-238.92 529.54 -241.82 -529.54 154.77 0 88.02 217.32 88.02 -217.32 149.93 0zm454.14 271.57c0,13.43 -0.97,27.04 -2.9,40.64l-378.21 0c8.39,28.57 23.86,51.53 46.43,68.88 22.57,17.34 48.04,26.01 76.42,26.01 39.33,0 71.9,-15.98 97.69,-47.95l79.32 111.22c-49.65,49.65 -108.66,74.48 -177.01,74.48 -72.87,0 -134.29,-26.36 -184.27,-78.91 -49.98,-52.71 -74.96,-117.33 -74.96,-194.03 0,-76.01 25.15,-140.29 75.45,-193.01 50.29,-52.55 111.56,-78.9 183.78,-78.9 72.22,0 133.32,26.18 183.3,78.73 49.97,52.55 74.96,116.83 74.96,192.84zm-146.06 -62.41c-23.86,-47.61 -61.26,-71.42 -112.2,-71.42 -51.59,0 -89.31,23.81 -113.17,71.42l225.37 0zm511.21 163.93c0,32.65 -10.32,62.24 -30.95,88.94 -41.27,53.23 -99.96,78.74 -176.05,76.7 -30.3,-0.68 -63.35,-7.83 -99.14,-21.43 -35.79,-13.6 -64.97,-30.61 -87.54,-51.02l72.55 -98.97c34.82,34.69 71.9,52.04 111.23,52.04l2.9 0c16.13,0 30.63,-3.06 43.53,-9.18 16.77,-8.17 25.15,-19.73 25.15,-34.7l0 -4.08c-1.93,-15.64 -11.93,-26.87 -29.98,-33.67 -7.1,-1.36 -22.25,-4.42 -45.47,-9.18 -29.01,-6.12 -53.52,-13.61 -73.51,-22.45 -58.68,-26.53 -88.02,-73.12 -88.02,-139.78 0,-63.94 29.98,-111.9 89.95,-143.87 26.44,-14.28 55.14,-21.76 86.09,-22.44 32.25,-0.69 65.78,5.1 100.6,17.34 39.98,14.28 68.35,32.99 85.12,56.12l-87.06 82.64c-22.57,-24.48 -47.07,-36.73 -73.51,-36.73 -41.27,0 -61.91,14.29 -61.91,43.03l0 2.04c0,13.6 16.77,25.17 50.3,34.69 2.59,0.68 23.86,5.1 63.84,13.26 81.26,16.5 121.88,68.87 121.88,157.64l0 3.06zm260.69 156.45c-72.23,0 -133.49,-26.36 -183.79,-78.9 -50.3,-52.72 -75.44,-117.17 -75.44,-193.18l0 -534.99 130.58 0 0 277.53 128.65 0 0 117.33 -128.65 0 0 139.79c0,37.41 12.57,69.21 37.72,95.4 25.15,26.19 55.46,39.28 90.93,39.28l0 137.74zm170.72 -646.88c0,23.13 -7.41,42.68 -22.25,58.67 -14.83,15.98 -33.2,23.98 -55.13,23.98 -21.92,0 -40.46,-8 -55.62,-23.98 -15.15,-15.99 -22.73,-35.54 -22.73,-58.67 0,-23.13 7.58,-42.51 22.73,-58.16 15.16,-15.65 33.7,-23.47 55.62,-23.47 21.28,0 39.5,7.99 54.65,23.98 15.15,15.99 22.73,35.2 22.73,57.65zm-11.61 646.88l-130.58 0 0 -529.54 130.58 0 0 529.54z"/>
  </g>
 </g>
</svg>
