<?xml version="1.0" encoding="UTF-8"?>
<!DOCTYPE svg PUBLIC "-//W3C//DTD SVG 1.1//EN" "http://www.w3.org/Graphics/SVG/1.1/DTD/svg11.dtd">
<!-- Creator: CorelDRAW 2017 -->
<svg xmlns="http://www.w3.org/2000/svg" xml:space="preserve" width="49.6992mm" height="62.3146mm" version="1.1" style="shape-rendering:geometricPrecision; text-rendering:geometricPrecision; image-rendering:optimizeQuality; fill-rule:evenodd; clip-rule:evenodd"
viewBox="0 0 4969.92 6231.46"
 xmlns:xlink="http://www.w3.org/1999/xlink">
 <defs>
  <style type="text/css">
   <![CDATA[
    .fil1 {fill:#FEFEFE}
    .fil2 {fill:#2B2A29}
    .fil3 {fill:#521615}
    .fil0 {fill:#771F1E}
   ]]>
  </style>
    <clipPath id="id0">
     <path d="M4455.79 1662.99l-3952.19 0 0.16 -1603.73 3966.63 0 -14.6 1603.73z"/>
    </clipPath>
    <clipPath id="id1">
     <rect x="499.52" y="1383.87" width="2797.26" height="4788.32"/>
    </clipPath>
     <clipPath id="id2">
      <rect x="499.52" y="1383.87" width="2797.26" height="4788.32"/>
     </clipPath>
    <clipPath id="id3">
     <rect x="2479.07" y="1369.5" width="1983.84" height="4802.69"/>
    </clipPath>
     <clipPath id="id4">
      <rect transform="matrix(-0.0958383 -0 -0 0.0956427 4462.91 1369.5)" width="20699.91" height="50214.84"/>
     </clipPath>
 </defs>
 <g id="Capa_x0020_1">
  <metadata id="CorelCorpID_0Corel-Layer"/>
  <g id="_2607409259744">
   <g style="clip-path:url(#id0)">
    <image transform="matrix(-0.190928 -0 -0 -1.02218 6104.93 1662.98)" x="0" y="0" width="37824.82" height="50440.16" xlink:href="01-joane-buttons-drag-queen_Images\01-joane-buttons-drag-queen_ImgID1.png"/>
   </g>
   <path class="fil0" d="M1265.62 546.79c1.29,112.88 -35.26,208.56 -109.66,287.22 -74.39,78.49 -165.61,118.16 -273.65,118.84l-240.66 2.04 0 -811.1 238.72 0c106.74,0 197.31,39.16 271.71,117.31 74.4,78.32 112.24,173.49 113.54,285.69zm-131 1.02c-0.65,-74.74 -25.4,-137.74 -74.24,-189.15 -48.85,-51.25 -108.85,-76.96 -180.01,-76.96l-107.72 0 0 533.24 108.69 0c71.16,-0.68 131.33,-26.73 180.49,-77.98 49.17,-51.41 73.43,-114.41 72.79,-189.15zm401.26 11.41c-35.58,0 -65.98,13.11 -91.22,39.32 -25.22,26.23 -37.84,57.89 -37.84,95.35l0 257.94 -131 0 0 -257.94c0,-76.1 25.23,-140.46 75.69,-193.24 50.46,-52.61 111.92,-79 184.37,-79l0 137.57zm594.38 392.61l-139.25 0 -27.5 -79.68c-51.75,64.01 -117.74,96.02 -198.12,96.02 -72.46,0 -133.76,-26.56 -183.89,-79.68 -50.14,-53.12 -75.21,-117.48 -75.21,-193.07 0,-57.89 15.53,-110.15 46.58,-156.8 31.05,-46.65 72.46,-79.85 124.21,-99.6 30.41,-11.58 60.17,-17.37 89.28,-17.37 54.99,0 104.64,16.52 148.96,49.54 44.31,33.03 75.85,76.79 94.61,131.27l120.33 349.37zm-235.81 -256.92c0,-47.84 -18.43,-85.13 -55.31,-111.69 -21.35,-15.83 -45.93,-23.66 -73.75,-23.66 -45.29,0 -80.22,19.07 -104.8,57.37 -15.53,24.01 -23.3,49.89 -23.3,77.98 0,47.16 18.44,84.11 55.32,110.67 22.64,16.51 46.9,24.69 72.78,24.69 35.58,0 65.98,-13.12 91.22,-39.51 25.23,-26.21 37.84,-58.22 37.84,-95.85zm728.3 392.78c0,98.07 -38.17,173.66 -114.51,226.78 -43.99,30.65 -92.19,45.97 -144.59,45.97 -91.87,0 -163.68,-40.52 -215.43,-121.56 -29.76,-46.99 -44.64,-97.39 -44.64,-151.19 0,-35.41 6.47,-69.46 19.41,-102.15l121.3 51.07c-6.47,16.35 -9.71,33.37 -9.71,51.08 0,37.46 12.62,69.3 37.85,95.52 25.23,26.22 55.63,39.32 91.22,39.32 34.93,0 65.01,-13.28 90.24,-40.01 25.24,-26.73 37.85,-58.39 37.85,-95.34 0,-60.1 -26.85,-102.15 -80.38,-126.16 -16.18,4.09 -32.19,6.13 -48.36,6.13 -72.94,0 -134.4,-26.39 -184.38,-79.17 -49.97,-52.78 -75.04,-117.64 -75.04,-194.6 0,-76.28 25.07,-140.8 75.37,-193.58 50.3,-52.78 111.59,-79.17 183.73,-79.17l75.69 -188.99 103.67 46.31 -68.9 169.24c45.61,23.15 82,56.86 109.01,101.13 27.01,44.27 40.6,92.62 40.6,145.06 0,77.63 -26.85,143.01 -80.55,196.13 53.7,53.8 80.55,119.86 80.55,198.18zm-131.01 -394.31c0,-36.78 -12.61,-68.45 -37.85,-95 -25.23,-26.56 -55.31,-39.84 -90.24,-39.84 -35.59,0 -65.99,13.11 -91.22,39.33 -25.23,26.21 -37.85,58.05 -37.85,95.51 0,37.45 12.62,69.46 37.85,96.02 25.23,26.56 55.63,39.84 91.22,39.84 35.58,0 65.82,-13.28 90.73,-39.84 24.91,-26.56 37.36,-58.57 37.36,-96.02zm548.77 -271.73l-239.69 530.18 -242.6 -530.18 155.26 0 88.31 217.59 88.31 -217.59 150.41 0zm455.61 271.9c0,13.45 -0.97,27.07 -2.91,40.69l-379.43 0c8.41,28.6 23.94,51.59 46.58,68.95 22.64,17.37 48.2,26.05 76.66,26.05 39.47,0 72.14,-16 98.01,-48.01l79.58 111.35c-49.82,49.71 -109.01,74.57 -177.59,74.57 -73.1,0 -134.72,-26.39 -184.86,-79 -50.14,-52.78 -75.2,-117.47 -75.2,-194.26 0,-76.1 25.23,-140.46 75.69,-193.24 50.46,-52.61 111.92,-79 184.37,-79 72.46,0 133.76,26.22 183.9,78.83 50.13,52.61 75.2,116.97 75.2,193.07zm-146.53 -62.49c-23.94,-47.67 -61.46,-71.5 -112.57,-71.5 -51.75,0 -89.6,23.83 -113.53,71.5l226.1 0zm512.86 164.13c0,32.69 -10.35,62.32 -31.05,89.05 -41.4,53.29 -100.28,78.82 -176.61,76.78 -30.41,-0.68 -63.56,-7.83 -99.47,-21.45 -35.9,-13.62 -65.18,-30.65 -87.82,-51.08l72.78 -99.09c34.94,34.73 72.13,52.1 111.6,52.1l2.91 0c16.17,0 30.73,-3.06 43.67,-9.19 16.82,-8.18 25.23,-19.75 25.23,-34.74l0 -4.08c-1.94,-15.67 -11.97,-26.9 -30.08,-33.71 -7.12,-1.36 -22.32,-4.43 -45.61,-9.2 -29.12,-6.13 -53.7,-13.62 -73.76,-22.47 -58.87,-26.56 -88.3,-73.21 -88.3,-139.95 0,-64.02 30.08,-112.03 90.24,-144.04 26.53,-14.3 55.32,-21.79 86.37,-22.47 32.35,-0.68 65.99,5.11 100.92,17.37 40.11,14.3 68.58,33.02 85.4,56.18l-87.34 82.74c-22.64,-24.51 -47.22,-36.77 -73.75,-36.77 -41.4,0 -62.11,14.3 -62.11,43.08l0 2.04c0,13.62 16.83,25.2 50.47,34.73 2.59,0.68 23.93,5.11 64.04,13.28 81.52,16.52 122.27,68.95 122.27,157.83l0 3.06zm261.53 156.64c-72.45,0 -133.91,-26.39 -184.37,-79 -50.46,-52.78 -75.69,-117.31 -75.69,-193.41l0 -535.63 131 0 0 277.86 129.06 0 0 117.48 -129.06 0 0 139.95c0,37.45 12.62,69.29 37.85,95.51 25.23,26.22 55.63,39.33 91.21,39.33l0 137.91zm171.28 -647.66c0,23.16 -7.44,42.74 -22.32,58.74 -14.88,16 -33.31,24.01 -55.31,24.01 -21.99,0 -40.59,-8.01 -55.8,-24.01 -15.2,-16 -22.8,-35.58 -22.8,-58.74 0,-23.15 7.6,-42.56 22.8,-58.22 15.21,-15.67 33.81,-23.5 55.8,-23.5 21.35,0 39.62,8 54.83,24.01 15.2,16 22.8,35.24 22.8,57.71zm-11.64 647.66l-131 0 0 -530.18 131 0 0 530.18z"/>
   <g style="clip-path:url(#id1)">
    <image style="clip-path:url(#id2)" x="-328.28" y="1347.95" width="3625.06" height="4824.23" xlink:href="01-joane-buttons-drag-queen_Images\01-joane-buttons-drag-queen_ImgID2.png"/>
   </g>
   <g style="clip-path:url(#id3)">
    <image style="clip-path:url(#id4)" transform="matrix(-0.0958383 -0 -0 0.0956427 5290.72 1347.95)" x="0" y="0" width="37824.82" height="50440.16" xlink:href="01-joane-buttons-drag-queen_Images\01-joane-buttons-drag-queen_ImgID3.png"/>
   </g>
   <path class="fil0" d="M1988.58 5573.15l-155.63 0 0 -74.1 155.63 0c48.71,0 84.55,-7.51 107.52,-22.53 27.72,-18.57 41.58,-50.38 41.58,-95.44l0 -234.16 74.25 0 0 234.16c0,68.77 -20.4,118.76 -61.19,149.98 -36.03,28.06 -90.09,42.09 -162.16,42.09zm491.49 -352.12c-42.77,0 -77.42,14.02 -103.96,42.09 -23.36,24.89 -35.83,55.72 -37.42,92.47 -1.19,38.73 9.9,71.53 33.27,98.41 26.13,30.03 62.17,45.05 108.11,45.05l119.39 0c45.94,0 81.98,-15.02 108.12,-45.05 23.36,-26.88 34.25,-59.68 32.67,-98.41 -1.19,-36.75 -13.66,-67.58 -37.42,-92.47 -26.14,-28.07 -60.59,-42.09 -103.37,-42.09l-119.39 0zm0 352.12c-66.53,0 -119.99,-22.72 -160.39,-68.17 -36.43,-41.5 -54.65,-91.29 -54.65,-149.39 0,-57.3 17.43,-105.12 52.28,-143.46 39.6,-43.47 93.85,-65.21 162.76,-65.21l119.39 0c68.91,0 122.97,21.74 162.17,65.21 35.25,38.34 52.87,86.16 52.87,143.46 0,58.1 -18.21,107.89 -54.65,149.39 -40.39,45.45 -93.85,68.17 -160.39,68.17l-119.39 0zm724.44 -119.74l-202.66 0 45.25 -74.11 113.06 0 -74.35 -122.71 -192.66 315.97 -95.64 0 231.67 -385.33c7.52,-12.25 17.22,-22.32 29.1,-30.23 10.3,-7.11 19.41,-10.86 27.33,-11.26 8.71,-0.79 18.42,2.17 29.11,8.89 12.27,7.91 22.57,18.77 30.89,32.6l226.91 385.33 -95.73 0 -72.28 -119.15zm563.27 98.4l-273.84 -274.67 0 296.01 -74.26 0 0 -388.88c0,-11.46 2.97,-20.55 8.91,-27.27 5.94,-6.72 13.67,-10.08 23.17,-10.08 13.86,0 27.92,7.32 42.18,21.94l273.84 273.88 0 -295.82 74.25 0 0 389.48c0,27.27 -9.3,40.9 -27.92,40.9 -13.86,0 -29.3,-8.49 -46.33,-25.49zm483.77 -231.79l0 74.1 -244.14 0 0 -74.1 244.14 0zm-275.63 179.03l294.64 0 0 74.1 -368.89 0 0 -426.23 368.89 0 0 74.1 -294.64 0 0 278.03zm36.84 -369.91l150.87 -51.57 -10.69 -33.8 -150.88 51.58 10.7 33.79zm-2891.92 709.21c30.1,23.31 45.14,52.36 45.14,87.14 0,33.19 -14.25,61.45 -42.76,84.77 -31.29,25.69 -73.86,38.53 -127.72,38.53l-305.92 0 0 -426.23 305.92 0c53.86,0 96.43,13.25 127.72,39.72 28.51,23.71 42.76,52.76 42.76,87.15 0,35.17 -15.04,64.81 -45.14,88.92zm-113.46 136.34c27.33,0 49.11,-5.14 65.34,-15.41 14.26,-9.09 21.39,-20.35 21.39,-33.79 0,-13.44 -7.33,-24.7 -21.98,-33.79 -15.84,-10.67 -37.42,-16.01 -64.75,-16.01l-200.18 0 0 -74.1 200.18 0c27.33,0 48.91,-5.53 64.75,-16.6 14.65,-9.88 21.98,-21.93 21.98,-36.16 0,-14.22 -7.13,-26.28 -21.39,-36.16 -16.23,-10.67 -38.01,-16 -65.34,-16l-243.54 0 0 278.02 243.54 0zm500.4 74.7l-25.54 0c-72.08,0 -126.33,-14.04 -162.76,-42.09 -40.39,-31.22 -60.59,-81.22 -60.59,-149.98l0 -234.16 74.25 0 0 234.16c0,45.05 13.86,76.86 41.58,95.44 22.97,15.01 58.81,22.52 107.52,22.52l25.54 0c48.71,0 84.55,-7.51 107.52,-22.52 27.72,-18.58 41.58,-50.39 41.58,-95.44l0 -234.16 74.25 0 0 234.16c0,68.76 -20.39,118.76 -61.18,149.98 -36.04,28.05 -90.09,42.09 -162.17,42.09zm537.23 -352.13l0 352.13 -74.25 0 0 -352.13 -168.7 0 0 -74.1 411.06 0 0 74.1 -168.11 0zm442.78 0l0 352.13 -74.25 0 0 -352.13 -168.7 0 0 -74.1 411.06 0 0 74.1 -168.11 0zm430.9 0c-42.77,0 -77.42,14.03 -103.95,42.09 -23.37,24.9 -35.84,55.72 -37.43,92.48 -1.18,38.73 9.9,71.53 33.27,98.4 26.13,30.04 62.17,45.05 108.11,45.05l119.4 0c45.94,0 81.97,-15.01 108.11,-45.05 23.36,-26.87 34.26,-59.67 32.67,-98.4 -1.19,-36.76 -13.66,-67.58 -37.42,-92.48 -26.14,-28.06 -60.59,-42.09 -103.36,-42.09l-119.4 0zm0 352.13c-66.53,0 -119.99,-22.73 -160.38,-68.18 -36.44,-41.49 -54.65,-91.29 -54.65,-149.38 0,-57.31 17.42,-105.13 52.27,-143.46 39.6,-43.47 93.86,-65.21 162.76,-65.21l119.4 0c68.91,0 122.96,21.74 162.17,65.21 35.24,38.33 52.86,86.15 52.86,143.46 0,58.09 -18.21,107.89 -54.65,149.38 -40.39,45.45 -93.85,68.18 -160.38,68.18l-119.4 0zm755.24 -21.35l-273.85 -274.66 0 296.01 -74.25 0 0 -388.89c0,-11.46 2.97,-20.55 8.91,-27.27 5.94,-6.71 13.66,-10.07 23.17,-10.07 13.86,0 27.92,7.31 42.17,21.93l273.85 273.88 0 -295.81 74.25 0 0 389.47c0,27.27 -9.31,40.9 -27.92,40.9 -13.86,0 -29.3,-8.49 -46.33,-25.49zm493.27 21.35l-325.52 0 0 -74.11 325.52 0c24.55,0 44.16,-6.12 58.81,-18.37 13.46,-11.46 20.2,-25.1 20.2,-40.91 0,-15.81 -6.54,-29.04 -19.61,-39.71 -14.65,-11.86 -34.45,-17.79 -59.4,-17.79l-201.97 0c-41.97,0 -75.24,-12.25 -99.79,-36.75 -22.18,-22.13 -33.27,-49.21 -33.27,-81.22 0,-31.61 11.09,-58.49 33.27,-80.62 24.55,-24.5 57.82,-36.75 99.79,-36.75l322.56 0 0 74.1 -322.56 0c-15.84,0 -28.31,4.35 -37.42,13.04 -9.11,8.69 -13.66,18.97 -13.66,30.83 0,11.85 4.16,21.73 12.47,29.64 9.51,9.09 22.38,13.63 38.61,13.63l201.97 0c45.54,0 81.98,13.83 109.3,41.5 24.55,25.29 36.83,55.92 36.83,91.88 0,35.97 -12.08,66.2 -36.24,90.7 -26.93,27.27 -63.56,40.91 -109.89,40.91z"/>
   <path class="fil1" d="M1931.58 5530.49l-155.63 0 0 -74.1 155.63 0c48.71,0 84.55,-7.51 107.52,-22.52 27.72,-18.58 41.58,-50.39 41.58,-95.44l0 -234.16 74.26 0 0 234.16c0,68.76 -20.4,118.75 -61.19,149.97 -36.04,28.06 -90.09,42.09 -162.17,42.09zm491.49 -352.12c-42.77,0 -77.42,14.03 -103.95,42.09 -23.36,24.89 -35.84,55.72 -37.42,92.47 -1.19,38.73 9.9,71.54 33.26,98.41 26.14,30.03 62.18,45.05 108.11,45.05l119.4 0c45.94,0 81.98,-15.02 108.11,-45.05 23.37,-26.87 34.26,-59.68 32.67,-98.41 -1.18,-36.75 -13.66,-67.58 -37.42,-92.47 -26.14,-28.06 -60.59,-42.09 -103.36,-42.09l-119.4 0zm0 352.12c-66.53,0 -119.99,-22.72 -160.38,-68.17 -36.43,-41.5 -54.65,-91.29 -54.65,-149.39 0,-57.3 17.42,-105.12 52.27,-143.45 39.6,-43.48 93.86,-65.21 162.76,-65.21l119.4 0c68.91,0 122.96,21.73 162.17,65.21 35.24,38.33 52.86,86.15 52.86,143.45 0,58.1 -18.21,107.89 -54.64,149.39 -40.4,45.45 -93.86,68.17 -160.39,68.17l-119.4 0zm724.45 -119.74l-202.66 0 45.24 -74.1 113.06 0 -74.35 -122.71 -192.66 315.96 -95.63 0 231.66 -385.32c7.53,-12.25 17.23,-22.33 29.11,-30.24 10.3,-7.11 19.4,-10.86 27.33,-11.26 8.71,-0.79 18.41,2.17 29.1,8.89 12.28,7.91 22.58,18.77 30.89,32.61l226.92 385.32 -95.74 0 -72.27 -119.15zm563.27 98.4l-273.85 -274.66 0 296 -74.25 0 0 -388.88c0,-11.46 2.97,-20.55 8.91,-27.27 5.94,-6.71 13.66,-10.07 23.17,-10.07 13.86,0 27.91,7.31 42.17,21.93l273.85 273.88 0 -295.81 74.25 0 0 389.47c0,27.27 -9.31,40.9 -27.92,40.9 -13.86,0 -29.31,-8.49 -46.33,-25.49zm483.77 -231.79l0 74.11 -244.15 0 0 -74.11 244.15 0zm-275.63 179.03l294.63 0 0 74.1 -368.88 0 0 -426.22 368.88 0 0 74.1 -294.63 0 0 278.02zm36.83 -369.91l150.88 -51.57 -10.69 -33.79 -150.88 51.57 10.69 33.79zm-2891.92 709.21c30.1,23.32 45.15,52.36 45.15,87.14 0,33.2 -14.25,61.46 -42.77,84.77 -31.28,25.69 -73.85,38.53 -127.71,38.53l-305.92 0 0 -426.22 305.92 0c53.86,0 96.43,13.24 127.71,39.72 28.52,23.71 42.77,52.76 42.77,87.14 0,35.17 -15.05,64.81 -45.15,88.92zm-113.45 136.34c27.32,0 49.1,-5.13 65.34,-15.41 14.26,-9.09 21.38,-20.35 21.38,-33.79 0,-13.43 -7.32,-24.7 -21.97,-33.79 -15.85,-10.67 -37.43,-16 -64.75,-16l-200.19 0 0 -74.11 200.19 0c27.32,0 48.9,-5.53 64.75,-16.59 14.65,-9.88 21.97,-21.94 21.97,-36.17 0,-14.22 -7.12,-26.28 -21.38,-36.16 -16.24,-10.67 -38.02,-16 -65.34,-16l-243.55 0 0 278.02 243.55 0zm500.4 74.7l-25.55 0c-72.07,0 -126.32,-14.03 -162.76,-42.09 -40.39,-31.22 -60.59,-81.22 -60.59,-149.98l0 -234.16 74.26 0 0 234.16c0,45.05 13.86,76.87 41.58,95.44 22.97,15.02 58.81,22.53 107.51,22.53l25.55 0c48.71,0 84.55,-7.51 107.51,-22.53 27.73,-18.57 41.59,-50.39 41.59,-95.44l0 -234.16 74.25 0 0 234.16c0,68.76 -20.39,118.76 -61.18,149.98 -36.04,28.06 -90.1,42.09 -162.17,42.09zm537.23 -352.13l0 352.13 -74.26 0 0 -352.13 -168.7 0 0 -74.1 411.06 0 0 74.1 -168.1 0zm442.78 0l0 352.13 -74.26 0 0 -352.13 -168.7 0 0 -74.1 411.06 0 0 74.1 -168.1 0zm430.9 0c-42.77,0 -77.43,14.03 -103.96,42.09 -23.36,24.9 -35.84,55.72 -37.42,92.48 -1.19,38.73 9.9,71.53 33.27,98.4 26.13,30.04 62.17,45.06 108.11,45.06l119.39 0c45.94,0 81.98,-15.02 108.12,-45.06 23.36,-26.87 34.25,-59.67 32.67,-98.4 -1.19,-36.76 -13.67,-67.58 -37.43,-92.48 -26.13,-28.06 -60.59,-42.09 -103.36,-42.09l-119.39 0zm0 352.13c-66.53,0 -119.99,-22.73 -160.39,-68.18 -36.43,-41.49 -54.65,-91.29 -54.65,-149.38 0,-57.31 17.43,-105.13 52.27,-143.46 39.61,-43.47 93.86,-65.21 162.77,-65.21l119.39 0c68.91,0 122.97,21.74 162.17,65.21 35.25,38.33 52.87,86.15 52.87,143.46 0,58.09 -18.22,107.89 -54.65,149.38 -40.39,45.45 -93.86,68.18 -160.39,68.18l-119.39 0zm755.23 -21.34l-273.84 -274.67 0 296.01 -74.25 0 0 -388.88c0,-11.46 2.97,-20.55 8.91,-27.27 5.94,-6.72 13.66,-10.08 23.16,-10.08 13.86,0 27.92,7.31 42.18,21.93l273.84 273.88 0 -295.81 74.26 0 0 389.47c0,27.27 -9.31,40.91 -27.93,40.91 -13.86,0 -29.3,-8.5 -46.33,-25.49zm493.27 21.34l-325.52 0 0 -74.1 325.52 0c24.56,0 44.16,-6.13 58.81,-18.38 13.47,-11.46 20.2,-25.1 20.2,-40.9 0,-15.81 -6.53,-29.05 -19.6,-39.72 -14.66,-11.86 -34.45,-17.79 -59.41,-17.79l-201.96 0c-41.98,0 -75.24,-12.25 -99.8,-36.75 -22.17,-22.13 -33.26,-49.2 -33.26,-81.21 0,-31.62 11.09,-58.49 33.26,-80.62 24.56,-24.51 57.82,-36.76 99.8,-36.76l322.55 0 0 74.1 -322.55 0c-15.84,0 -28.32,4.35 -37.43,13.04 -9.1,8.7 -13.66,18.97 -13.66,30.83 0,11.86 4.16,21.73 12.48,29.64 9.5,9.09 22.37,13.63 38.61,13.63l201.96 0c45.55,0 81.98,13.83 109.3,41.5 24.56,25.29 36.83,55.92 36.83,91.89 0,35.96 -12.07,66.19 -36.23,90.69 -26.93,27.27 -63.56,40.91 -109.9,40.91z"/>
   <path class="fil2" d="M710.82 3661.73c0,-3.8 -0.93,-8.41 -2.95,-13.85 -1.55,-4.45 -4.96,-9.07 -10.39,-14.18 -3.72,-3.46 -7.9,-5.77 -12.71,-6.76 -2.48,-0.5 -6.36,-0.82 -11.79,-0.82 -2.32,0 -5.12,0.16 -8.37,0.32 -3.26,0.17 -5.27,0.33 -5.89,0.33 -0.62,0 -0.94,-0.65 -1.55,-0.65l-40.48 -0.33c-0.15,0 -0.93,0.33 -2.48,1.15l0 19.95c0,0.99 0.31,1.81 1.09,2.64l-0.31 105.18c0.15,2.48 0.93,3.8 2.48,3.8l10.08 0c1.39,-0.83 2.17,-2.81 2.32,-5.61l0 -9.56c0.16,-17.64 0,-31.49 -0.31,-41.55 0,-0.99 0.93,-1.81 2.64,-2.47l31.32 0c1.4,0 2.64,0.99 3.57,3.13 11.47,24.4 20.47,43.36 27.14,56.88 0.46,0 1.24,0.33 1.86,0.33 6.98,0 10.54,-1.65 10.54,-5.11 0,-1.16 -1.24,-4.12 -3.56,-8.74 -7.6,-14.84 -11.63,-22.59 -11.94,-23.25 -0.63,-1.48 -2.95,-6.1 -7.14,-13.84 -2.63,-4.95 -3.72,-7.92 -3.25,-8.74 0.77,-0.83 1.39,-1.16 1.86,-1.32 8.37,-0.99 15.35,-5.77 20.93,-14.18 4.81,-7.42 7.29,-15 7.29,-22.75zm-11.79 0.66c0,5.11 -2.17,10.38 -6.35,15.82 -4.5,5.77 -9.15,8.58 -14.27,8.58l-31.94 0.33c-0.16,0 -1.25,-0.17 -2.95,-0.33 -1.71,-0.17 -2.64,-0.33 -2.95,-0.33 0.16,0 -1.7,0 -5.58,0.16 -3.41,0.17 -5.74,0.33 -6.82,0.17 0.31,-1.49 0.46,-4.78 0.31,-9.73 0,-0.83 -0.78,-3.13 -0.78,-3.63 0,-0.33 0.16,-1.65 0.31,-3.95 0.31,-2.31 0.47,-3.63 0.47,-3.8l0 -9.23c0,-5.6 0,-11.05 0.15,-16.32 2.64,-0.83 5.43,-1.16 8.22,-1.16l34.27 -0.32c6.05,0 10.08,0.32 12.25,0.82 10.24,5.44 12.25,9.07 13.8,13.19 1.24,2.8 1.86,5.93 1.86,9.73zm120.34 40.88c0,-0.33 -0.15,-1.98 -0.31,-5.11 -0.16,-3.13 -0.16,-4.78 -0.16,-5.11l0 -9.07c0,1.16 -0.15,-6.92 -0.3,-24.4 -0.32,-14.5 -0.32,-25.22 -0.16,-32.15 -1.08,-0.82 -2.48,-1.15 -4.5,-0.99 -1.55,0.17 -3.1,0.17 -4.8,0.33 -2.18,0 -3.41,0.66 -3.88,1.98l0 86.89c0,0.49 -0.62,2.64 -2.02,6.59 -1.24,3.96 -1.86,6.27 -2.01,6.93 -0.31,2.14 -3.1,5.28 -8.53,9.4 -6.05,4.61 -11.17,6.92 -15.51,6.92 -0.15,0 -1.24,0 -3.1,-0.16 -1.86,-0.17 -2.95,-0.17 -3.26,-0.17 -0.46,0 -1.24,0.66 -1.86,0.66 -2.32,0 -5.11,-0.66 -8.53,-1.81 -7.59,-2.81 -13.18,-8.25 -16.74,-16.33 -2.95,-6.26 -4.35,-13.35 -4.35,-21.43l0 -34.29c0,0.33 -0.31,-0.66 -1.08,-2.97l0 -13.02c0.46,-0.33 0.93,-1.32 1.08,-2.81 0.16,-1.32 0,-2.3 -0.15,-2.8 -0.62,-1.81 -0.93,-2.47 -0.93,-2.14 0.77,-8.91 0.62,-14.18 -0.31,-15.99 0.62,-1.16 0.93,-2.15 0.93,-3.14 0,-2.14 -1.24,-3.29 -3.88,-3.29 -7.29,0 -10.85,1.31 -10.85,3.95 0,0.5 0.15,3.79 0.31,9.56 0.15,5.78 0.31,9.57 0.31,11.05 -0.47,22.09 -0.47,41.22 0,57.37 0.15,8.41 0.93,14.84 2.32,19.29 2.02,6.77 5.59,12.54 10.86,17.32 3.1,3.13 5.58,5.77 7.6,7.91 2.63,1.81 6.36,3.79 11.16,5.61 4.96,1.81 9.15,2.63 12.41,2.63l6.67 0c9.77,0 19.22,-4.61 28.06,-13.68 8.84,-9.23 13.81,-19.29 14.58,-30.34 0.62,-7.42 0.93,-11.7 0.93,-13.19zm112.74 51.77c-0.47,-11.7 -0.62,-45.01 -0.62,-99.91 0,-1.15 0,-5.44 0.15,-12.53 0.16,-5.44 0.16,-9.56 0,-12.03 -0.15,-1.65 -0.93,-2.48 -2.48,-2.48 -4.19,0 -7.6,0.17 -10.39,0.5 -1.08,1.48 -1.55,2.64 -1.55,3.79l0 11.05c0.47,0.99 0.78,1.65 0.78,1.81 -0.16,2.64 -0.16,10.72 -0.16,24.4 0,0.66 0.47,1.32 0.47,1.98l0 49.62c0,4.95 -0.78,7.92 -2.17,9.07 -3.26,-3.46 -6.21,-7.42 -8.84,-12.2 -3.73,-6.59 -6.98,-11.7 -9.62,-15.5 -0.62,-1.48 -1.08,-2.8 -1.24,-3.79l-36.29 -58.2c-1.24,-2.3 -2.48,-4.61 -3.72,-7.09 -2.63,-4.61 -4.49,-6.92 -5.74,-6.92 -5.42,0 -8.68,0.33 -10.08,0.99 -2.01,0.82 -2.94,1.65 -2.94,2.64l0 32.81c0,19.12 0.31,35.94 0.78,50.61 0.3,6.43 0.15,20.61 -0.32,42.37 0,0.5 0.32,1.49 1.09,2.81l6.98 0 3.72 0c1.71,0 2.64,-6.43 2.64,-19.46l0 -22.92c0,-0.66 0.3,-3.62 0.3,-4.28l0 -29.35c0,-0.99 -0.15,-3.46 -0.46,-7.58 -0.31,-4.13 -0.46,-7.26 -0.46,-9.4 0,-4.78 0.62,-7.59 1.86,-8.41 2.32,0.82 4.96,3.96 7.91,9.23 4.8,9.24 7.59,14.35 8.21,15.17 11.94,18.96 21.4,34.13 28.23,45.51 3.72,6.09 7.44,12.36 11.01,18.46 5.74,9.73 9.15,14.51 9.92,14.51l3.88 0c0.62,0 2.79,-1.81 3.41,-1.81 0.62,0 2.64,1.15 3.1,1.15 0.78,0 1.4,-0.82 2.02,-2.31 0.46,-1.15 0.62,-1.81 0.62,-2.31l0 0zm183.45 -126.12c-1.87,-1.32 -3.1,-1.98 -3.72,-1.98l-8.69 0c-7.13,17.64 -12.56,30.83 -16.13,39.73 -4.8,12.2 -8.68,22.1 -11.63,29.68 -1.08,1.81 -1.86,3.13 -2.48,3.96 -0.31,1.32 -0.46,2.3 -0.62,2.96 -1.86,3.8 -4.81,11.05 -8.99,22.1 -3.26,9.07 -5.74,14.5 -7.14,15.99 -7.9,-18.63 -14.88,-35.94 -20.62,-51.93l23.73 -59.36 0 -1.15c-1.71,-1.32 -2.95,-1.98 -3.57,-1.98l-8.68 0 -18.15 45.5 -19.07 -45.01c-0.16,0 -1.71,-0.82 -2.17,-0.82 -7.44,0 -11.32,1.32 -11.79,3.96l24.81 61.99c-9.15,19.78 -15.35,35.61 -18.45,47.48 -0.15,0.49 -0.47,0.66 -0.93,0.66 -0.47,-1.15 -0.93,-1.98 -1.08,-2.64 -2.02,-1.81 -4.04,-5.27 -6.37,-10.55 -0.46,-1.15 -2.32,-6.27 -5.58,-15.33 -2.79,-7.42 -5.12,-13.19 -7.13,-16.98 -6.05,-16 -11.32,-29.02 -15.51,-39.24l-11.94 -28.53c-0.46,0 -1.7,-0.82 -2.32,-0.82 -0.62,0 -3.72,0.16 -9.46,0.49 -0.78,0 -2.17,2.64 -2.17,3.47 0,0.33 3.1,8.24 9.46,23.74 7.6,18.63 12.87,31.49 15.5,38.58 13.65,35.12 22.33,57.21 26.21,66.27 1.08,0.83 1.86,1.32 2.32,1.32 0.62,0 0.47,-0.82 1.09,-0.82 0.31,0 1.71,0 4.34,0.16 2.64,0.17 4.19,0.17 4.5,0.17 1.86,0 3.1,-0.33 3.57,-1.15 2.63,-5.28 4.34,-9.24 5.11,-12.04 6.36,-15.66 11.48,-28.03 15.2,-36.93 9.15,21.93 15.82,38.25 20.01,49.29 0.77,0.5 1.7,0.83 2.48,0.83l9.77 0c2.63,0 4.8,-1.98 6.2,-6.1 1.55,-4.12 3.1,-8.08 4.65,-12.2 3.26,-7.75 5.43,-13.52 6.82,-17.31 5.74,-14.35 9.62,-23.09 11.32,-26.38l27.3 -67.93 0 -1.15zm132.89 129.75c0.16,-1.65 0,-2.8 -0.46,-3.63 -4.34,-10.71 -7.45,-18.79 -9.15,-24.07 -2.95,-7.09 -5.27,-12.2 -6.98,-15.66 -12.87,-33.47 -22.64,-58.2 -29,-73.86 -1.86,-5.44 -3.72,-11.87 -6.2,-13.85 -1.4,-0.17 -2.64,-0.33 -3.57,-0.17 -0.93,-0.82 -1.55,-1.31 -1.86,-1.31 -0.46,0.82 -1.39,1.31 -3.1,1.31 -0.62,0 -1.7,-0.33 -2.17,-0.33 -1.4,0 -2.48,0.17 -3.1,0.5 -2.33,1.15 -2.79,4.62 -3.41,7.25 -1.4,3.14 -2.64,5.44 -3.42,6.93 -2.32,5.44 -2.63,9.07 -5.11,12.36 -0.47,0.66 -0.47,3.96 -2.17,5.11 -2.17,6.1 -4.19,11.38 -5.9,15.67 -0.31,1.97 -1.7,5.6 -4.34,10.71 -2.64,5.11 -4.03,8.74 -4.19,10.88 -0.46,0.33 -0.93,0.5 -1.24,0.66 -0.46,2.15 -0.77,3.63 -0.93,4.78 -1.7,5.28 -3.25,9.07 -4.34,11.55 -0.93,0.65 -1.55,1.15 -1.86,1.48 -1.09,3.96 -1.86,7.42 -2.33,10.22 -1.39,1.81 -2.17,3.3 -2.63,4.29 -2.95,8.24 -5.27,14.18 -6.98,17.81 -0.31,1.15 -0.93,3.29 -2.02,6.26 -1.08,2.47 -1.55,3.96 -1.55,4.12 0,1.32 1.86,2.97 2.95,2.97l9.46 0c0.46,0 1.08,-0.33 1.86,-0.83 1.4,-4.12 2.48,-7.09 3.26,-9.06 3.41,-8.58 6.04,-15.01 7.9,-19.29 0.93,-2.31 2.33,-3.63 4.19,-4.12 3.88,-0.34 6.82,-0.5 8.84,-0.5l50.09 -0.33c1.71,0 2.48,0 2.64,0.17 1.08,0.82 2.17,1.97 2.94,3.79 0.47,1.32 1.09,2.64 1.55,3.96 4.19,9.89 6.52,15.49 6.98,16.65 1.71,4.94 3.1,7.75 4.34,8.24 0.62,0.33 2.33,0.49 4.96,0.49 3.26,0 5.28,-0.32 6.05,-1.15zm-32.41 -48.8c-0.31,1.48 -1.24,2.14 -2.63,2.14 -9.15,0 -17.06,0.33 -16.44,0.33 -0.47,0 -3.72,-0.66 -4.34,-0.66 0.46,0 -3.57,0.17 -12.25,0.5 -7.6,0.16 -13.18,0.33 -16.75,0.16 4.19,-11.7 8.53,-23.57 12.72,-35.28 5.11,-14.01 9.76,-25.55 13.95,-34.62l25.74 67.43zm134.76 -81.78c-0.93,-0.49 -1.86,-0.82 -2.64,-0.82l-10.39 0c-3.87,5.93 -10.54,16.82 -19.85,32.48 -6.51,10.71 -10.23,16.16 -11,16.16 -1.25,0 -3.73,-3.3 -7.6,-9.9 -4.81,-8.57 -8.38,-14.18 -10.39,-16.65 0,-0.66 0,-1.15 0.15,-1.48 -2.01,-3.46 -4.19,-6.93 -6.2,-10.39 -2.33,-3.96 -4.65,-7.58 -7.13,-10.72 -2.64,-0.33 -3.73,-0.49 -3.26,-0.49 -0.16,0 -1.55,0.16 -4.03,0.49 -2.33,0.17 -4.19,0.33 -5.27,0.33 -0.47,0.83 -0.78,1.65 -0.78,2.48 0,0.16 2.48,4.61 7.44,13.02 5.12,8.41 8.07,13.52 9.15,15 3.26,5.12 5.58,9.24 7.29,12.04 2.64,4.45 5.43,8.74 8.07,13.19 3.56,5.77 5.58,9.4 6.04,10.88 0.16,2.8 0.16,5.11 -0.15,6.6l0.62 39.9c0,0.32 -0.16,1.81 -0.31,4.28 -0.16,2.47 -0.31,4.45 -0.31,5.94 0,5.93 1.39,8.9 4.34,8.9l2.94 0c3.11,0 5.12,-0.66 6.05,-1.98 0.78,-0.99 1.09,-3.13 1.09,-6.26l0 -37.76c0,0.17 -0.16,-2.8 -0.47,-8.57 -0.15,-5.77 -0.31,-10.06 -0.31,-12.86 -0.15,-1.49 0.62,-3.3 2.33,-5.44 1.24,-1.82 2.48,-3.46 3.72,-5.11 3.57,-5.77 6.05,-10.06 7.45,-12.86 2.32,-4.13 3.41,-6.1 3.41,-6.1 8.68,-13.36 15.35,-24.07 20,-32.32l0 -1.98z"/>
   <path class="fil3" d="M630.05 3802.8l70.34 0c21.4,0 38.31,5.58 50.72,16.81 12.42,11.23 18.63,26.44 18.63,45.53 0,10.9 -2.83,22.24 -8.54,34.02 -5.71,11.72 -16.24,20.96 -31.6,27.66l59.76 88.73 -52.66 0 -55.43 -82.32 -5.32 0 0 82.32 -45.9 0 0 -212.75zm45.9 37.83l0 55.43 10.09 0c24.33,0 36.47,-9.79 36.47,-29.32 0,-8.02 -3.16,-14.38 -9.48,-19.08 -6.32,-4.7 -15.13,-7.03 -26.33,-7.03l-10.75 0zm222.49 -37.83l35.92 0 86.8 212.75 -46.22 0 -17.08 -41.83 -81.81 0 -16.74 41.83 -46.01 0 85.14 -212.75zm18.13 69.69l-25.11 62.73 50.72 0 -25.61 -62.73zm89.35 -69.69l46.51 0 53.77 141.39 53.65 -141.39 46.95 0 -80.76 212.75 -39.58 0 -80.54 -212.75zm229.09 0l120.07 0 0 42.15 -74.17 0 0 42.81 74.17 0 0 41.49 -74.17 0 0 44.14 74.17 0 0 42.16 -120.07 0 0 -212.75zm299.99 0l44.9 0 0 212.75 -44.45 0 -97.89 -137.74 0 137.74 -45.9 0 0 -212.75 45.34 0 98 136.74 0 -136.74z"/>
   <path class="fil2" d="M722.11 4240.03l-41.76 0 0 -27.78c0,-8.09 -0.43,-13.11 -1.31,-15.13 -0.88,-1.99 -2.84,-3 -5.85,-3 -3.37,0 -5.54,1.21 -6.45,3.64 -0.91,2.46 -1.39,7.72 -1.39,15.81l0 74.23c0,7.79 0.48,12.84 1.39,15.24 0.91,2.35 2.97,3.54 6.15,3.54 3.07,0 5.1,-1.19 6.05,-3.58 0.94,-2.36 1.41,-7.95 1.41,-16.75l0 -20.13 41.76 0 0 6.24c0,16.59 -1.19,28.35 -3.52,35.26 -2.33,6.95 -7.53,13.01 -15.54,18.24 -8.03,5.22 -17.9,7.82 -29.66,7.82 -12.19,0 -22.26,-2.19 -30.19,-6.61 -7.91,-4.42 -13.18,-10.52 -15.74,-18.34 -2.57,-7.82 -3.86,-19.55 -3.86,-35.22l0 -46.73c0,-11.53 0.41,-20.16 1.19,-25.92 0.81,-5.77 3.14,-11.33 7.09,-16.65 3.92,-5.33 9.36,-9.54 16.31,-12.61 6.97,-3.07 14.97,-4.58 24.02,-4.58 12.27,0 22.4,2.35 30.4,7.11 7.98,4.72 13.21,10.62 15.75,17.69 2.5,7.08 3.75,18.07 3.75,33.01l0 15.2zm109.98 24c0,16.08 -0.37,27.44 -1.15,34.12 -0.74,6.71 -3.11,12.81 -7.09,18.34 -3.99,5.53 -9.39,9.77 -16.18,12.74 -6.79,2.96 -14.7,4.45 -23.72,4.45 -8.57,0 -16.24,-1.42 -23.07,-4.22 -6.82,-2.79 -12.33,-6.97 -16.45,-12.57 -4.15,-5.6 -6.62,-11.7 -7.43,-18.27 -0.78,-6.61 -1.18,-18.14 -1.18,-34.59l0 -27.37c0,-16.08 0.37,-27.44 1.15,-34.11 0.74,-6.71 3.11,-12.82 7.09,-18.34 3.99,-5.53 9.39,-9.78 16.18,-12.75 6.79,-2.96 14.7,-4.44 23.71,-4.44 8.59,0 16.25,1.41 23.08,4.21 6.82,2.8 12.33,6.98 16.45,12.57 4.15,5.6 6.62,11.7 7.43,18.27 0.77,6.61 1.18,18.14 1.18,34.59l0 27.37zm-41.75 -52.55c0,-7.42 -0.41,-12.17 -1.22,-14.26 -0.81,-2.06 -2.46,-3.1 -4.96,-3.1 -2.13,0 -3.75,0.84 -4.9,2.53 -1.12,1.65 -1.69,6.6 -1.69,14.83l0 74.67c0,9.27 0.37,15 1.12,17.15 0.74,2.2 2.46,3.28 5.16,3.28 2.77,0 4.56,-1.25 5.34,-3.75 0.78,-2.49 1.15,-8.46 1.15,-17.86l0 -73.49zm57.42 -41.23l29.49 0c19.66,0 32.97,0.74 39.93,2.26 6.96,1.52 12.63,5.39 17.03,11.63 4.39,6.2 6.58,16.15 6.58,29.76 0,12.45 -1.55,20.81 -4.66,25.08 -3.07,4.29 -9.19,6.85 -18.31,7.69 8.24,2.06 13.82,4.79 16.66,8.23 2.83,3.4 4.59,6.57 5.27,9.44 0.71,2.86 1.04,10.75 1.04,23.66l0 42.24 -38.71 0 0 -53.23c0,-8.56 -0.67,-13.85 -2.03,-15.91 -1.31,-2.06 -4.82,-3.07 -10.54,-3.07l0 72.21 -41.75 0 0 -159.99zm41.75 27.31l0 35.59c4.67,0 7.91,-0.64 9.77,-1.92 1.86,-1.28 2.8,-5.46 2.8,-12.5l0 -8.8c0,-5.09 -0.91,-8.43 -2.7,-10.01 -1.79,-1.59 -5.1,-2.36 -9.87,-2.36zm67.39 -27.31l31.18 0c20.1,0 33.71,0.91 40.81,2.76 7.09,1.86 12.5,4.89 16.18,9.11 3.68,4.21 6.01,8.9 6.92,14.05 0.92,5.19 1.39,15.34 1.39,30.51l0 56.03c0,14.36 -0.68,23.97 -2.03,28.79 -1.35,4.85 -3.72,8.66 -7.06,11.39 -3.38,2.73 -7.53,4.62 -12.5,5.73 -4.93,1.08 -12.39,1.62 -22.36,1.62l-52.53 0 0 -159.99zm41.75 27.31l0 105.37c5.92,0 9.57,-1.21 10.92,-3.6 1.38,-2.43 2.06,-8.97 2.06,-19.66l0 -62.22c0,-7.25 -0.24,-11.91 -0.68,-13.96 -0.47,-2.06 -1.48,-3.54 -3.14,-4.48 -1.62,-0.98 -4.66,-1.45 -9.16,-1.45zm70.27 -27.31l69.52 0 0 31.96 -27.77 0 0 30.54 25.94 0 0 30.34 -25.94 0 0 35.19 30.6 0 0 31.96 -72.35 0 0 -159.99zm125.96 0l0 128.03 25.13 0 0 31.96 -66.88 0 0 -159.99 41.75 0zm77.08 0l0 159.99 -41.75 0 0 -159.99 41.75 0zm88.57 0l23.85 159.99 -42.59 0 -2.26 -28.72 -15.04 0 -2.26 28.72 -43.14 0 21.15 -159.99 60.29 0zm-22.12 102.95c-1.99,-18.13 -4.09,-40.58 -6.32,-67.38 -4.12,30.74 -6.72,53.19 -7.83,67.38l14.15 0zm109.54 -102.95l41.48 0c13.11,0 23.04,1.01 29.8,3.07 6.75,2.02 12.19,6.17 16.35,12.37 4.15,6.24 6.21,16.25 6.21,30.07 0,9.34 -1.45,15.84 -4.39,19.52 -2.94,3.7 -8.75,6.5 -17.4,8.49 9.66,2.19 16.22,5.8 19.66,10.82 3.45,5.06 5.17,12.78 5.17,23.23l0 14.83c0,10.82 -1.25,18.81 -3.71,24.04 -2.47,5.19 -6.39,8.76 -11.79,10.68 -5.41,1.93 -16.49,2.87 -33.24,2.87l-48.14 0 0 -159.99zm41.75 27.31l0 35.59c1.76,-0.06 3.11,-0.1 4.09,-0.1 3.99,0 6.55,-1.01 7.63,-3 1.12,-2.02 1.66,-7.79 1.66,-17.26 0,-5.02 -0.44,-8.53 -1.35,-10.55 -0.91,-1.99 -2.09,-3.27 -3.55,-3.81 -1.45,-0.5 -4.29,-0.81 -8.48,-0.87zm0 60.47l0 44.9c5.75,-0.2 9.43,-1.11 11.02,-2.76 1.58,-1.65 2.36,-5.73 2.36,-12.2l0 -14.97c0,-6.88 -0.71,-11.02 -2.13,-12.51 -1.42,-1.45 -5.17,-2.26 -11.25,-2.46zm142.08 -87.78l23.85 159.99 -42.6 0 -2.26 -28.72 -15.03 0 -2.27 28.72 -43.13 0 21.14 -159.99 60.3 0zm-22.13 102.95c-1.99,-18.13 -4.08,-40.58 -6.31,-67.38 -4.12,30.74 -6.73,53.19 -7.84,67.38l14.15 0zm53.14 -102.95l29.49 0c19.66,0 32.97,0.74 39.92,2.26 6.96,1.52 12.64,5.39 17.03,11.63 4.39,6.2 6.59,16.15 6.59,29.76 0,12.45 -1.56,20.81 -4.66,25.08 -3.08,4.29 -9.19,6.85 -18.31,7.69 8.24,2.06 13.81,4.79 16.65,8.23 2.84,3.4 4.59,6.57 5.27,9.44 0.71,2.86 1.05,10.75 1.05,23.66l0 42.24 -38.72 0 0 -53.23c0,-8.56 -0.67,-13.85 -2.02,-15.91 -1.32,-2.06 -4.83,-3.07 -10.54,-3.07l0 72.21 -41.75 0 0 -159.99zm41.75 27.31l0 35.59c4.66,0 7.91,-0.64 9.76,-1.92 1.86,-1.28 2.8,-5.46 2.8,-12.5l0 -8.8c0,-5.09 -0.9,-8.43 -2.7,-10.01 -1.79,-1.59 -5.1,-2.36 -9.86,-2.36zm67.39 -27.31l41.48 0c13.11,0 23.04,1.01 29.79,3.07 6.76,2.02 12.2,6.17 16.35,12.37 4.16,6.24 6.22,16.25 6.22,30.07 0,9.34 -1.45,15.84 -4.39,19.52 -2.94,3.7 -8.75,6.5 -17.4,8.49 9.66,2.19 16.21,5.8 19.66,10.82 3.45,5.06 5.17,12.78 5.17,23.23l0 14.83c0,10.82 -1.25,18.81 -3.72,24.04 -2.46,5.19 -6.38,8.76 -11.79,10.68 -5.4,1.93 -16.48,2.87 -33.24,2.87l-48.13 0 0 -159.99zm41.75 27.31l0 35.59c1.76,-0.06 3.11,-0.1 4.09,-0.1 3.98,0 6.55,-1.01 7.63,-3 1.12,-2.02 1.66,-7.79 1.66,-17.26 0,-5.02 -0.44,-8.53 -1.35,-10.55 -0.92,-1.99 -2.1,-3.27 -3.55,-3.81 -1.45,-0.5 -4.29,-0.81 -8.48,-0.87zm0 60.47l0 44.9c5.74,-0.2 9.42,-1.11 11.01,-2.76 1.59,-1.65 2.37,-5.73 2.37,-12.2l0 -14.97c0,-6.88 -0.71,-11.02 -2.13,-12.51 -1.42,-1.45 -5.17,-2.26 -11.25,-2.46zm142.07 -87.78l23.85 159.99 -42.59 0 -2.26 -28.72 -15.04 0 -2.26 28.72 -43.14 0 21.15 -159.99 60.29 0zm-22.12 102.95c-1.99,-18.13 -4.09,-40.58 -6.32,-67.38 -4.12,30.74 -6.72,53.19 -7.83,67.38l14.15 0zm53.13 -102.95l29.49 0c19.66,0 32.97,0.74 39.93,2.26 6.96,1.52 12.63,5.39 17.03,11.63 4.39,6.2 6.58,16.15 6.58,29.76 0,12.45 -1.55,20.81 -4.66,25.08 -3.07,4.29 -9.19,6.85 -18.31,7.69 8.24,2.06 13.82,4.79 16.66,8.23 2.83,3.4 4.59,6.57 5.27,9.44 0.71,2.86 1.04,10.75 1.04,23.66l0 42.24 -38.71 0 0 -53.23c0,-8.56 -0.67,-13.85 -2.03,-15.91 -1.31,-2.06 -4.82,-3.07 -10.54,-3.07l0 72.21 -41.75 0 0 -159.99zm41.75 27.31l0 35.59c4.67,0 7.91,-0.64 9.77,-1.92 1.86,-1.28 2.8,-5.46 2.8,-12.5l0 -8.8c0,-5.09 -0.91,-8.43 -2.7,-10.01 -1.79,-1.59 -5.1,-2.36 -9.87,-2.36zm139.31 -27.31l23.85 159.99 -42.6 0 -2.26 -28.72 -15.03 0 -2.26 28.72 -43.14 0 21.14 -159.99 60.3 0zm-22.13 102.95c-1.99,-18.13 -4.08,-40.58 -6.31,-67.38 -4.12,30.74 -6.72,53.19 -7.84,67.38l14.15 0zm-699.82 -24.35l-7.11 58.89c-1.13,9.33 -2.07,15.7 -2.83,19.09 -0.75,3.39 -2.01,6.19 -3.77,8.39 -1.74,2.22 -4.2,3.83 -7.32,4.88 -3.13,1.05 -8.14,1.57 -15,1.57l-15.04 0 0 -13.06c3.85,0 6.33,-0.19 7.42,-0.59 1.11,-0.38 1.68,-1.26 1.68,-2.59 0,-0.67 -0.52,-3.5 -1.55,-8.53l-13.59 -68.05 22.5 0 8.14 55.03 4.01 -55.03 22.46 0z"/>
   <path class="fil3" d="M715.81 4357.15l0 271.27 53.25 0 0 67.71 -141.71 0 0 -338.98 88.46 0zm237.9 0l50.53 338.98 -90.25 0 -4.79 -60.85 -31.85 0 -4.8 60.85 -91.39 0 44.8 -338.98 127.75 0zm-46.88 218.13c-4.22,-38.43 -8.65,-86 -13.38,-142.78 -8.73,65.14 -14.24,112.71 -16.6,142.78l29.98 0zm299.38 -115.28l-82.02 0 0 -25.07c0,-11.71 -1.07,-19.21 -3.14,-22.43 -2.08,-3.21 -5.52,-4.78 -10.38,-4.78 -5.3,0 -9.31,2.14 -12.03,6.5 -2.72,4.28 -4.07,10.78 -4.07,19.57 0,11.28 1.57,19.78 4.65,25.5 3,5.64 11.3,12.57 24.97,20.71 39.15,23.36 63.85,42.57 74.01,57.5 10.23,14.92 15.31,38.99 15.31,72.14 0,24.14 -2.86,41.92 -8.51,53.42 -5.66,11.43 -16.54,21 -32.78,28.71 -16.18,7.79 -35,11.65 -56.54,11.65 -23.62,0 -43.73,-4.5 -60.48,-13.43 -16.68,-8.93 -27.55,-20.29 -32.78,-34.07 -5.15,-13.86 -7.73,-33.5 -7.73,-58.86l0 -22.21 82.02 0 0 41.21c0,12.72 1.15,20.86 3.44,24.5 2.29,3.64 6.37,5.43 12.24,5.43 5.86,0 10.23,-2.29 13.09,-6.93 2.87,-4.57 4.3,-11.43 4.3,-20.42 0,-19.93 -2.72,-33 -8.16,-39.07 -5.66,-6.15 -19.4,-16.43 -41.3,-30.86 -21.9,-14.5 -36.36,-25.07 -43.51,-31.64 -7.09,-6.57 -13.03,-15.64 -17.68,-27.21 -4.65,-11.57 -7.01,-26.36 -7.01,-44.36 0,-25.93 3.29,-44.92 9.94,-56.92 6.66,-12 17.32,-21.36 32.14,-28.14 14.81,-6.79 32.63,-10.15 53.61,-10.15 22.9,0 42.36,3.72 58.54,11.07 16.1,7.43 26.77,16.72 31.99,28 5.23,11.22 7.87,30.29 7.87,57.21l0 13.43zm111.01 -102.85l66.06 0c42.58,0 71.43,1.93 86.46,5.86 15.03,3.93 26.48,10.35 34.28,19.28 7.8,8.93 12.74,18.86 14.67,29.79 1.93,11 2.93,32.49 2.93,64.64l0 118.7c0,30.43 -1.43,50.78 -4.29,61 -2.86,10.28 -7.87,18.35 -14.96,24.14 -7.16,5.79 -15.96,9.78 -26.48,12.14 -10.45,2.29 -26.27,3.43 -47.38,3.43l-111.29 0 0 -338.98zm88.46 57.85l0 223.28c12.52,0 20.25,-2.57 23.12,-7.64 2.93,-5.15 4.36,-19 4.36,-41.65l0 -131.85c0,-15.35 -0.5,-25.21 -1.43,-29.56 -1,-4.36 -3.15,-7.5 -6.65,-9.5 -3.44,-2.07 -9.88,-3.08 -19.4,-3.08zm349.41 -57.85l0 226.63c0,25.71 -0.86,43.78 -2.51,54.14 -1.72,10.43 -6.65,21.14 -14.89,32.07 -8.23,11 -19.11,19.29 -32.56,24.93 -13.53,5.64 -29.42,8.5 -47.74,8.5 -20.25,0 -38.15,-3.36 -53.6,-10.08 -15.54,-6.71 -27.13,-15.42 -34.79,-26.14 -7.73,-10.78 -12.24,-22.14 -13.67,-34.06 -1.36,-11.93 -2.07,-37.07 -2.07,-75.29l0 -200.7 88.46 0 0 254.27c0,14.79 0.79,24.29 2.36,28.36 1.57,4.14 4.8,6.21 9.59,6.21 5.44,0 9.02,-2.29 10.59,-6.79 1.58,-4.57 2.37,-15.28 2.37,-32.14l0 -249.91 88.46 0zm34.28 0l62.48 0c41.65,0 69.85,1.57 84.59,4.79 14.75,3.21 26.77,11.42 36.08,24.64 9.3,13.14 13.95,34.21 13.95,63.06 0,26.36 -3.29,44.07 -9.87,53.15 -6.52,9.07 -19.47,14.49 -38.8,16.28 17.47,4.36 29.28,10.14 35.29,17.43 6.01,7.21 9.73,13.92 11.16,20 1.51,6.07 2.22,22.78 2.22,50.13l0 89.5 -82.02 0 0 -112.78c0,-18.14 -1.43,-29.35 -4.29,-33.71 -2.79,-4.36 -10.24,-6.5 -22.33,-6.5l0 152.99 -88.46 0 0 -338.98zm88.46 57.85l0 75.43c9.88,0 16.74,-1.36 20.68,-4.07 3.94,-2.72 5.94,-11.57 5.94,-26.5l0 -18.64c0,-10.79 -1.93,-17.86 -5.72,-21.22 -3.8,-3.35 -10.81,-5 -20.9,-5zm295.16 -57.85l50.53 338.98 -90.26 0 -4.79 -60.85 -31.85 0 -4.79 60.85 -91.4 0 44.8 -338.98 127.76 0zm-46.88 218.13c-4.23,-38.43 -8.66,-86 -13.39,-142.78 -8.73,65.14 -14.24,112.71 -16.6,142.78l29.99 0zm309.68 -218.13l0 338.98 -77.29 0 -45.95 -154.13 0 154.13 -73.86 0 0 -338.98 73.86 0 49.38 152.63 0 -152.63 73.86 0zm237.69 125.14l-88.46 0 0 -30.79c0,-19.42 -0.79,-31.57 -2.44,-36.43 -1.64,-4.92 -5.58,-7.35 -11.73,-7.35 -5.3,0 -8.95,2.07 -10.88,6.28 -1.94,4.15 -2.87,14.93 -2.87,32.22l0 162.56c0,15.14 0.93,25.21 2.87,30 1.93,4.78 5.72,7.21 11.45,7.21 6.3,0 10.52,-2.71 12.81,-8.14 2.22,-5.43 3.36,-16.07 3.36,-31.86l0 -40.14 -17.17 0 0 -51.42 103.06 0 0 181.7 -55.61 0 -8.16 -24.28c-6.01,10.5 -13.6,18.35 -22.69,23.64 -9.16,5.28 -19.97,7.93 -32.35,7.93 -14.82,0 -28.63,-3.58 -41.58,-10.79 -12.88,-7.21 -22.69,-16.07 -29.35,-26.71 -6.72,-10.57 -10.88,-21.72 -12.59,-33.36 -1.65,-11.64 -2.51,-29.14 -2.51,-52.42l0 -100.71c0,-32.36 1.72,-55.86 5.23,-70.5 3.5,-14.71 13.52,-28.14 30.06,-40.35 16.53,-12.22 37.93,-18.29 64.2,-18.29 25.83,0 47.23,5.29 64.27,15.93 17.03,10.64 28.2,23.21 33.35,37.79 5.15,14.64 7.73,35.78 7.73,63.63l0 14.65zm235.89 73.56c0,34.07 -0.79,58.14 -2.43,72.28 -1.57,14.22 -6.59,27.15 -15.03,38.86 -8.45,11.71 -19.9,20.71 -34.28,27 -14.39,6.28 -31.13,9.43 -50.24,9.43 -18.18,0 -34.43,-3 -48.89,-8.93 -14.45,-5.93 -26.12,-14.79 -34.85,-26.64 -8.81,-11.86 -14.03,-24.79 -15.75,-38.72 -1.65,-13.99 -2.5,-38.42 -2.5,-73.28l0 -57.99c0,-34.07 0.78,-58.14 2.43,-72.28 1.58,-14.22 6.58,-27.15 15.03,-38.86 8.44,-11.71 19.9,-20.71 34.28,-27 14.39,-6.28 31.14,-9.43 50.25,-9.43 18.17,0 34.42,3 48.88,8.93 14.46,5.93 26.12,14.79 34.85,26.64 8.81,11.86 14.03,24.79 15.75,38.71 1.64,14 2.5,38.43 2.5,73.29l0 57.99zm-88.46 -111.35c0,-15.71 -0.86,-25.78 -2.57,-30.21 -1.72,-4.36 -5.23,-6.57 -10.53,-6.57 -4.51,0 -7.94,1.78 -10.37,5.36 -2.37,3.5 -3.58,13.99 -3.58,31.42l0 158.21c0,19.64 0.79,31.78 2.36,36.35 1.58,4.64 5.23,6.93 10.95,6.93 5.87,0 9.66,-2.64 11.31,-7.93 1.64,-5.28 2.43,-17.93 2.43,-37.85l0 -155.71z"/>
  </g>
 </g>
</svg>
