<?xml version="1.0" encoding="UTF-8"?>
<!DOCTYPE svg PUBLIC "-//W3C//DTD SVG 1.1//EN" "http://www.w3.org/Graphics/SVG/1.1/DTD/svg11.dtd">
<!-- Creator: CorelDRAW 2017 -->
<svg xmlns="http://www.w3.org/2000/svg" xml:space="preserve" width="49.6992mm" height="62.3146mm" version="1.1" style="shape-rendering:geometricPrecision; text-rendering:geometricPrecision; image-rendering:optimizeQuality; fill-rule:evenodd; clip-rule:evenodd"
viewBox="0 0 4969.92 6231.46"
 xmlns:xlink="http://www.w3.org/1999/xlink">
 <defs>
  <style type="text/css">
   <![CDATA[
    .fil0 {fill:#FEFEFE}
    .fil4 {fill:#FEFEFE}
    .fil3 {fill:#D9DADA}
    .fil1 {fill:#F5B2B6}
    .fil2 {fill:black}
   ]]>
  </style>
    <clipPath id="id0">
     <path d="M505.89 898.42l3964.51 -18.33 -11.04 -820.83 -3959.83 0 6.36 839.16z"/>
    </clipPath>
    <clipPath id="id1">
     <path d="M505.89 834.83l3964.51 4.85 -11.04 5332.51 -3959.83 0 6.36 -5337.36z"/>
    </clipPath>
     <clipPath id="id2">
      <path d="M618.41 5098.43l2433.5 0 0 976.97 -2433.5 0 0 -976.97z"/>
     </clipPath>
 </defs>
 <g id="Capa_x0020_1">
  <metadata id="CorelCorpID_0Corel-Layer"/>
  <g id="_2607503226944">
   <g style="clip-path:url(#id0)">
    <image transform="matrix(0.17484 -0 -0 -0.686349 510.564 880.088)" x="0" y="0" width="22648.32" height="33866.66" xlink:href="02-drag-queen-raven_Images\02-drag-queen-raven_ImgID1.png"/>
   </g>
   <g style="clip-path:url(#id1)">
    <image x="510.56" y="839.68" width="3959.83" height="6141.45" xlink:href="02-drag-queen-raven_Images\02-drag-queen-raven_ImgID2.png"/>
   </g>
   <g>
    <g style="clip-path:url(#id2)">
     <image x="618.41" y="5098.43" width="2433.5" height="976.97" xlink:href="02-drag-queen-raven_Images\02-drag-queen-raven_ImgID3.png"/>
    </g>
   </g>
   <path class="fil0" d="M700.31 5179.84l136.33 0c90.89,0 152.42,3.77 184.59,11.49 32.17,7.72 58.41,27.45 78.71,59.18 20.3,31.57 30.45,82.17 30.45,151.48 0,63.3 -7.19,105.84 -21.55,127.62 -14.21,21.79 -42.48,34.83 -84.64,39.12 38.1,10.46 63.87,24.36 76.98,41.85 13.12,17.33 21.25,33.46 24.37,48.03 3.28,14.59 4.84,54.73 4.84,120.43l0 214.94 -178.96 0 0 -270.86c0,-43.58 -3.13,-70.51 -9.37,-80.97 -6.09,-10.47 -22.34,-15.61 -48.73,-15.61l0 367.44 -193.02 0 0 -814.14zm193.02 138.95l0 181.15c21.55,0 36.54,-3.26 45.13,-9.78 8.59,-6.52 12.97,-27.79 12.97,-63.64l0 -44.77c0,-25.91 -4.22,-42.89 -12.5,-50.95 -8.27,-8.06 -23.58,-12.01 -45.6,-12.01zm644.02 -138.95l110.25 814.14 -196.92 0 -10.46 -146.15 -69.5 0 -10.46 146.15 -199.42 0 97.76 -814.14 278.75 0zm-102.29 523.89c-9.21,-92.29 -18.89,-206.54 -29.2,-342.91 -19.05,156.44 -31.08,270.69 -36.23,342.91l65.43 0zm682.29 -523.89l-97.61 814.14 -291.87 0 -111.81 -814.14 203.33 0c22.95,224.55 39.66,414.45 50.12,569.69 10.31,-156.96 20.93,-296.25 31.71,-417.88l12.8 -151.81 203.33 0zm33.26 0l321.39 0 0 162.62 -128.37 0 0 155.42 119.93 0 0 154.39 -119.93 0 0 179.09 141.48 0 0 162.62 -334.5 0 0 -814.14zm819.39 0l0 814.14 -168.65 0 -100.26 -370.19 0 370.19 -161.16 0 0 -814.14 161.16 0 107.75 366.59 0 -366.59 161.16 0z"/>
   <rect class="fil1" x="670.8" y="4825.66" width="810.04" height="301.94"/>
   <path class="fil2" d="M737.29 4908.69l32.45 0c14.97,0 27.17,7.79 36.56,23.38 3.09,6.08 4.64,12.4 4.64,18.98l0 1.53c0,14.61 -7.1,26.6 -21.3,35.96l-1.02 0.53c22.74,39.17 34.1,59.48 34.1,60.91l0 1.92c0,5.56 -3.44,8.91 -10.3,10.06l-0.63 0c-5,0 -9.81,-4.96 -14.38,-14.85l-30.98 -52.66 -17.29 0 0 57.48c0,5.53 -3.45,8.88 -10.34,10.03l-0.63 0c-5.73,0 -9.25,-3.53 -10.55,-10.55l0 -131.22c0.81,-7.66 4.04,-11.5 9.67,-11.5zm11.85 20.97l0 43.61 19.02 0c10.68,0 17.75,-5.77 21.16,-17.33l0.32 -2.8 0 -2.86c0,-8.42 -4.78,-14.86 -14.38,-19.29 -2.67,-0.88 -7.1,-1.33 -13.29,-1.33l-12.83 0zm88.56 -20.55l1.86 0c6.5,1.36 9.77,4.44 9.77,9.23l0 82.5c0,16.6 4.64,27.61 13.89,33.1 5.91,4.58 12.45,6.85 19.65,6.85 13.85,0 24.33,-7.1 31.4,-21.29 1.44,-4.43 2.14,-9.12 2.14,-14.04l0 -86.32c1.16,-6.67 4.54,-10.03 10.09,-10.03l1.44 0c6.51,1.22 9.78,4.58 9.78,10.03l0 90.19c0,16.39 -7.81,30.62 -23.45,42.71 -9.95,6.6 -20.04,9.92 -30.27,9.92l-2.67 0c-17.16,0 -32.03,-8.31 -44.65,-24.98 -5.77,-9.02 -8.65,-20.03 -8.65,-33.06l0 -83.45c0.81,-7.59 4.04,-11.36 9.67,-11.36zm209.14 111.48l0 -101.56c1.23,-6.46 4.61,-9.71 10.09,-9.71l1.13 0c5.55,0 8.93,3.35 10.09,10.03l0 131.85c0,5.94 -3.66,9.54 -11.01,10.76 -4.18,0 -9.63,-4.92 -16.27,-14.74l-75.45 -95.83 0 100.13c0,5.52 -3.45,8.87 -10.3,10.03l-0.49 0c-5.7,0 -9.21,-3.5 -10.52,-10.45l0 -130.42c0.81,-7.59 4.05,-11.36 9.71,-11.36l1.54 0c4.58,0 8.3,3 11.11,9.02 3.62,4.09 30.41,38.19 80.37,102.25zm116.97 -63.43l-28.83 99.67c-2.81,3.42 -5.84,5.13 -9.07,5.13l-1.55 0c-6.04,0 -9.95,-5.69 -11.74,-17.12 -22.25,-75.45 -34.35,-117.38 -36.35,-125.7 1.58,-6.95 4.85,-10.45 9.77,-10.45l1.65 0c6.12,0 9.95,4.68 11.54,14.05l26.15 90.65c18.56,-64.83 28.58,-98.44 30.09,-100.92 2.47,-2.52 5.1,-3.78 7.95,-3.78l1.12 0c6.37,0 10.38,5.42 11.96,16.29 1.69,4.71 10.3,34.1 25.73,88.2l29.04 -99.35c2.68,-3.43 5.42,-5.14 8.26,-5.14l1.83 0c6.54,1.36 9.81,4.44 9.81,9.23l0 2.34 -39.87 137.2c-3.09,3 -6.04,4.5 -8.85,4.5l-0.43 0c-6.64,0 -10.79,-5.59 -12.44,-16.8 -13.26,-44.81 -21.83,-74.16 -25.77,-88zm149.02 25.55l-12.44 -32.47 -12.06 32.47 24.5 0zm-12.65 -73.18c6.36,0 10.86,5.45 13.5,16.39 31.15,80.8 46.93,122.35 47.25,124.69l0 1.32c0,5.53 -3.34,8.88 -10.09,10.03l-0.7 0c-6.19,0 -10.41,-5.1 -12.7,-15.27l-16.55 -42.81 -41 0 -20.81 54.59c-3.09,2.34 -5.76,3.49 -8.05,3.49l-1.12 0c-6.72,-1.22 -10.09,-4.68 -10.09,-10.34l0 -0.94 13.39 -36.03c22.99,-59.59 35.54,-92.78 37.58,-99.7 3.31,-3.6 6.44,-5.42 9.39,-5.42zm99.04 57.52c24.25,-36.24 37.05,-54.83 38.35,-55.81 1.93,-1.43 3.73,-2.13 5.38,-2.13l2.36 0c4.74,0 7.98,3.36 9.67,10.03 0,3.14 -4.61,11.01 -13.89,23.55l-31.01 46.06 0 61.86c-0.88,7.58 -4.15,11.35 -9.74,11.35l-1.65 0c-4.96,0 -8.33,-2.93 -10.12,-8.8l0 -64.09c0,-0.35 -5.28,-8.32 -15.86,-23.94l-28.13 -42.11 -0.63 -3.57c1.58,-6.88 4.85,-10.34 9.81,-10.34l1.65 0c4.71,0 8.33,3.01 10.79,9.01l33.02 48.93z"/>
   <path class="fil1" d="M1272.56 540.68c1.3,112.76 -35.36,208.35 -109.98,286.93 -74.62,78.41 -166.11,118.04 -274.47,118.72l-241.37 2.05 0 -810.3 239.43 0c107.06,0 197.9,39.12 272.52,117.19 74.62,78.24 112.57,173.32 113.87,285.41zm-131.39 1.02c-0.65,-74.67 -25.47,-137.6 -74.46,-188.97 -48.99,-51.2 -109.17,-76.88 -180.54,-76.88l-108.04 0 0 532.71 109.01 0c71.37,-0.68 131.72,-26.7 181.03,-77.9 49.31,-51.36 73.65,-114.3 73,-188.96zm402.46 11.39c-35.69,0 -66.18,13.1 -91.49,39.29 -25.3,26.2 -37.96,57.83 -37.96,95.25l0 257.68 -131.39 0 0 -257.68c0,-76.03 25.31,-140.32 75.92,-193.05 50.61,-52.56 112.25,-78.92 184.92,-78.92l0 137.43zm596.15 392.22l-139.67 0 -27.58 -79.6c-51.91,63.96 -118.09,95.93 -198.71,95.93 -72.67,0 -134.15,-26.53 -184.44,-79.6 -50.29,-53.07 -75.43,-117.36 -75.43,-192.88 0,-57.83 15.57,-110.04 46.72,-156.65 31.14,-46.6 72.67,-79.77 124.58,-99.5 30.5,-11.57 60.34,-17.35 89.54,-17.35 55.16,0 104.96,16.5 149.4,49.5 44.45,32.99 76.08,76.71 94.9,131.13l120.69 349.02zm-236.51 -256.66c0,-47.79 -18.49,-85.04 -55.48,-111.58 -21.41,-15.81 -46.07,-23.64 -73.97,-23.64 -45.42,0 -80.46,19.05 -105.11,57.32 -15.58,23.98 -23.37,49.84 -23.37,77.9 0,47.11 18.5,84.03 55.48,110.56 22.71,16.5 47.04,24.66 73,24.66 35.69,0 66.18,-13.1 91.49,-39.46 25.31,-26.19 37.96,-58.17 37.96,-95.76zm730.46 392.39c0,97.98 -38.28,173.49 -114.85,226.56 -44.12,30.62 -92.46,45.92 -145.02,45.92 -92.14,0 -164.16,-40.48 -216.07,-121.44 -29.85,-46.94 -44.77,-97.29 -44.77,-151.04 0,-35.37 6.49,-69.39 19.46,-102.05l121.67 51.03c-6.49,16.33 -9.74,33.33 -9.74,51.02 0,37.42 12.66,69.23 37.96,95.42 25.31,26.2 55.8,39.29 91.49,39.29 35.04,0 65.21,-13.26 90.52,-39.97 25.3,-26.7 37.96,-58.34 37.96,-95.25 0,-60.04 -26.93,-102.05 -80.63,-126.03 -16.22,4.08 -32.28,6.12 -48.5,6.12 -73.16,0 -134.8,-26.36 -184.93,-79.09 -50.12,-52.73 -75.26,-117.53 -75.26,-194.41 0,-76.2 25.14,-140.66 75.59,-193.39 50.45,-52.73 111.93,-79.09 184.28,-79.09l75.91 -188.8 103.98 46.27 -69.1 169.06c45.74,23.13 82.24,56.81 109.33,101.04 27.09,44.22 40.72,92.52 40.72,144.91 0,77.56 -26.93,142.87 -80.78,195.94 53.85,53.75 80.78,119.74 80.78,197.98zm-131.39 -393.92c0,-36.74 -12.66,-68.38 -37.96,-94.91 -25.31,-26.53 -55.48,-39.8 -90.52,-39.8 -35.69,0 -66.18,13.1 -91.49,39.29 -25.3,26.19 -37.96,58 -37.96,95.42 0,37.42 12.66,69.4 37.96,95.93 25.31,26.53 55.8,39.8 91.49,39.8 35.69,0 66.02,-13.27 91,-39.8 24.99,-26.53 37.48,-58.51 37.48,-95.93zm550.4 -271.46l-240.41 529.65 -243.32 -529.65 155.73 0 88.57 217.37 88.57 -217.37 150.86 0zm456.96 271.63c0,13.44 -0.97,27.04 -2.91,40.65l-380.56 0c8.43,28.58 24.01,51.54 46.72,68.89 22.7,17.35 48.33,26.02 76.89,26.02 39.58,0 72.35,-15.99 98.3,-47.96l79.81 111.23c-49.96,49.67 -109.33,74.5 -178.11,74.5 -73.33,0 -135.13,-26.36 -185.42,-78.92 -50.29,-52.73 -75.42,-117.36 -75.42,-194.07 0,-76.03 25.3,-140.32 75.91,-193.05 50.61,-52.56 112.25,-78.92 184.93,-78.92 72.67,0 134.15,26.19 184.44,78.75 50.28,52.56 75.42,116.85 75.42,192.88zm-146.96 -62.42c-24.01,-47.63 -61.64,-71.44 -112.9,-71.44 -51.91,0 -89.87,23.81 -113.88,71.44l226.78 0zm514.39 163.96c0,32.66 -10.38,62.26 -31.15,88.96 -41.52,53.24 -100.57,78.75 -177.14,76.71 -30.49,-0.68 -63.75,-7.82 -99.76,-21.43 -36.01,-13.61 -65.37,-30.62 -88.08,-51.03l73 -98.99c35.04,34.7 72.34,52.05 111.93,52.05l2.91 0c16.23,0 30.83,-3.07 43.8,-9.19 16.87,-8.16 25.31,-19.73 25.31,-34.7l0 -4.08c-1.95,-15.65 -12.01,-26.87 -30.17,-33.68 -7.14,-1.35 -22.39,-4.42 -45.75,-9.18 -29.2,-6.12 -53.85,-13.61 -73.97,-22.45 -59.05,-26.54 -88.57,-73.14 -88.57,-139.81 0,-63.96 30.17,-111.92 90.52,-143.9 26.6,-14.28 55.47,-21.77 86.62,-22.45 32.45,-0.68 66.18,5.1 101.22,17.35 40.23,14.29 68.78,33 85.65,56.13l-87.59 82.66c-22.71,-24.49 -47.37,-36.74 -73.97,-36.74 -41.53,0 -62.3,14.29 -62.3,43.04l0 2.04c0,13.6 16.88,25.17 50.62,34.69 2.59,0.68 24,5.11 64.23,13.27 81.76,16.5 122.64,68.89 122.64,157.67l0 3.06zm262.31 156.48c-72.68,0 -134.32,-26.36 -184.93,-78.92 -50.61,-52.72 -75.91,-117.19 -75.91,-193.22l0 -535.09 131.39 0 0 277.58 129.45 0 0 117.36 -129.45 0 0 139.81c0,37.42 12.65,69.23 37.96,95.42 25.3,26.2 55.8,39.29 91.49,39.29l0 137.77zm171.78 -647.01c0,23.13 -7.46,42.69 -22.38,58.68 -14.92,15.99 -33.41,23.98 -55.48,23.98 -22.06,0 -40.71,-7.99 -55.96,-23.98 -15.25,-15.99 -22.88,-35.55 -22.88,-58.68 0,-23.13 7.63,-42.52 22.88,-58.17 15.25,-15.65 33.9,-23.47 55.96,-23.47 21.41,0 39.74,7.99 54.99,23.98 15.25,15.99 22.87,35.21 22.87,57.66zm-11.67 647.01l-131.4 0 0 -529.65 131.4 0 0 529.65z"/>
   <path class="fil3" d="M3814.02 5635.16c-5.38,0 -10.09,-0.71 -14.12,-2.1 -4.01,-1.41 -7.44,-3.51 -10.27,-6.27 -3.2,-3.2 -5.47,-7 -6.77,-11.42 -1.32,-4.41 -1.97,-9.88 -1.97,-16.35l0 -56.83 12.22 0 0 56.7c0,4.18 0.28,7.71 0.8,10.59 0.53,2.86 1.58,5.43 3.13,7.7 1.64,2.45 3.87,4.31 6.68,5.56 2.8,1.27 6.22,1.9 10.3,1.9 3.8,0 7.18,-0.63 10.12,-1.9 2.97,-1.25 5.26,-3.11 6.9,-5.56 1.51,-2.31 2.54,-4.86 3.11,-7.68 0.54,-2.8 0.81,-6.25 0.81,-10.32l0 -56.99 12.23 0 0 56.83c0,6.32 -0.65,11.73 -1.93,16.26 -1.3,4.54 -3.57,8.36 -6.81,11.51 -2.92,2.8 -6.3,4.91 -10.19,6.29 -3.88,1.39 -8.63,2.08 -14.24,2.08zm105.21 -1.88l-11.6 0 0 -38.9c0,-3.13 -0.14,-6.06 -0.46,-8.77 -0.31,-2.72 -0.88,-4.89 -1.74,-6.52 -0.95,-1.71 -2.27,-2.98 -3.95,-3.82 -1.69,-0.84 -3.97,-1.25 -6.9,-1.25 -2.85,0 -5.81,0.77 -8.88,2.29 -3.05,1.53 -6.03,3.51 -8.95,5.96l0 51.01 -11.6 0 0 -68.29 11.6 0 0 7.61c3.44,-3.07 6.85,-5.41 10.21,-7.04 3.38,-1.63 6.93,-2.44 10.65,-2.44 6.79,0 12.08,2.21 15.88,6.64 3.83,4.4 5.74,10.81 5.74,19.21l0 44.31zm38.52 1.38c-6.32,0 -11.26,-1.77 -14.78,-5.34 -3.53,-3.55 -5.3,-9.19 -5.3,-16.88l0 -37.8 -7.82 0 0 -9.65 7.82 0 0 -19.67 11.6 0 0 19.67 21.3 0 0 9.65 -21.3 0 0 32.46c0,3.46 0.06,6.14 0.19,7.99 0.12,1.88 0.59,3.64 1.4,5.27 0.7,1.42 1.83,2.5 3.39,3.21 1.57,0.71 3.67,1.07 6.34,1.07 1.89,0 3.72,-0.29 5.48,-0.86 1.77,-0.56 3.05,-1.02 3.83,-1.4l0.67 0 0 10.32c-2.18,0.63 -4.39,1.11 -6.62,1.44 -2.24,0.36 -4.3,0.52 -6.2,0.52zm76.49 -1.38l-11.59 0 0 -7.6c-3.57,3.09 -6.96,5.45 -10.17,7.06 -3.19,1.61 -6.76,2.42 -10.69,2.42 -3.01,0 -5.82,-0.48 -8.47,-1.46 -2.65,-0.98 -4.96,-2.53 -6.93,-4.65 -1.98,-2.11 -3.51,-4.79 -4.59,-8 -1.09,-3.22 -1.63,-7.15 -1.63,-11.74l0 -44.32 11.59 0 0 38.91c0,3.61 0.13,6.62 0.4,9.02 0.28,2.38 0.89,4.47 1.81,6.27 0.95,1.75 2.23,3.03 3.85,3.84 1.63,0.81 3.94,1.23 6.99,1.23 2.84,0 5.84,-0.79 9.03,-2.4 3.22,-1.61 6.14,-3.57 8.81,-5.91l0 -50.96 11.59 0 0 68.29zm45.38 1.51c-4.73,0 -9.05,-0.73 -13.01,-2.18 -3.92,-1.44 -7.33,-3.63 -10.16,-6.57 -2.84,-2.93 -5.02,-6.62 -6.6,-11.09 -1.56,-4.47 -2.33,-9.71 -2.33,-15.75 0,-5.99 0.82,-11.17 2.43,-15.54 1.62,-4.36 3.79,-8.01 6.5,-11 2.71,-2.97 6.09,-5.26 10.14,-6.87 4.04,-1.61 8.39,-2.42 13.03,-2.42 3.78,0 7.44,0.52 10.95,1.58 3.5,1.07 6.63,2.3 9.39,3.68l0 12.9 -0.68 0c-0.81,-0.69 -1.89,-1.48 -3.19,-2.37 -1.28,-0.88 -2.86,-1.8 -4.7,-2.74 -1.6,-0.79 -3.49,-1.51 -5.68,-2.11 -2.18,-0.6 -4.28,-0.92 -6.3,-0.92 -5.99,0 -10.82,2.26 -14.45,6.75 -3.64,4.49 -5.47,10.83 -5.47,19.06 0,8.04 1.77,14.33 5.28,18.82 3.5,4.49 8.4,6.74 14.64,6.74 3.78,0 7.4,-0.77 10.8,-2.31 3.42,-1.53 6.43,-3.53 9.07,-5.96l0.68 0 0 12.91c-1.16,0.54 -2.59,1.17 -4.31,1.92 -1.72,0.77 -3.3,1.32 -4.68,1.69 -1.98,0.57 -3.75,1.01 -5.3,1.32 -1.58,0.31 -3.59,0.46 -6.05,0.46zm89.44 -1.51l-15.19 0 -25.68 -32.97 -4.64 4.43 0 28.54 -11.6 0 0 -95.22 11.6 0 0 55.82 27.29 -28.89 14.43 0 -28.28 28.55 32.07 39.74zm35.89 1.51c-10.96,0 -19.49,-3.07 -25.57,-9.19 -6.07,-6.12 -9.09,-14.83 -9.09,-26.1 0,-11.11 2.94,-19.95 8.82,-26.53 5.86,-6.57 13.55,-9.85 23.05,-9.85 4.28,0 8.07,0.6 11.34,1.83 3.3,1.21 6.18,3.14 8.64,5.75 2.48,2.61 4.37,5.78 5.67,9.56 1.33,3.76 1.98,8.37 1.98,13.82l0 6.25 -47.78 0c0,7.92 2.02,13.97 6.05,18.15 4.04,4.2 9.62,6.28 16.75,6.28 2.54,0 5.06,-0.29 7.5,-0.85 2.45,-0.57 4.66,-1.32 6.64,-2.22 2.1,-0.94 3.88,-1.83 5.31,-2.71 1.45,-0.88 2.65,-1.71 3.59,-2.49l0.68 0 0 12.56c-1.37,0.52 -3.05,1.19 -5.07,1.98 -2.01,0.79 -3.82,1.42 -5.42,1.86 -2.27,0.6 -4.3,1.08 -6.13,1.42 -1.83,0.31 -4.16,0.48 -6.96,0.48zm13.62 -43.23c-0.09,-3.09 -0.47,-5.77 -1.12,-8 -0.65,-2.23 -1.61,-4.13 -2.83,-5.68 -1.37,-1.69 -3.11,-3.01 -5.23,-3.9 -2.13,-0.9 -4.75,-1.34 -7.9,-1.34 -3.09,0 -5.72,0.46 -7.88,1.38 -2.17,0.92 -4.14,2.23 -5.91,3.99 -1.74,1.79 -3.04,3.78 -3.97,5.95 -0.9,2.17 -1.47,4.72 -1.72,7.6l36.56 0zm77.39 41.72l-11.6 0 0 -6.99c-1.8,1.5 -3.38,2.76 -4.68,3.74 -1.32,0.98 -2.88,1.88 -4.64,2.69 -1.64,0.77 -3.36,1.38 -5.13,1.8 -1.77,0.43 -3.82,0.64 -6.18,0.64 -3.73,0 -7.2,-0.77 -10.4,-2.31 -3.19,-1.55 -5.9,-3.83 -8.13,-6.79 -2.26,-3.01 -4.01,-6.72 -5.25,-11.15 -1.24,-4.43 -1.85,-9.5 -1.85,-15.25 0,-5.99 0.78,-11.17 2.36,-15.56 1.55,-4.38 3.71,-8.18 6.47,-11.46 2.52,-2.97 5.54,-5.31 9.11,-7 3.57,-1.69 7.3,-2.52 11.22,-2.52 3.45,0 6.45,0.37 9.02,1.12 2.54,0.75 5.25,1.92 8.08,3.53l0 -29.71 11.6 0 0 95.22zm-11.6 -16.66l0 -39.3c-2.87,-1.34 -5.46,-2.28 -7.75,-2.78 -2.29,-0.52 -4.77,-0.77 -7.43,-0.77 -5.99,0 -10.66,2.21 -14.04,6.62 -3.38,4.4 -5.06,10.77 -5.06,19.11 0,8.01 1.3,14.13 3.88,18.39 2.61,4.24 6.77,6.37 12.49,6.37 3.04,0 6.11,-0.69 9.2,-2.07 3.09,-1.37 6.01,-3.23 8.71,-5.57z"/>
   <path class="fil4" d="M3528.31 5822.54l-52.04 0 0 -24.68 52.04 0c16.29,0 28.28,-2.5 35.96,-7.5 9.27,-6.19 13.9,-16.78 13.9,-31.79l0 -77.99 24.83 0 0 77.99c0,22.9 -6.82,39.56 -20.46,49.95 -12.05,9.35 -30.13,14.02 -54.23,14.02zm164.36 -117.28c-14.31,0 -25.89,4.67 -34.77,14.02 -7.81,8.29 -11.98,18.56 -12.51,30.8 -0.4,12.9 3.31,23.83 11.12,32.78 8.74,10 20.79,15 36.16,15l39.92 0c15.37,0 27.42,-5 36.15,-15 7.82,-8.95 11.46,-19.88 10.93,-32.78 -0.4,-12.24 -4.57,-22.51 -12.51,-30.8 -8.74,-9.35 -20.26,-14.02 -34.57,-14.02l-39.92 0zm0 117.28c-22.25,0 -40.13,-7.56 -53.64,-22.7 -12.18,-13.83 -18.27,-30.41 -18.27,-49.76 0,-19.09 5.82,-35.02 17.48,-47.78 13.24,-14.49 31.38,-21.72 54.43,-21.72l39.92 0c23.05,0 41.12,7.23 54.23,21.72 11.79,12.76 17.68,28.69 17.68,47.78 0,19.35 -6.09,35.93 -18.27,49.76 -13.51,15.14 -31.39,22.7 -53.64,22.7l-39.92 0zm242.25 -39.88l-67.76 0 15.13 -24.68 37.8 0 -24.86 -40.88 -64.43 105.25 -31.98 0 77.47 -128.35c2.52,-4.08 5.76,-7.43 9.74,-10.07 3.44,-2.37 6.49,-3.62 9.13,-3.75 2.92,-0.26 6.16,0.72 9.74,2.96 4.1,2.63 7.54,6.25 10.33,10.86l75.88 128.35 -32.02 0 -24.17 -39.69zm188.36 32.78l-91.57 -91.49 0 98.59 -24.83 0 0 -129.53c0,-3.81 0.99,-6.84 2.98,-9.08 1.98,-2.23 4.57,-3.35 7.74,-3.35 4.64,0 9.34,2.43 14.11,7.3l91.57 91.22 0 -98.52 24.83 0 0 129.72c0,9.09 -3.11,13.63 -9.33,13.63 -4.64,0 -9.8,-2.83 -15.5,-8.49zm161.78 -77.21l0 24.68 -81.65 0 0 -24.68 81.65 0zm-92.17 59.63l98.52 0 0 24.68 -123.36 0 0 -141.97 123.36 0 0 24.69 -98.52 0 0 92.6zm12.31 -123.21l50.46 -17.18 -3.58 -11.25 -50.45 17.17 3.57 11.26zm-967.07 236.23c10.07,7.77 15.1,17.44 15.1,29.02 0,11.06 -4.77,20.47 -14.3,28.24 -10.46,8.56 -24.7,12.83 -42.71,12.83l-102.3 0 0 -141.96 102.3 0c18.01,0 32.25,4.41 42.71,13.22 9.53,7.9 14.3,17.58 14.3,29.03 0,11.72 -5.03,21.59 -15.1,29.62zm-37.94 45.41c9.14,0 16.42,-1.71 21.85,-5.13 4.77,-3.03 7.16,-6.78 7.16,-11.26 0,-4.47 -2.45,-8.22 -7.35,-11.25 -5.3,-3.55 -12.52,-5.33 -21.66,-5.33l-66.94 0 0 -24.68 66.94 0c9.14,0 16.36,-1.85 21.66,-5.53 4.9,-3.29 7.35,-7.31 7.35,-12.05 0,-4.74 -2.39,-8.75 -7.16,-12.04 -5.43,-3.56 -12.71,-5.33 -21.85,-5.33l-81.44 0 0 92.6 81.44 0zm167.34 24.88l-8.54 0c-24.1,0 -42.25,-4.67 -54.43,-14.02 -13.51,-10.4 -20.26,-27.05 -20.26,-49.95l0 -78 24.83 0 0 78c0,15 4.63,25.6 13.9,31.79 7.68,5 19.67,7.5 35.96,7.5l8.54 0c16.29,0 28.27,-2.5 35.95,-7.5 9.27,-6.19 13.91,-16.79 13.91,-31.79l0 -78 24.83 0 0 78c0,22.9 -6.82,39.55 -20.46,49.95 -12.05,9.35 -30.13,14.02 -54.23,14.02zm179.65 -117.29l0 117.29 -24.83 0 0 -117.29 -56.41 0 0 -24.68 137.46 0 0 24.68 -56.22 0zm148.07 0l0 117.29 -24.83 0 0 -117.29 -56.42 0 0 -24.68 137.47 0 0 24.68 -56.22 0zm144.1 0c-14.31,0 -25.9,4.68 -34.77,14.02 -7.81,8.3 -11.98,18.56 -12.51,30.81 -0.4,12.9 3.31,23.82 11.12,32.77 8.74,10.01 20.79,15.01 36.16,15.01l39.92 0c15.36,0 27.41,-5 36.15,-15.01 7.82,-8.95 11.46,-19.87 10.93,-32.77 -0.4,-12.25 -4.57,-22.51 -12.52,-30.81 -8.74,-9.34 -20.26,-14.02 -34.56,-14.02l-39.92 0zm0 117.29c-22.26,0 -40.13,-7.57 -53.64,-22.71 -12.18,-13.82 -18.28,-30.4 -18.28,-49.75 0,-19.09 5.83,-35.02 17.49,-47.79 13.24,-14.48 31.38,-21.72 54.43,-21.72l39.92 0c23.04,0 41.12,7.24 54.23,21.72 11.79,12.77 17.68,28.7 17.68,47.79 0,19.35 -6.09,35.93 -18.28,49.75 -13.5,15.14 -31.38,22.71 -53.63,22.71l-39.92 0zm252.55 -7.11l-91.58 -91.48 0 98.59 -24.83 0 0 -129.53c0,-3.82 1,-6.84 2.98,-9.08 1.99,-2.24 4.57,-3.36 7.75,-3.36 4.63,0 9.34,2.44 14.1,7.31l91.58 91.22 0 -98.53 24.83 0 0 129.73c0,9.08 -3.11,13.62 -9.34,13.62 -4.63,0 -9.8,-2.82 -15.49,-8.49zm164.95 7.11l-108.86 0 0 -24.68 108.86 0c8.21,0 14.77,-2.04 19.67,-6.12 4.5,-3.82 6.75,-8.36 6.75,-13.63 0,-5.26 -2.19,-9.67 -6.56,-13.22 -4.9,-3.95 -11.52,-5.93 -19.86,-5.93l-67.54 0c-14.04,0 -25.16,-4.08 -33.37,-12.24 -7.42,-7.37 -11.13,-16.39 -11.13,-27.05 0,-10.53 3.71,-19.48 11.13,-26.85 8.21,-8.17 19.33,-12.25 33.37,-12.25l107.86 0 0 24.68 -107.86 0c-5.3,0 -9.47,1.45 -12.51,4.35 -3.05,2.89 -4.57,6.32 -4.57,10.27 0,3.95 1.39,7.23 4.17,9.87 3.18,3.03 7.48,4.54 12.91,4.54l67.54 0c15.23,0 27.41,4.61 36.55,13.82 8.21,8.43 12.32,18.63 12.32,30.61 0,11.98 -4.04,22.04 -12.12,30.21 -9.01,9.08 -21.26,13.62 -36.75,13.62z"/>
   <path class="fil3" d="M3350.56 5103.88l-26.86 0 0 -17.81c0,-5.18 -0.29,-8.4 -0.85,-9.7 -0.57,-1.27 -1.83,-1.92 -3.76,-1.92 -2.18,0 -3.57,0.78 -4.15,2.33 -0.59,1.58 -0.9,4.95 -0.9,10.13l0 47.58c0,4.99 0.31,8.23 0.9,9.77 0.58,1.51 1.91,2.27 3.95,2.27 1.98,0 3.28,-0.76 3.89,-2.29 0.61,-1.52 0.92,-5.1 0.92,-10.74l0 -12.9 26.86 0 0 4c0,10.63 -0.76,18.17 -2.26,22.6 -1.5,4.45 -4.85,8.34 -10,11.68 -5.17,3.35 -11.52,5.02 -19.08,5.02 -7.85,0 -14.33,-1.41 -19.44,-4.24 -5.08,-2.83 -8.47,-6.74 -10.12,-11.75 -1.66,-5.01 -2.48,-12.53 -2.48,-22.58l0 -29.94c0,-7.4 0.26,-12.93 0.76,-16.62 0.52,-3.7 2.02,-7.26 4.56,-10.67 2.52,-3.42 6.02,-6.12 10.5,-8.08 4.48,-1.97 9.63,-2.94 15.46,-2.94 7.89,0 14.41,1.51 19.56,4.56 5.13,3.02 8.5,6.8 10.13,11.34 1.61,4.54 2.41,11.58 2.41,21.15l0 9.75zm70.77 15.38c0,10.31 -0.24,17.59 -0.73,21.87 -0.48,4.29 -2.01,8.2 -4.57,11.75 -2.57,3.54 -6.04,6.27 -10.41,8.16 -4.37,1.91 -9.46,2.86 -15.26,2.86 -5.52,0 -10.46,-0.91 -14.85,-2.7 -4.39,-1.8 -7.93,-4.47 -10.58,-8.06 -2.68,-3.59 -4.26,-7.5 -4.78,-11.71 -0.5,-4.24 -0.76,-11.63 -0.76,-22.17l0 -17.54c0,-10.31 0.23,-17.59 0.73,-21.87 0.48,-4.3 2,-8.21 4.57,-11.75 2.56,-3.55 6.04,-6.27 10.41,-8.17 4.37,-1.9 9.46,-2.85 15.26,-2.85 5.52,0 10.45,0.9 14.85,2.7 4.39,1.79 7.93,4.47 10.58,8.06 2.68,3.58 4.26,7.49 4.78,11.71 0.5,4.23 0.76,11.62 0.76,22.17l0 17.54zm-26.86 -33.68c0,-4.76 -0.26,-7.8 -0.78,-9.14 -0.53,-1.32 -1.59,-1.99 -3.2,-1.99 -1.37,0 -2.41,0.54 -3.15,1.62 -0.72,1.06 -1.09,4.23 -1.09,9.51l0 47.85c0,5.94 0.24,9.62 0.72,11 0.48,1.4 1.59,2.1 3.32,2.1 1.79,0 2.94,-0.8 3.44,-2.4 0.5,-1.6 0.74,-5.42 0.74,-11.45l0 -47.1zm36.95 -26.43l18.98 0c12.65,0 21.21,0.48 25.69,1.45 4.48,0.97 8.13,3.46 10.95,7.45 2.83,3.98 4.24,10.35 4.24,19.08 0,7.97 -1,13.33 -3,16.08 -1.98,2.74 -5.91,4.38 -11.78,4.92 5.3,1.32 8.89,3.07 10.72,5.27 1.82,2.19 2.95,4.22 3.39,6.05 0.46,1.84 0.67,6.9 0.67,15.17l0 27.07 -24.91 0 0 -34.11c0,-5.49 -0.43,-8.88 -1.3,-10.2 -0.85,-1.32 -3.11,-1.97 -6.78,-1.97l0 46.28 -26.87 0 0 -102.54zm26.87 17.5l0 22.82c3,0 5.08,-0.41 6.28,-1.23 1.19,-0.82 1.8,-3.5 1.8,-8.02l0 -5.64c0,-3.26 -0.58,-5.4 -1.74,-6.42 -1.15,-1.01 -3.28,-1.51 -6.34,-1.51zm43.36 -17.5l20.06 0c12.94,0 21.69,0.59 26.26,1.77 4.56,1.19 8.04,3.14 10.41,5.84 2.37,2.7 3.87,5.7 4.46,9.01 0.58,3.32 0.89,9.83 0.89,19.55l0 35.91c0,9.2 -0.44,15.36 -1.31,18.45 -0.87,3.11 -2.39,5.55 -4.54,7.3 -2.17,1.75 -4.85,2.96 -8.04,3.68 -3.17,0.69 -7.98,1.03 -14.39,1.03l-33.8 0 0 -102.54zm26.86 17.5l0 67.54c3.81,0 6.16,-0.78 7.03,-2.31 0.89,-1.55 1.32,-5.75 1.32,-12.6l0 -39.88c0,-4.65 -0.15,-7.63 -0.43,-8.95 -0.31,-1.31 -0.96,-2.26 -2.02,-2.87 -1.05,-0.63 -3,-0.93 -5.9,-0.93zm45.22 -17.5l44.73 0 0 20.48 -17.87 0 0 19.58 16.7 0 0 19.44 -16.7 0 0 22.56 19.7 0 0 20.48 -46.56 0 0 -102.54zm81.05 0l0 82.06 16.17 0 0 20.48 -43.03 0 0 -102.54 26.86 0zm49.6 0l0 102.54 -26.86 0 0 -102.54 26.86 0zm57 0l15.34 102.54 -27.41 0 -1.45 -18.4 -9.68 0 -1.45 18.4 -27.76 0 13.61 -102.54 38.8 0zm-14.24 65.99c-1.28,-11.63 -2.63,-26.02 -4.06,-43.19 -2.66,19.7 -4.33,34.09 -5.05,43.19l9.11 0zm70.49 -65.99l26.69 0c8.43,0 14.82,0.65 19.17,1.97 4.35,1.29 7.85,3.95 10.52,7.93 2.68,3.99 4,10.41 4,19.27 0,5.98 -0.93,10.15 -2.82,12.51 -1.89,2.38 -5.63,4.17 -11.2,5.44 6.22,1.41 10.43,3.72 12.65,6.94 2.22,3.24 3.33,8.19 3.33,14.89l0 9.5c0,6.94 -0.81,12.06 -2.39,15.41 -1.59,3.33 -4.11,5.61 -7.59,6.85 -3.48,1.23 -10.61,1.83 -21.39,1.83l-30.97 0 0 -102.54zm26.86 17.5l0 22.82c1.13,-0.05 2,-0.07 2.64,-0.07 2.56,0 4.21,-0.64 4.91,-1.92 0.71,-1.3 1.06,-4.99 1.06,-11.06 0,-3.22 -0.28,-5.47 -0.87,-6.77 -0.58,-1.27 -1.34,-2.09 -2.28,-2.44 -0.93,-0.32 -2.76,-0.52 -5.46,-0.56zm0 38.76l0 28.78c3.7,-0.13 6.07,-0.71 7.09,-1.77 1.02,-1.06 1.52,-3.67 1.52,-7.82l0 -9.59c0,-4.41 -0.45,-7.07 -1.37,-8.02 -0.91,-0.93 -3.32,-1.45 -7.24,-1.58zm91.43 -56.26l15.34 102.54 -27.41 0 -1.45 -18.4 -9.68 0 -1.45 18.4 -27.76 0 13.61 -102.54 38.8 0zm-14.24 65.99c-1.28,-11.63 -2.63,-26.02 -4.06,-43.19 -2.66,19.7 -4.33,34.09 -5.05,43.19l9.11 0zm34.19 -65.99l18.98 0c12.65,0 21.21,0.48 25.69,1.45 4.48,0.97 8.13,3.46 10.95,7.45 2.83,3.98 4.24,10.35 4.24,19.08 0,7.97 -1,13.33 -3,16.08 -1.98,2.74 -5.91,4.38 -11.78,4.92 5.31,1.32 8.89,3.07 10.72,5.27 1.82,2.19 2.95,4.22 3.39,6.05 0.46,1.84 0.67,6.9 0.67,15.17l0 27.07 -24.91 0 0 -34.11c0,-5.49 -0.43,-8.88 -1.3,-10.2 -0.85,-1.32 -3.11,-1.97 -6.78,-1.97l0 46.28 -26.87 0 0 -102.54zm26.87 17.5l0 22.82c3,0 5.08,-0.41 6.28,-1.23 1.19,-0.82 1.8,-3.5 1.8,-8.02l0 -5.64c0,-3.26 -0.58,-5.4 -1.74,-6.42 -1.15,-1.01 -3.28,-1.51 -6.34,-1.51zm43.36 -17.5l26.69 0c8.44,0 14.83,0.65 19.17,1.97 4.35,1.29 7.85,3.95 10.52,7.93 2.68,3.99 4,10.41 4,19.27 0,5.98 -0.93,10.15 -2.82,12.51 -1.89,2.38 -5.63,4.17 -11.2,5.44 6.22,1.41 10.44,3.72 12.65,6.94 2.22,3.24 3.33,8.19 3.33,14.89l0 9.5c0,6.94 -0.8,12.06 -2.39,15.41 -1.59,3.33 -4.11,5.61 -7.59,6.85 -3.47,1.23 -10.6,1.83 -21.39,1.83l-30.97 0 0 -102.54zm26.87 17.5l0 22.82c1.13,-0.05 2,-0.07 2.63,-0.07 2.56,0 4.21,-0.64 4.91,-1.92 0.72,-1.3 1.06,-4.99 1.06,-11.06 0,-3.22 -0.28,-5.47 -0.87,-6.77 -0.58,-1.27 -1.34,-2.09 -2.28,-2.44 -0.93,-0.32 -2.76,-0.52 -5.45,-0.56zm0 38.76l0 28.78c3.69,-0.13 6.06,-0.71 7.08,-1.77 1.02,-1.06 1.52,-3.67 1.52,-7.82l0 -9.59c0,-4.41 -0.45,-7.07 -1.36,-8.02 -0.92,-0.93 -3.33,-1.45 -7.24,-1.58zm91.42 -56.26l15.34 102.54 -27.4 0 -1.46 -18.4 -9.67 0 -1.46 18.4 -27.76 0 13.61 -102.54 38.8 0zm-14.24 65.99c-1.28,-11.63 -2.63,-26.02 -4.06,-43.19 -2.65,19.7 -4.33,34.09 -5.05,43.19l9.11 0zm34.19 -65.99l18.98 0c12.65,0 21.21,0.48 25.69,1.45 4.48,0.97 8.13,3.46 10.96,7.45 2.82,3.98 4.23,10.35 4.23,19.08 0,7.97 -0.99,13.33 -3,16.08 -1.97,2.74 -5.91,4.38 -11.78,4.92 5.31,1.32 8.89,3.07 10.72,5.27 1.83,2.19 2.96,4.22 3.39,6.05 0.46,1.84 0.67,6.9 0.67,15.17l0 27.07 -24.91 0 0 -34.11c0,-5.49 -0.43,-8.88 -1.3,-10.2 -0.85,-1.32 -3.11,-1.97 -6.78,-1.97l0 46.28 -26.87 0 0 -102.54zm26.87 17.5l0 22.82c3,0 5.09,-0.41 6.28,-1.23 1.2,-0.82 1.8,-3.5 1.8,-8.02l0 -5.64c0,-3.26 -0.58,-5.4 -1.73,-6.42 -1.16,-1.01 -3.29,-1.51 -6.35,-1.51zm89.64 -17.5l15.34 102.54 -27.41 0 -1.45 -18.4 -9.68 0 -1.45 18.4 -27.76 0 13.61 -102.54 38.8 0zm-14.24 65.99c-1.28,-11.63 -2.63,-26.02 -4.06,-43.19 -2.66,19.7 -4.33,34.09 -5.05,43.19l9.11 0zm-450.32 -15.61l-4.57 37.74c-0.73,5.98 -1.34,10.06 -1.83,12.24 -0.48,2.17 -1.29,3.97 -2.43,5.38 -1.12,1.42 -2.7,2.45 -4.71,3.12 -2.01,0.67 -5.23,1.01 -9.65,1.01l-9.68 0 0 -8.37c2.49,0 4.08,-0.12 4.78,-0.38 0.72,-0.24 1.08,-0.8 1.08,-1.66 0,-0.43 -0.34,-2.24 -1,-5.46l-8.74 -43.62 14.48 0 5.24 35.27 2.58 -35.27 14.45 0z"/>
   <path class="fil0" d="M3244.76 5176.41l0 129.56 25.53 0 0 32.34 -67.95 0 0 -161.9 42.42 0zm114.07 0l24.23 161.9 -43.28 0 -2.3 -29.06 -15.27 0 -2.3 29.06 -43.82 0 21.48 -161.9 61.26 0zm-22.48 104.18c-2.02,-18.35 -4.15,-41.07 -6.42,-68.19 -4.18,31.11 -6.83,53.83 -7.96,68.19l14.38 0zm143.55 -55.05l-39.32 0 0 -11.98c0,-5.59 -0.52,-9.18 -1.51,-10.71 -1,-1.53 -2.65,-2.29 -4.98,-2.29 -2.54,0 -4.46,1.03 -5.77,3.11 -1.3,2.05 -1.95,5.15 -1.95,9.35 0,5.39 0.75,9.44 2.23,12.17 1.44,2.7 5.42,6.01 11.98,9.9 18.77,11.15 30.61,20.33 35.48,27.46 4.91,7.13 7.35,18.62 7.35,34.45 0,11.53 -1.38,20.03 -4.09,25.52 -2.71,5.46 -7.93,10.03 -15.72,13.71 -7.75,3.72 -16.78,5.56 -27.11,5.56 -11.32,0 -20.97,-2.15 -29,-6.41 -7.99,-4.27 -13.21,-9.69 -15.72,-16.27 -2.47,-6.62 -3.7,-16 -3.7,-28.11l0 -10.61 39.33 0 0 19.68c0,6.07 0.55,9.96 1.64,11.7 1.1,1.74 3.06,2.59 5.87,2.59 2.82,0 4.91,-1.09 6.28,-3.3 1.38,-2.19 2.06,-5.46 2.06,-9.76 0,-9.52 -1.3,-15.76 -3.91,-18.66 -2.71,-2.93 -9.3,-7.85 -19.8,-14.74 -10.5,-6.92 -17.43,-11.97 -20.87,-15.11 -3.39,-3.14 -6.24,-7.47 -8.47,-13 -2.23,-5.52 -3.37,-12.58 -3.37,-21.18 0,-12.38 1.58,-21.46 4.77,-27.19 3.2,-5.73 8.31,-10.2 15.41,-13.44 7.11,-3.24 15.65,-4.84 25.71,-4.84 10.98,0 20.31,1.77 28.07,5.29 7.72,3.54 12.83,7.98 15.34,13.37 2.51,5.35 3.77,14.46 3.77,27.32l0 6.42zm53.23 -49.13l31.68 0c20.42,0 34.25,0.92 41.46,2.8 7.2,1.88 12.69,4.95 16.43,9.21 3.74,4.26 6.11,9.01 7.04,14.23 0.92,5.25 1.41,15.52 1.41,30.87l0 56.69c0,14.54 -0.69,24.26 -2.06,29.14 -1.38,4.91 -3.78,8.76 -7.18,11.53 -3.43,2.76 -7.65,4.67 -12.69,5.8 -5.01,1.09 -12.6,1.63 -22.72,1.63l-53.37 0 0 -161.9zm42.42 27.63l0 106.64c6.01,0 9.71,-1.23 11.08,-3.65 1.41,-2.46 2.1,-9.07 2.1,-19.89l0 -62.97c0,-7.33 -0.24,-12.04 -0.69,-14.12 -0.48,-2.08 -1.51,-3.58 -3.19,-4.54 -1.65,-0.99 -4.74,-1.47 -9.3,-1.47zm167.54 -27.63l0 108.24c0,12.28 -0.41,20.91 -1.2,25.86 -0.82,4.98 -3.19,10.1 -7.14,15.32 -3.94,5.25 -9.16,9.21 -15.61,11.9 -6.49,2.7 -14.11,4.06 -22.89,4.06 -9.71,0 -18.3,-1.6 -25.71,-4.81 -7.44,-3.2 -13,-7.37 -16.68,-12.48 -3.7,-5.15 -5.86,-10.58 -6.55,-16.27 -0.65,-5.7 -1,-17.71 -1,-35.96l0 -95.86 42.42 0 0 121.44c0,7.07 0.38,11.6 1.13,13.55 0.76,1.98 2.3,2.96 4.6,2.96 2.61,0 4.33,-1.09 5.08,-3.24 0.76,-2.18 1.13,-7.3 1.13,-15.35l0 -119.36 42.42 0zm16.44 0l29.96 0c19.97,0 33.49,0.75 40.56,2.29 7.07,1.53 12.84,5.46 17.3,11.77 4.46,6.27 6.69,16.34 6.69,30.12 0,12.59 -1.58,21.05 -4.73,25.38 -3.13,4.33 -9.34,6.92 -18.6,7.78 8.37,2.08 14.03,4.84 16.91,8.32 2.89,3.45 4.67,6.65 5.36,9.55 0.72,2.9 1.06,10.88 1.06,23.95l0 42.74 -39.33 0 0 -53.86c0,-8.67 -0.68,-14.02 -2.06,-16.1 -1.33,-2.08 -4.9,-3.11 -10.7,-3.11l0 73.07 -42.42 0 0 -161.9zm42.42 27.63l0 36.03c4.73,0 8.03,-0.65 9.91,-1.95 1.89,-1.29 2.85,-5.52 2.85,-12.65l0 -8.91c0,-5.15 -0.92,-8.52 -2.74,-10.13 -1.82,-1.6 -5.18,-2.39 -10.02,-2.39zm141.53 -27.63l24.23 161.9 -43.28 0 -2.3 -29.06 -15.27 0 -2.3 29.06 -43.82 0 21.48 -161.9 61.26 0zm-22.48 104.18c-2.03,-18.35 -4.15,-41.07 -6.42,-68.19 -4.19,31.11 -6.83,53.83 -7.96,68.19l14.38 0zm148.49 -104.18l0 161.9 -37.06 0 -22.03 -73.61 0 73.61 -35.42 0 0 -161.9 35.42 0 23.68 72.9 0 -72.9 35.41 0zm113.97 59.77l-42.41 0 0 -14.7c0,-9.28 -0.38,-15.08 -1.17,-17.4 -0.79,-2.36 -2.68,-3.52 -5.63,-3.52 -2.54,0 -4.29,0.99 -5.21,3.01 -0.93,1.97 -1.38,7.13 -1.38,15.38l0 77.64c0,7.23 0.45,12.04 1.38,14.33 0.92,2.29 2.74,3.44 5.49,3.44 3.02,0 5.04,-1.29 6.14,-3.88 1.06,-2.6 1.61,-7.68 1.61,-15.22l0 -19.17 -8.23 0 0 -24.56 49.41 0 0 86.78 -26.66 0 -3.91 -11.59c-2.89,5.01 -6.52,8.76 -10.88,11.29 -4.39,2.52 -9.58,3.78 -15.51,3.78 -7.11,0 -13.73,-1.7 -19.94,-5.15 -6.18,-3.44 -10.88,-7.67 -14.07,-12.76 -3.23,-5.05 -5.22,-10.37 -6.04,-15.93 -0.79,-5.56 -1.2,-13.92 -1.2,-25.04l0 -48.1c0,-15.45 0.82,-26.67 2.5,-33.67 1.68,-7.02 6.49,-13.44 14.42,-19.27 7.92,-5.83 18.18,-8.73 30.78,-8.73 12.39,0 22.65,2.52 30.82,7.6 8.16,5.09 13.52,11.09 15.99,18.05 2.47,6.99 3.7,17.09 3.7,30.39l0 7zm113.12 35.13c0,16.28 -0.38,27.77 -1.17,34.53 -0.75,6.79 -3.16,12.96 -7.21,18.55 -4.05,5.6 -9.54,9.9 -16.43,12.9 -6.9,3 -14.93,4.5 -24.1,4.5 -8.71,0 -16.5,-1.43 -23.44,-4.26 -6.93,-2.83 -12.52,-7.06 -16.71,-12.73 -4.22,-5.66 -6.73,-11.83 -7.55,-18.49 -0.79,-6.68 -1.2,-18.35 -1.2,-35l0 -27.69c0,-16.28 0.38,-27.77 1.17,-34.53 0.75,-6.79 3.15,-12.96 7.2,-18.55 4.05,-5.6 9.54,-9.9 16.44,-12.9 6.9,-3 14.93,-4.5 24.09,-4.5 8.72,0 16.51,1.43 23.44,4.26 6.94,2.83 12.53,7.06 16.72,12.73 4.22,5.66 6.72,11.83 7.55,18.49 0.79,6.68 1.2,18.35 1.2,35l0 27.69zm-42.42 -53.18c0,-7.5 -0.41,-12.31 -1.23,-14.43 -0.83,-2.08 -2.51,-3.14 -5.05,-3.14 -2.16,0 -3.81,0.86 -4.98,2.56 -1.13,1.68 -1.71,6.69 -1.71,15.01l0 75.56c0,9.38 0.38,15.18 1.13,17.37 0.76,2.21 2.51,3.3 5.25,3.3 2.82,0 4.63,-1.26 5.42,-3.78 0.79,-2.53 1.17,-8.56 1.17,-18.08l0 -74.37z"/>
  </g>
 </g>
</svg>
