<?xml version="1.0" encoding="UTF-8"?>
<!DOCTYPE svg PUBLIC "-//W3C//DTD SVG 1.1//EN" "http://www.w3.org/Graphics/SVG/1.1/DTD/svg11.dtd">
<!-- Creator: CorelDRAW 2017 -->
<svg xmlns="http://www.w3.org/2000/svg" xml:space="preserve" width="49.6992mm" height="62.3146mm" version="1.1" style="shape-rendering:geometricPrecision; text-rendering:geometricPrecision; image-rendering:optimizeQuality; fill-rule:evenodd; clip-rule:evenodd"
viewBox="0 0 4969.92 6231.46"
 xmlns:xlink="http://www.w3.org/1999/xlink">
 <defs>
  <style type="text/css">
   <![CDATA[
    .fil3 {fill:#1C1B17}
    .fil2 {fill:#334C82}
    .fil1 {fill:#6FA7FF}
    .fil0 {fill:#F7F7F7}
   ]]>
  </style>
    <clipPath id="id0">
     <rect x="501.63" y="106.48" width="3947.46" height="6065.72"/>
    </clipPath>
     <clipPath id="id1">
      <rect x="501.63" y="106.48" width="3947.46" height="6065.71"/>
     </clipPath>
 </defs>
 <g id="Capa_x0020_1">
  <metadata id="CorelCorpID_0Corel-Layer"/>
  <g id="_2607432231824">
   <rect class="fil0" x="499.52" y="59.26" width="3970.87" height="6105.36"/>
   <g style="clip-path:url(#id0)">
    <image style="clip-path:url(#id1)" x="-2764.46" y="106.48" width="7621.03" height="6065.71" xlink:href="10284-06-drag-raven-bio-e77bb94a-117f-4b2a-87cc-31fe0ce525c3_Images\10284-06-drag-raven-bio-e77bb94a-117f-4b2a-87cc-31fe0ce525c3_ImgID1.png"/>
   </g>
   <path class="fil1" d="M2151.98 474.26c6.15,-6.72 12.67,-10.37 15.66,-21.82 -5.17,1.55 -10.37,4.68 -15.83,6.58 -8.82,3.06 -9.05,3.71 -14.63,-1.03 -7.86,-6.69 -20.13,-10.96 -33.43,-8.84 -23.82,3.82 -37.32,23.36 -34.5,50.75 -57.12,-3.44 -78.62,-38.89 -87.02,-43.37 -3.3,12.06 -7.73,18.26 -3.05,33.48 3.17,10.28 9.02,16.19 15.53,21.65 -8.79,0.19 -11.3,-3.11 -17.81,-4.22 0.97,24.8 13.79,33.52 31.75,41.04 -4.69,1.58 -10.82,1.34 -16.61,0.94 4.25,17.82 20.11,26.39 37.45,29.26 -14.5,14.09 -35.28,16.96 -59.67,17.24 9.59,10.53 44.58,18.65 63.34,18.69 45.56,0.08 82.56,-22.08 104.02,-59.9 13.23,-23.31 13.13,-35.34 16.03,-64.45 4.2,-4.61 7.5,-5.58 11.68,-10.19 3.06,-3.38 5.75,-7.65 8.6,-11.19 -5.67,0.56 -13.07,4.54 -21.51,5.38z"/>
   <path class="fil2" d="M2048.52 308.01c-0.05,18.72 -0.74,55.02 0.19,70.87 27.52,2.01 43.55,10.06 50.75,10.06l38.14 0c11.17,-0.01 18.51,-1.9 23.75,-7.99 2.56,-2.98 5.55,-5.35 5.86,-10.35 0.54,-8.93 -0.28,-6.15 4.68,-11.42 10.16,-10.81 5.19,-13.43 5.08,-23.69 -0.1,-9.99 1.2,-6.13 3.69,-12.23 1.56,-3.83 -1.12,-8.17 -1.11,-19.07 0,-9.96 6.07,-7.63 0.32,-17.4 -3.57,-6.07 -5.54,-9.27 -14.63,-9.28 -20.94,-0.02 -66.13,10.2 -50.72,-23.77 4.41,-9.73 9.66,-18.38 12.2,-29.6 2.68,-11.83 -0.38,-25.37 -12.26,-28.39 -0.06,11.9 -4.93,24.96 -9.42,34.29 -11.47,23.78 -15.62,9.39 -35.99,53.42 -4.73,10.24 -8.47,21.2 -20.53,24.55z"/>
   <path class="fil2" d="M1984.09 302.29c2.77,16.41 5.93,54.24 7.41,70.23 1.85,19.9 0.59,22.59 16.41,22.49 37.49,-0.26 28.19,10.31 28.77,-87.99 0.11,-18.37 -7.16,-14.83 -23.99,-14.83 -6.26,0 -13.86,-0.39 -19.96,-0.01 -5.5,0.34 -9.67,4 -8.64,10.11z"/>
   <path class="fil2" d="M2251.81 348.44l0 -103.87 46.28 0c9.3,0 16.37,0.94 21.21,2.81 4.84,1.86 8.7,5.15 11.59,9.86 2.89,4.72 4.33,9.94 4.33,15.64 0,7.38 -2.41,13.59 -7.2,18.65 -4.78,5.05 -12.17,8.24 -22.18,9.62 3.67,1.74 6.44,3.48 8.33,5.17 4.04,3.68 7.85,8.3 11.42,13.83l18.06 28.29 -17.25 0 -13.81 -21.62c-4.01,-6.26 -7.34,-11.02 -9.94,-14.33 -2.62,-3.32 -4.95,-5.61 -7.02,-6.94 -2.04,-1.31 -4.16,-2.23 -6.29,-2.76 -1.56,-0.31 -4.11,-0.48 -7.68,-0.48l-15.99 0 0 46.13 -13.86 0zm13.86 -58.03l29.64 0c6.32,0 11.23,-0.65 14.78,-1.96 3.55,-1.28 6.24,-3.36 8.07,-6.23 1.84,-2.86 2.77,-5.95 2.77,-9.31 0,-4.91 -1.78,-8.97 -5.35,-12.14 -3.57,-3.17 -9.21,-4.74 -16.91,-4.74l-33 0 0 34.38zm79.7 58.03l40.05 -103.87 15.19 0 42.5 103.87 -15.72 0 -12.08 -31.48 -43.96 0 -11.32 31.48 -14.66 0zm30.04 -42.65l35.58 0 -10.89 -28.8c-3.28,-8.75 -5.76,-15.98 -7.48,-21.68 -1.44,6.77 -3.36,13.41 -5.76,19.99l-11.45 30.49zm97.6 42.65l-40.34 -103.87 14.97 0 27.12 75.48c2.16,6.05 4.01,11.71 5.46,17 1.61,-5.68 3.48,-11.34 5.62,-17l28.14 -75.48 14.1 0 -40.71 103.87 -14.36 0zm67.8 0l0 -103.87 75.38 0 0 12.19 -61.53 0 0 31.91 57.6 0 0 12.19 -57.6 0 0 35.39 64.01 0 0 12.19 -77.86 0zm96.82 0l0 -103.87 14.19 0 54.77 81.53 0 -81.53 13.27 0 0 103.87 -14.19 0 -54.78 -81.53 0 81.53 -13.26 0z"/>
   <path class="fil1" d="M2258.96 572.81l-19.98 0 0 -75.29 18.52 0 0 10.68c3.19,-5.05 6.05,-8.36 8.6,-9.93 2.56,-1.58 5.45,-2.35 8.68,-2.35 4.57,0 8.97,1.26 13.2,3.75l-6.2 17.36c-3.38,-2.18 -6.51,-3.27 -9.41,-3.27 -2.82,0 -5.2,0.78 -7.14,2.3 -1.94,1.55 -3.48,4.3 -4.59,8.32 -1.12,4.01 -1.68,12.42 -1.68,25.21l0 23.22zm52.52 -52.08l-18.08 -3.2c2.04,-7.34 5.56,-12.79 10.54,-16.31 4.98,-3.53 12.4,-5.3 22.21,-5.3 8.92,0 15.58,1.04 19.96,3.14 4.35,2.11 7.43,4.77 9.21,8.01 1.77,3.24 2.67,9.16 2.67,17.81l-0.29 23.22c0,6.6 0.31,11.48 0.94,14.62 0.64,3.15 1.83,6.51 3.58,10.09l-19.83 0c-0.51,-1.31 -1.17,-3.25 -1.92,-5.81 -0.32,-1.18 -0.56,-1.95 -0.71,-2.32 -3.4,3.34 -7.04,5.83 -10.93,7.5 -3.89,1.67 -8.02,2.51 -12.42,2.51 -7.75,0 -13.88,-2.1 -18.35,-6.31 -4.47,-4.18 -6.71,-9.5 -6.71,-15.93 0,-4.23 1.03,-8.03 3.07,-11.36 2.04,-3.32 4.88,-5.88 8.57,-7.65 3.67,-1.76 8.97,-3.31 15.9,-4.64 9.33,-1.74 15.82,-3.38 19.41,-4.88l0 -2.01c0,-3.87 -0.94,-6.62 -2.84,-8.29 -1.92,-1.64 -5.51,-2.47 -10.79,-2.47 -3.57,0 -6.34,0.7 -8.33,2.13 -2.02,1.4 -3.62,3.89 -4.86,7.45zm26.82 16.1c-2.55,0.84 -6.61,1.86 -12.17,3.04 -5.54,1.19 -9.19,2.35 -10.89,3.46 -2.6,1.86 -3.91,4.19 -3.91,7.01 0,2.81 1.04,5.2 3.14,7.23 2.09,2.03 4.73,3.05 7.97,3.05 3.59,0 7.04,-1.18 10.33,-3.53 2.4,-1.81 4,-3.99 4.76,-6.6 0.51,-1.69 0.77,-4.93 0.77,-9.7l0 -3.96zm60.2 35.98l-30.5 -75.29 21 0 14.24 38.42 4.13 12.83c1.1,-3.26 1.8,-5.41 2.07,-6.45 0.68,-2.13 1.38,-4.26 2.16,-6.38l14.43 -38.42 20.56 0 -30.06 75.29 -18.03 0zm104.04 -23.8l19.97 3.34c-2.55,7.28 -6.61,12.81 -12.12,16.63 -5.54,3.8 -12.47,5.71 -20.76,5.71 -13.14,0 -22.89,-4.28 -29.18,-12.84 -4.99,-6.86 -7.49,-15.52 -7.49,-25.99 0,-12.47 3.28,-22.27 9.82,-29.33 6.54,-7.08 14.82,-10.61 24.84,-10.61 11.22,0 20.09,3.7 26.61,11.1 6.49,7.4 9.6,18.74 9.3,34.02l-50.01 0c0.15,5.9 1.75,10.49 4.84,13.78 3.06,3.29 6.9,4.93 11.47,4.93 3.13,0 5.76,-0.85 7.87,-2.54 2.14,-1.69 3.74,-4.42 4.84,-8.2zm1.17 -20.16c-0.15,-5.78 -1.63,-10.18 -4.48,-13.18 -2.84,-3.02 -6.29,-4.52 -10.37,-4.52 -4.35,0 -7.95,1.6 -10.79,4.76 -2.85,3.17 -4.23,7.5 -4.18,12.94l29.82 0zm105 43.96l-19.97 0 0 -38.38c0,-8.12 -0.44,-13.37 -1.29,-15.74 -0.88,-2.39 -2.26,-4.23 -4.21,-5.56 -1.94,-1.32 -4.27,-1.98 -6.99,-1.98 -3.5,0 -6.64,0.94 -9.41,2.83 -2.79,1.89 -4.69,4.4 -5.71,7.5 -1.05,3.12 -1.55,8.87 -1.55,17.28l0 34.05 -19.98 0 0 -75.29 18.52 0 0 11.04c6.63,-8.43 14.97,-12.64 25.05,-12.64 4.43,0 8.48,0.8 12.15,2.37 3.7,1.6 6.47,3.6 8.34,6.04 1.89,2.47 3.21,5.25 3.93,8.37 0.76,3.12 1.12,7.57 1.12,13.37l0 46.74zm19.37 0l0 -103.87 12.83 0 0 37.38c5.96,-6.94 13.47,-10.4 22.55,-10.4 5.57,0 10.41,1.09 14.54,3.29 4.1,2.2 7.05,5.22 8.82,9.09 1.77,3.87 2.65,9.5 2.65,16.85l0 47.66 -12.83 0 0 -47.61c0,-6.36 -1.39,-11 -4.13,-13.9 -2.78,-2.9 -6.66,-4.36 -11.72,-4.36 -3.76,0 -7.31,0.97 -10.64,2.93 -3.33,1.96 -5.69,4.62 -7.12,7.98 -1.41,3.34 -2.12,7.95 -2.12,13.85l0 41.11 -12.83 0zm130.53 0l0 -11.2c-5.88,8.54 -13.85,12.79 -23.94,12.79 -4.45,0 -8.6,-0.85 -12.47,-2.54 -3.86,-1.71 -6.73,-3.84 -8.6,-6.4 -1.87,-2.59 -3.18,-5.73 -3.94,-9.46 -0.51,-2.51 -0.78,-6.48 -0.78,-11.89l0 -46.59 12.84 0 0 41.65c0,6.65 0.26,11.15 0.77,13.45 0.81,3.36 2.51,5.97 5.13,7.88 2.6,1.91 5.81,2.88 9.65,2.88 3.84,0 7.44,-0.97 10.79,-2.93 3.35,-1.96 5.73,-4.64 7.14,-8 1.39,-3.36 2.09,-8.27 2.09,-14.68l0 -40.25 12.84 0 0 75.29 -11.52 0zm31.66 0l0 -75.29 11.52 0 0 10.68c5.54,-8.2 13.56,-12.28 24.04,-12.28 4.57,0 8.74,0.82 12.56,2.44 3.82,1.62 6.68,3.77 8.58,6.41 1.89,2.64 3.23,5.78 3.99,9.41 0.46,2.36 0.7,6.5 0.7,12.4l0 46.23 -12.83 0 0 -45.75c0,-5.2 -0.49,-9.09 -1.48,-11.65 -1,-2.57 -2.78,-4.62 -5.3,-6.17 -2.53,-1.52 -5.52,-2.3 -8.92,-2.3 -5.44,0 -10.13,1.72 -14.1,5.18 -3.96,3.43 -5.93,9.98 -5.93,19.61l0 41.08 -12.83 0zm108.95 -11.39l1.75 11.26c-3.6,0.75 -6.83,1.14 -9.65,1.14 -4.64,0 -8.24,-0.72 -10.82,-2.2 -2.55,-1.47 -4.34,-3.38 -5.39,-5.78 -1.04,-2.39 -1.56,-7.42 -1.56,-15.08l0 -43.38 -9.47 0 0 -9.86 9.47 0 0 -18.62 12.84 -7.67 0 26.29 12.83 0 0 9.86 -12.83 0 0 44.1c0,3.65 0.21,6 0.68,7.04 0.44,1.04 1.16,1.86 2.18,2.49 1.03,0.6 2.48,0.92 4.38,0.92 1.41,0 3.28,-0.17 5.59,-0.51zm12.08 40.33l-1.46 -11.8c2.82,0.75 5.25,1.13 7.34,1.13 2.86,0 5.15,-0.48 6.85,-1.42 1.73,-0.95 3.14,-2.27 4.23,-3.97 0.8,-1.28 2.11,-4.45 3.91,-9.53 0.24,-0.7 0.61,-1.73 1.15,-3.11l-28.73 -75.53 13.71 0 15.79 43.47c2.07,5.49 3.89,11.29 5.52,17.38 1.48,-5.73 3.23,-11.39 5.27,-16.95l16.14 -43.9 12.81 0 -28.61 76.59c-3.08,8.25 -5.49,13.9 -7.21,17.02 -2.29,4.19 -4.91,7.26 -7.85,9.21 -2.97,1.96 -6.49,2.93 -10.58,2.93 -2.47,0 -5.25,-0.51 -8.28,-1.52z"/>
   <path class="fil3" d="M3700.94 5961.84c0.2,16.93 -5.6,31.29 -17.41,43.09 -11.8,11.77 -26.28,17.72 -43.43,17.82l-38.19 0.31 0 -121.66 37.88 0c16.95,0 31.32,5.87 43.13,17.59 11.8,11.75 17.81,26.02 18.02,42.85zm-20.79 0.16c-0.11,-11.22 -4.03,-20.66 -11.79,-28.37 -7.75,-7.69 -17.27,-11.55 -28.57,-11.55l-17.09 0 0 79.99 17.25 0c11.29,-0.11 20.84,-4.01 28.64,-11.7 7.81,-7.71 11.66,-17.16 11.56,-28.37zm63.68 1.71c-5.65,0 -10.47,1.96 -14.48,5.9 -4,3.93 -6,8.68 -6,14.3l0 38.69 -20.79 0 0 -38.69c0,-11.42 4,-21.07 12.01,-28.99 8.01,-7.89 17.76,-11.85 29.26,-11.85l0 20.64zm94.33 58.89l-22.1 0 -4.36 -11.95c-8.21,9.6 -18.69,14.4 -31.45,14.4 -11.49,0 -21.22,-3.98 -29.18,-11.95 -7.96,-7.97 -11.94,-17.62 -11.94,-28.96 0,-8.69 2.47,-16.52 7.4,-23.52 4.93,-7 11.5,-11.98 19.71,-14.94 4.83,-1.74 9.55,-2.61 14.17,-2.61 8.73,0 16.61,2.48 23.64,7.43 7.03,4.96 12.04,11.52 15.02,19.69l19.09 52.41zm-37.42 -38.54c0,-7.17 -2.93,-12.77 -8.78,-16.75 -3.39,-2.38 -7.29,-3.55 -11.71,-3.55 -7.18,0 -12.73,2.86 -16.63,8.6 -2.46,3.61 -3.69,7.49 -3.69,11.7 0,7.08 2.92,12.62 8.77,16.6 3.6,2.48 7.45,3.7 11.55,3.7 5.65,0 10.48,-1.96 14.48,-5.92 4.01,-3.93 6.01,-8.74 6.01,-14.38zm115.59 58.92c0,14.71 -6.06,26.05 -18.18,34.02 -6.98,4.59 -14.63,6.89 -22.94,6.89 -14.58,0 -25.98,-6.08 -34.2,-18.23 -4.72,-7.05 -7.08,-14.61 -7.08,-22.68 0,-5.31 1.03,-10.42 3.08,-15.33l19.25 7.67c-1.02,2.45 -1.54,5 -1.54,7.66 0,5.61 2,10.39 6.01,14.32 4,3.94 8.83,5.9 14.48,5.9 5.54,0 10.31,-1.99 14.32,-6 4,-4.01 6.01,-8.76 6.01,-14.3 0,-9.01 -4.27,-15.32 -12.76,-18.92 -2.57,0.61 -5.11,0.92 -7.68,0.92 -11.57,0 -21.33,-3.96 -29.26,-11.88 -7.93,-7.92 -11.91,-17.65 -11.91,-29.19 0,-11.44 3.98,-21.12 11.96,-29.04 7.98,-7.91 17.71,-11.87 29.16,-11.87l12.02 -28.35 16.45 6.95 -10.94 25.38c7.24,3.48 13.02,8.53 17.3,15.17 4.29,6.64 6.45,13.9 6.45,21.76 0,11.65 -4.26,21.45 -12.78,29.42 8.52,8.07 12.78,17.98 12.78,29.73zm-20.79 -59.15c0,-5.51 -2.01,-10.26 -6.01,-14.25 -4.01,-3.98 -8.78,-5.97 -14.32,-5.97 -5.65,0 -10.48,1.96 -14.48,5.89 -4.01,3.94 -6.01,8.71 -6.01,14.33 0,5.62 2,10.42 6.01,14.41 4,3.98 8.83,5.97 14.48,5.97 5.64,0 10.44,-1.99 14.4,-5.97 3.95,-3.99 5.93,-8.79 5.93,-14.41zm87.09 -40.76l-38.04 79.53 -38.5 -79.53 24.64 0 14.01 32.64 14.02 -32.64 23.87 0zm72.31 40.79c0,2.02 -0.15,4.06 -0.46,6.1l-60.22 0c1.33,4.29 3.8,7.74 7.39,10.34 3.6,2.61 7.65,3.91 12.17,3.91 6.26,0 11.45,-2.4 15.55,-7.2l12.63 16.7c-7.9,7.46 -17.3,11.19 -28.18,11.19 -11.6,0 -21.38,-3.96 -29.34,-11.85 -7.96,-7.92 -11.94,-17.62 -11.94,-29.14 0,-11.42 4.01,-21.07 12.02,-28.99 8.01,-7.89 17.76,-11.85 29.26,-11.85 11.5,0 21.23,3.94 29.18,11.83 7.96,7.89 11.94,17.54 11.94,28.96zm-23.26 -9.38c-3.8,-7.15 -9.75,-10.72 -17.86,-10.72 -8.22,0 -14.22,3.57 -18.02,10.72l35.88 0zm81.4 24.62c0,4.91 -1.64,9.35 -4.93,13.36 -6.57,7.99 -15.91,11.82 -28.03,11.52 -4.82,-0.1 -10.09,-1.18 -15.78,-3.22 -5.7,-2.04 -10.35,-4.6 -13.94,-7.66l11.55 -14.86c5.54,5.21 11.45,7.81 17.71,7.81l0.46 0c2.57,0 4.88,-0.46 6.93,-1.38 2.67,-1.22 4.01,-2.96 4.01,-5.21l0 -0.61c-0.31,-2.35 -1.9,-4.04 -4.78,-5.06 -1.13,-0.2 -3.54,-0.66 -7.24,-1.38 -4.62,-0.92 -8.52,-2.04 -11.7,-3.37 -9.34,-3.98 -14.02,-10.98 -14.02,-20.99 0,-9.6 4.78,-16.8 14.33,-21.61 4.21,-2.14 8.78,-3.27 13.71,-3.37 5.13,-0.1 10.47,0.77 16.01,2.61 6.37,2.14 10.89,4.95 13.55,8.42l-13.85 12.42c-3.6,-3.68 -7.5,-5.52 -11.71,-5.52 -6.57,0 -9.86,2.15 -9.86,6.46l0 0.31c0,2.04 2.67,3.78 8.01,5.21 0.41,0.1 3.8,0.76 10.17,1.99 12.93,2.48 19.4,10.34 19.4,23.67l0 0.46zm36.89 23.5c-11.5,0 -21.26,-3.96 -29.26,-11.85 -8.01,-7.92 -12.02,-17.6 -12.02,-29.01l0 -80.34 20.8 0 0 41.67 20.48 0 0 17.62 -20.48 0 0 21c0,5.61 2,10.39 6,14.32 4.01,3.94 8.83,5.9 14.48,5.9l0 20.69zm17.94 -97.15c0,3.48 -1.18,6.41 -3.54,8.81 -2.36,2.4 -5.29,3.6 -8.78,3.6 -3.49,0 -6.44,-1.2 -8.85,-3.6 -2.42,-2.4 -3.63,-5.33 -3.63,-8.81 0,-3.47 1.21,-6.38 3.63,-8.73 2.41,-2.35 5.36,-3.53 8.85,-3.53 3.39,0 6.29,1.2 8.7,3.6 2.42,2.4 3.62,5.29 3.62,8.66zm-1.85 97.15l-20.79 0 0 -79.53 20.79 0 0 79.53zm142.83 -121.2l0 79.21 8.62 0 0 20.69 -8.62 0 0 21.3 -30.34 0 0 -21.3 -36.19 0 0 -20.69 26.31 -79.21 40.22 0zm-30.34 79.21l0 -51.56 -13.5 51.56 13.5 0z"/>
  </g>
 </g>
</svg>
