<?xml version="1.0" encoding="UTF-8"?>
<!DOCTYPE svg PUBLIC "-//W3C//DTD SVG 1.1//EN" "http://www.w3.org/Graphics/SVG/1.1/DTD/svg11.dtd">
<!-- Creator: CorelDRAW 2017 -->
<svg xmlns="http://www.w3.org/2000/svg" xml:space="preserve" width="39.7086mm" height="61.1292mm" version="1.1" style="shape-rendering:geometricPrecision; text-rendering:geometricPrecision; image-rendering:optimizeQuality; fill-rule:evenodd; clip-rule:evenodd"
viewBox="0 0 3970.86 6112.92"
 xmlns:xlink="http://www.w3.org/1999/xlink">
 <defs>
  <style type="text/css">
   <![CDATA[
    .fil0 {fill:#FEFEFE}
    .fil1 {fill:black;fill-rule:nonzero}
   ]]>
  </style>
    <clipPath id="id0">
     <path d="M12.08 7.31l3945.8 -5.69 -0.41 6109.68 -3933.54 -17.05 -11.85 -6086.94z"/>
    </clipPath>
 </defs>
 <g id="Capa_x0020_1">
  <metadata id="CorelCorpID_0Corel-Layer"/>
  <rect class="fil0" x="-0" y="-0.01" width="3970.87" height="6112.93"/>
  <g id="_2607498624368">
   <g style="clip-path:url(#id0)">
    <image x="-1908.78" y="-987.18" width="9476.48" height="7097.35" xlink:href="17-cordelia-durango-drag-queen-mucho-kai-kai_Images\17-cordelia-durango-drag-queen-mucho-kai-kai_ImgID1.png"/>
   </g>
   <g>
    <path class="fil1" d="M3958.78 5935.06c8.26,0 14.96,6.69 14.96,14.94 0,8.25 -6.7,14.94 -14.96,14.94l0 -29.88zm-3487.51 0l3487.51 0 0 29.88 -3487.51 0 0 0 0 -29.88zm-314.15 -297.94l29.92 0 0 0 0.37 15.32 1.11 15.1 1.82 14.89 2.53 14.66 3.19 14.4 3.86 14.13 4.5 13.84 5.13 13.53 5.73 13.2 6.32 12.86 6.88 12.48 7.44 12.1 7.97 11.69 8.48 11.27 8.97 10.83 9.44 10.35 9.9 9.88 10.35 9.37 10.75 8.86 11.16 8.32 11.53 7.75 11.9 7.17 12.24 6.57 12.57 5.97 12.87 5.33 13.16 4.69 13.42 4.01 13.69 3.32 13.92 2.62 14.14 1.9 14.34 1.14 14.55 0.39 0 29.88 -16.13 -0.43 -15.94 -1.28 -15.72 -2.1 -15.46 -2.92 -15.21 -3.68 -14.92 -4.47 -14.6 -5.19 -14.27 -5.91 -13.93 -6.61 -13.54 -7.29 -13.16 -7.93 -12.75 -8.57 -12.32 -9.18 -11.87 -9.76 -11.39 -10.33 -10.92 -10.88 -10.4 -11.41 -9.87 -11.91 -9.32 -12.39 -8.75 -12.85 -8.18 -13.3 -7.56 -13.72 -6.94 -14.12 -6.29 -14.5 -5.63 -14.85 -4.94 -15.2 -4.24 -15.51 -3.51 -15.8 -2.77 -16.08 -2 -16.33 -1.21 -16.56 -0.41 -16.76 0 0zm29.92 -5140.45l0 5140.45 -29.92 0 0 -5140.45 0 0 29.92 0zm284.23 -331.8l0 29.88 -14.52 0.39 -14.33 1.19 -14.12 1.94 -13.9 2.68 -13.68 3.41 -13.42 4.1 -13.14 4.79 -12.86 5.46 -12.57 6.1 -12.23 6.73 -11.91 7.33 -11.53 7.92 -11.17 8.48 -10.76 9.03 -10.35 9.56 -9.91 10.07 -9.46 10.54 -8.97 11.01 -8.49 11.46 -7.98 11.88 -7.45 12.28 -6.89 12.65 -6.32 13.02 -5.74 13.36 -5.13 13.67 -4.51 13.96 -3.86 14.25 -3.2 14.51 -2.53 14.73 -1.82 14.95 -1.11 15.14 -0.37 15.33 -29.92 0 0.41 -16.77 1.21 -16.6 2 -16.37 2.77 -16.15 3.5 -15.89 4.24 -15.61 4.93 -15.3 5.63 -14.99 6.28 -14.62 6.94 -14.28 7.55 -13.87 8.17 -13.46 8.74 -13.02 9.31 -12.58 9.87 -12.09 10.38 -11.58 10.91 -11.07 11.39 -10.52 11.86 -9.95 12.31 -9.36 12.75 -8.74 13.15 -8.11 13.55 -7.45 13.93 -6.76 14.28 -6.06 14.62 -5.33 14.92 -4.56 15.22 -3.79 15.48 -3 15.74 -2.16 15.95 -1.31 16.16 -0.45zm0 0c8.26,0 14.96,6.69 14.96,14.94 0,8.25 -6.7,14.94 -14.96,14.94l0 -29.88z"/>
   </g>
   <g>
    <path class="fil1" d="M471.27 194.75c-8.26,0 -14.96,-6.69 -14.96,-14.94 0,-8.25 6.7,-14.94 14.96,-14.94l0 29.88zm3486.67 0l-3486.67 0 0 -29.88 3486.67 0 0 29.88zm0 -29.88c8.26,0 14.96,6.69 14.96,14.94 0,8.25 -6.7,14.94 -14.96,14.94l0 -29.88z"/>
   </g>
   <path class="fil0" d="M2860.96 3052.1l0 584.29 114.62 0 0 145.85 -305.04 0 0 -730.14 190.42 0zm512.09 0l108.77 730.14 -194.27 0 -10.32 -131.08 -68.56 0 -10.32 131.08 -196.73 0 96.44 -730.14 274.99 0zm-100.91 469.83c-9.09,-82.76 -18.64,-185.22 -28.8,-307.52 -18.8,140.3 -30.66,242.76 -35.75,307.52l64.55 0zm644.43 -248.29l-176.55 0 0 -54c0,-25.23 -2.31,-41.39 -6.78,-48.31 -4.46,-6.92 -11.86,-10.31 -22.34,-10.31 -11.4,0 -20.02,4.62 -25.88,14 -5.85,9.23 -8.78,23.23 -8.78,42.16 0,24.3 3.39,42.61 10.02,54.92 6.47,12.15 24.34,27.07 53.76,44.61 84.27,50.31 137.42,91.69 159.3,123.84 22.03,32.16 32.97,84 32.97,155.38 0,52 -6.16,90.31 -18.34,115.08 -12.17,24.61 -35.58,45.23 -70.55,61.84 -34.82,16.77 -75.34,25.08 -121.71,25.08 -50.84,0 -94.13,-9.69 -130.18,-28.92 -35.9,-19.24 -59.31,-43.69 -70.56,-73.39 -11.09,-29.84 -16.64,-72.15 -16.64,-126.76l0 -47.85 176.55 0 0 88.77c0,27.38 2.47,44.92 7.4,52.77 4.93,7.84 13.71,11.69 26.34,11.69 12.63,0 22.03,-4.92 28.2,-14.92 6.16,-9.85 9.24,-24.62 9.24,-44 0,-42.92 -5.85,-71.08 -17.56,-84.16 -12.18,-13.23 -41.75,-35.38 -88.89,-66.45 -47.15,-31.23 -78.27,-54 -93.67,-68.16 -15.26,-14.15 -28.04,-33.69 -38.06,-58.61 -10.01,-24.92 -15.09,-56.77 -15.09,-95.54 0,-55.84 7.08,-96.76 21.41,-122.61 14.33,-25.84 37.28,-46 69.17,-60.61 31.89,-14.62 70.25,-21.85 115.39,-21.85 49.3,0 91.21,8 126.02,23.85 34.67,16 57.62,36 68.87,60.3 11.24,24.16 16.94,65.24 16.94,123.23l0 28.93z"/>
  </g>
 </g>
</svg>
