<?xml version="1.0" encoding="UTF-8"?>
<!DOCTYPE svg PUBLIC "-//W3C//DTD SVG 1.1//EN" "http://www.w3.org/Graphics/SVG/1.1/DTD/svg11.dtd">
<!-- Creator: CorelDRAW 2017 -->
<svg xmlns="http://www.w3.org/2000/svg" xml:space="preserve" width="39.7086mm" height="61.1292mm" version="1.1" style="shape-rendering:geometricPrecision; text-rendering:geometricPrecision; image-rendering:optimizeQuality; fill-rule:evenodd; clip-rule:evenodd"
viewBox="0 0 3970.86 6112.92"
 xmlns:xlink="http://www.w3.org/1999/xlink">
 <defs>
  <style type="text/css">
   <![CDATA[
    .fil0 {fill:#FEFEFE}
    .fil4 {fill:#2B2A29}
    .fil1 {fill:#B22219}
    .fil3 {fill:#2B2A29;fill-rule:nonzero}
    .fil2 {fill:black;fill-rule:nonzero}
   ]]>
  </style>
    <clipPath id="id0">
     <path d="M17.53 1.77l3079.48 1.48 -0.42 6109.67 -3067.21 -24.21 -11.85 -6086.94z"/>
    </clipPath>
    <clipPath id="id1">
     <path d="M3952.62 0l-879.4 3.25 0.29 6109.67 879.83 -5.38 -0.72 -6107.54z"/>
    </clipPath>
     <clipPath id="id2">
      <path d="M105.01 2518.18l3660.5 0 0 1397.86 -3660.5 0 0 -1397.86z"/>
     </clipPath>
 </defs>
 <g id="Capa_x0020_1">
  <metadata id="CorelCorpID_0Corel-Layer"/>
  <rect class="fil0" x="-0" y="-0.01" width="3970.87" height="6112.93"/>
  <g id="_2607300182320">
   <g style="clip-path:url(#id0)">
    <image x="-5842.64" y="-985.55" width="9476.48" height="7097.35" xlink:href="18-barbara-y-cordelia-durango-las-durango_Images\18-barbara-y-cordelia-durango-las-durango_ImgID1.png"/>
   </g>
   <g style="clip-path:url(#id1)">
    <image transform="matrix(-0.202375 -0 -0 0.282981 9457.42 -985.547)" x="0" y="0" width="33440.9" height="25080.68" xlink:href="18-barbara-y-cordelia-durango-las-durango_Images\18-barbara-y-cordelia-durango-las-durango_ImgID2.png"/>
   </g>
   <g>
    <g style="clip-path:url(#id2)">
     <image x="105.01" y="2518.18" width="3660.5" height="1397.86" xlink:href="18-barbara-y-cordelia-durango-las-durango_Images\18-barbara-y-cordelia-durango-las-durango_ImgID3.png"/>
    </g>
   </g>
   <path class="fil0" d="M443.1 2791.94l-89.87 0 0 -59.83c0,-17.43 -0.94,-28.25 -2.83,-32.6 -1.9,-4.29 -6.11,-6.47 -12.58,-6.47 -7.27,0 -11.93,2.62 -13.89,7.85 -1.97,5.3 -2.98,16.62 -2.98,34.05l0 159.88c0,16.78 1.01,27.67 2.98,32.82 1.96,5.09 6.4,7.63 13.23,7.63 6.62,0 10.98,-2.54 13.02,-7.7 2.03,-5.08 3.05,-17.14 3.05,-36.08l0 -43.35 89.87 0 0 13.43c0,35.72 -2.54,61.06 -7.56,75.95 -5.02,14.96 -16.21,28.03 -33.45,39.28 -17.3,11.25 -38.53,16.85 -63.84,16.85 -26.25,0 -47.91,-4.72 -65,-14.24 -17.01,-9.51 -28.36,-22.65 -33.88,-39.5 -5.53,-16.84 -8.29,-42.11 -8.29,-75.87l0 -100.64c0,-24.83 0.87,-43.42 2.54,-55.83 1.75,-12.42 6.76,-24.4 15.27,-35.87 8.44,-11.48 20.14,-20.55 35.12,-27.16 14.98,-6.6 32.21,-9.87 51.7,-9.87 26.39,0 48.21,5.08 65.44,15.32 17.16,10.16 28.43,22.87 33.88,38.12 5.38,15.25 8.07,38.91 8.07,71.08l0 32.75zm236.75 51.69c0,34.64 -0.8,59.11 -2.47,73.49 -1.6,14.45 -6.69,27.59 -15.27,39.49 -8.58,11.91 -20.21,21.06 -34.83,27.45 -14.62,6.39 -31.63,9.59 -51.04,9.59 -18.47,0 -34.98,-3.06 -49.67,-9.08 -14.68,-6.03 -26.54,-15.03 -35.41,-27.08 -8.94,-12.06 -14.25,-25.2 -15.99,-39.36 -1.68,-14.23 -2.55,-39.06 -2.55,-74.5l0 -58.95c0,-34.64 0.8,-59.11 2.47,-73.48 1.6,-14.45 6.69,-27.59 15.27,-39.5 8.58,-11.91 20.22,-21.06 34.83,-27.45 14.62,-6.39 31.63,-9.58 51.05,-9.58 18.46,0 34.97,3.05 49.66,9.07 14.69,6.03 26.54,15.03 35.41,27.09 8.94,12.05 14.25,25.19 16,39.35 1.67,14.23 2.54,39.06 2.54,74.5l0 58.95zm-89.87 -113.19c0,-15.98 -0.87,-26.21 -2.62,-30.71 -1.74,-4.43 -5.31,-6.69 -10.69,-6.69 -4.58,0 -8.07,1.82 -10.54,5.45 -2.4,3.56 -3.64,14.23 -3.64,31.95l0 160.83c0,19.96 0.8,32.31 2.4,36.95 1.6,4.72 5.31,7.05 11.13,7.05 5.96,0 9.81,-2.69 11.49,-8.06 1.67,-5.37 2.47,-18.23 2.47,-38.49l0 -158.28zm123.61 -88.8l63.47 0c42.32,0 70.97,1.59 85.95,4.86 14.98,3.27 27.19,11.62 36.64,25.05 9.46,13.36 14.18,34.78 14.18,64.12 0,26.79 -3.34,44.79 -10.03,54.02 -6.62,9.22 -19.78,14.74 -39.41,16.55 17.74,4.43 29.74,10.31 35.84,17.72 6.11,7.33 9.9,14.16 11.35,20.33 1.52,6.17 2.25,23.16 2.25,50.97l0 90.98 -83.33 0 0 -114.65c0,-18.44 -1.45,-29.84 -4.36,-34.27 -2.83,-4.43 -10.4,-6.61 -22.68,-6.61l0 155.53 -89.87 0 0 -344.6zm89.87 58.81l0 76.68c10.03,0 17.01,-1.38 21.01,-4.14 4,-2.76 6.03,-11.77 6.03,-26.94l0 -18.95c0,-10.97 -1.96,-18.15 -5.81,-21.57 -3.86,-3.41 -10.98,-5.08 -21.23,-5.08zm145.05 -58.81l67.12 0c43.26,0 72.56,1.96 87.83,5.95 15.27,3.99 26.91,10.53 34.83,19.61 7.93,9.07 12.94,19.17 14.91,30.27 1.96,11.19 2.98,33.04 2.98,65.71l0 120.68c0,30.93 -1.46,51.63 -4.37,62.01 -2.9,10.45 -7.99,18.66 -15.19,24.54 -7.27,5.88 -16.22,9.95 -26.91,12.34 -10.61,2.33 -26.68,3.49 -48.13,3.49l-113.07 0 0 -344.6zm89.87 58.81l0 226.98c12.73,0 20.58,-2.62 23.49,-7.77 2.98,-5.23 4.44,-19.32 4.44,-42.33l0 -134.04c0,-15.61 -0.51,-25.63 -1.46,-30.06 -1.02,-4.43 -3.2,-7.62 -6.76,-9.66 -3.49,-2.1 -10.04,-3.12 -19.71,-3.12zm151.24 -58.81l149.64 0 0 68.83 -59.77 0 0 65.79 55.85 0 0 65.34 -55.85 0 0 75.81 65.88 0 0 68.83 -155.75 0 0 -344.6zm271.14 0l0 275.77 54.1 0 0 68.83 -143.97 0 0 -344.6 89.87 0zm165.93 0l0 344.6 -89.87 0 0 -344.6 89.87 0zm190.65 0l51.34 344.6 -91.69 0 -4.88 -61.86 -32.35 0 -4.87 61.86 -92.85 0 45.51 -344.6 129.79 0zm-47.63 221.74c-4.28,-39.06 -8.79,-87.42 -13.59,-145.14 -8.87,66.22 -14.47,114.58 -16.87,145.14l30.46 0zm253.25 -221.74l89.29 0c28.21,0 49.59,2.18 64.13,6.6 14.55,4.36 26.25,13.29 35.2,26.65 8.94,13.43 13.37,35 13.37,64.77 0,20.11 -3.12,34.13 -9.45,42.04 -6.32,7.99 -18.83,14.01 -37.44,18.3 20.79,4.72 34.9,12.49 42.31,23.3 7.42,10.9 11.13,27.52 11.13,50.03l0 31.95c0,23.31 -2.69,40.51 -8,51.77 -5.31,11.18 -13.74,18.88 -25.38,23.02 -11.63,4.14 -35.48,6.17 -71.54,6.17l-103.62 0 0 -344.6zm89.87 58.81l0 76.68c3.79,-0.15 6.69,-0.22 8.8,-0.22 8.58,0 14.11,-2.18 16.43,-6.46 2.4,-4.36 3.57,-16.78 3.57,-37.18 0,-10.82 -0.95,-18.37 -2.91,-22.73 -1.96,-4.28 -4.51,-7.04 -7.64,-8.2 -3.12,-1.09 -9.23,-1.74 -18.25,-1.89zm0 130.26l0 96.72c12.36,-0.44 20.29,-2.4 23.71,-5.96 3.42,-3.56 5.09,-12.34 5.09,-26.28l0 -32.24c0,-14.81 -1.53,-23.74 -4.58,-26.94 -3.06,-3.12 -11.13,-4.86 -24.22,-5.3zm305.83 -189.07l51.33 344.6 -91.69 0 -4.87 -61.86 -32.36 0 -4.87 61.86 -92.85 0 45.52 -344.6 129.79 0zm-47.63 221.74c-4.29,-39.06 -8.8,-87.42 -13.6,-145.14 -8.87,66.22 -14.47,114.58 -16.87,145.14l30.47 0zm114.38 -221.74l63.47 0c42.32,0 70.97,1.59 85.95,4.86 14.97,3.27 27.19,11.62 36.64,25.05 9.46,13.36 14.18,34.78 14.18,64.12 0,26.79 -3.34,44.79 -10.03,54.02 -6.62,9.22 -19.78,14.74 -39.41,16.55 17.74,4.43 29.74,10.31 35.84,17.72 6.11,7.33 9.89,14.16 11.35,20.33 1.52,6.17 2.25,23.16 2.25,50.97l0 90.98 -83.33 0 0 -114.65c0,-18.44 -1.45,-29.84 -4.36,-34.27 -2.83,-4.43 -10.4,-6.61 -22.69,-6.61l0 155.53 -89.86 0 0 -344.6zm89.86 58.81l0 76.68c10.04,0 17.02,-1.38 21.02,-4.14 4,-2.76 6.03,-11.77 6.03,-26.94l0 -18.95c0,-10.97 -1.96,-18.15 -5.81,-21.57 -3.86,-3.41 -10.98,-5.08 -21.24,-5.08zm145.06 -58.81l89.29 0c28.21,0 49.59,2.18 64.13,6.6 14.55,4.36 26.25,13.29 35.2,26.65 8.94,13.43 13.37,35 13.37,64.77 0,20.11 -3.12,34.13 -9.45,42.04 -6.32,7.99 -18.83,14.01 -37.44,18.3 20.79,4.72 34.9,12.49 42.31,23.3 7.42,10.9 11.13,27.52 11.13,50.03l0 31.95c0,23.31 -2.69,40.51 -8,51.77 -5.31,11.18 -13.74,18.88 -25.38,23.02 -11.63,4.14 -35.48,6.17 -71.54,6.17l-103.62 0 0 -344.6zm89.87 58.81l0 76.68c3.79,-0.15 6.69,-0.22 8.8,-0.22 8.58,0 14.11,-2.18 16.43,-6.46 2.4,-4.36 3.57,-16.78 3.57,-37.18 0,-10.82 -0.95,-18.37 -2.91,-22.73 -1.96,-4.28 -4.51,-7.04 -7.63,-8.2 -3.13,-1.09 -9.24,-1.74 -18.26,-1.89zm0 130.26l0 96.72c12.36,-0.44 20.29,-2.4 23.71,-5.96 3.42,-3.56 5.09,-12.34 5.09,-26.28l0 -32.24c0,-14.81 -1.53,-23.74 -4.58,-26.94 -3.06,-3.12 -11.13,-4.86 -24.22,-5.3zm305.83 -189.07l51.33 344.6 -91.69 0 -4.87 -61.86 -32.36 0 -4.87 61.86 -92.85 0 45.52 -344.6 129.79 0zm-47.63 221.74c-4.29,-39.06 -8.8,-87.42 -13.6,-145.14 -8.87,66.22 -14.47,114.58 -16.87,145.14l30.47 0zm114.38 -221.74l63.47 0c42.32,0 70.97,1.59 85.95,4.86 14.97,3.27 27.19,11.62 36.64,25.05 9.46,13.36 14.18,34.78 14.18,64.12 0,26.79 -3.34,44.79 -10.03,54.02 -6.62,9.22 -19.78,14.74 -39.41,16.55 17.74,4.43 29.74,10.31 35.84,17.72 6.11,7.33 9.89,14.16 11.35,20.33 1.52,6.17 2.25,23.16 2.25,50.97l0 90.98 -83.33 0 0 -114.65c0,-18.44 -1.45,-29.84 -4.36,-34.27 -2.83,-4.43 -10.4,-6.61 -22.68,-6.61l0 155.53 -89.87 0 0 -344.6zm89.87 58.81l0 76.68c10.03,0 17.01,-1.38 21.01,-4.14 4,-2.76 6.03,-11.77 6.03,-26.94l0 -18.95c0,-10.97 -1.96,-18.15 -5.81,-21.57 -3.86,-3.41 -10.98,-5.08 -21.23,-5.08zm299.86 -58.81l51.33 344.6 -91.69 0 -4.87 -61.86 -32.36 0 -4.87 61.86 -92.85 0 45.51 -344.6 129.8 0zm-47.63 221.74c-4.29,-39.06 -8.8,-87.42 -13.6,-145.14 -8.87,66.22 -14.47,114.58 -16.87,145.14l30.47 0zm-1523.84 -52.46l-15.31 126.85c-2.44,20.11 -4.47,33.81 -6.09,41.12 -1.63,7.3 -4.34,13.35 -8.13,18.08 -3.75,4.78 -9.03,8.25 -15.76,10.51 -6.73,2.25 -17.52,3.38 -32.29,3.38l-32.37 0 0 -28.14c8.31,0 13.63,-0.4 15.98,-1.26 2.39,-0.81 3.61,-2.71 3.61,-5.59 0,-1.44 -1.12,-7.53 -3.34,-18.36l-29.26 -146.59 48.45 0 17.52 118.55 8.63 -118.55 48.36 0zm-1779.38 242.81l142.2 0c91.67,0 153.75,4.15 186.1,12.61 32.36,8.46 57.01,22.31 73.8,41.54 16.79,19.23 27.42,40.62 31.58,64.15 4.16,23.7 6.32,70 6.32,139.23l0 255.69c0,65.53 -3.08,109.38 -9.25,131.37 -6.16,22.16 -16.94,39.54 -32.2,52 -15.4,12.46 -34.35,21.08 -57,26.16 -22.49,4.92 -56.54,7.38 -101.98,7.38l-239.57 0 0 -730.13zm190.42 124.61l0 480.91c26.96,0 43.6,-5.54 49.76,-16.46 6.32,-11.08 9.4,-40.92 9.4,-89.69l0 -283.99c0,-33.08 -1.08,-54.31 -3.08,-63.69 -2.16,-9.39 -6.78,-16.16 -14.33,-20.46 -7.39,-4.47 -21.26,-6.62 -41.75,-6.62zm752.12 -124.61l0 488.14c0,55.38 -1.85,94.3 -5.39,116.61 -3.7,22.46 -14.33,45.54 -32.05,69.08 -17.72,23.69 -41.13,41.53 -70.1,53.68 -29.11,12.16 -63.32,18.31 -102.75,18.31 -43.6,0 -82.12,-7.23 -115.39,-21.69 -33.44,-14.46 -58.39,-33.23 -74.88,-56.3 -16.64,-23.24 -26.34,-47.69 -29.42,-73.39 -2.93,-25.69 -4.47,-79.84 -4.47,-162.15l0 -432.29 190.42 0 0 547.68c0,31.84 1.69,52.3 5.08,61.07 3.39,8.92 10.32,13.38 20.64,13.38 11.71,0 19.42,-4.92 22.8,-14.61 3.39,-9.85 5.09,-32.92 5.09,-69.23l0 -538.29 190.42 0zm73.79 0l134.5 0c89.66,0 150.36,3.38 182.09,10.31 31.74,6.92 57.62,24.61 77.65,53.07 20.02,28.31 30.04,73.69 30.04,135.84 0,56.77 -7.09,94.92 -21.26,114.46 -14.02,19.54 -41.9,31.23 -83.5,35.08 37.59,9.38 63.01,21.84 75.95,37.53 12.94,15.54 20.95,30 24.03,43.08 3.24,13.08 4.78,49.08 4.78,108l0 192.76 -176.55 0 0 -242.91c0,-39.08 -3.08,-63.23 -9.25,-72.62 -6.01,-9.38 -22.03,-14 -48.06,-14l0 329.53 -190.42 0 0 -730.13zm190.42 124.61l0 162.46c21.26,0 36.05,-2.92 44.52,-8.77 8.47,-5.85 12.79,-24.93 12.79,-57.08l0 -40.15c0,-23.23 -4.16,-38.46 -12.33,-45.69 -8.16,-7.23 -23.26,-10.77 -44.98,-10.77zm635.34 -124.61l108.76 730.13 -194.27 0 -10.32 -131.07 -68.55 0 -10.33 131.07 -196.73 0 96.44 -730.13 275 0zm-100.91 469.83c-9.09,-82.76 -18.64,-185.22 -28.81,-307.53 -18.8,140.31 -30.66,242.76 -35.74,307.53l64.55 0zm666.61 -469.83l0 730.13 -166.38 0 -98.91 -331.99 0 331.99 -158.99 0 0 -730.13 158.99 0 106.3 328.76 0 -328.76 158.99 0zm511.63 269.53l-190.41 0 0 -66.31c0,-41.84 -1.7,-67.99 -5.24,-78.45 -3.55,-10.62 -12.02,-15.85 -25.27,-15.85 -11.4,0 -19.26,4.46 -23.42,13.54 -4.16,8.92 -6.16,32.15 -6.16,69.38l0 350.14c0,32.62 2,54.31 6.16,64.62 4.16,10.3 12.33,15.53 24.65,15.53 13.56,0 22.65,-5.84 27.58,-17.53 4.78,-11.7 7.24,-34.62 7.24,-68.62l0 -86.46 -36.97 0 0 -110.76 221.84 0 0 391.37 -119.7 0 -17.56 -52.3c-12.94,22.61 -29.28,39.53 -48.84,50.92 -19.72,11.38 -42.98,17.07 -69.64,17.07 -31.89,0 -61.62,-7.69 -89.5,-23.23 -27.74,-15.53 -48.84,-34.61 -63.17,-57.53 -14.48,-22.77 -23.41,-46.77 -27.11,-71.85 -3.55,-25.08 -5.4,-62.76 -5.4,-112.92l0 -216.91c0,-69.69 3.7,-120.31 11.25,-151.85 7.55,-31.69 29.12,-60.61 64.71,-86.92 35.58,-26.3 81.65,-39.38 138.19,-39.38 55.61,0 101.68,11.38 138.34,34.31 36.67,22.92 60.7,50 71.79,81.38 11.1,31.54 16.64,77.07 16.64,137.07l0 31.54zm507.78 158.46c0,73.38 -1.69,125.22 -5.24,155.68 -3.39,30.62 -14.17,58.46 -32.35,83.7 -18.18,25.22 -42.83,44.61 -73.8,58.15 -30.96,13.53 -67.01,20.3 -108.15,20.3 -39.13,0 -74.1,-6.46 -105.22,-19.23 -31.12,-12.77 -56.23,-31.84 -75.02,-57.38 -18.95,-25.54 -30.2,-53.38 -33.9,-83.38 -3.54,-30.15 -5.39,-82.77 -5.39,-157.84l0 -124.92c0,-73.39 1.7,-125.23 5.24,-155.69 3.39,-30.61 14.17,-58.46 32.35,-83.69 18.18,-25.23 42.83,-44.62 73.79,-58.15 30.97,-13.54 67.02,-20.31 108.15,-20.31 39.13,0 74.11,6.46 105.23,19.23 31.12,12.77 56.23,31.84 75.02,57.38 18.95,25.54 30.2,53.39 33.9,83.38 3.54,30.16 5.39,82.77 5.39,157.85l0 124.92zm-190.42 -239.84c0,-33.85 -1.85,-55.54 -5.54,-65.08 -3.7,-9.38 -11.25,-14.15 -22.65,-14.15 -9.71,0 -17.1,3.84 -22.34,11.54 -5.08,7.53 -7.7,30.15 -7.7,67.69l0 340.76c0,42.3 1.69,68.46 5.08,78.3 3.39,10 11.25,14.92 23.57,14.92 12.64,0 20.8,-5.69 24.34,-17.07 3.55,-11.38 5.24,-38.62 5.24,-81.54l0 -335.37z"/>
   <rect class="fil1" x="699.44" y="2173.97" width="2965.12" height="407.55"/>
   <path class="fil0" d="M1075 2335.38l-52.31 190.81 76.09 0 75.75 -279.27 -68.28 0c-8.83,0 -17.44,2.31 -25.82,6.93 -8.38,4.63 -15.51,10.93 -21.4,18.93l-48.57 67.48 -11.21 -64.11c-0.91,-4.49 -2.55,-8.49 -4.93,-11.99 -2.38,-3.5 -5.26,-6.56 -8.66,-9.18 -3.4,-2.63 -7.13,-4.63 -11.21,-6 -4.08,-1.38 -8.16,-2.06 -12.23,-2.06l-76.09 0 -76.09 279.27 75.07 0 52.99 -194.18 23.1 133.45 16.65 0 97.15 -130.08zm130.1 -89.59l-59.11 212.55c-1.81,11.25 -1.81,20.81 0,28.68 1.82,7.87 4.93,14.49 9.35,19.87 4.42,5.37 9.85,9.62 16.3,12.74 6.46,3.13 13.42,5.5 20.89,7.12 7.48,1.63 15.29,2.63 23.44,3 8.16,0.38 16.08,0.57 23.78,0.57 10.42,0 22.02,-0.38 34.82,-1.13 12.8,-0.75 25.48,-2.94 38.05,-6.56 12.57,-3.62 24.34,-9.24 35.33,-16.87 10.98,-7.62 19.87,-18.3 26.66,-32.05l62.84 -228.29 -76.43 0c-0.68,0 -1.13,0.12 -1.35,0.37l-55.04 199.8c-2.48,5.5 -5.43,10 -8.83,13.5 -3.39,3.5 -7.25,6.31 -11.55,8.43 -4.3,2.13 -8.83,3.69 -13.59,4.69 -4.75,1 -9.73,1.75 -14.94,2.25 -4.98,-0.75 -9.8,-1.75 -14.44,-3 -4.64,-1.25 -8.61,-3.06 -11.89,-5.43 -3.28,-2.38 -5.66,-5.31 -7.13,-8.81 -1.48,-3.5 -1.42,-7.75 0.17,-12.75l54.69 -198.68 -72.02 0zm277.2 197.56c2.04,-20.99 6,-41.55 11.89,-61.67 5.88,-20.12 13.58,-39.3 23.1,-57.54 1.58,-3.25 3.85,-5.94 6.79,-8.06 2.94,-2.13 6.11,-3.19 9.51,-3.19l112.44 0 18.34 -67.1 -150.14 0c-12.69,0 -24.01,3.13 -33.97,9.37 -9.97,6.25 -18.86,14.56 -26.67,24.93 -7.81,10.37 -14.55,22.18 -20.21,35.43 -5.66,13.24 -10.59,26.8 -14.78,40.67 -4.19,13.87 -7.64,27.55 -10.36,41.05 -2.72,13.49 -4.98,25.49 -6.79,35.99 -1.59,9.49 -2.04,19.61 -1.36,30.36 0.68,10.75 2.72,20.74 6.12,29.99 3.39,9.25 8.43,17.12 15.11,23.62 6.68,6.49 15.34,10.37 25.99,11.62 47.33,5.74 94.55,4.62 141.65,-3.38l18 -69.35c-18.56,4 -37.31,6.06 -56.21,6.19 -18.91,0.12 -37.88,-1.32 -56.91,-4.31 -3.39,-0.75 -6.28,-2.5 -8.66,-5.25 -2.37,-2.75 -3.34,-5.87 -2.88,-9.37zm270.73 82.47l76.77 0 76.77 -279.28 -76.09 0 -22.42 80.97 -55.37 0 22.08 -80.59 -75.75 0 -23.78 85.47c-9.06,2.25 -17.04,5.87 -23.95,10.87 -6.91,5 -13.25,11.12 -19.02,18.36 -5.78,7.25 -11.21,15.56 -16.31,24.93 -5.09,9.38 -10.36,19.68 -15.79,30.93 -0.45,1.75 0.17,2.87 1.87,3.37 1.7,0.5 3.11,-0.12 4.24,-1.87 5.66,-7.25 12.91,-13.24 21.75,-17.99 8.83,-4.75 19.24,-8.5 31.25,-11.25l-37.71 136.45 76.43 0 38.39 -139.45 55.37 0 -38.73 139.08zm406.96 -218.55l0 -10.12c-2.95,-13.5 -8.5,-23.81 -16.65,-30.93 -8.15,-7.12 -17.49,-12.31 -28.03,-15.55 -10.52,-3.25 -21.62,-5.13 -33.28,-5.63 -11.67,-0.5 -22.48,-0.75 -32.44,-0.75 -20.16,0 -37.37,1.69 -51.64,5.06 -14.27,3.38 -26.1,7.75 -35.5,13.12 -9.39,5.38 -16.76,11.31 -22.08,17.81 -5.32,6.5 -9.11,12.87 -11.38,19.12 -4.3,11.49 -8.6,23.8 -12.9,36.92 -4.31,13.12 -8.33,26.55 -12.06,40.3 -3.74,13.75 -7.03,27.55 -9.85,41.42 -2.84,13.87 -4.82,27.31 -5.95,40.3 -0.91,11.25 -0.06,20.81 2.55,28.68 2.6,7.87 6.51,14.49 11.72,19.87 5.21,5.37 11.38,9.62 18.51,12.74 7.13,3.13 14.78,5.5 22.93,7.12 8.15,1.63 16.42,2.63 24.8,3 8.38,0.38 16.42,0.57 24.12,0.57 10.64,0 21.23,-0.5 31.76,-1.5 10.53,-1 21.12,-2.5 31.76,-4.5 13.13,-2.5 25.25,-8.12 36.35,-16.87 11.09,-8.75 19.47,-19.99 25.13,-33.74 10.65,-26.99 19.37,-54.29 26.16,-81.91 6.79,-27.61 12.12,-55.79 15.97,-84.53zm-115.5 143.2c-1.13,5.75 -3.63,10.25 -7.48,13.5 -3.84,3.24 -8.31,5.62 -13.41,7.12 -5.1,1.5 -10.42,2.43 -15.97,2.81 -5.54,0.37 -10.47,0.56 -14.77,0.56 -4.53,0.5 -8.72,0.12 -12.57,-1.12 -3.85,-1.25 -7.02,-3.19 -9.51,-5.82 -2.49,-2.62 -4.25,-5.87 -5.27,-9.74 -1.02,-3.87 -0.96,-8.31 0.17,-13.31 4.08,-21.24 9.06,-42.24 14.95,-62.98 5.89,-20.74 12.23,-40.86 19.02,-60.35 1.59,-4.75 4.08,-8.56 7.48,-11.43 3.39,-2.88 7.18,-5.13 11.37,-6.75 4.19,-1.63 8.55,-2.69 13.08,-3.19 4.53,-0.5 8.72,-0.75 12.57,-0.75 3.4,0 7.47,0.25 12.23,0.75 4.76,0.5 9.12,1.56 13.08,3.19 3.96,1.62 7.08,4.12 9.34,7.5 2.26,3.37 2.83,7.93 1.7,13.68 -3.85,21.74 -8.84,43.05 -14.95,63.91 -6.11,20.87 -13.13,41.68 -21.06,62.42zm294.52 75.72l32.61 -117.71 44.84 117.71 72.69 0 -66.24 -152.19 131.8 -128.21 -71.33 0 -93.76 96.72 26.84 -96.72 -74.74 0 -77.45 280.4 74.74 0zm355.66 -59.23l0 59.23 70.31 0 0 -279.65 -73.37 0c-1.58,0 -4.42,0.38 -8.49,1.12 -4.08,0.76 -8.95,2.88 -14.61,6.38 -5.66,3.5 -11.83,8.81 -18.51,15.93 -6.69,7.12 -13.54,17.06 -20.55,29.8l-122.97 226.42 79.82 0 30.58 -59.23 77.79 0zm-51.98 -50.6l53.34 -105.34 0 105.34 -53.34 0zm144.71 109.83l76.77 0 76.44 -279.27 -75.76 0 -77.45 279.27zm198.05 0l32.61 -117.71 44.84 117.71 72.69 0 -66.24 -152.19 131.8 -128.21 -71.33 0 -93.76 96.72 26.84 -96.72 -74.74 0 -77.45 280.4 74.74 0zm355.66 -59.23l0 59.23 70.32 0 0 -279.65 -73.38 0c-1.59,0 -4.42,0.38 -8.49,1.12 -4.08,0.76 -8.95,2.88 -14.61,6.38 -5.66,3.5 -11.83,8.81 -18.51,15.93 -6.68,7.12 -13.53,17.06 -20.55,29.8l-122.97 226.42 79.83 0 30.57 -59.23 77.79 0zm-51.98 -50.6l53.34 -105.34 0 105.34 -53.34 0zm144.71 109.83l76.78 0 76.43 -279.27 -75.76 0 -77.45 279.27z"/>
   <g>
    <path class="fil2" d="M3769.4 543.89c0,-8.25 6.7,-14.94 14.96,-14.94 8.26,0 14.96,6.69 14.96,14.94l-29.92 0zm0 5097.26l0 -5097.26 29.92 0 0 5097.26 0 0 -29.92 0zm-284.23 325.42l0 -29.88 0 0 14.54 -0.38 14.36 -1.13 14.16 -1.86 13.92 -2.58 13.7 -3.28 13.44 -3.95 13.16 -4.62 12.87 -5.26 12.57 -5.88 12.24 -6.49 11.9 -7.09 11.53 -7.65 11.16 -8.21 10.75 -8.74 10.33 -9.27 9.9 -9.76 9.45 -10.25 8.96 -10.71 8.47 -11.16 7.97 -11.58 7.43 -11.99 6.88 -12.39 6.32 -12.75 5.72 -13.1 5.13 -13.45 4.49 -13.76 3.86 -14.05 3.2 -14.35 2.52 -14.61 1.82 -14.85 1.11 -15.09 0.37 -15.3 29.92 0 -0.41 16.76 -1.21 16.53 -2 16.31 -2.78 16.03 -3.5 15.75 -4.24 15.45 -4.95 15.12 -5.63 14.79 -6.3 14.42 -6.94 14.03 -7.58 13.61 -8.17 13.21 -8.77 12.74 -9.33 12.28 -9.88 11.81 -10.41 11.29 -10.9 10.76 -11.41 10.23 -11.87 9.66 -12.32 9.07 -12.75 8.45 -13.16 7.83 -13.56 7.19 -13.91 6.52 -14.27 5.82 -14.6 5.12 -14.9 4.39 -15.2 3.64 -15.46 2.86 -15.7 2.06 -15.92 1.27 -16.12 0.42 0 0zm-3460.24 -29.88l3460.24 0 0 29.88 -3460.24 0 0 -29.88zm0 29.88c-8.26,0 -14.96,-6.69 -14.96,-14.94 0,-8.25 6.7,-14.94 14.96,-14.94l0 29.88z"/>
   </g>
   <g>
    <path class="fil2" d="M24.09 196.37c-8.26,0 -14.96,-6.69 -14.96,-14.94 0,-8.25 6.7,-14.94 14.96,-14.94l0 29.88zm2630.96 0l-2630.96 0 0 -29.88 2630.96 0 0 29.88zm0 -29.88c8.26,0 14.96,6.69 14.96,14.94 0,8.25 -6.7,14.94 -14.96,14.94l0 -29.88z"/>
   </g>
   <g>
    <path class="fil3" d="M3741.88 173.69l-1055.69 0 0 -21.12 1055.69 0 0 0 0 21.12zm68.86 47.7l-21.2 0 0 0 -0.07 -2.46 -0.18 -2.43 -0.3 -2.35 -0.42 -2.35 -0.54 -2.3 -0.64 -2.25 -0.75 -2.2 -0.86 -2.16 -0.96 -2.12 -1.06 -2.07 -1.15 -2 -1.24 -1.93 -1.34 -1.87 -1.41 -1.81 -1.51 -1.73 -1.59 -1.67 -1.67 -1.59 -1.73 -1.51 -1.81 -1.41 -1.87 -1.34 -1.93 -1.24 -2 -1.14 -2.06 -1.06 -2.11 -0.96 -2.16 -0.86 -2.2 -0.75 -2.24 -0.64 -2.3 -0.53 -2.34 -0.43 -2.35 -0.3 -2.42 -0.18 -2.45 -0.06 0 -21.12 3.53 0.1 3.48 0.26 3.45 0.44 3.4 0.61 3.32 0.77 3.28 0.94 3.2 1.09 3.12 1.24 3.05 1.38 2.96 1.52 2.88 1.66 2.81 1.8 2.69 1.92 2.61 2.05 2.49 2.17 2.39 2.27 2.27 2.39 2.17 2.49 2.05 2.61 1.92 2.69 1.8 2.81 1.65 2.88 1.52 2.95 1.38 3.04 1.24 3.12 1.09 3.2 0.94 3.27 0.76 3.32 0.62 3.39 0.44 3.45 0.26 3.47 0.09 3.52 0 0zm-21.2 280.17l0 -280.17 21.2 0 0 280.17 0 0 -21.2 0zm-47.66 68.82l0 -21.12 0 0 2.45 -0.06 2.42 -0.18 2.35 -0.3 2.34 -0.43 2.3 -0.53 2.24 -0.64 2.2 -0.75 2.16 -0.86 2.11 -0.96 2.06 -1.06 2 -1.14 1.93 -1.24 1.87 -1.34 1.81 -1.41 1.73 -1.51 1.67 -1.59 1.59 -1.67 1.51 -1.73 1.41 -1.81 1.34 -1.87 1.24 -1.93 1.15 -2 1.06 -2.07 0.96 -2.12 0.86 -2.16 0.75 -2.2 0.64 -2.25 0.54 -2.3 0.42 -2.35 0.3 -2.35 0.18 -2.43 0.07 -2.46 21.2 0 -0.09 3.52 -0.26 3.47 -0.44 3.45 -0.62 3.39 -0.76 3.32 -0.94 3.27 -1.09 3.2 -1.24 3.12 -1.38 3.04 -1.52 2.95 -1.65 2.88 -1.8 2.81 -1.92 2.69 -2.05 2.61 -2.17 2.49 -2.27 2.39 -2.39 2.27 -2.49 2.17 -2.61 2.05 -2.69 1.92 -2.81 1.8 -2.88 1.66 -2.96 1.52 -3.05 1.38 -3.12 1.24 -3.2 1.09 -3.28 0.94 -3.32 0.77 -3.4 0.61 -3.45 0.44 -3.48 0.26 -3.53 0.1 0 0zm-1055.69 -21.12l1055.69 0 0 21.12 -1055.69 0 0 0 0 -21.12zm-68.86 -47.7l21.2 0 0 0 0.07 2.46 0.18 2.43 0.3 2.35 0.42 2.35 0.54 2.3 0.64 2.25 0.75 2.2 0.86 2.16 0.96 2.12 1.06 2.07 1.15 2 1.24 1.93 1.34 1.87 1.41 1.81 1.51 1.73 1.59 1.67 1.67 1.59 1.73 1.51 1.81 1.41 1.87 1.34 1.93 1.24 2 1.14 2.06 1.06 2.11 0.96 2.16 0.86 2.2 0.75 2.24 0.64 2.3 0.53 2.34 0.43 2.35 0.3 2.42 0.18 2.45 0.06 0 21.12 -3.53 -0.1 -3.48 -0.26 -3.45 -0.44 -3.4 -0.61 -3.32 -0.77 -3.28 -0.94 -3.2 -1.09 -3.12 -1.24 -3.05 -1.38 -2.96 -1.52 -2.88 -1.66 -2.81 -1.8 -2.69 -1.92 -2.61 -2.05 -2.49 -2.17 -2.39 -2.27 -2.27 -2.39 -2.17 -2.49 -2.05 -2.61 -1.92 -2.69 -1.8 -2.81 -1.65 -2.88 -1.52 -2.95 -1.38 -3.04 -1.24 -3.12 -1.09 -3.2 -0.94 -3.27 -0.76 -3.32 -0.62 -3.39 -0.44 -3.45 -0.26 -3.47 -0.09 -3.52 0 0zm21.2 -280.17l0 280.17 -21.2 0 0 -280.17 0 0 21.2 0zm47.66 -68.82l0 21.12 0 0 -2.45 0.06 -2.42 0.18 -2.35 0.3 -2.34 0.43 -2.3 0.53 -2.24 0.64 -2.2 0.75 -2.16 0.86 -2.11 0.96 -2.06 1.06 -2 1.14 -1.93 1.24 -1.87 1.34 -1.81 1.41 -1.73 1.51 -1.67 1.59 -1.59 1.67 -1.51 1.73 -1.41 1.81 -1.34 1.87 -1.24 1.93 -1.15 2 -1.06 2.07 -0.96 2.12 -0.86 2.16 -0.75 2.2 -0.64 2.25 -0.54 2.3 -0.42 2.35 -0.3 2.35 -0.18 2.43 -0.07 2.46 -21.2 0 0.09 -3.52 0.26 -3.47 0.44 -3.45 0.62 -3.39 0.76 -3.32 0.94 -3.27 1.09 -3.2 1.24 -3.12 1.38 -3.04 1.52 -2.95 1.65 -2.88 1.8 -2.81 1.92 -2.69 2.05 -2.61 2.17 -2.49 2.27 -2.39 2.39 -2.27 2.49 -2.17 2.61 -2.05 2.69 -1.92 2.81 -1.8 2.88 -1.66 2.96 -1.52 3.05 -1.38 3.12 -1.24 3.2 -1.09 3.28 -0.94 3.32 -0.77 3.4 -0.61 3.45 -0.44 3.48 -0.26 3.53 -0.1 0 0z"/>
   </g>
   <path class="fil4" d="M2744.15 312.07c23.94,0 42.54,11.34 55.78,34.03 4.59,8.92 6.9,18.58 6.9,28.98l0 2.5c-1.37,7.79 -5.25,11.7 -11.6,11.7l-85.93 0c2.19,7.55 8.42,14.08 18.68,19.56 6.03,2.31 11.71,3.44 17,3.44 6.11,0 13.43,-2.15 22.01,-6.42l3.68 0c7.17,1.37 10.77,5.13 10.77,11.27l0 1.25c0,9.04 -11.35,15.06 -34.07,18.07l-3.22 0c-22.32,0 -40.22,-10.44 -53.7,-31.29 -5.44,-9.86 -8.14,-20.18 -8.14,-30.98 0,-22.76 10.73,-40.87 32.23,-54.33 10.5,-5.2 20.37,-7.78 29.61,-7.78zm-36.93 53.51l75.17 0c0,-2.82 -3.18,-8.49 -9.52,-17.02 -8.58,-8.06 -17,-12.09 -25.27,-12.09l-4.7 0c-12.53,0 -22.87,6.19 -30.98,18.51 -2.82,4.85 -4.39,8.41 -4.7,10.6zm126.48 -53.28c7.44,1.92 11.16,5.52 11.16,10.76l-0.04 1.72c9.17,-8.33 21.58,-12.48 37.21,-12.48 17.2,0 32.4,7.12 45.64,21.32 9.67,11.93 14.49,24.48 14.49,37.71l0 54.44c0,5.67 -3.76,9.23 -11.28,10.68l-1.18 0c-7.52,-1.37 -11.28,-5.24 -11.28,-11.58l0 -47.91c0,-19.91 -8.46,-32.94 -25.38,-39.12 -4.11,-1.05 -7.79,-1.6 -11.01,-1.6l-1.25 0c-14.14,0 -25.15,7.39 -32.94,22.14 -2,4.34 -2.98,11.7 -2.98,22.02l0 44.94c0,6.1 -3.76,9.82 -11.28,11.11l-0.82 0c-6.31,0 -10.19,-3.91 -11.64,-11.69l0 -99.39c0.94,-8.73 5.1,-13.07 12.58,-13.07zm148.85 -42.01l1.95 0c7.09,1.53 10.66,4.93 10.66,10.21l0 34.38 13.67 0 3.76 -0.47c5.91,0 9.75,3.84 11.59,11.46 0,5.71 -3.37,9.82 -10.1,12.25l-6.86 -0.47 -12.06 0 0 58.36c0,9.15 2.58,14.63 7.79,16.39l9.09 0.78 4.58 0c5.56,0 9.09,3.72 10.54,11.11l0 1.05c-1.29,7.4 -5.09,11.11 -11.48,11.11l-8.81 0c-14.85,0 -25.85,-8.02 -33.02,-24.05 -1.29,-4.07 -1.96,-8.69 -1.96,-13.89l0 -60.86 -4.82 0 -7.36 0.47c-6.7,-2.39 -10.07,-6.42 -10.07,-12.13 1.29,-7.39 3.8,-11.11 7.56,-11.11l0 -0.82 7.91 0.82 6.78 0 0 -32.11c0.9,-8.33 4.46,-12.48 10.66,-12.48zm70.07 41.07c7.48,1.92 11.24,5.52 11.24,10.76l0 1.84c9.48,-8.41 21.86,-12.6 37.06,-12.6 8.18,0 17.08,2.07 26.63,6.18 3.29,3.37 4.94,6.61 4.94,9.74l0 0.82c-1.29,7.48 -5.17,11.23 -11.6,11.23l-1.01 0c-7.88,-2.54 -13.63,-3.79 -17.24,-3.79l-2.51 0c-15.47,0 -26.79,8.01 -33.96,24.09 -1.53,4.18 -2.31,9.08 -2.31,14.67l0 50.93c0,6.18 -3.84,9.93 -11.48,11.22l-0.66 0c-6.27,0 -10.14,-3.91 -11.59,-11.69l0 -100.22c0.9,-8.8 5.09,-13.18 12.49,-13.18zm144.22 0.71c23.94,0 42.54,11.34 55.78,34.03 4.59,8.92 6.9,18.58 6.9,28.98l0 2.5c-1.37,7.79 -5.25,11.7 -11.6,11.7l-85.93 0c2.19,7.55 8.42,14.08 18.68,19.56 6.03,2.31 11.71,3.44 17,3.44 6.11,0 13.43,-2.15 22.01,-6.42l3.68 0c7.17,1.37 10.77,5.13 10.77,11.27l0 1.25c0,9.04 -11.35,15.06 -34.07,18.07l-3.22 0c-22.32,0 -40.22,-10.44 -53.7,-31.29 -5.44,-9.86 -8.14,-20.18 -8.14,-30.98 0,-22.76 10.73,-40.87 32.23,-54.33 10.5,-5.2 20.37,-7.78 29.61,-7.78zm-36.93 53.51l75.17 0c0,-2.82 -3.18,-8.49 -9.52,-17.02 -8.58,-8.06 -17,-12.09 -25.27,-12.09l-4.7 0c-12.53,0 -22.87,6.19 -30.98,18.51 -2.82,4.85 -4.39,8.41 -4.7,10.6zm116.21 -53.98l0.83 0c6.11,0 11.08,5.43 14.92,16.27l33.73 69.27c24.87,-52.77 38.31,-80.22 40.38,-82.45 2.74,-2.08 5.52,-3.09 8.27,-3.09 7.79,1.44 11.71,5.32 11.71,11.58l0 0.46c0,2 -6.43,16.28 -19.27,42.88l-32.28 66.14c-3.33,2.54 -6.31,3.79 -8.81,3.79l-0.36 0c-6.5,0 -11.9,-6.18 -16.17,-18.58 -27.77,-56.64 -42.5,-87.42 -44.19,-92.39l0 -3.01c1.37,-7.23 5.13,-10.87 11.24,-10.87zm139.45 -29.57c7.56,1.91 11.36,5.51 11.36,10.75l0 2.54c0,6.03 -4.07,9.63 -12.26,10.76 -5.91,0 -9.75,-3.99 -11.59,-12.01 1.6,-8.02 5.76,-12.04 12.49,-12.04zm0 29.53c7.56,1.87 11.36,5.47 11.36,10.75l0 102.92c0,6.18 -3.84,9.93 -11.48,11.22l-0.66 0c-6.27,0 -10.15,-3.91 -11.6,-11.69l0 -100.14c0.91,-8.72 5.06,-13.06 12.38,-13.06zm106.15 83.9c-0.07,-1.53 -1.64,-2.46 -4.73,-2.78 -38.7,-8.6 -59.35,-14.12 -61.97,-16.47 -7.88,-5.94 -11.79,-13.33 -11.79,-22.09 0,-11.94 8.34,-23.2 24.99,-33.92 9.2,-4.81 18.25,-7.19 27.22,-7.19 20.96,0 37.53,9.66 49.67,28.98l0.47 4.22 0 0.71c0,6.49 -3.92,10.32 -11.71,11.46 -5.21,0 -10.03,-3.68 -14.46,-10.99 -6.97,-6.81 -14.96,-10.21 -23.97,-10.21 -11.79,0 -21.03,5.51 -27.65,16.5l-0.24 1.14c0,1.53 3.29,2.58 9.87,3.09 32.91,7.98 51.04,12.59 54.49,13.88 9.4,6.19 14.14,14.05 14.14,23.51l0 0.35c0,13.07 -9.28,24.88 -27.77,35.4 -8.03,3.6 -16.49,5.4 -25.39,5.4 -18.37,0 -33.84,-8.6 -46.45,-25.78 -1.61,-2.3 -2.43,-4.49 -2.43,-6.64l0 -2.55c0,-6.18 4.23,-9.74 12.61,-10.64 4.08,0 8.86,3.95 14.38,11.82 6.74,6.26 14.61,9.38 23.62,9.38 10.73,0 19.58,-5 26.63,-14.98l0.47 -1.6zm63.27 -125.17l1.95 0c7.09,1.53 10.66,4.93 10.66,10.21l0 34.38 13.67 0 3.76 -0.47c5.91,0 9.75,3.84 11.59,11.46 0,5.71 -3.37,9.82 -10.1,12.25l-6.86 -0.47 -12.06 0 0 58.36c0,9.15 2.58,14.63 7.79,16.39l9.09 0.78 4.58 0c5.56,0 9.09,3.72 10.54,11.11l0 1.05c-1.29,7.4 -5.09,11.11 -11.48,11.11l-8.81 0c-14.85,0 -25.85,-8.02 -33.02,-24.05 -1.29,-4.07 -1.96,-8.69 -1.96,-13.89l0 -60.86 -4.82 0 -7.36 0.47c-6.7,-2.39 -10.07,-6.42 -10.07,-12.13 1.29,-7.39 3.8,-11.11 7.56,-11.11l0 -0.82 7.91 0.82 6.78 0 0 -32.11c0.9,-8.33 4.47,-12.48 10.66,-12.48zm70.03 103.23l0 1.25c0,15.64 7.88,27.38 23.58,35.24 4.9,1.84 9.29,2.74 13.2,2.74l3.29 0c13.01,0 23.74,-6.53 32.2,-19.56 3.06,-6.1 4.58,-11.93 4.58,-17.48l0 -1.73c0,-15.02 -7.44,-26.55 -22.32,-34.53 -5.14,-2.31 -10.46,-3.45 -16.02,-3.45l-0.47 0c-15.83,0 -27.74,8.26 -35.73,24.73 -1.52,5 -2.31,9.27 -2.31,12.79zm76.85 49.83c-9.32,8.72 -21.62,13.1 -36.89,13.1l-3.33 0c-21.08,0 -38.63,-10.56 -52.69,-31.64 -5.13,-10.25 -7.68,-20.5 -7.68,-30.83 0,-23.07 11.33,-41.38 33.96,-54.91 9.68,-4.5 19.08,-6.77 28.29,-6.77 23.46,0 42.07,11.46 55.78,34.38 4.18,9.43 6.3,19.09 6.3,29.03l0 49.63c0,6.1 -3.76,9.82 -11.28,11.11l-0.82 0c-5.21,0 -9.09,-3.05 -11.64,-9.19l0 -1.29 0 -2.62z"/>
  </g>
 </g>
</svg>
