<?xml version="1.0" encoding="UTF-8"?>
<!DOCTYPE svg PUBLIC "-//W3C//DTD SVG 1.1//EN" "http://www.w3.org/Graphics/SVG/1.1/DTD/svg11.dtd">
<!-- Creator: CorelDRAW 2017 -->
<svg xmlns="http://www.w3.org/2000/svg" xml:space="preserve" width="39.7086mm" height="61.1292mm" version="1.1" style="shape-rendering:geometricPrecision; text-rendering:geometricPrecision; image-rendering:optimizeQuality; fill-rule:evenodd; clip-rule:evenodd"
viewBox="0 0 3970.86 6112.92"
 xmlns:xlink="http://www.w3.org/1999/xlink">
 <defs>
  <style type="text/css">
   <![CDATA[
    .fil0 {fill:#FEFEFE}
    .fil5 {fill:black}
    .fil4 {fill:#B22219}
    .fil2 {fill:#CB699A}
    .fil3 {fill:white}
    .fil1 {fill:#FEFEFE;fill-rule:nonzero}
   ]]>
  </style>
    <clipPath id="id0">
     <rect x="20.18" y="27.3" width="3931.17" height="6058.32"/>
    </clipPath>
     <clipPath id="id1">
      <rect x="20.18" y="27.3" width="3931.18" height="6058.32"/>
     </clipPath>
 </defs>
 <g id="Capa_x0020_1">
  <metadata id="CorelCorpID_0Corel-Layer"/>
  <rect class="fil0" y="-0.01" width="3970.86" height="6112.93"/>
  <g id="_2607307276768">
   <g style="clip-path:url(#id0)">
    <image style="clip-path:url(#id1)" x="-2757.95" y="-1084.46" width="9580.25" height="7170.08" xlink:href="21-barbara-durango_Images\21-barbara-durango_ImgID1.png"/>
   </g>
   <g>
    <path class="fil1" d="M3616.63 212.98l-3242.02 0 0 -29.44 3242.02 0 0 0 0 29.44zm212.2 182.6l-29.76 0 0 0 -0.24 -9.37 -0.7 -9.26 -1.17 -9.1 -1.62 -8.97 -2.04 -8.81 -2.48 -8.66 -2.87 -8.47 -3.29 -8.28 -3.66 -8.08 -4.06 -7.88 -4.4 -7.65 -4.77 -7.41 -5.11 -7.17 -5.43 -6.91 -5.76 -6.64 -6.06 -6.35 -6.35 -6.06 -6.64 -5.76 -6.9 -5.43 -7.16 -5.1 -7.41 -4.76 -7.64 -4.4 -7.87 -4.05 -8.06 -3.66 -8.26 -3.28 -8.46 -2.87 -8.63 -2.46 -8.8 -2.04 -8.94 -1.62 -9.08 -1.16 -9.23 -0.7 -9.35 -0.24 0 -29.44 10.87 0.28 10.75 0.82 10.62 1.36 10.44 1.88 10.24 2.38 10.07 2.88 9.86 3.35 9.64 3.82 9.4 4.26 9.15 4.71 8.88 5.12 8.61 5.54 8.32 5.92 8.02 6.31 7.7 6.68 7.37 7.02 7.02 7.37 6.68 7.7 6.31 8.01 5.91 8.31 5.53 8.61 5.12 8.87 4.7 9.14 4.26 9.38 3.81 9.62 3.35 9.85 2.86 10.04 2.38 10.23 1.88 10.41 1.35 10.6 0.82 10.72 0.28 10.85 0 0zm-29.76 5396l0 -5396 29.76 0 0 5396 0 0 -29.76 0zm-182.44 212.04l0 -29.44 0 0 9.35 -0.24 9.23 -0.7 9.08 -1.16 8.94 -1.62 8.8 -2.04 8.63 -2.46 8.46 -2.87 8.26 -3.28 8.06 -3.66 7.87 -4.05 7.64 -4.4 7.41 -4.76 7.16 -5.1 6.9 -5.43 6.64 -5.76 6.35 -6.06 6.06 -6.35 5.76 -6.64 5.43 -6.91 5.11 -7.17 4.77 -7.41 4.4 -7.65 4.06 -7.88 3.66 -8.08 3.29 -8.28 2.87 -8.47 2.48 -8.66 2.04 -8.81 1.62 -8.97 1.17 -9.1 0.7 -9.26 0.24 -9.37 29.76 0 -0.28 10.85 -0.82 10.72 -1.35 10.6 -1.88 10.41 -2.38 10.23 -2.86 10.04 -3.35 9.85 -3.81 9.62 -4.26 9.38 -4.7 9.14 -5.12 8.87 -5.53 8.61 -5.91 8.31 -6.31 8.01 -6.68 7.7 -7.02 7.37 -7.37 7.02 -7.7 6.68 -8.02 6.31 -8.32 5.92 -8.61 5.54 -8.88 5.12 -9.15 4.71 -9.4 4.26 -9.64 3.82 -9.86 3.35 -10.07 2.88 -10.24 2.38 -10.44 1.88 -10.62 1.36 -10.75 0.82 -10.87 0.28 0 0zm-3242.02 -29.44l3242.02 0 0 29.44 -3242.02 0 0 0 0 -29.44zm-212.2 -182.6l29.76 0 0 0 0.24 9.37 0.7 9.26 1.17 9.1 1.62 8.97 2.04 8.81 2.48 8.66 2.87 8.47 3.29 8.28 3.66 8.08 4.06 7.88 4.4 7.65 4.77 7.41 5.11 7.17 5.43 6.91 5.76 6.64 6.06 6.35 6.35 6.06 6.64 5.76 6.9 5.43 7.16 5.1 7.41 4.76 7.64 4.4 7.87 4.05 8.06 3.66 8.26 3.28 8.46 2.87 8.63 2.46 8.8 2.04 8.94 1.62 9.08 1.16 9.23 0.7 9.35 0.24 0 29.44 -10.87 -0.28 -10.75 -0.82 -10.62 -1.36 -10.44 -1.88 -10.24 -2.38 -10.07 -2.88 -9.86 -3.35 -9.64 -3.82 -9.4 -4.26 -9.15 -4.71 -8.88 -5.12 -8.61 -5.54 -8.32 -5.92 -8.02 -6.31 -7.7 -6.68 -7.37 -7.02 -7.02 -7.37 -6.68 -7.7 -6.31 -8.01 -5.91 -8.31 -5.53 -8.61 -5.12 -8.87 -4.7 -9.14 -4.26 -9.38 -3.81 -9.62 -3.35 -9.85 -2.86 -10.04 -2.38 -10.23 -1.88 -10.41 -1.35 -10.6 -0.82 -10.72 -0.28 -10.85 0 0zm29.76 -5396l0 5396 -29.76 0 0 -5396 0 0 29.76 0zm182.44 -212.04l0 29.44 0 0 -9.35 0.24 -9.23 0.7 -9.08 1.16 -8.94 1.62 -8.8 2.04 -8.63 2.46 -8.46 2.87 -8.26 3.28 -8.06 3.66 -7.87 4.05 -7.64 4.4 -7.41 4.76 -7.16 5.1 -6.9 5.43 -6.64 5.76 -6.35 6.06 -6.06 6.35 -5.76 6.64 -5.43 6.91 -5.11 7.17 -4.77 7.41 -4.4 7.65 -4.06 7.88 -3.66 8.08 -3.29 8.28 -2.87 8.47 -2.48 8.66 -2.04 8.81 -1.62 8.97 -1.17 9.1 -0.7 9.26 -0.24 9.37 -29.76 0 0.28 -10.85 0.82 -10.72 1.35 -10.6 1.88 -10.41 2.38 -10.23 2.86 -10.04 3.35 -9.85 3.81 -9.62 4.26 -9.38 4.7 -9.14 5.12 -8.87 5.53 -8.61 5.91 -8.31 6.31 -8.01 6.68 -7.7 7.02 -7.37 7.37 -7.02 7.7 -6.68 8.02 -6.31 8.32 -5.92 8.61 -5.54 8.88 -5.12 9.15 -4.71 9.4 -4.26 9.64 -3.82 9.86 -3.35 10.07 -2.88 10.24 -2.38 10.44 -1.88 10.62 -1.36 10.75 -0.82 10.87 -0.28 0 0z"/>
   </g>
   <path class="fil2" d="M1195.08 5617.5c8.71,21.74 24.04,34.46 29.14,67.37 16.84,108.82 -121.92,55.26 -42.92,-53.18l13.78 -14.19zm-864.83 -56.5l-0.08 -21.03c-15.94,9.84 -15.73,31.53 -47.5,22.24 -18.92,-5.52 -33.18,-26.93 -20.84,-49.2 21.91,-39.55 89.43,4.98 100.31,23.82 9.03,1.92 2.72,-0.24 11.67,4.56 0.15,0.08 8.81,5.72 10.51,6.94l69.35 49.41c56.62,37.47 93.99,23.49 86.67,-24 29.64,13.23 77.01,69.81 139.25,71.5 34.6,0.95 59,-13.29 65.93,-40.96 9.87,-39.44 -9.06,-60.11 -20.24,-85.21 79.67,-2.86 158.47,0.08 243.91,-0.47 -21.82,53.44 -26.08,116.97 49.47,120.37 65.43,2.94 95.99,-49.49 123.54,-80.51 13.63,9.44 23.69,26.42 32.51,37.67 -23.46,38.27 -68.19,127 -13.41,164.62 28.61,19.64 59.09,9.54 75.63,-16.71 21,-33.34 3.73,-66.9 2.71,-98.93 -6.01,-5.27 -1.68,0.4 -9.13,-10.37l-21.61 -38.61c6.16,-7.29 8.32,-11.51 14.38,-19.33 7.62,-9.85 10.45,-10.7 18.62,-18.56l47.26 52.76c9.97,8.78 10.15,5.13 19.6,17.46 33.66,2.31 67.07,27.11 103.88,-7.53 34.09,-32.09 12.3,-70.04 2.3,-102.24 85.55,0.2 164.33,-3.66 243.36,0.54 -10.68,22.24 -27.51,44.69 -21.41,79.23 11.79,66.79 92.09,51.86 145.28,18.13 11,-6.98 19.85,-14.65 30.59,-22.14 9.45,-6.59 22.85,-15.48 30.24,-22.15 -4.29,111.42 131.28,-4.74 174.48,-36.87 19.94,-14.84 75.97,-61.94 102.6,-24.71 15.41,21.54 1.18,43.44 -15.7,50.22 -26.65,10.71 -37.18,-5.31 -47.94,-21.26 -21.47,42.25 57.01,62.04 83.46,21.21 26.39,-40.73 1.1,-96.34 -56.73,-87.73 -67.37,10.03 -140.86,121.21 -204.2,111.04 -9.45,-30.91 -2.45,-42.81 5.36,-72.04 -36.43,21.48 -118.41,88.4 -155.75,99.3 -46.62,13.61 -71.66,-12.13 -51.96,-56.22 18.45,-41.3 35.93,-37.8 63.36,-65.08l-405.33 -0.51c14.37,17.72 36.35,22 50.67,42.95 17.18,25.14 9.31,58.3 -13.54,69.7 -50.78,25.33 -96.29,-38.66 -111.74,-63.23 9.9,-23.24 24.98,-28.83 35.05,-49 -51.97,-0.92 -23.93,5.04 -52.47,20.81 -20.91,-25.64 -3.15,-21.05 -44.63,-21.31 7.55,17.49 19.1,29.58 25.92,45.11 -6.23,7.2 -8.73,11.9 -14.93,19.21 -6.13,7.23 -12.57,12.53 -17.71,18.45l-31.39 -37.66c6.55,-15.19 18.3,-28.37 25.82,-44.95l-32.17 0.08 -11.47 21.95c-23.84,-19.11 -12.85,-22.01 -53.95,-22.16 9.99,20.43 25.04,26.38 35.56,49.47 -85.14,129.2 -159.49,47.81 -126.33,-3.39 13.99,-21.59 37.58,-28.5 51.65,-45.41l-405.78 -0.54c26.04,27.67 44.7,23.52 63.94,65.88 19.49,42.91 -5.55,69.21 -51.72,55.95 -34.01,-9.76 -123.3,-78.73 -155.89,-99.33 8.06,26.23 14.68,43.87 5.42,71.85 -58.58,10.6 -132.08,-90.81 -192.91,-108.24 -90.12,-25.83 -105.22,93.83 -31.91,106.85 39.07,6.94 38.44,-14.15 50.11,-21.69z"/>
   <rect class="fil3" x="19.5" y="5436.75" width="2613.4" height="492.88"/>
   <path class="fil4" d="M491.28 5682.43c-0.04,18.84 -0.74,55.35 0.19,71.29 27.6,2.03 43.68,10.13 50.9,10.13l38.25 -0.01c11.21,0 18.57,-1.9 23.82,-8.03 2.57,-3 5.57,-5.38 5.87,-10.41 0.55,-8.98 -0.28,-6.19 4.7,-11.49 10.19,-10.87 5.21,-13.51 5.1,-23.83 -0.1,-10.05 1.2,-6.17 3.7,-12.31 1.56,-3.85 -1.13,-8.21 -1.12,-19.18 0.01,-10.01 6.09,-7.68 0.32,-17.5 -3.58,-6.1 -5.55,-9.33 -14.66,-9.34 -21.01,-0.01 -66.33,10.27 -50.88,-23.91 4.43,-9.78 9.69,-18.49 12.24,-29.77 2.69,-11.91 -0.38,-25.52 -12.3,-28.56 -0.06,11.97 -4.94,25.11 -9.45,34.49 -11.5,23.92 -15.66,9.45 -36.08,53.74 -4.75,10.3 -8.5,21.33 -20.6,24.69z"/>
   <path class="fil4" d="M426.66 5676.68c2.78,16.51 5.95,54.57 7.44,70.65 1.85,20.01 0.59,22.72 16.46,22.62 37.59,-0.26 28.27,10.37 28.85,-88.51 0.1,-18.47 -7.18,-14.92 -24.06,-14.92 -6.28,0 -13.9,-0.39 -20.02,-0.01 -5.52,0.34 -9.7,4.02 -8.67,10.17z"/>
   <path class="fil5" d="M703.02 5590.42l66.69 0c13.24,0 23.06,0.54 29.55,1.63 6.52,1.12 12.3,3.41 17.43,6.85 5.12,3.49 9.39,8.1 12.81,13.87 3.41,5.77 5.12,12.28 5.12,19.45 0,7.75 -2.1,14.92 -6.29,21.39 -4.19,6.5 -9.9,11.34 -17.08,14.6 10.13,2.98 17.9,8.02 23.37,15.15 5.44,7.12 8.15,15.49 8.15,25.14 0,7.59 -1.74,14.95 -5.27,22.12 -3.54,7.17 -8.35,12.9 -14.49,17.2 -6.09,4.26 -13.62,6.9 -22.59,7.9 -5.59,0.59 -19.14,0.97 -40.61,1.13l-56.79 0 0 -166.43zm33.77 27.66l0 38.35 22.05 0c13.08,0 21.24,-0.19 24.42,-0.58 5.75,-0.66 10.29,-2.63 13.59,-5.93 3.3,-3.29 4.93,-7.59 4.93,-12.93 0,-5.16 -1.44,-9.3 -4.27,-12.52 -2.84,-3.21 -7.07,-5.15 -12.66,-5.81 -3.33,-0.39 -12.93,-0.58 -28.72,-0.58l-19.34 0zm0 66.01l0 44.63 31.22 0c12.11,0 19.83,-0.35 23.09,-1.01 5.01,-0.92 9.09,-3.13 12.23,-6.66 3.15,-3.56 4.74,-8.25 4.74,-14.18 0,-5.03 -1.2,-9.26 -3.65,-12.74 -2.41,-3.49 -5.94,-6.05 -10.52,-7.64 -4.58,-1.58 -14.56,-2.4 -29.89,-2.4l-27.22 0zm157.97 -10.69l-28.89 -5.11c3.26,-11.78 8.89,-20.5 16.85,-26.15 7.96,-5.66 19.8,-8.49 35.48,-8.49 14.25,0 24.89,1.67 31.88,5.04 6.94,3.37 11.88,7.63 14.71,12.82 2.83,5.19 4.27,14.68 4.27,28.55l-0.47 37.19c0,10.58 0.51,18.4 1.52,23.44 1.01,5.04 2.91,10.42 5.7,16.16l-31.68 0c-0.81,-2.1 -1.86,-5.19 -3.06,-9.3 -0.51,-1.9 -0.89,-3.14 -1.13,-3.72 -5.43,5.35 -11.26,9.34 -17.47,12.01 -6.21,2.67 -12.81,4.03 -19.83,4.03 -12.39,0 -22.17,-3.37 -29.31,-10.11 -7.15,-6.7 -10.72,-15.23 -10.72,-25.53 0,-6.78 1.63,-12.86 4.89,-18.21 3.26,-5.31 7.8,-9.41 13.71,-12.24 5.86,-2.83 14.32,-5.31 25.39,-7.44 14.9,-2.79 25.27,-5.42 31.01,-7.82l0 -3.22c0,-6.2 -1.51,-10.61 -4.54,-13.29 -3.06,-2.63 -8.81,-3.95 -17.23,-3.95 -5.71,0 -10.14,1.12 -13.32,3.41 -3.22,2.25 -5.78,6.24 -7.76,11.93zm42.85 25.8c-4.07,1.36 -10.56,2.98 -19.45,4.88 -8.85,1.9 -14.67,3.76 -17.39,5.54 -4.15,2.99 -6.25,6.71 -6.25,11.24 0,4.49 1.67,8.33 5.01,11.58 3.34,3.25 7.57,4.88 12.73,4.88 5.75,0 11.26,-1.9 16.5,-5.66 3.85,-2.9 6.41,-6.39 7.61,-10.57 0.82,-2.71 1.24,-7.9 1.24,-15.54l0 -6.35zm93.45 57.65l-31.91 0 0 -120.64 29.58 0 0 17.12c5.08,-8.09 9.67,-13.4 13.74,-15.92 4.08,-2.52 8.7,-3.76 13.86,-3.76 7.3,0 14.33,2.02 21.08,6.01l-9.9 27.81c-5.39,-3.48 -10.4,-5.23 -15.02,-5.23 -4.51,0 -8.31,1.24 -11.42,3.69 -3.1,2.47 -5.55,6.89 -7.33,13.32 -1.79,6.43 -2.68,19.91 -2.68,40.41l0 37.19zm58.74 0l0 -166.43 31.91 0 0 60.05c9.86,-11.2 21.5,-16.82 35.01,-16.82 14.72,0 26.87,5.31 36.5,15.97 9.62,10.65 14.44,25.95 14.44,45.9 0,20.61 -4.89,36.5 -14.72,47.65 -9.82,11.12 -21.78,16.7 -35.79,16.7 -6.91,0 -13.7,-1.78 -20.42,-5.31 -6.71,-3.56 -12.5,-8.68 -17.35,-15.42l0 17.71 -29.58 0zm31.44 -62.65c0,12.52 1.98,21.81 5.94,27.78 5.55,8.52 12.89,12.79 22.09,12.79 7.07,0 13.08,-3.03 18.09,-9.07 4.97,-6.04 7.45,-15.57 7.45,-28.55 0,-13.83 -2.52,-23.79 -7.53,-29.91 -5,-6.12 -11.41,-9.18 -19.25,-9.18 -7.69,0 -14.06,2.98 -19.14,8.95 -5.09,5.96 -7.65,15.03 -7.65,27.19zm135.99 -20.8l-28.88 -5.11c3.26,-11.78 8.89,-20.5 16.85,-26.15 7.96,-5.66 19.8,-8.49 35.48,-8.49 14.25,0 24.89,1.67 31.87,5.04 6.95,3.37 11.88,7.63 14.72,12.82 2.83,5.19 4.27,14.68 4.27,28.55l-0.47 37.19c0,10.58 0.5,18.4 1.51,23.44 1.01,5.04 2.92,10.42 5.71,16.16l-31.68 0c-0.81,-2.1 -1.86,-5.19 -3.06,-9.3 -0.51,-1.9 -0.9,-3.14 -1.13,-3.72 -5.43,5.35 -11.26,9.34 -17.47,12.01 -6.21,2.67 -12.81,4.03 -19.84,4.03 -12.38,0 -22.16,-3.37 -29.31,-10.11 -7.14,-6.7 -10.71,-15.23 -10.71,-25.53 0,-6.78 1.63,-12.86 4.89,-18.21 3.26,-5.31 7.8,-9.41 13.7,-12.24 5.87,-2.83 14.33,-5.31 25.39,-7.44 14.91,-2.79 25.27,-5.42 31.02,-7.82l0 -3.22c0,-6.2 -1.51,-10.61 -4.54,-13.29 -3.07,-2.63 -8.81,-3.95 -17.24,-3.95 -5.71,0 -10.13,1.12 -13.31,3.41 -3.23,2.25 -5.79,6.24 -7.77,11.93zm42.86 25.8c-4.08,1.36 -10.56,2.98 -19.45,4.88 -8.85,1.9 -14.67,3.76 -17.39,5.54 -4.16,2.99 -6.25,6.71 -6.25,11.24 0,4.49 1.67,8.33 5.01,11.58 3.34,3.25 7.57,4.88 12.73,4.88 5.75,0 11.26,-1.9 16.5,-5.66 3.84,-2.9 6.41,-6.39 7.61,-10.57 0.81,-2.71 1.24,-7.9 1.24,-15.54l0 -6.35zm93.45 57.65l-31.91 0 0 -120.64 29.58 0 0 17.12c5.08,-8.09 9.66,-13.4 13.74,-15.92 4.08,-2.52 8.69,-3.76 13.86,-3.76 7.3,0 14.32,2.02 21.08,6.01l-9.9 27.81c-5.4,-3.48 -10.4,-5.23 -15.02,-5.23 -4.51,0 -8.31,1.24 -11.42,3.69 -3.1,2.47 -5.55,6.89 -7.33,13.32 -1.79,6.43 -2.68,19.91 -2.68,40.41l0 37.19zm83.89 -83.45l-28.88 -5.11c3.26,-11.78 8.89,-20.5 16.84,-26.15 7.96,-5.66 19.8,-8.49 35.49,-8.49 14.24,0 24.88,1.67 31.87,5.04 6.95,3.37 11.88,7.63 14.71,12.82 2.84,5.19 4.28,14.68 4.28,28.55l-0.47 37.19c0,10.58 0.5,18.4 1.51,23.44 1.01,5.04 2.91,10.42 5.71,16.16l-31.68 0c-0.82,-2.1 -1.86,-5.19 -3.07,-9.3 -0.5,-1.9 -0.89,-3.14 -1.12,-3.72 -5.44,5.35 -11.26,9.34 -17.47,12.01 -6.21,2.67 -12.81,4.03 -19.84,4.03 -12.38,0 -22.17,-3.37 -29.31,-10.11 -7.14,-6.7 -10.72,-15.23 -10.72,-25.53 0,-6.78 1.64,-12.86 4.9,-18.21 3.26,-5.31 7.8,-9.41 13.7,-12.24 5.86,-2.83 14.33,-5.31 25.39,-7.44 14.91,-2.79 25.27,-5.42 31.02,-7.82l0 -3.22c0,-6.2 -1.52,-10.61 -4.54,-13.29 -3.07,-2.63 -8.82,-3.95 -17.24,-3.95 -5.71,0 -10.13,1.12 -13.32,3.41 -3.22,2.25 -5.78,6.24 -7.76,11.93zm42.86 25.8c-4.08,1.36 -10.56,2.98 -19.45,4.88 -8.85,1.9 -14.68,3.76 -17.39,5.54 -4.16,2.99 -6.25,6.71 -6.25,11.24 0,4.49 1.67,8.33 5.01,11.58 3.33,3.25 7.56,4.88 12.73,4.88 5.74,0 11.26,-1.9 16.5,-5.66 3.84,-2.9 6.4,-6.39 7.61,-10.57 0.81,-2.71 1.24,-7.9 1.24,-15.54l0 -6.35zm127.88 -108.78l61.41 0c13.87,0 24.42,1.05 31.68,3.18 9.75,2.86 18.13,7.98 25.08,15.34 6.99,7.32 12.27,16.31 15.92,26.96 3.61,10.62 5.43,23.75 5.43,39.32 0,13.72 -1.7,25.49 -5.12,35.41 -4.15,12.13 -10.09,21.93 -17.82,29.4 -5.82,5.7 -13.7,10.11 -23.6,13.29 -7.42,2.37 -17.32,3.53 -29.74,3.53l-63.24 0 0 -166.43zm33.77 28.12l0 110.18 25.04 0c9.36,0 16.11,-0.54 20.27,-1.59 5.47,-1.35 9.98,-3.68 13.55,-6.93 3.61,-3.25 6.52,-8.6 8.77,-16.04 2.29,-7.44 3.42,-17.63 3.42,-30.49 0,-12.86 -1.13,-22.7 -3.42,-29.6 -2.25,-6.89 -5.43,-12.24 -9.51,-16.11 -4.08,-3.83 -9.24,-6.47 -15.53,-7.82 -4.66,-1.05 -13.86,-1.6 -27.52,-1.6l-15.07 0zm214.1 138.31l0 -18.06c-4.42,6.44 -10.21,11.55 -17.39,15.38 -7.18,3.8 -14.75,5.7 -22.71,5.7 -8.15,0 -15.45,-1.78 -21.89,-5.35 -6.49,-3.56 -11.15,-8.6 -14.02,-15.03 -2.91,-6.47 -4.35,-15.38 -4.35,-26.77l0 -76.51 31.92 0 0 55.55c0,17.01 0.58,27.39 1.78,31.23 1.16,3.83 3.3,6.89 6.45,9.1 3.1,2.25 7.06,3.37 11.87,3.37 5.48,0 10.37,-1.51 14.72,-4.49 4.35,-2.98 7.29,-6.7 8.89,-11.16 1.59,-4.45 2.4,-15.3 2.4,-32.62l0 -50.98 31.92 0 0 120.64 -29.59 0zm92.9 0l-31.91 0 0 -120.64 29.58 0 0 17.12c5.09,-8.09 9.67,-13.4 13.74,-15.92 4.08,-2.52 8.7,-3.76 13.87,-3.76 7.29,0 14.32,2.02 21.08,6.01l-9.9 27.81c-5.4,-3.48 -10.41,-5.23 -15.03,-5.23 -4.5,0 -8.31,1.24 -11.41,3.69 -3.11,2.47 -5.55,6.89 -7.34,13.32 -1.78,6.43 -2.68,19.91 -2.68,40.41l0 37.19zm83.9 -83.45l-28.89 -5.11c3.26,-11.78 8.89,-20.5 16.85,-26.15 7.96,-5.66 19.8,-8.49 35.48,-8.49 14.25,0 24.89,1.67 31.88,5.04 6.94,3.37 11.88,7.63 14.71,12.82 2.83,5.19 4.27,14.68 4.27,28.55l-0.47 37.19c0,10.58 0.51,18.4 1.52,23.44 1.01,5.04 2.91,10.42 5.71,16.16l-31.68 0c-0.82,-2.1 -1.87,-5.19 -3.07,-9.3 -0.5,-1.9 -0.89,-3.14 -1.13,-3.72 -5.43,5.35 -11.25,9.34 -17.47,12.01 -6.21,2.67 -12.81,4.03 -19.83,4.03 -12.39,0 -22.17,-3.37 -29.31,-10.11 -7.15,-6.7 -10.72,-15.23 -10.72,-25.53 0,-6.78 1.63,-12.86 4.89,-18.21 3.26,-5.31 7.81,-9.41 13.71,-12.24 5.86,-2.83 14.32,-5.31 25.39,-7.44 14.9,-2.79 25.27,-5.42 31.02,-7.82l0 -3.22c0,-6.2 -1.52,-10.61 -4.55,-13.29 -3.06,-2.63 -8.81,-3.95 -17.23,-3.95 -5.71,0 -10.14,1.12 -13.32,3.41 -3.22,2.25 -5.78,6.24 -7.76,11.93zm42.86 25.8c-4.08,1.36 -10.57,2.98 -19.46,4.88 -8.85,1.9 -14.67,3.76 -17.39,5.54 -4.15,2.99 -6.25,6.71 -6.25,11.24 0,4.49 1.67,8.33 5.01,11.58 3.34,3.25 7.57,4.88 12.74,4.88 5.74,0 11.25,-1.9 16.49,-5.66 3.85,-2.9 6.41,-6.39 7.61,-10.57 0.82,-2.71 1.25,-7.9 1.25,-15.54l0 -6.35zm172.87 57.65l-31.91 0 0 -61.48c0,-13.02 -0.7,-21.43 -2.06,-25.22 -1.4,-3.84 -3.61,-6.78 -6.72,-8.91 -3.1,-2.13 -6.83,-3.18 -11.18,-3.18 -5.59,0 -10.6,1.51 -15.02,4.53 -4.47,3.02 -7.49,7.05 -9.12,12.01 -1.67,5 -2.49,14.22 -2.49,27.7l0 54.55 -31.91 0 0 -120.64 29.58 0 0 17.7c10.6,-13.51 23.92,-20.26 40.03,-20.26 7.06,0 13.55,1.28 19.41,3.8 5.9,2.56 10.33,5.77 13.31,9.69 3.03,3.95 5.13,8.4 6.29,13.4 1.2,5 1.79,12.12 1.79,21.42l0 74.89zm29.31 7.67l36.57 4.41c0.62,4.3 2.02,7.25 4.19,8.88 3.07,2.28 7.84,3.44 14.36,3.44 8.35,0 14.6,-1.24 18.8,-3.76 2.79,-1.66 4.92,-4.33 6.36,-8.05 0.97,-2.64 1.48,-7.56 1.48,-14.65l0.15 -17.62c-9.63,13.13 -21.74,19.68 -36.34,19.68 -16.22,0 -29.11,-6.86 -38.58,-20.54 -7.46,-10.8 -11.18,-24.29 -11.18,-40.36 0,-20.22 4.89,-35.64 14.63,-46.3 9.74,-10.65 21.9,-16 36.42,-16 14.94,0 27.29,6.55 36.99,19.64l0 -17.08 29.82 0 0 108.16c0,14.22 -1.17,24.87 -3.53,31.88 -2.34,7.06 -5.63,12.56 -9.9,16.59 -4.24,3.99 -9.9,7.16 -17.01,9.41 -7.1,2.29 -16.07,3.41 -26.9,3.41 -20.5,0 -35.02,-3.53 -43.6,-10.54 -8.58,-7.05 -12.85,-15.92 -12.85,-26.73 0,-1.04 0.04,-2.36 0.12,-3.87zm28.65 -70.43c0,12.78 2.48,22.12 7.41,28.05 4.97,5.92 11.1,8.9 18.36,8.9 7.77,0 14.37,-3.05 19.73,-9.14 5.39,-6.08 8.07,-15.07 8.07,-27 0,-12.47 -2.56,-21.73 -7.72,-27.77 -5.13,-6.05 -11.65,-9.07 -19.53,-9.07 -7.65,0 -13.94,2.98 -18.91,8.91 -4.93,5.93 -7.41,14.95 -7.41,27.12zm109.2 0.97c0,-10.62 2.6,-20.88 7.84,-30.8 5.25,-9.96 12.66,-17.51 22.25,-22.74 9.59,-5.23 20.26,-7.87 32.1,-7.87 18.29,0 33.24,5.93 44.92,17.79 11.69,11.89 17.51,26.84 17.51,44.97 0,18.29 -5.9,33.43 -17.67,45.45 -11.8,12 -26.63,18.01 -44.52,18.01 -11.07,0 -21.63,-2.52 -31.68,-7.52 -10.02,-5 -17.66,-12.32 -22.91,-22 -5.24,-9.65 -7.84,-21.42 -7.84,-35.29zm32.85 1.7c0,11.97 2.83,21.15 8.5,27.51 5.7,6.39 12.69,9.57 21.04,9.57 8.31,0 15.29,-3.18 20.92,-9.57 5.63,-6.36 8.47,-15.62 8.47,-27.74 0,-11.82 -2.84,-20.92 -8.47,-27.27 -5.63,-6.4 -12.61,-9.57 -20.92,-9.57 -8.35,0 -15.34,3.17 -21.04,9.57 -5.67,6.35 -8.5,15.53 -8.5,27.5z"/>
   <path class="fil4" d="M351.43 5632.17c6.17,-6.76 12.7,-10.43 15.7,-21.95 -5.18,1.57 -10.39,4.71 -15.87,6.62 -8.84,3.08 -9.08,3.74 -14.67,-1.04 -7.88,-6.72 -20.19,-11.02 -33.53,-8.88 -23.89,3.83 -37.43,23.49 -34.6,51.04 -57.29,-3.46 -78.85,-39.11 -87.27,-43.62 -3.31,12.13 -7.76,18.37 -3.06,33.68 3.17,10.33 9.05,16.28 15.57,21.77 -8.81,0.2 -11.33,-3.12 -17.86,-4.24 0.97,24.94 13.83,33.72 31.84,41.28 -4.7,1.59 -10.84,1.35 -16.65,0.95 4.25,17.93 20.16,26.55 37.55,29.43 -14.54,14.18 -35.37,17.06 -59.84,17.35 9.62,10.58 44.71,18.75 63.53,18.79 45.68,0.09 82.8,-22.21 104.32,-60.25 13.26,-23.45 13.16,-35.55 16.07,-64.83 4.22,-4.64 7.52,-5.62 11.71,-10.25 3.08,-3.4 5.78,-7.7 8.63,-11.26 -5.69,0.56 -13.1,4.56 -21.57,5.41z"/>
  </g>
 </g>
</svg>
