<?xml version="1.0" encoding="UTF-8"?>
<!DOCTYPE svg PUBLIC "-//W3C//DTD SVG 1.1//EN" "http://www.w3.org/Graphics/SVG/1.1/DTD/svg11.dtd">
<!-- Creator: CorelDRAW 2017 -->
<svg xmlns="http://www.w3.org/2000/svg" xml:space="preserve" width="39.7086mm" height="61.1292mm" version="1.1" style="shape-rendering:geometricPrecision; text-rendering:geometricPrecision; image-rendering:optimizeQuality; fill-rule:evenodd; clip-rule:evenodd"
viewBox="0 0 3970.86 6112.92"
 xmlns:xlink="http://www.w3.org/1999/xlink">
 <defs>
  <style type="text/css">
   <![CDATA[
    .fil1 {fill:#FEFEFE}
    .fil0 {fill:#FEFEFE;fill-rule:nonzero}
   ]]>
  </style>
    <clipPath id="id0">
     <rect x="2.16" y="11.17" width="1680.51" height="1278.66"/>
    </clipPath>
     <clipPath id="id1">
      <rect x="2.16" y="11.17" width="1680.51" height="1278.66"/>
     </clipPath>
    <clipPath id="id2">
     <rect x="13.42" y="2392.4" width="3955.28" height="3704.01"/>
    </clipPath>
    <clipPath id="id3">
     <rect x="13.04" y="7.29" width="3948.44" height="2632.24"/>
    </clipPath>
 </defs>
 <g id="Capa_x0020_1">
  <metadata id="CorelCorpID_0Corel-Layer"/>
  <g id="_2607503166496">
   <g style="clip-path:url(#id0)">
    <image style="clip-path:url(#id1)" x="-191.61" y="-228.88" width="2025" height="1518.72" xlink:href="26-sesion-de-fotos_Images\26-sesion-de-fotos_ImgID1.png"/>
   </g>
   <g style="clip-path:url(#id2)">
    <image x="13.42" y="2392.41" width="3955.27" height="3704" xlink:href="26-sesion-de-fotos_Images\26-sesion-de-fotos_ImgID2.png"/>
   </g>
   <g style="clip-path:url(#id3)">
    <image x="13.04" y="7.29" width="3948.44" height="2632.23" xlink:href="26-sesion-de-fotos_Images\26-sesion-de-fotos_ImgID3.png"/>
   </g>
   <g>
    <path class="fil0" d="M3716.54 193.44l-3422.82 0 0 -29.9 3422.82 0 0 0 0 29.9zm138.68 108.86l-29.74 0 0 0 -0.14 -5.59 -0.42 -5.49 -0.69 -5.42 -0.97 -5.33 -1.22 -5.26 -1.47 -5.15 -1.7 -5.04 -1.96 -4.92 -2.19 -4.82 -2.41 -4.69 -2.63 -4.56 -2.84 -4.41 -3.05 -4.29 -3.24 -4.12 -3.43 -3.95 -3.62 -3.8 -3.8 -3.63 -3.95 -3.42 -4.13 -3.25 -4.28 -3.05 -4.42 -2.84 -4.57 -2.63 -4.69 -2.42 -4.83 -2.19 -4.93 -1.96 -5.05 -1.71 -5.16 -1.47 -5.27 -1.22 -5.34 -0.97 -5.43 -0.7 -5.51 -0.42 -5.6 -0.14 0 -29.9 7.1 0.18 7.01 0.54 6.93 0.88 6.82 1.23 6.69 1.56 6.56 1.87 6.45 2.19 6.31 2.5 6.13 2.79 5.97 3.06 5.81 3.35 5.62 3.62 5.44 3.87 5.23 4.11 5.05 4.38 4.8 4.59 4.6 4.8 4.37 5.05 4.12 5.24 3.87 5.43 3.62 5.63 3.35 5.82 3.07 5.97 2.79 6.14 2.5 6.32 2.2 6.46 1.87 6.57 1.56 6.7 1.23 6.83 0.89 6.94 0.54 7.03 0.18 7.11 0 0zm-29.74 2034.29l0 -2034.29 29.74 0 0 2034.29 0 0 -29.74 0zm-108.94 138.76l0 -29.9 0 0 5.6 -0.14 5.51 -0.42 5.43 -0.7 5.34 -0.97 5.27 -1.22 5.16 -1.47 5.05 -1.71 4.93 -1.96 4.83 -2.19 4.69 -2.42 4.57 -2.63 4.42 -2.84 4.28 -3.05 4.13 -3.25 3.95 -3.42 3.8 -3.63 3.62 -3.8 3.43 -3.95 3.24 -4.12 3.05 -4.29 2.84 -4.41 2.63 -4.56 2.41 -4.69 2.19 -4.83 1.96 -4.92 1.7 -5.03 1.47 -5.15 1.22 -5.26 0.97 -5.33 0.69 -5.42 0.42 -5.49 0.14 -5.59 29.74 0 -0.18 7.11 -0.54 7.03 -0.89 6.94 -1.23 6.83 -1.56 6.7 -1.87 6.57 -2.2 6.47 -2.5 6.3 -2.79 6.15 -3.07 5.97 -3.35 5.82 -3.62 5.63 -3.87 5.43 -4.12 5.24 -4.37 5.05 -4.6 4.8 -4.8 4.59 -5.05 4.38 -5.23 4.11 -5.44 3.87 -5.62 3.62 -5.81 3.35 -5.97 3.06 -6.13 2.79 -6.31 2.5 -6.45 2.19 -6.56 1.87 -6.69 1.56 -6.82 1.23 -6.93 0.88 -7.01 0.54 -7.1 0.18 0 0zm-3422.82 -29.9l3422.82 0 0 29.9 -3422.82 0 0 0 0 -29.9zm-138.68 -108.86l29.74 0 0 0 0.14 5.59 0.42 5.49 0.69 5.42 0.97 5.33 1.22 5.26 1.47 5.15 1.7 5.03 1.96 4.92 2.19 4.83 2.41 4.69 2.63 4.56 2.84 4.41 3.05 4.29 3.24 4.12 3.43 3.95 3.62 3.8 3.8 3.63 3.95 3.42 4.13 3.25 4.28 3.05 4.42 2.84 4.57 2.63 4.69 2.42 4.83 2.19 4.93 1.96 5.05 1.71 5.16 1.47 5.27 1.22 5.34 0.97 5.43 0.7 5.51 0.42 5.6 0.14 0 29.9 -7.1 -0.18 -7.01 -0.54 -6.93 -0.88 -6.82 -1.23 -6.69 -1.56 -6.56 -1.87 -6.45 -2.19 -6.31 -2.5 -6.13 -2.79 -5.97 -3.06 -5.81 -3.35 -5.62 -3.62 -5.44 -3.87 -5.23 -4.11 -5.05 -4.38 -4.8 -4.59 -4.6 -4.8 -4.37 -5.05 -4.12 -5.24 -3.87 -5.43 -3.62 -5.63 -3.35 -5.82 -3.07 -5.97 -2.79 -6.15 -2.5 -6.3 -2.2 -6.47 -1.87 -6.57 -1.56 -6.7 -1.23 -6.83 -0.89 -6.94 -0.54 -7.03 -0.18 -7.11 0 0zm29.74 -2034.29l0 2034.29 -29.74 0 0 -2034.29 0 0 29.74 0zm108.94 -138.76l0 29.9 0 0 -5.6 0.14 -5.51 0.42 -5.43 0.7 -5.34 0.97 -5.27 1.22 -5.16 1.47 -5.05 1.71 -4.93 1.96 -4.83 2.19 -4.69 2.42 -4.57 2.63 -4.42 2.84 -4.28 3.05 -4.13 3.25 -3.95 3.42 -3.8 3.63 -3.62 3.8 -3.43 3.95 -3.24 4.12 -3.05 4.29 -2.84 4.41 -2.63 4.56 -2.41 4.69 -2.19 4.82 -1.96 4.92 -1.7 5.04 -1.47 5.15 -1.22 5.26 -0.97 5.33 -0.69 5.42 -0.42 5.49 -0.14 5.59 -29.74 0 0.18 -7.11 0.54 -7.03 0.89 -6.94 1.23 -6.83 1.56 -6.7 1.87 -6.57 2.2 -6.46 2.5 -6.32 2.79 -6.14 3.07 -5.97 3.35 -5.82 3.62 -5.63 3.87 -5.43 4.12 -5.24 4.37 -5.05 4.6 -4.8 4.8 -4.59 5.05 -4.38 5.23 -4.11 5.44 -3.87 5.62 -3.62 5.81 -3.35 5.97 -3.06 6.13 -2.79 6.31 -2.5 6.45 -2.19 6.56 -1.87 6.69 -1.56 6.82 -1.23 6.93 -0.88 7.01 -0.54 7.1 -0.18 0 0z"/>
   </g>
   <g>
    <path class="fil0" d="M3657.04 5950.91l0 29.92 -3303.82 0 0 -29.92 3303.82 0zm198.26 -168.35l0 0 -0.26 10.16 -0.77 10.03 -1.26 9.9 -1.76 9.76 -2.23 9.58 -2.68 9.4 -3.13 9.19 -3.56 9.01 -3.99 8.78 -4.39 8.54 -4.78 8.3 -5.17 8.05 -5.55 7.77 -5.88 7.49 -6.24 7.19 -6.57 6.9 -6.9 6.57 -7.19 6.24 -7.49 5.88 -7.77 5.55 -8.05 5.17 -8.3 4.78 -8.54 4.39 -8.78 3.99 -9.01 3.56 -9.19 3.13 -9.39 2.68 -9.58 2.23 -9.76 1.76 -9.9 1.26 -10.03 0.77 -10.16 0.26 0 -29.92 8.64 -0.22 8.51 -0.65 8.4 -1.08 8.26 -1.48 8.12 -1.89 7.97 -2.28 7.81 -2.65 7.63 -3.02 7.44 -3.39 7.28 -3.73 7.04 -4.06 6.83 -4.39 6.61 -4.71 6.37 -5.02 6.13 -5.3 5.86 -5.59 5.59 -5.86 5.3 -6.13 5.02 -6.37 4.71 -6.61 4.39 -6.83 4.06 -7.04 3.73 -7.28 3.39 -7.44 3.02 -7.63 2.65 -7.81 2.28 -7.96 1.89 -8.12 1.48 -8.26 1.08 -8.4 0.65 -8.51 0.22 -8.64 0 0 29.9 0zm-29.9 -3011.85l29.9 0 0 3011.85 -29.9 0 0 -3011.85zm-168.36 -198.27l0 0 10.16 0.26 10.03 0.77 9.9 1.26 9.76 1.76 9.58 2.23 9.39 2.68 9.19 3.13 9.01 3.56 8.78 3.99 8.54 4.39 8.3 4.78 8.05 5.17 7.77 5.55 7.49 5.88 7.19 6.24 6.9 6.57 6.57 6.9 6.24 7.19 5.88 7.49 5.55 7.77 5.17 8.05 4.78 8.3 4.39 8.54 3.99 8.78 3.56 9.01 3.13 9.19 2.68 9.4 2.23 9.58 1.76 9.76 1.26 9.9 0.77 10.03 0.26 10.16 -29.9 0 -0.22 -8.64 -0.65 -8.51 -1.08 -8.4 -1.48 -8.26 -1.89 -8.12 -2.28 -7.96 -2.65 -7.81 -3.02 -7.63 -3.39 -7.44 -3.73 -7.28 -4.06 -7.04 -4.39 -6.83 -4.71 -6.61 -5.02 -6.37 -5.3 -6.13 -5.59 -5.86 -5.86 -5.59 -6.13 -5.3 -6.37 -5.02 -6.61 -4.71 -6.83 -4.39 -7.04 -4.06 -7.28 -3.73 -7.44 -3.39 -7.63 -3.02 -7.81 -2.65 -7.97 -2.28 -8.12 -1.89 -8.26 -1.48 -8.4 -1.08 -8.51 -0.65 -8.64 -0.22 0 0 0 -29.92zm-3303.82 29.92l0 -29.92 3303.82 0 0 29.92 -3303.82 0zm-198.26 168.35l0 0 0.26 -10.16 0.77 -10.03 1.26 -9.9 1.76 -9.76 2.23 -9.58 2.68 -9.4 3.13 -9.19 3.56 -9.01 3.99 -8.78 4.39 -8.54 4.78 -8.3 5.17 -8.05 5.55 -7.77 5.88 -7.49 6.24 -7.19 6.57 -6.9 6.9 -6.57 7.19 -6.24 7.49 -5.88 7.77 -5.55 8.05 -5.17 8.3 -4.78 8.54 -4.39 8.78 -3.99 9.01 -3.56 9.19 -3.13 9.39 -2.68 9.58 -2.23 9.76 -1.76 9.9 -1.26 10.03 -0.77 10.16 -0.26 0 29.92 -8.64 0.22 -8.51 0.65 -8.4 1.08 -8.26 1.48 -8.12 1.89 -7.97 2.28 -7.81 2.65 -7.63 3.02 -7.44 3.39 -7.28 3.73 -7.04 4.06 -6.83 4.39 -6.61 4.71 -6.37 5.02 -6.13 5.3 -5.86 5.59 -5.59 5.86 -5.3 6.13 -5.02 6.37 -4.71 6.61 -4.39 6.83 -4.06 7.04 -3.73 7.28 -3.39 7.44 -3.02 7.63 -2.65 7.81 -2.28 7.96 -1.89 8.12 -1.48 8.26 -1.08 8.4 -0.65 8.51 -0.22 8.64 0 0 -29.9 0zm29.9 3011.85l-29.9 0 0 -3011.85 29.9 0 0 3011.85zm168.36 198.27l0 0 -10.16 -0.26 -10.03 -0.77 -9.9 -1.26 -9.76 -1.76 -9.58 -2.23 -9.39 -2.68 -9.19 -3.13 -9.01 -3.56 -8.78 -3.99 -8.54 -4.39 -8.3 -4.78 -8.05 -5.17 -7.77 -5.55 -7.49 -5.88 -7.19 -6.24 -6.9 -6.57 -6.57 -6.9 -6.24 -7.19 -5.88 -7.49 -5.55 -7.77 -5.17 -8.05 -4.78 -8.3 -4.39 -8.54 -3.99 -8.78 -3.56 -9.01 -3.13 -9.19 -2.68 -9.4 -2.23 -9.58 -1.76 -9.76 -1.26 -9.9 -0.77 -10.03 -0.26 -10.16 29.9 0 0.22 8.64 0.65 8.51 1.08 8.4 1.48 8.26 1.89 8.12 2.28 7.96 2.65 7.81 3.02 7.63 3.39 7.44 3.73 7.28 4.06 7.04 4.39 6.83 4.71 6.61 5.02 6.37 5.3 6.13 5.59 5.86 5.86 5.59 6.13 5.3 6.37 5.02 6.61 4.71 6.83 4.39 7.04 4.06 7.28 3.73 7.44 3.39 7.63 3.02 7.81 2.65 7.97 2.28 8.12 1.89 8.26 1.48 8.4 1.08 8.51 0.65 8.64 0.22 0 0 0 29.92z"/>
   </g>
   <rect class="fil1" x="13.12" y="6.38" width="73.93" height="6100.16"/>
  </g>
 </g>
</svg>
