<?xml version="1.0" encoding="UTF-8"?>
<!DOCTYPE svg PUBLIC "-//W3C//DTD SVG 1.1//EN" "http://www.w3.org/Graphics/SVG/1.1/DTD/svg11.dtd">
<!-- Creator: CorelDRAW 2017 -->
<svg xmlns="http://www.w3.org/2000/svg" xml:space="preserve" width="139.7mm" height="216.179mm" version="1.1" style="shape-rendering:geometricPrecision; text-rendering:geometricPrecision; image-rendering:optimizeQuality; fill-rule:evenodd; clip-rule:evenodd"
viewBox="0 0 13970 21617.94"
 xmlns:xlink="http://www.w3.org/1999/xlink">
 <defs>
  <style type="text/css">
   <![CDATA[
    .str0 {stroke:#9E5F58;stroke-width:7.62;stroke-miterlimit:22.9256}
    .fil2 {fill:#FEFEFE}
    .fil1 {fill:#FEFEFE}
    .fil0 {fill:#9E5F58}
   ]]>
  </style>
   <clipPath id="id0">
    <path d="M22.41 2986.63l13947.59 -64.88 -38.83 -2905.15 -13931.17 0 22.41 2970.03z"/>
   </clipPath>
   <clipPath id="id1">
    <path d="M22.41 2736.17l13947.59 17.14 -38.83 18873.43 -13931.17 0 22.41 -18890.57z"/>
   </clipPath>
   <clipPath id="id2">
    <path d="M6.58 0.18l14000.21 -45 0 21617.94 -14000.21 45 0 -21617.94z"/>
   </clipPath>
    <clipPath id="id3">
     <path d="M349.98 17495.07l8813.98 0 0 3559.84 -8813.98 0 0 -3559.84z"/>
    </clipPath>
 </defs>
 <g id="Capa_x0020_1">
  <metadata id="CorelCorpID_0Corel-Layer"/>
  <g style="clip-path:url(#id0)">
   <image transform="matrix(0.615108 -0 -0 -2.4292 38.8368 2921.75)" x="0" y="0" width="22648.32" height="33866.66" xlink:href="Dragvesti-La-Revista-Portada- Raven-rupaul-drag-race_Images\Dragvesti-La-Revista-Portada- Raven-rupaul-drag-race_ImgID1.png"/>
  </g>
  <g style="clip-path:url(#id1)">
   <image x="38.84" y="2753.31" width="13931.16" height="21736.48" xlink:href="Dragvesti-La-Revista-Portada- Raven-rupaul-drag-race_Images\Dragvesti-La-Revista-Portada- Raven-rupaul-drag-race_ImgID2.png"/>
  </g>
  <g style="clip-path:url(#id2)">
   <image x="6.58" y="0.18" width="18045.9" height="21617.94" xlink:href="Dragvesti-La-Revista-Portada- Raven-rupaul-drag-race_Images\Dragvesti-La-Revista-Portada- Raven-rupaul-drag-race_ImgID3.png"/>
  </g>
  <path class="fil0" d="M2719.64 1695.06c4.56,399.12 -124.41,737.44 -386.94,1015.56 -262.51,277.52 -584.39,417.78 -965.61,420.19l-849.18 7.23 0 -2867.9 842.34 0c376.65,0 696.24,138.46 958.76,414.77 262.52,276.92 396.06,613.43 400.63,1010.15zm-462.26 3.61c-2.29,-264.28 -89.6,-487.01 -261.95,-668.81 -172.36,-181.2 -384.08,-272.11 -635.18,-272.11l-380.09 0 0 1885.45 383.51 0c251.11,-2.41 463.41,-94.52 636.89,-275.72 173.49,-181.8 259.1,-404.54 256.82,-668.81zm1415.91 40.33c-125.55,0 -232.84,46.36 -321.87,139.06 -89.02,92.71 -133.54,204.68 -133.54,337.12l0 912.02 -462.26 0 0 -912.02c0,-269.09 89.03,-496.64 267.08,-683.26 178.06,-186.02 394.92,-279.33 650.59,-279.33l0 486.41zm2097.32 1388.2l-491.37 0 -97.02 -281.73c-182.62,226.35 -415.46,339.52 -699.1,339.52 -255.66,0 -471.96,-93.91 -648.88,-281.73 -176.91,-187.82 -265.36,-415.38 -265.36,-682.66 0,-204.68 54.78,-389.49 164.35,-554.44 109.57,-164.94 255.67,-282.33 438.29,-352.16 107.3,-40.94 212.3,-61.41 315.03,-61.41 194.03,0 369.24,58.4 525.61,175.18 156.36,116.79 267.65,271.5 333.85,464.14l424.6 1235.29zm-832.07 -908.41c0,-169.16 -65.06,-300.99 -195.18,-394.91 -75.33,-55.98 -162.08,-83.67 -260.24,-83.67 -159.79,0 -283.06,67.42 -369.8,202.87 -54.79,84.88 -82.19,176.38 -82.19,275.71 0,166.75 65.07,297.39 195.18,391.3 79.9,58.39 165.5,87.29 256.81,87.29 125.56,0 232.84,-46.36 321.87,-139.67 89.04,-92.7 133.55,-205.88 133.55,-338.92zm2569.85 1388.8c0,346.75 -134.68,614.03 -404.06,801.86 -155.22,108.35 -325.29,162.53 -510.19,162.53 -324.16,0 -577.54,-143.27 -760.16,-429.82 -105.01,-166.15 -157.51,-344.34 -157.51,-534.57 0,-125.21 22.82,-245.61 68.48,-361.2l428.02 180.6c-22.83,57.79 -34.25,117.99 -34.25,180.6 0,132.44 44.52,245.01 133.55,337.72 89.03,92.71 196.31,139.06 321.87,139.06 123.27,0 229.41,-46.96 318.44,-141.47 89.04,-94.51 133.55,-206.48 133.55,-337.12 0,-212.5 -94.74,-361.19 -283.64,-446.07 -57.07,14.45 -113.57,21.67 -170.64,21.67 -257.37,0 -474.24,-93.31 -650.59,-279.93 -176.34,-186.62 -264.79,-415.97 -264.79,-688.08 0,-269.69 88.45,-497.84 265.94,-684.46 177.49,-186.62 393.77,-279.93 648.3,-279.93l267.09 -668.21 365.81 163.74 -243.11 598.38c160.93,81.87 289.34,201.07 384.65,357.59 95.3,156.51 143.24,327.48 143.24,512.89 0,274.51 -94.74,505.68 -284.21,693.5 189.47,190.23 284.21,423.8 284.21,700.72zm-462.26 -1394.22c0,-130.03 -44.51,-242 -133.55,-335.91 -89.03,-93.91 -195.17,-140.86 -318.44,-140.86 -125.56,0 -232.84,46.35 -321.87,139.06 -89.03,92.7 -133.55,205.28 -133.55,337.71 0,132.44 44.52,245.62 133.55,339.53 89.03,93.91 196.31,140.86 321.87,140.86 125.55,0 232.27,-46.95 320.16,-140.86 87.89,-93.91 131.83,-207.09 131.83,-339.53zm1936.39 -960.78l-845.78 1874.61 -856.04 -1874.61 547.87 0 311.59 769.35 311.6 -769.35 530.76 0zm1607.65 961.39c0,47.55 -3.42,95.71 -10.26,143.87l-1338.85 0c29.68,101.14 84.46,182.41 164.36,243.81 79.89,61.4 170.06,92.1 270.51,92.1 139.25,0 254.53,-56.58 345.84,-169.76l280.78 393.71c-175.77,175.78 -384.65,263.67 -626.62,263.67 -257.96,0 -475.39,-93.31 -652.31,-279.33 -176.92,-186.61 -265.36,-415.37 -265.36,-686.87 0,-269.09 89.02,-496.64 267.08,-683.26 178.05,-186.02 394.92,-279.33 650.59,-279.33 255.66,0 471.96,92.71 648.88,278.73 176.91,186.01 265.36,413.57 265.36,682.66zm-517.04 -220.94c-84.47,-168.55 -216.86,-252.83 -397.2,-252.83 -182.63,0 -316.16,84.28 -400.63,252.83l797.83 0zm1809.69 580.33c0,115.58 -36.53,220.33 -109.57,314.84 -146.1,188.42 -353.84,278.72 -623.2,271.5 -107.29,-2.41 -224.28,-27.69 -350.97,-75.85 -126.7,-48.16 -230,-108.36 -309.9,-180.6l256.82 -350.36c123.27,122.8 254.53,184.21 393.78,184.21l10.27 0c57.07,0 108.43,-10.84 154.09,-32.51 59.35,-28.9 89.02,-69.83 89.02,-122.81l0 -14.44c-6.84,-55.39 -42.23,-95.12 -106.14,-119.2 -25.12,-4.81 -78.76,-15.65 -160.94,-32.51 -102.72,-21.67 -189.47,-48.16 -260.24,-79.46 -207.73,-93.91 -311.6,-258.86 -311.6,-494.84 0,-226.35 106.15,-396.11 318.45,-509.28 93.6,-50.57 195.17,-77.06 304.76,-79.47 114.14,-2.41 232.83,18.06 356.1,61.41 141.54,50.56 241.98,116.78 301.33,198.65l-308.17 292.57c-79.9,-86.68 -166.64,-130.03 -260.24,-130.03 -146.09,0 -219.15,50.57 -219.15,152.31l0 7.22c0,48.16 59.36,89.1 178.06,122.81 9.14,2.4 84.46,18.06 225.99,46.95 287.64,58.4 431.45,243.81 431.45,558.05l0 10.84zm922.83 553.83c-255.67,0 -472.54,-93.31 -650.59,-279.32 -178.06,-186.62 -267.08,-414.78 -267.08,-683.87l0 -1893.87 462.25 0 0 982.45 455.42 0 0 415.38 -455.42 0 0 494.84c0,132.44 44.52,245.01 133.55,337.71 89.03,92.71 196.31,139.07 321.87,139.07l0 487.61zm604.37 -2289.98c0,81.87 -26.25,151.1 -78.75,207.69 -52.51,56.58 -117.56,84.88 -195.18,84.88 -77.61,0 -143.24,-28.3 -196.89,-84.88 -53.65,-56.59 -80.47,-125.82 -80.47,-207.69 0,-81.87 26.82,-150.5 80.47,-205.88 53.65,-55.39 119.28,-83.08 196.89,-83.08 75.33,0 139.82,28.29 193.46,84.88 53.65,56.59 80.47,124.61 80.47,204.08zm-41.09 2289.98l-462.25 0 0 -1874.61 462.25 0 0 1874.61z"/>
  <path class="fil1" d="M674.57 3649.21l0 -268.49 86.94 0c32.94,0 54.37,1.31 64.37,4 15.38,4.06 28.25,12.81 38.63,26.31 10.37,13.5 15.56,30.94 15.56,52.31 0,16.5 -3,30.31 -8.94,41.56 -6,11.25 -13.56,20.06 -22.75,26.5 -9.19,6.38 -18.56,10.63 -28.06,12.69 -12.94,2.56 -31.62,3.87 -56.12,3.87l-35.25 0 0 101.25 -54.38 0zm54.38 -223.12l0 76.5 29.56 0c21.31,0 35.5,-1.44 42.69,-4.25 7.18,-2.81 12.81,-7.19 16.87,-13.25 4.06,-6 6.13,-12.94 6.13,-20.94 0,-9.81 -2.88,-17.87 -8.57,-24.25 -5.75,-6.37 -12.93,-10.37 -21.75,-12 -6.43,-1.18 -19.37,-1.81 -38.87,-1.81l-26.06 0zm244.49 223.12l-51.37 0 0 -194.62 47.62 0 0 27.62c8.19,-13.06 15.57,-21.62 22.13,-25.68 6.56,-4.06 14,-6.06 22.31,-6.06 11.75,0 23.06,3.25 33.94,9.68l-15.94 44.88c-8.69,-5.63 -16.75,-8.44 -24.19,-8.44 -7.25,0 -13.37,2 -18.37,5.94 -5,4 -8.94,11.12 -11.81,21.5 -2.88,10.37 -4.32,32.12 -4.32,65.18l0 60zm96.81 -220.87l0 -47.62 51.37 0 0 47.62 -51.37 0zm0 220.87l0 -194.62 51.37 0 0 194.62 -51.37 0zm100.43 -194.62l47.25 0 0 26.56c16.94,-20.43 37.12,-30.68 60.56,-30.68 12.44,0 23.25,2.56 32.37,7.68 9.19,5.13 16.69,12.88 22.5,23.25 8.56,-10.37 17.81,-18.12 27.69,-23.25 9.87,-5.12 20.44,-7.68 31.69,-7.68 14.25,0 26.31,2.87 36.24,8.68 9.88,5.81 17.25,14.31 22.13,25.56 3.56,8.25 5.31,21.69 5.31,40.25l0 124.25 -51.37 0 0 -111.06c0,-19.31 -1.75,-31.75 -5.31,-37.31 -4.75,-7.31 -12.13,-11 -22,-11 -7.19,0 -14,2.19 -20.38,6.56 -6.31,4.44 -10.94,10.88 -13.75,19.31 -2.81,8.5 -4.19,21.88 -4.19,40.19l0 93.31 -51.37 0 0 -106.5c0,-18.87 -0.94,-31.12 -2.75,-36.56 -1.81,-5.5 -4.62,-9.62 -8.5,-12.31 -3.81,-2.69 -9.06,-4 -15.62,-4 -7.94,0 -15.07,2.12 -21.38,6.37 -6.37,4.32 -10.87,10.44 -13.62,18.5 -2.75,8.07 -4.13,21.44 -4.13,40.07l0 94.43 -51.37 0 0 -194.62zm449.68 133.12l51.37 8.63c-6.56,18.81 -17,33.12 -31.19,43 -14.25,9.81 -32.06,14.74 -53.37,14.74 -33.81,0 -58.87,-11.06 -75.06,-33.18 -12.81,-17.75 -19.25,-40.13 -19.25,-67.19 0,-32.25 8.44,-57.56 25.25,-75.81 16.81,-18.31 38.12,-27.43 63.87,-27.43 28.88,0 51.69,9.56 68.44,28.68 16.69,19.13 24.68,48.44 23.93,87.94l-128.62 0c0.38,15.25 4.5,27.12 12.44,35.62 7.88,8.5 17.75,12.75 29.5,12.75 8.06,0 14.81,-2.19 20.25,-6.56 5.5,-4.38 9.62,-11.44 12.44,-21.19zm3 -52.12c-0.38,-14.94 -4.19,-26.31 -11.5,-34.06 -7.32,-7.82 -16.19,-11.69 -26.69,-11.69 -11.19,0 -20.44,4.12 -27.75,12.31 -7.31,8.19 -10.87,19.38 -10.75,33.44l76.69 0zm142.18 113.62l-51.37 0 0 -194.62 47.62 0 0 27.62c8.19,-13.06 15.57,-21.62 22.13,-25.68 6.56,-4.06 14,-6.06 22.31,-6.06 11.75,0 23.06,3.25 33.94,9.68l-15.94 44.88c-8.69,-5.63 -16.75,-8.44 -24.19,-8.44 -7.25,0 -13.37,2 -18.37,5.94 -5,4 -8.94,11.12 -11.81,21.5 -2.88,10.37 -4.32,32.12 -4.32,65.18l0 60zm135.06 -134.62l-46.5 -8.25c5.25,-19 14.31,-33.06 27.12,-42.19 12.82,-9.12 31.88,-13.68 57.13,-13.68 22.93,0 40.06,2.68 51.31,8.12 11.19,5.44 19.12,12.31 23.69,20.69 4.56,8.37 6.87,23.68 6.87,46.06l-0.75 60c0,17.06 0.81,29.68 2.44,37.81 1.62,8.12 4.68,16.81 9.18,26.06l-50.99 0c-1.32,-3.37 -3,-8.37 -4.94,-15 -0.81,-3.06 -1.44,-5.06 -1.81,-6 -8.75,8.63 -18.13,15.06 -28.13,19.38 -10,4.31 -20.62,6.49 -31.93,6.49 -19.94,0 -35.69,-5.43 -47.19,-16.31 -11.5,-10.81 -17.25,-24.56 -17.25,-41.18 0,-10.94 2.62,-20.75 7.87,-29.38 5.25,-8.56 12.57,-15.18 22.07,-19.75 9.43,-4.56 23.06,-8.56 40.87,-12 24,-4.5 40.69,-8.75 49.94,-12.62l0 -5.19c0,-10 -2.44,-17.12 -7.32,-21.44 -4.93,-4.25 -14.18,-6.37 -27.75,-6.37 -9.18,0 -16.31,1.81 -21.43,5.5 -5.19,3.62 -9.31,10.06 -12.5,19.25zm69 41.62c-6.57,2.19 -17,4.81 -31.32,7.88 -14.24,3.06 -23.62,6.06 -27.99,8.93 -6.69,4.82 -10.07,10.82 -10.07,18.13 0,7.25 2.69,13.44 8.07,18.69 5.37,5.25 12.18,7.87 20.5,7.87 9.24,0 18.12,-3.06 26.56,-9.12 6.18,-4.69 10.31,-10.32 12.25,-17.07 1.31,-4.37 2,-12.75 2,-25.06l0 -10.25zm294.36 -101.62l0 40.87 -35.25 0 0 78.81c0,16 0.32,25.32 1,27.94 0.69,2.63 2.19,4.81 4.63,6.56 2.37,1.69 5.25,2.57 8.68,2.57 4.82,0 11.69,-1.63 20.75,-4.94l4.32 40c-11.94,5.12 -25.44,7.68 -40.56,7.68 -9.25,0 -17.57,-1.56 -25,-4.68 -7.44,-3.13 -12.88,-7.19 -16.32,-12.13 -3.5,-5 -5.87,-11.68 -7.25,-20.18 -1.06,-6 -1.62,-18.13 -1.62,-36.44l0 -85.19 -23.63 0 0 -40.87 23.63 0 0 -38.62 51.37 -30.38 0 69 35.25 0zm148.5 133.12l51.37 8.63c-6.56,18.81 -17,33.12 -31.19,43 -14.25,9.81 -32.06,14.74 -53.37,14.74 -33.81,0 -58.87,-11.06 -75.06,-33.18 -12.81,-17.75 -19.25,-40.13 -19.25,-67.19 0,-32.25 8.44,-57.56 25.25,-75.81 16.81,-18.31 38.12,-27.43 63.87,-27.43 28.88,0 51.69,9.56 68.44,28.68 16.69,19.13 24.68,48.44 23.93,87.94l-128.62 0c0.38,15.25 4.5,27.12 12.44,35.62 7.88,8.5 17.75,12.75 29.5,12.75 8.06,0 14.81,-2.19 20.25,-6.56 5.5,-4.38 9.62,-11.44 12.44,-21.19zm3 -52.12c-0.38,-14.94 -4.19,-26.31 -11.5,-34.06 -7.32,-7.82 -16.19,-11.69 -26.69,-11.69 -11.19,0 -20.44,4.12 -27.75,12.31 -7.31,8.19 -10.87,19.38 -10.75,33.44l76.69 0zm89.31 -81l47.25 0 0 26.56c16.94,-20.43 37.12,-30.68 60.56,-30.68 12.44,0 23.25,2.56 32.37,7.68 9.19,5.13 16.69,12.88 22.5,23.25 8.56,-10.37 17.81,-18.12 27.69,-23.25 9.87,-5.12 20.44,-7.68 31.69,-7.68 14.25,0 26.31,2.87 36.24,8.68 9.88,5.81 17.25,14.31 22.13,25.56 3.56,8.25 5.31,21.69 5.31,40.25l0 124.25 -51.37 0 0 -111.06c0,-19.31 -1.75,-31.75 -5.31,-37.31 -4.75,-7.31 -12.13,-11 -22,-11 -7.19,0 -14,2.19 -20.38,6.56 -6.31,4.44 -10.94,10.88 -13.75,19.31 -2.81,8.5 -4.19,21.88 -4.19,40.19l0 93.31 -51.37 0 0 -106.5c0,-18.87 -0.94,-31.12 -2.75,-36.56 -1.81,-5.5 -4.62,-9.62 -8.5,-12.31 -3.81,-2.69 -9.06,-4 -15.62,-4 -7.94,0 -15.07,2.12 -21.38,6.37 -6.37,4.32 -10.87,10.44 -13.62,18.5 -2.75,8.07 -4.13,21.44 -4.13,40.07l0 94.43 -51.37 0 0 -194.62zm335.68 0l48 0 0 28.56c6.25,-9.75 14.62,-17.62 25.25,-23.68 10.62,-6 22.43,-9 35.37,-9 22.56,0 41.75,8.87 57.5,26.62 15.75,17.69 23.62,42.44 23.62,74.06 0,32.56 -7.93,57.81 -23.81,75.87 -15.87,18.07 -35.12,27.06 -57.75,27.06 -10.75,0 -20.5,-2.12 -29.25,-6.43 -8.68,-4.25 -17.93,-11.56 -27.56,-21.94l0 97.37 -51.37 0 0 -268.49zm50.62 94.31c0,21.94 4.32,38.12 13,48.62 8.63,10.44 19.19,15.69 31.56,15.69 11.94,0 21.88,-4.81 29.82,-14.44 7.93,-9.62 11.87,-25.37 11.87,-47.31 0,-20.5 -4.06,-35.68 -12.25,-45.62 -8.12,-9.94 -18.25,-14.88 -30.31,-14.88 -12.56,0 -23,4.88 -31.25,14.63 -8.31,9.75 -12.44,24.19 -12.44,43.31zm167.94 0.63c0,-17.13 4.19,-33.69 12.62,-49.69 8.44,-16.06 20.38,-28.25 35.82,-36.69 15.43,-8.43 32.62,-12.68 51.68,-12.68 29.44,0 53.5,9.56 72.31,28.68 18.81,19.19 28.19,43.31 28.19,72.56 0,29.5 -9.5,53.94 -28.44,73.31 -19,19.38 -42.87,29.06 -71.68,29.06 -17.82,0 -34.81,-4.06 -51,-12.12 -16.13,-8.06 -28.44,-19.87 -36.88,-35.5 -8.43,-15.56 -12.62,-34.56 -12.62,-56.93zm52.87 2.75c0,19.31 4.57,34.12 13.69,44.37 9.19,10.31 20.44,15.44 33.87,15.44 13.38,0 24.63,-5.13 33.69,-15.44 9.06,-10.25 13.63,-25.19 13.63,-44.75 0,-19.06 -4.57,-33.75 -13.63,-44 -9.06,-10.31 -20.31,-15.44 -33.69,-15.44 -13.43,0 -24.68,5.13 -33.87,15.44 -9.12,10.25 -13.69,25.06 -13.69,44.38zm237.31 96.93l-51.37 0 0 -194.62 47.62 0 0 27.62c8.19,-13.06 15.57,-21.62 22.13,-25.68 6.56,-4.06 14,-6.06 22.31,-6.06 11.75,0 23.06,3.25 33.94,9.68l-15.94 44.88c-8.69,-5.63 -16.75,-8.44 -24.19,-8.44 -7.25,0 -13.37,2 -18.37,5.94 -5,4 -8.94,11.12 -11.81,21.5 -2.88,10.37 -4.32,32.12 -4.32,65.18l0 60zm135.06 -134.62l-46.5 -8.25c5.25,-19 14.31,-33.06 27.12,-42.19 12.82,-9.12 31.88,-13.68 57.13,-13.68 22.93,0 40.06,2.68 51.31,8.12 11.19,5.44 19.12,12.31 23.69,20.69 4.56,8.37 6.87,23.68 6.87,46.06l-0.75 60c0,17.06 0.81,29.68 2.44,37.81 1.62,8.12 4.68,16.81 9.18,26.06l-50.99 0c-1.32,-3.37 -3,-8.37 -4.94,-15 -0.81,-3.06 -1.44,-5.06 -1.81,-6 -8.75,8.63 -18.13,15.06 -28.13,19.38 -10,4.31 -20.62,6.49 -31.93,6.49 -19.94,0 -35.69,-5.43 -47.19,-16.31 -11.5,-10.81 -17.25,-24.56 -17.25,-41.18 0,-10.94 2.62,-20.75 7.87,-29.38 5.25,-8.56 12.57,-15.18 22.07,-19.75 9.43,-4.56 23.06,-8.56 40.87,-12 24,-4.5 40.69,-8.75 49.94,-12.62l0 -5.19c0,-10 -2.44,-17.12 -7.32,-21.44 -4.93,-4.25 -14.18,-6.37 -27.75,-6.37 -9.18,0 -16.31,1.81 -21.43,5.5 -5.19,3.62 -9.31,10.06 -12.5,19.25zm69 41.62c-6.57,2.19 -17,4.81 -31.32,7.88 -14.24,3.06 -23.62,6.06 -27.99,8.93 -6.69,4.82 -10.07,10.82 -10.07,18.13 0,7.25 2.69,13.44 8.07,18.69 5.37,5.25 12.18,7.87 20.5,7.87 9.24,0 18.12,-3.06 26.56,-9.12 6.18,-4.69 10.31,-10.32 12.25,-17.07 1.31,-4.37 2,-12.75 2,-25.06l0 -10.25zm279.8 93l-47.62 0 0 -28.56c-7.94,11.12 -17.37,19.44 -28.19,25.06 -10.81,5.56 -21.75,8.37 -32.75,8.37 -22.43,0 -41.62,-8.99 -57.62,-27.06 -15.94,-18.06 -23.94,-43.18 -23.94,-75.49 0,-33 7.75,-58.13 23.32,-75.32 15.56,-17.18 35.18,-25.74 58.93,-25.74 21.75,0 40.63,9.06 56.5,27.12l0 -96.87 51.37 0 0 268.49zm-137.24 -101.06c0,20.81 2.87,35.87 8.56,45.19 8.31,13.5 19.87,20.25 34.75,20.25 11.81,0 21.87,-5.07 30.12,-15.19 8.32,-10.13 12.44,-25.19 12.44,-45.31 0,-22.44 -4,-38.56 -12.06,-48.44 -8.06,-9.87 -18.31,-14.81 -30.88,-14.81 -12.18,0 -22.37,4.87 -30.62,14.62 -8.19,9.75 -12.31,24.32 -12.31,43.69zm226.06 -33.56l-46.5 -8.25c5.25,-19 14.31,-33.06 27.12,-42.19 12.82,-9.12 31.88,-13.68 57.13,-13.68 22.93,0 40.06,2.68 51.31,8.12 11.19,5.44 19.12,12.31 23.69,20.69 4.56,8.37 6.87,23.68 6.87,46.06l-0.75 60c0,17.06 0.81,29.68 2.44,37.81 1.62,8.12 4.68,16.81 9.18,26.06l-50.99 0c-1.32,-3.37 -3,-8.37 -4.94,-15 -0.81,-3.06 -1.44,-5.06 -1.81,-6 -8.75,8.63 -18.13,15.06 -28.13,19.38 -10,4.31 -20.62,6.49 -31.93,6.49 -19.94,0 -35.69,-5.43 -47.19,-16.31 -11.5,-10.81 -17.25,-24.56 -17.25,-41.18 0,-10.94 2.62,-20.75 7.87,-29.38 5.25,-8.56 12.57,-15.18 22.07,-19.75 9.43,-4.56 23.06,-8.56 40.87,-12 24,-4.5 40.69,-8.75 49.94,-12.62l0 -5.19c0,-10 -2.44,-17.12 -7.32,-21.44 -4.93,-4.25 -14.18,-6.37 -27.75,-6.37 -9.18,0 -16.31,1.81 -21.43,5.5 -5.19,3.62 -9.31,10.06 -12.5,19.25zm69 41.62c-6.57,2.19 -17,4.81 -31.32,7.88 -14.24,3.06 -23.62,6.06 -27.99,8.93 -6.69,4.82 -10.07,10.82 -10.07,18.13 0,7.25 2.69,13.44 8.07,18.69 5.37,5.25 12.18,7.87 20.5,7.87 9.24,0 18.12,-3.06 26.56,-9.12 6.18,-4.69 10.31,-10.32 12.25,-17.07 1.31,-4.37 2,-12.75 2,-25.06l0 -10.25zm-3319.29 474.77l0 -239.1 176.99 0 0 40.41 -128.57 0 0 53.09 119.55 0 0 40.41 -119.55 0 0 64.78 133.24 0 0 40.41 -181.66 0zm221.07 -173.31l42.74 0 0 25.43c5.57,-8.68 13.03,-15.69 22.49,-21.09 9.46,-5.35 19.98,-8.02 31.5,-8.02 20.09,0 37.18,7.91 51.2,23.71 14.03,15.75 21.04,37.79 21.04,65.95 0,29 -7.07,51.49 -21.2,67.57 -14.14,16.09 -31.28,24.1 -51.43,24.1 -9.57,0 -18.26,-1.89 -26.05,-5.73 -7.73,-3.79 -15.97,-10.3 -24.54,-19.54l0 86.72 -45.75 0 0 -239.1zm45.08 83.98c0,19.54 3.84,33.95 11.58,43.3 7.68,9.3 17.08,13.97 28.1,13.97 10.63,0 19.48,-4.28 26.55,-12.85 7.07,-8.58 10.58,-22.6 10.58,-42.14 0,-18.25 -3.62,-31.78 -10.91,-40.63 -7.24,-8.85 -16.25,-13.24 -27,-13.24 -11.18,0 -20.48,4.34 -27.82,13.02 -7.41,8.68 -11.08,21.54 -11.08,38.57zm160.23 -107.36l0 -42.41 45.75 0 0 42.41 -45.75 0zm0 196.69l0 -173.31 45.75 0 0 173.31 -45.75 0zm76.42 -48.76l46.08 -7.01c1.95,8.85 5.9,15.59 11.91,20.15 5.96,4.62 14.36,6.9 25.11,6.9 11.85,0 20.76,-2.17 26.77,-6.51 4,-3.06 6.01,-7.18 6.01,-12.3 0,-3.45 -1.12,-6.35 -3.29,-8.63 -2.28,-2.17 -7.4,-4.23 -15.3,-6.06 -37.01,-8.19 -60.44,-15.64 -70.35,-22.38 -13.75,-9.4 -20.59,-22.43 -20.59,-39.07 0,-15.08 5.95,-27.72 17.81,-37.96 11.85,-10.24 30.22,-15.36 55.1,-15.36 23.71,0 41.35,3.9 52.87,11.63 11.52,7.8 19.48,19.26 23.82,34.46l-43.08 8.01c-1.83,-6.79 -5.4,-12.02 -10.57,-15.64 -5.18,-3.62 -12.58,-5.4 -22.21,-5.4 -12.13,0 -20.82,1.67 -26.1,5.07 -3.51,2.39 -5.23,5.51 -5.23,9.29 0,3.29 1.5,6.07 4.56,8.35 4.17,3.06 18.48,7.35 42.97,12.91 24.49,5.57 41.57,12.36 51.26,20.43 9.63,8.12 14.41,19.53 14.41,34.12 0,15.86 -6.62,29.55 -19.92,40.96 -13.25,11.41 -32.9,17.14 -58.94,17.14 -23.6,0 -42.3,-4.79 -56.11,-14.3 -13.74,-9.52 -22.76,-22.43 -26.99,-38.8zm191.41 -40.01c0,-15.25 3.73,-30 11.24,-44.25 7.51,-14.3 18.14,-25.16 31.89,-32.67 13.75,-7.51 29.05,-11.3 46.03,-11.3 26.21,0 47.64,8.52 64.39,25.55 16.76,17.08 25.11,38.57 25.11,64.62 0,26.27 -8.46,48.03 -25.33,65.28 -16.92,17.25 -38.18,25.88 -63.84,25.88 -15.86,0 -31,-3.62 -45.41,-10.8 -14.36,-7.18 -25.33,-17.69 -32.84,-31.61 -7.51,-13.86 -11.24,-30.78 -11.24,-50.7zm47.08 2.45c0,17.19 4.07,30.39 12.19,39.51 8.18,9.19 18.2,13.75 30.17,13.75 11.91,0 21.93,-4.56 30,-13.75 8.07,-9.12 12.13,-22.43 12.13,-39.85 0,-16.97 -4.06,-30.05 -12.13,-39.18 -8.07,-9.18 -18.09,-13.75 -30,-13.75 -11.97,0 -21.99,4.57 -30.17,13.75 -8.12,9.13 -12.19,22.32 -12.19,39.52zm326.54 86.32l-42.41 0 0 -25.44c-7.07,9.91 -15.47,17.31 -25.1,22.32 -9.63,4.96 -19.37,7.46 -29.17,7.46 -19.98,0 -37.06,-8.01 -51.31,-24.1 -14.19,-16.08 -21.32,-38.46 -21.32,-67.23 0,-29.39 6.9,-51.76 20.76,-67.07 13.86,-15.3 31.34,-22.93 52.49,-22.93 19.36,0 36.17,8.07 50.31,24.16l0 -86.27 45.75 0 0 239.1zm-122.22 -90c0,18.54 2.56,31.95 7.62,40.24 7.4,12.02 17.7,18.04 30.95,18.04 10.52,0 19.48,-4.51 26.82,-13.53 7.41,-9.02 11.08,-22.43 11.08,-40.35 0,-19.98 -3.56,-34.34 -10.74,-43.13 -7.18,-8.8 -16.31,-13.19 -27.5,-13.19 -10.85,0 -19.92,4.34 -27.27,13.02 -7.29,8.68 -10.96,21.65 -10.96,38.9zm167.24 -106.69l0 -42.41 45.75 0 0 42.41 -45.75 0zm0 196.69l0 -173.31 45.75 0 0 173.31 -45.75 0zm82.1 -88.77c0,-15.25 3.73,-30 11.24,-44.25 7.51,-14.3 18.14,-25.16 31.89,-32.67 13.75,-7.51 29.05,-11.3 46.03,-11.3 26.21,0 47.64,8.52 64.39,25.55 16.76,17.08 25.11,38.57 25.11,64.62 0,26.27 -8.46,48.03 -25.33,65.28 -16.92,17.25 -38.18,25.88 -63.84,25.88 -15.86,0 -31,-3.62 -45.41,-10.8 -14.36,-7.18 -25.33,-17.69 -32.84,-31.61 -7.51,-13.86 -11.24,-30.78 -11.24,-50.7zm47.08 2.45c0,17.19 4.07,30.39 12.19,39.51 8.18,9.19 18.2,13.75 30.17,13.75 11.91,0 21.93,-4.56 30,-13.75 8.07,-9.12 12.13,-22.43 12.13,-39.85 0,-16.97 -4.06,-30.05 -12.13,-39.18 -8.07,-9.18 -18.09,-13.75 -30,-13.75 -11.97,0 -21.99,4.57 -30.17,13.75 -8.12,9.13 -12.19,22.32 -12.19,39.52zm327.99 -154.12c23.15,0 41.24,8.3 54.32,24.88 15.53,19.59 23.32,52.15 23.32,97.57 0,45.36 -7.85,77.97 -23.49,97.79 -12.97,16.36 -31,24.54 -54.15,24.54 -23.27,0 -42.02,-8.96 -56.27,-26.88 -14.25,-17.92 -21.37,-49.92 -21.37,-95.9 0,-45.13 7.84,-77.64 23.48,-97.45 12.97,-16.37 31,-24.55 54.16,-24.55zm0 38.07c-5.46,0 -10.36,1.78 -14.59,5.35 -4.28,3.5 -7.62,9.85 -9.96,19.03 -3.11,11.85 -4.67,31.89 -4.67,60 0,28.16 1.39,47.47 4.17,57.99 2.78,10.52 6.29,17.53 10.52,21.04 4.23,3.51 9.07,5.23 14.53,5.23 5.45,0 10.35,-1.78 14.63,-5.34 4.23,-3.51 7.57,-9.85 9.91,-19.04 3.12,-11.74 4.68,-31.72 4.68,-59.88 0,-28.11 -1.4,-47.42 -4.18,-57.94 -2.78,-10.52 -6.29,-17.59 -10.52,-21.09 -4.23,-3.57 -9.07,-5.35 -14.52,-5.35zm225.3 202.37l-45.75 0 0 -173.09c-16.7,15.69 -36.4,27.33 -59.11,34.84l0 -41.74c11.97,-3.9 24.94,-11.3 38.91,-22.27 14.02,-10.91 23.59,-23.65 28.83,-38.18l37.12 0 0 240.44z"/>
  <path class="fil1" d="M7726.65 3382.56l3.6 0c12.58,2.66 18.91,8.64 18.91,17.96l0 237.07 9.79 0c9.66,0 15.92,6.53 18.7,19.72l0 1.56c-2.24,13.27 -9.04,19.93 -20.33,19.93l-29.04 0c-11.02,0 -17.82,-6.8 -20.33,-20.33l0 -254.01c1.56,-14.62 7.82,-21.9 18.7,-21.9zm91.26 186.82l0 2.17c0,27.21 13.67,47.61 40.94,61.28 8.5,3.19 16.12,4.76 22.92,4.76l5.71 0c22.58,0 41.21,-11.36 55.9,-34 5.31,-10.61 7.96,-20.75 7.96,-30.4l0 -3c0,-26.11 -12.92,-46.17 -38.76,-60.05 -8.91,-4.01 -18.16,-5.98 -27.82,-5.98l-0.81 0c-27.48,0 -48.15,14.35 -62.03,42.98 -2.65,8.7 -4.01,16.12 -4.01,22.24zm133.43 86.64c-16.18,15.16 -37.54,22.78 -64.06,22.78l-5.78 0c-36.59,0 -67.06,-18.36 -91.47,-55.02 -8.91,-17.81 -13.33,-35.63 -13.33,-53.59 0,-40.12 19.65,-71.95 58.96,-95.48 16.8,-7.82 33.12,-11.76 49.1,-11.76 40.74,0 73.04,19.92 96.84,59.78 7.28,16.38 10.95,33.18 10.95,50.46l0 86.3c0,10.61 -6.53,17.07 -19.58,19.31l-1.43 0c-9.05,0 -15.78,-5.3 -20.2,-15.98l0 -2.25 0 -4.55zm272.29 -192.66c27.81,0 52.84,10.4 75.22,31.28 21.42,22.51 32.09,47.74 32.09,75.83 0,40.12 -18.9,71.68 -56.78,94.53 -16.66,8.36 -32.64,12.58 -48.08,12.58l-5.99 0c-24.96,0 -45.83,-7.62 -62.56,-22.79l0 88.28c0,9.45 -6.74,15.64 -20.2,18.56 -10.68,0 -17.55,-6.73 -20.61,-20.13l0 -164.51c0,-53.79 25.44,-90.1 76.37,-108.87 6.53,-2.11 16.73,-3.68 30.54,-4.76zm-65.29 104.93l0 3.74c0,24.55 11.97,43.66 35.84,57.33 8.5,4.42 17.62,6.6 27.48,6.6l4.35 0c25.64,0 45.22,-13.26 58.76,-39.79 3.06,-8.23 4.55,-16.25 4.55,-24.14l0 -3.74c0,-20.47 -9.45,-37.74 -28.29,-51.96 -11.15,-7.55 -23.8,-11.35 -38.01,-11.35 -27.82,0 -48.29,14.75 -61.28,44.2 -2.24,7 -3.4,13.4 -3.4,19.11zm208.91 -106.97c12.99,3.33 19.52,9.58 19.52,18.7l0 3.19c16.46,-14.62 37.95,-21.89 64.33,-21.89 14.22,0 29.65,3.6 46.25,10.74 5.71,5.85 8.57,11.49 8.57,16.93l0 1.43c-2.25,12.99 -8.98,19.52 -20.13,19.52l-1.77 0c-13.67,-4.42 -23.67,-6.6 -29.93,-6.6l-4.35 0c-26.86,0 -46.51,13.94 -58.96,41.9 -2.65,7.27 -4.01,15.77 -4.01,25.5l0 88.54c0,10.75 -6.67,17.28 -19.93,19.52l-1.15 0c-10.89,0 -17.62,-6.8 -20.13,-20.33l0 -174.24c1.56,-15.3 8.84,-22.91 21.69,-22.91zm172.46 -51.01c13.13,3.33 19.72,9.59 19.72,18.7l0 4.42c0,10.48 -7.07,16.73 -21.28,18.7 -10.27,0 -16.94,-6.93 -20.13,-20.87 2.79,-13.95 9.99,-20.95 21.69,-20.95zm0 51.35c13.13,3.26 19.72,9.52 19.72,18.7l0 178.92c0,10.75 -6.66,17.28 -19.92,19.52l-1.16 0c-10.88,0 -17.61,-6.8 -20.13,-20.33l0 -174.1c1.57,-15.17 8.77,-22.71 21.49,-22.71zm65.55 4.55c9.93,0 16.32,4.35 19.11,13.13 10.75,-8.78 26.32,-13.13 46.79,-13.13 27.07,0 48.9,10.07 65.49,30.26 5.71,-10.6 21.7,-19.92 48.01,-27.88l17.55 -2.38c33.12,0 59.17,15.71 78.14,47.06 6.39,13.2 9.59,25.78 9.59,37.88l0 109.29c0,9.72 -6.46,15.84 -19.31,18.36l-1.77 0c-12.86,-2.24 -19.32,-8.91 -19.32,-19.93l0 -106.15c0,-21.29 -11.15,-35.98 -33.52,-44.07l-9.18 -1.23 -7.01 0c-17.68,0 -31.28,10.41 -40.74,31.15 -1.15,4.35 -1.76,8.09 -1.76,11.15l0 109.15c-2.38,13.27 -8.98,19.93 -19.73,19.93l-1.36 0c-12.85,-2.24 -19.31,-8.64 -19.31,-19.18l0 -90.17c0,-23.26 -2.86,-37.54 -8.57,-42.85 -9.59,-12.78 -21.76,-19.18 -36.65,-19.18l-2.18 0c-20.47,0 -34.89,11.02 -43.25,33.12 -1.29,5.31 -1.97,12.58 -1.97,21.77l0 97.31c0,10.54 -6.47,16.94 -19.32,19.18l-1.15 0c-10.75,0 -17.41,-6.66 -19.93,-19.93l0 -170.15c1.5,-15.03 8.57,-22.51 21.35,-22.51zm404.64 -3.67c41.55,0 73.86,19.72 96.84,59.17 7.96,15.5 11.97,32.3 11.97,50.39l0 4.35c-2.38,13.53 -9.11,20.33 -20.13,20.33l-149.2 0c3.8,13.13 14.62,24.49 32.44,34.01 10.47,4.01 20.33,5.98 29.51,5.98 10.61,0 23.33,-3.74 38.22,-11.15l6.39 0c12.45,2.38 18.7,8.91 18.7,19.59l0 2.17c0,15.71 -19.72,26.18 -59.16,31.42l-5.58 0c-38.76,0 -69.84,-18.16 -93.23,-54.4 -9.46,-17.14 -14.15,-35.1 -14.15,-53.87 0,-39.58 18.63,-71.06 55.97,-94.46 18.23,-9.04 35.36,-13.53 51.41,-13.53zm-64.13 93.03l130.51 0c0,-4.89 -5.51,-14.75 -16.53,-29.58 -14.89,-14.01 -29.51,-21.01 -43.86,-21.01l-8.16 0c-21.77,0 -39.72,10.74 -53.8,32.16 -4.89,8.44 -7.61,14.62 -8.16,18.43zm211.09 -94.25c12.99,3.33 19.52,9.58 19.52,18.7l0 3.19c16.46,-14.62 37.95,-21.89 64.33,-21.89 14.22,0 29.65,3.6 46.25,10.74 5.71,5.85 8.57,11.49 8.57,16.93l0 1.43c-2.25,12.99 -8.98,19.52 -20.13,19.52l-1.77 0c-13.67,-4.42 -23.67,-6.6 -29.93,-6.6l-4.35 0c-26.86,0 -46.51,13.94 -58.96,41.9 -2.65,7.27 -4.01,15.77 -4.01,25.5l0 88.54c0,10.75 -6.67,17.28 -19.93,19.52l-1.15 0c-10.89,0 -17.62,-6.8 -20.13,-20.33l0 -174.24c1.56,-15.3 8.84,-22.91 21.69,-22.91zm273.04 0c12.99,3.33 19.52,9.58 19.52,18.7l0 3.19c16.46,-14.62 37.95,-21.89 64.33,-21.89 14.22,0 29.65,3.6 46.25,10.74 5.71,5.85 8.57,11.49 8.57,16.93l0 1.43c-2.25,12.99 -8.98,19.52 -20.13,19.52l-1.77 0c-13.67,-4.42 -23.67,-6.6 -29.93,-6.6l-4.35 0c-26.86,0 -46.51,13.94 -58.96,41.9 -2.65,7.27 -4.01,15.77 -4.01,25.5l0 88.54c0,10.75 -6.67,17.28 -19.93,19.52l-1.15 0c-10.89,0 -17.62,-6.8 -20.13,-20.33l0 -174.24c1.56,-15.3 8.84,-22.91 21.69,-22.91zm237.95 1.22c41.55,0 73.86,19.72 96.84,59.17 7.96,15.5 11.97,32.3 11.97,50.39l0 4.35c-2.38,13.53 -9.11,20.33 -20.13,20.33l-149.2 0c3.8,13.13 14.62,24.49 32.44,34.01 10.47,4.01 20.33,5.98 29.51,5.98 10.61,0 23.33,-3.74 38.22,-11.15l6.39 0c12.45,2.38 18.7,8.91 18.7,19.59l0 2.17c0,15.71 -19.72,26.18 -59.16,31.42l-5.58 0c-38.76,0 -69.84,-18.16 -93.23,-54.4 -9.46,-17.14 -14.15,-35.1 -14.15,-53.87 0,-39.58 18.63,-71.06 55.97,-94.46 18.23,-9.04 35.36,-13.53 51.41,-13.53zm-64.13 93.03l130.51 0c0,-4.89 -5.51,-14.75 -16.53,-29.58 -14.89,-14.01 -29.51,-21.01 -43.86,-21.01l-8.16 0c-21.77,0 -39.72,10.74 -53.8,32.16 -4.89,8.44 -7.61,14.62 -8.16,18.43zm189.33 -93.85l1.43 0c10.61,0 19.24,9.46 25.91,28.29l58.55 120.44c43.18,-91.74 66.51,-139.48 70.12,-143.35 4.76,-3.61 9.58,-5.38 14.34,-5.38 13.54,2.52 20.34,9.25 20.34,20.13l0 0.82c0,3.47 -11.15,28.29 -33.46,74.53l-56.04 115c-5.78,4.42 -10.95,6.6 -15.3,6.6l-0.61 0c-11.29,0 -20.68,-10.74 -28.09,-32.3 -48.22,-98.48 -73.79,-152 -76.71,-160.63l0 -5.24c2.38,-12.58 8.91,-18.91 19.52,-18.91zm229.65 -51.41c13.13,3.33 19.72,9.59 19.72,18.7l0 4.42c0,10.48 -7.07,16.73 -21.28,18.7 -10.27,0 -16.94,-6.93 -20.13,-20.87 2.79,-13.95 9.99,-20.95 21.69,-20.95zm0 51.35c13.13,3.26 19.72,9.52 19.72,18.7l0 178.92c0,10.75 -6.66,17.28 -19.92,19.52l-1.16 0c-10.88,0 -17.61,-6.8 -20.13,-20.33l0 -174.1c1.57,-15.17 8.77,-22.71 21.49,-22.71zm171.85 145.87c-0.14,-2.65 -2.86,-4.28 -8.23,-4.83 -67.19,-14.96 -103.03,-24.55 -107.59,-28.63 -13.67,-10.34 -20.47,-23.19 -20.47,-38.42 0,-20.75 14.49,-40.33 43.39,-58.97 15.98,-8.36 31.69,-12.51 47.27,-12.51 36.38,0 65.15,16.8 86.23,50.39l0.81 7.35 0 1.22c0,11.29 -6.8,17.96 -20.33,19.93 -9.05,0 -17.41,-6.39 -25.09,-19.11 -12.11,-11.83 -25.98,-17.75 -41.62,-17.75 -20.47,0 -36.52,9.59 -48.02,28.7l-0.41 1.97c0,2.65 5.72,4.49 17.14,5.37 57.13,13.88 88.61,21.9 94.6,24.15 16.32,10.74 24.55,24.41 24.55,40.87l0 0.61c0,22.71 -16.12,43.25 -48.22,61.55 -13.94,6.25 -28.63,9.38 -44.07,9.38 -31.89,0 -58.75,-14.96 -80.65,-44.82 -2.79,-4.01 -4.22,-7.82 -4.22,-11.56l0 -4.42c0,-10.74 7.35,-16.93 21.9,-18.5 7.07,0 15.37,6.87 24.96,20.54 11.7,10.88 25.37,16.32 41.01,16.32 18.63,0 34,-8.7 46.24,-26.04l0.82 -2.79zm97.38 -217.62l3.4 0c12.31,2.65 18.5,8.57 18.5,17.75l0 59.78 23.73 0 6.53 -0.82c10.27,0 16.94,6.66 20.13,19.93 0,9.92 -5.85,17.07 -17.54,21.28l-11.9 -0.81 -20.95 0 0 101.46c0,15.92 4.49,25.44 13.53,28.5l15.78 1.36 7.96 0c9.65,0 15.77,6.46 18.29,19.31l0 1.84c-2.24,12.85 -8.84,19.31 -19.92,19.31l-15.31 0c-25.77,0 -44.88,-13.94 -57.33,-41.82 -2.24,-7.08 -3.4,-15.1 -3.4,-24.15l0 -105.81 -8.36 0 -12.79 0.81c-11.63,-4.15 -17.47,-11.15 -17.47,-21.08 2.24,-12.85 6.59,-19.31 13.12,-19.31l0 -1.43 13.74 1.43 11.76 0 0 -55.84c1.57,-14.48 7.76,-21.69 18.5,-21.69zm109.15 179.47l0 2.17c0,27.21 13.67,47.61 40.94,61.28 8.5,3.19 16.12,4.76 22.92,4.76l5.71 0c22.58,0 41.21,-11.36 55.9,-34 5.31,-10.61 7.96,-20.75 7.96,-30.4l0 -3c0,-26.11 -12.92,-46.17 -38.76,-60.05 -8.91,-4.01 -18.16,-5.98 -27.82,-5.98l-0.81 0c-27.48,0 -48.15,14.35 -62.03,42.98 -2.65,8.7 -4.01,16.12 -4.01,22.24zm133.43 86.64c-16.18,15.16 -37.54,22.78 -64.06,22.78l-5.78 0c-36.59,0 -67.06,-18.36 -91.47,-55.02 -8.91,-17.81 -13.33,-35.63 -13.33,-53.59 0,-40.12 19.65,-71.95 58.96,-95.48 16.8,-7.82 33.12,-11.76 49.1,-11.76 40.74,0 73.04,19.92 96.84,59.78 7.28,16.38 10.95,33.18 10.95,50.46l0 86.3c0,10.61 -6.53,17.07 -19.58,19.31l-1.43 0c-9.05,0 -15.78,-5.3 -20.2,-15.98l0 -2.25 0 -4.55zm348.53 -274.68l3.6 0c12.58,2.65 18.91,8.7 18.91,18.16l0 149.14 0.81 25.5c0,21.01 -8.5,42.84 -25.5,65.56 -24.08,26.04 -51.21,39.1 -81.34,39.1l-5.98 0c-29.52,0 -56.92,-13.74 -82.15,-41.28 -15.58,-21.9 -23.33,-44.61 -23.33,-68.01 0,-35.29 15.71,-65.01 47.06,-89.08 19.93,-13.27 40.67,-19.93 62.23,-19.93 27.68,0 50.25,7.82 67.8,23.46l0 -71.54 -0.82 -12.92c3.88,-12.11 10.07,-18.16 18.71,-18.16zm-153.77 186l0 3.81c0,28.22 14.83,49.23 44.48,63.04 7.75,2.24 14.76,3.4 21.15,3.4l4.62 0c27.41,0 48.15,-14.76 62.23,-44.27 2.24,-8.91 3.4,-15.78 3.4,-20.61l0 -4.56c0,-28.08 -15.03,-49.1 -45.09,-63.04 -9.18,-2.24 -16.32,-3.4 -21.35,-3.4l-3 0c-27.4,0 -48.14,14.55 -62.22,43.73 -2.79,8.09 -4.22,15.37 -4.22,21.9zm219.93 -106.02c12.99,3.33 19.52,9.58 19.52,18.7l0 3.19c16.46,-14.62 37.95,-21.89 64.33,-21.89 14.22,0 29.65,3.6 46.25,10.74 5.71,5.85 8.57,11.49 8.57,16.93l0 1.43c-2.25,12.99 -8.98,19.52 -20.13,19.52l-1.77 0c-13.67,-4.42 -23.67,-6.6 -29.93,-6.6l-4.35 0c-26.86,0 -46.51,13.94 -58.96,41.9 -2.65,7.27 -4.01,15.77 -4.01,25.5l0 88.54c0,10.75 -6.67,17.28 -19.93,19.52l-1.15 0c-10.89,0 -17.62,-6.8 -20.13,-20.33l0 -174.24c1.56,-15.3 8.84,-22.91 21.69,-22.91zm171.78 108.06l0 2.17c0,27.21 13.67,47.61 40.94,61.28 8.5,3.19 16.12,4.76 22.92,4.76l5.71 0c22.58,0 41.21,-11.36 55.9,-34 5.31,-10.61 7.96,-20.75 7.96,-30.4l0 -3c0,-26.11 -12.92,-46.17 -38.76,-60.05 -8.91,-4.01 -18.16,-5.98 -27.82,-5.98l-0.81 0c-27.48,0 -48.15,14.35 -62.03,42.98 -2.65,8.7 -4.01,16.12 -4.01,22.24zm133.43 86.64c-16.18,15.16 -37.54,22.78 -64.06,22.78l-5.78 0c-36.59,0 -67.06,-18.36 -91.47,-55.02 -8.91,-17.81 -13.33,-35.63 -13.33,-53.59 0,-40.12 19.65,-71.95 58.96,-95.48 16.8,-7.82 33.12,-11.76 49.1,-11.76 40.74,0 73.04,19.92 96.84,59.78 7.28,16.38 10.95,33.18 10.95,50.46l0 86.3c0,10.61 -6.53,17.07 -19.58,19.31l-1.43 0c-9.05,0 -15.78,-5.3 -20.2,-15.98l0 -2.25 0 -4.55zm160.69 -192.66c32.04,0 59.78,13.26 83.18,39.85 16.25,22.1 24.34,43.18 24.34,63.11l-0.81 25.02 0 89.43c0,18.7 -13.6,38.56 -40.81,59.51 -20.87,13.67 -42.71,20.54 -65.56,20.54 -39.03,0 -71.33,-17.35 -96.84,-52.1 -5.03,-8.5 -7.55,-14.55 -7.55,-18.15l0 -2.18c0,-9.73 6.26,-15.98 18.71,-18.77l2.78 0c9.46,0 16.87,7.21 22.17,21.56 16.19,20.33 36.46,30.46 60.73,30.46 29.11,0 50.87,-12.98 65.36,-39.03l1.02 -7.96 0 -19.38c-16.39,15.17 -37.88,22.71 -64.47,22.71l-5.99 0c-28.97,0 -55.97,-13.53 -80.79,-40.6 -15.3,-21.49 -22.98,-43.72 -22.98,-66.71 0,-34.89 15.43,-64.13 46.31,-87.59 19.65,-13.13 40.05,-19.72 61.2,-19.72zm-66.71 105.13l0 3.61c0,27.61 14.55,48.15 43.73,61.68 7.62,2.24 14.55,3.4 20.81,3.4l4.35 0c27.07,0 47.47,-14.48 61.34,-43.39 2.11,-8.63 3.2,-15.37 3.2,-20.13l0 -4.55c0,-27.55 -14.69,-48.08 -44.14,-61.75 -9.18,-2.11 -16.25,-3.2 -21.15,-3.2l-2.85 0c-27,0 -47.47,14.28 -61.28,42.84 -2.65,7.82 -4.01,14.97 -4.01,21.49zm382.59 -105.95c41.55,0 73.86,19.72 96.84,59.17 7.96,15.5 11.97,32.3 11.97,50.39l0 4.35c-2.38,13.53 -9.11,20.33 -20.13,20.33l-149.2 0c3.8,13.13 14.62,24.49 32.44,34.01 10.47,4.01 20.33,5.98 29.51,5.98 10.61,0 23.33,-3.74 38.22,-11.15l6.39 0c12.45,2.38 18.7,8.91 18.7,19.59l0 2.17c0,15.71 -19.72,26.18 -59.16,31.42l-5.58 0c-38.76,0 -69.84,-18.16 -93.23,-54.4 -9.46,-17.14 -14.15,-35.1 -14.15,-53.87 0,-39.58 18.63,-71.06 55.97,-94.46 18.23,-9.04 35.36,-13.53 51.41,-13.53zm-64.13 93.03l130.51 0c0,-4.89 -5.51,-14.75 -16.53,-29.58 -14.89,-14.01 -29.51,-21.01 -43.86,-21.01l-8.16 0c-21.77,0 -39.72,10.74 -53.8,32.16 -4.89,8.44 -7.61,14.62 -8.16,18.43zm207.15 -92.62c12.92,3.33 19.38,9.59 19.38,18.7l-0.07 2.99c15.91,-14.48 37.47,-21.69 64.61,-21.69 29.85,0 56.24,12.37 79.22,37.06 16.8,20.74 25.17,42.57 25.17,65.56l0 94.66c0,9.87 -6.53,16.05 -19.59,18.57l-2.04 0c-13.06,-2.38 -19.59,-9.11 -19.59,-20.13l0 -83.31c0,-34.61 -14.69,-57.26 -44.06,-68 -7.14,-1.84 -13.54,-2.79 -19.11,-2.79l-2.18 0c-24.55,0 -43.66,12.85 -57.19,38.49 -3.47,7.55 -5.17,20.33 -5.17,38.29l0 78.14c0,10.61 -6.53,17.07 -19.59,19.31l-1.43 0c-10.95,0 -17.68,-6.8 -20.19,-20.33l0 -172.81c1.63,-15.16 8.84,-22.71 21.83,-22.71zm397.28 -0.41c41.55,0 73.86,19.72 96.84,59.17 7.96,15.5 11.97,32.3 11.97,50.39l0 4.35c-2.38,13.53 -9.11,20.33 -20.13,20.33l-149.2 0c3.8,13.13 14.62,24.49 32.44,34.01 10.47,4.01 20.33,5.98 29.51,5.98 10.61,0 23.33,-3.74 38.22,-11.15l6.39 0c12.45,2.38 18.7,8.91 18.7,19.59l0 2.17c0,15.71 -19.72,26.18 -59.16,31.42l-5.58 0c-38.76,0 -69.84,-18.16 -93.23,-54.4 -9.46,-17.14 -14.15,-35.1 -14.15,-53.87 0,-39.58 18.63,-71.06 55.97,-94.46 18.23,-9.04 35.36,-13.53 51.41,-13.53zm-64.13 93.03l130.51 0c0,-4.89 -5.51,-14.75 -16.53,-29.58 -14.89,-14.01 -29.51,-21.01 -43.86,-21.01l-8.16 0c-21.77,0 -39.72,10.74 -53.8,32.16 -4.89,8.44 -7.61,14.62 -8.16,18.43zm310.11 51.96c-0.14,-2.65 -2.86,-4.28 -8.23,-4.83 -67.19,-14.96 -103.03,-24.55 -107.59,-28.63 -13.67,-10.34 -20.47,-23.19 -20.47,-38.42 0,-20.75 14.49,-40.33 43.39,-58.97 15.98,-8.36 31.69,-12.51 47.27,-12.51 36.38,0 65.15,16.8 86.23,50.39l0.81 7.35 0 1.22c0,11.29 -6.8,17.96 -20.33,19.93 -9.05,0 -17.41,-6.39 -25.09,-19.11 -12.11,-11.83 -25.98,-17.75 -41.62,-17.75 -20.47,0 -36.52,9.59 -48.02,28.7l-0.41 1.97c0,2.65 5.72,4.49 17.14,5.37 57.13,13.88 88.61,21.9 94.6,24.15 16.32,10.74 24.55,24.41 24.55,40.87l0 0.61c0,22.71 -16.12,43.25 -48.22,61.55 -13.94,6.25 -28.63,9.38 -44.07,9.38 -31.89,0 -58.75,-14.96 -80.65,-44.82 -2.79,-4.01 -4.22,-7.82 -4.22,-11.56l0 -4.42c0,-10.74 7.35,-16.93 21.9,-18.5 7.07,0 15.37,6.87 24.96,20.54 11.7,10.88 25.37,16.32 41.01,16.32 18.63,0 34,-8.7 46.24,-26.04l0.82 -2.79zm158.86 -144.17c27.81,0 52.84,10.4 75.22,31.28 21.42,22.51 32.09,47.74 32.09,75.83 0,40.12 -18.9,71.68 -56.78,94.53 -16.66,8.36 -32.64,12.58 -48.08,12.58l-5.99 0c-24.96,0 -45.83,-7.62 -62.56,-22.79l0 88.28c0,9.45 -6.74,15.64 -20.2,18.56 -10.68,0 -17.55,-6.73 -20.61,-20.13l0 -164.51c0,-53.79 25.44,-90.1 76.37,-108.87 6.53,-2.11 16.73,-3.68 30.54,-4.76zm-65.29 104.93l0 3.74c0,24.55 11.97,43.66 35.84,57.33 8.5,4.42 17.62,6.6 27.48,6.6l4.35 0c25.64,0 45.22,-13.26 58.76,-39.79 3.06,-8.23 4.55,-16.25 4.55,-24.14l0 -3.74c0,-20.47 -9.45,-37.74 -28.29,-51.96 -11.15,-7.55 -23.8,-11.35 -38.01,-11.35 -27.82,0 -48.29,14.75 -61.28,44.2 -2.24,7 -3.4,13.4 -3.4,19.11zm208.84 1.09l0 2.17c0,27.21 13.67,47.61 40.94,61.28 8.5,3.19 16.12,4.76 22.92,4.76l5.71 0c22.58,0 41.21,-11.36 55.9,-34 5.31,-10.61 7.96,-20.75 7.96,-30.4l0 -3c0,-26.11 -12.92,-46.17 -38.76,-60.05 -8.91,-4.01 -18.16,-5.98 -27.82,-5.98l-0.81 0c-27.48,0 -48.15,14.35 -62.03,42.98 -2.65,8.7 -4.01,16.12 -4.01,22.24zm133.43 86.64c-16.18,15.16 -37.54,22.78 -64.06,22.78l-5.78 0c-36.59,0 -67.06,-18.36 -91.47,-55.02 -8.91,-17.81 -13.33,-35.63 -13.33,-53.59 0,-40.12 19.65,-71.95 58.96,-95.48 16.8,-7.82 33.12,-11.76 49.1,-11.76 40.74,0 73.04,19.92 96.84,59.78 7.28,16.38 10.95,33.18 10.95,50.46l0 86.3c0,10.61 -6.53,17.07 -19.58,19.31l-1.43 0c-9.05,0 -15.78,-5.3 -20.2,-15.98l0 -2.25 0 -4.55zm137.71 -260.4l3.6 0c10.48,0 22.04,4.29 34.69,12.79l3.94 1.22 2.24 0 14.9 -4.56c13.94,2.66 20.94,9.52 20.94,20.68 0,13.4 -11.08,21.49 -33.25,24.14l-5.58 0c-10.4,0 -21.9,-4.28 -34.48,-12.79l-4.21 -0.95 -1.98 0 -13.94 3.54 -2.79 0c-12.37,-2.38 -18.49,-8.77 -18.49,-19.11l0 -2.18c0,-10.47 6.73,-17.27 20.26,-20.33 4.42,-1.63 9.12,-2.45 14.15,-2.45zm-64.06 71.41c12.71,3.33 19.11,9.45 19.11,18.43l0 2.58c15.71,-14.01 36.72,-21.01 63.11,-21.01 29.1,0 54.88,12.1 77.46,36.31 16.45,20.34 24.68,41.76 24.68,64.41l0 92.69c0,9.72 -6.39,15.84 -19.11,18.36l-1.97 0c-12.85,-2.24 -19.31,-8.91 -19.31,-19.93l0 -81.47c0,-33.73 -14.35,-55.9 -43.05,-66.37 -7.01,-1.84 -13.26,-2.79 -18.7,-2.79l-2.18 0c-24.01,0 -42.64,12.51 -55.77,37.47 -3.46,7.55 -5.16,20.06 -5.16,37.47l0 76.51c0,10.47 -6.46,16.87 -19.32,19.11l-1.15 0c-10.75,0 -17.41,-6.66 -19.93,-19.93l0 -169.33c1.43,-15.03 8.57,-22.51 21.29,-22.51zm294.32 -3.27c27.75,0 52.85,10.48 75.29,31.49 21.35,22.51 32.03,47.81 32.03,76.03 0,40.26 -18.97,71.95 -56.92,94.94 -16.6,8.36 -32.65,12.58 -48.22,12.58l-5.98 0c-28.91,0 -55.77,-13.53 -80.59,-40.67 -15.3,-21.56 -22.92,-43.86 -22.92,-66.85 0,-34.95 15.37,-64.26 46.18,-87.79 19.65,-13.13 40.05,-19.73 61.13,-19.73zm-65.69 105.35l0 3.6c0,24.89 12.04,44.14 36.04,57.87 8.5,4.42 17.62,6.6 27.48,6.6l4.35 0c25.64,0 45.29,-13.4 58.96,-40.12 3.06,-8.3 4.56,-16.39 4.56,-24.35l0 -3.6c0,-20.68 -9.52,-38.09 -28.5,-52.37 -11.01,-7.55 -23.66,-11.36 -38.01,-11.36 -27.95,0 -48.56,14.76 -61.68,44.34 -2.11,6.94 -3.2,13.4 -3.2,19.39zm199.05 -186.55l3.6 0c12.58,2.66 18.91,8.64 18.91,17.96l0 237.07 9.79 0c9.66,0 15.92,6.53 18.7,19.72l0 1.56c-2.24,13.27 -9.04,19.93 -20.33,19.93l-29.04 0c-11.02,0 -17.82,-6.8 -20.33,-20.33l0 -254.01c1.56,-14.62 7.82,-21.9 18.7,-21.9z"/>
  <g id="_3148469794752">
   <g style="clip-path:url(#id3)">
    <image x="349.98" y="17495.07" width="8813.98" height="3559.84" xlink:href="Dragvesti-La-Revista-Portada- Raven-rupaul-drag-race_Images\Dragvesti-La-Revista-Portada- Raven-rupaul-drag-race_ImgID4.png"/>
   </g>
  </g>
  <path class="fil2" d="M646.64 17791.72l493.77 0c329.2,0 552.05,13.75 668.57,41.88 116.51,28.13 211.54,100.01 285.07,215.64 73.53,115.02 110.3,299.41 110.3,551.94 0,230.64 -26.03,385.66 -78.07,465.04 -51.47,79.38 -153.84,126.88 -306.56,142.51 138.02,38.13 231.33,88.76 278.85,152.51 47.51,63.14 76.93,121.9 88.25,175.02 11.87,53.13 17.53,199.39 17.53,438.8l0 783.2 -648.2 0 0 -986.97c0,-158.77 -11.32,-256.91 -33.94,-295.03 -22.06,-38.13 -80.88,-56.88 -176.47,-56.88l0 1338.88 -699.1 0 0 -2966.54zm699.1 506.3l0 660.07c78.05,0 132.35,-11.88 163.46,-35.64 31.1,-23.75 46.95,-101.26 46.95,-231.89l0 -163.14c0,-94.38 -15.28,-156.27 -45.26,-185.65 -29.97,-29.37 -85.41,-43.75 -165.15,-43.75zm2332.6 -506.3l399.33 2966.54 -713.25 0 -37.9 -532.56 -251.7 0 -37.9 532.56 -722.28 0 354.07 -2966.54 1009.63 0zm-370.48 1908.93c-33.37,-336.28 -68.44,-752.57 -105.77,-1249.5 -69,570.07 -112.56,986.36 -131.22,1249.5l236.99 0zm2471.18 -1908.93l-353.51 2966.54 -1057.13 0 -404.99 -2966.54 736.44 0c83.14,818.21 143.67,1510.15 181.56,2075.82 37.33,-571.93 75.79,-1079.48 114.83,-1522.64l46.37 -553.18 736.43 0zm120.49 0l1164.03 0 0 592.56 -464.93 0 0 566.3 434.39 0 0 562.56 -434.39 0 0 652.56 512.45 0 0 592.56 -1211.55 0 0 -2966.54zm2967.79 0l0 2966.54 -610.86 0 -363.14 -1348.89 0 1348.89 -583.71 0 0 -2966.54 583.71 0 390.28 1335.75 0 -1335.75 583.72 0z"/>
  <rect class="fil0 str0" x="539.74" y="16501.18" width="2933.92" height="1100.2"/>
  <path class="fil1" d="M11251.96 7106.68c-25.72,0 -48.24,-3.41 -67.53,-10.14 -19.2,-6.74 -35.58,-16.88 -49.15,-30.15 -15.27,-15.38 -26.12,-33.67 -32.36,-54.97 -6.32,-21.2 -9.44,-47.53 -9.44,-78.68l0 -273.44 58.48 0 0 272.83c0,20.1 1.31,37.09 3.82,50.95 2.52,13.76 7.55,26.13 14.98,37.08 7.83,11.76 18.49,20.71 31.95,26.73 13.37,6.13 29.75,9.15 49.25,9.15 18.19,0 34.37,-3.02 48.43,-9.15 14.18,-6.02 25.12,-14.97 32.97,-26.73 7.23,-11.15 12.15,-23.41 14.87,-36.98 2.61,-13.46 3.92,-30.05 3.92,-49.64l0 -274.24 58.49 0 0 273.44c0,30.44 -3.12,56.48 -9.25,78.28 -6.24,21.81 -17.09,40.19 -32.56,55.37 -13.98,13.47 -30.16,23.61 -48.74,30.25 -18.59,6.73 -41.31,10.04 -68.13,10.04zm503.24 -9.04l-55.47 0 0 -187.21c0,-15.08 -0.7,-29.15 -2.21,-42.21 -1.5,-13.06 -4.22,-23.52 -8.34,-31.36 -4.52,-8.24 -10.85,-14.36 -18.89,-18.38 -8.05,-4.03 -18.99,-6.04 -32.97,-6.04 -13.66,0 -27.83,3.73 -42.5,11.05 -14.57,7.35 -28.85,16.89 -42.81,28.65l0 245.5 -55.47 0 0 -328.61 55.47 0 0 36.59c16.48,-14.78 32.76,-26.04 48.83,-33.87 16.18,-7.85 33.16,-11.76 50.96,-11.76 32.45,0 57.78,10.66 75.96,31.96 18.3,21.2 27.44,52.05 27.44,92.45l0 213.24zm184.28 6.64c-30.25,0 -53.87,-8.54 -70.74,-25.73 -16.89,-17.09 -25.33,-44.22 -25.33,-81.2l0 -181.89 -37.39 0 0 -46.43 37.39 0 0 -94.66 55.47 0 0 94.66 101.9 0 0 46.43 -101.9 0 0 156.16c0,16.68 0.3,29.55 0.91,38.49 0.6,9.04 2.82,17.49 6.73,25.33 3.32,6.83 8.74,12.06 16.18,15.47 7.53,3.42 17.58,5.13 30.35,5.13 9.04,0 17.78,-1.4 26.22,-4.12 8.45,-2.72 14.58,-4.92 18.29,-6.73l3.22 0 0 49.64c-10.45,3.02 -21,5.33 -31.65,6.93 -10.75,1.72 -20.61,2.52 -29.65,2.52zm365.86 -6.64l-55.47 0 0 -36.57c-17.07,14.86 -33.25,26.23 -48.63,33.96 -15.28,7.74 -32.36,11.65 -51.15,11.65 -14.37,0 -27.84,-2.31 -40.5,-7.03 -12.66,-4.73 -23.71,-12.16 -33.16,-22.4 -9.45,-10.16 -16.79,-23.02 -21.92,-38.49 -5.22,-15.49 -7.83,-34.37 -7.83,-56.48l0 -213.25 55.47 0 0 187.21c0,17.39 0.6,31.86 1.91,43.42 1.3,11.46 4.22,21.51 8.64,30.15 4.53,8.45 10.66,14.58 18.4,18.49 7.83,3.92 18.88,5.93 33.46,5.93 13.57,0 27.94,-3.82 43.21,-11.56 15.37,-7.73 29.35,-17.18 42.1,-28.44l0 -245.2 55.47 0 0 328.61zm217.05 7.24c-22.61,0 -43.32,-3.53 -62.22,-10.46 -18.79,-6.93 -35.06,-17.48 -48.63,-31.65 -13.57,-14.07 -24.01,-31.86 -31.55,-53.37 -7.44,-21.49 -11.15,-46.72 -11.15,-75.77 0,-28.83 3.91,-53.75 11.65,-74.76 7.73,-21 18.09,-38.58 31.05,-52.96 12.97,-14.27 29.15,-25.32 48.54,-33.06 19.29,-7.74 40.09,-11.65 62.31,-11.65 18.08,0 35.57,2.51 52.36,7.64 16.77,5.12 31.74,11.05 44.92,17.67l0 62.11 -3.22 0c-3.92,-3.32 -9.05,-7.14 -15.27,-11.45 -6.13,-4.23 -13.68,-8.65 -22.52,-13.17 -7.64,-3.81 -16.68,-7.24 -27.13,-10.15 -10.46,-2.9 -20.51,-4.41 -30.15,-4.41 -28.64,0 -51.76,10.85 -69.13,32.45 -17.39,21.6 -26.13,52.15 -26.13,91.74 0,38.7 8.44,68.95 25.22,90.55 16.77,21.61 40.2,32.46 70.04,32.46 18.09,0 35.38,-3.71 51.65,-11.15 16.39,-7.34 30.76,-16.98 43.42,-28.65l3.22 0 0 62.11c-5.54,2.61 -12.37,5.63 -20.61,9.24 -8.24,3.73 -15.77,6.34 -22.41,8.15 -9.45,2.7 -17.89,4.82 -25.33,6.33 -7.53,1.5 -17.18,2.21 -28.93,2.21zm427.78 -7.24l-72.66 0 -122.81 -158.68 -22.2 21.31 0 137.37 -55.47 0 0 -458.23 55.47 0 0 268.61 130.54 -138.99 69.04 0 -135.27 137.37 153.36 191.24zm171.7 7.24c-52.45,0 -93.25,-14.77 -122.29,-44.22 -29.04,-29.45 -43.51,-71.35 -43.51,-125.61 0,-53.46 14.07,-95.97 42.2,-127.63 28.04,-31.65 64.83,-47.43 110.24,-47.43 20.5,0 38.6,2.91 54.27,8.85 15.78,5.82 29.55,15.06 41.31,27.63 11.85,12.56 20.9,27.84 27.12,46.02 6.34,18.09 9.45,40.3 9.45,66.52l0 30.05 -228.52 0c0,38.1 9.65,67.23 28.95,87.34 19.29,20.19 46.02,30.24 80.09,30.24 12.16,0 24.22,-1.4 35.87,-4.12 11.76,-2.71 22.31,-6.32 31.76,-10.65 10.04,-4.53 18.58,-8.85 25.42,-13.06 6.94,-4.22 12.66,-8.24 17.19,-11.97l3.22 0 0 60.41c-6.54,2.5 -14.58,5.72 -24.23,9.54 -9.64,3.82 -18.29,6.83 -25.93,8.95 -10.85,2.91 -20.59,5.22 -29.34,6.82 -8.74,1.51 -19.9,2.32 -33.27,2.32zm65.13 -208.02c-0.41,-14.88 -2.22,-27.74 -5.33,-38.49 -3.11,-10.76 -7.74,-19.89 -13.57,-27.33 -6.53,-8.14 -14.86,-14.48 -25.02,-18.79 -10.15,-4.32 -22.7,-6.43 -37.78,-6.43 -14.78,0 -27.34,2.2 -37.69,6.62 -10.34,4.43 -19.79,10.76 -28.24,19.2 -8.33,8.65 -14.57,18.19 -18.99,28.64 -4.32,10.45 -7.03,22.71 -8.24,36.58l174.86 0zm370.19 200.78l-55.47 0 0 -33.66c-8.64,7.23 -16.18,13.27 -22.41,17.99 -6.32,4.71 -13.76,9.04 -22.2,12.95 -7.85,3.73 -16.08,6.64 -24.53,8.65 -8.44,2.11 -18.28,3.11 -29.54,3.11 -17.88,0 -34.47,-3.71 -49.75,-11.14 -15.27,-7.44 -28.24,-18.4 -38.88,-32.66 -10.85,-14.48 -19.2,-32.36 -25.13,-53.67 -5.93,-21.3 -8.84,-45.72 -8.84,-73.36 0,-28.84 3.72,-53.76 11.26,-74.87 7.44,-21.1 17.78,-39.39 30.95,-55.16 12.06,-14.28 26.52,-25.53 43.61,-33.68 17.08,-8.13 34.87,-12.15 53.66,-12.15 16.48,0 30.85,1.81 43.12,5.42 12.15,3.62 25.12,9.25 38.68,16.98l0 -142.98 55.47 0 0 458.23zm-55.47 -80.19l0 -189.13c-13.76,-6.43 -26.12,-10.94 -37.08,-13.36 -10.96,-2.52 -22.81,-3.72 -35.57,-3.72 -28.64,0 -50.95,10.65 -67.13,31.86 -16.18,21.2 -24.22,51.85 -24.22,91.95 0,38.58 6.23,68.03 18.59,88.54 12.47,20.39 32.36,30.64 59.7,30.64 14.56,0 29.24,-3.32 44.01,-9.95 14.78,-6.64 28.74,-15.57 41.7,-26.83z"/>
  <path class="fil0" d="M10413.75 7887.8l-213.56 0 0 -101.9 213.56 0c66.84,0 116.03,-10.32 147.54,-30.97 38.04,-25.54 57.06,-69.28 57.06,-131.24l0 -321.97 101.89 0 0 321.97c0,94.56 -27.99,163.31 -83.96,206.23 -49.44,38.58 -123.63,57.88 -222.53,57.88zm674.44 -484.2c-58.7,0 -106.25,19.29 -142.65,57.88 -32.07,34.23 -49.19,76.62 -51.36,127.16 -1.63,53.26 13.59,98.36 45.64,135.31 35.87,41.3 85.32,61.95 148.37,61.95l163.83 0c63.04,0 112.5,-20.65 148.35,-61.95 32.07,-36.95 47.01,-82.05 44.84,-135.31 -1.63,-50.54 -18.74,-92.93 -51.36,-127.16 -35.86,-38.59 -83.14,-57.88 -141.83,-57.88l-163.83 0zm0 484.2c-91.31,0 -164.66,-31.25 -220.09,-93.75 -50,-57.06 -75,-125.52 -75,-205.41 0,-78.79 23.91,-144.55 71.73,-197.26 54.35,-59.78 128.8,-89.66 223.36,-89.66l163.83 0c94.56,0 168.74,29.88 222.54,89.66 48.37,52.71 72.55,118.47 72.55,197.26 0,79.89 -25,148.35 -75,205.41 -55.43,62.5 -128.78,93.75 -220.09,93.75l-163.83 0zm994.11 -164.66l-278.1 0 62.09 -101.89 155.14 0 -102.02 -168.74 -264.38 434.47 -131.24 0 317.9 -529.84c10.34,-16.84 23.65,-30.7 39.95,-41.57 14.13,-9.78 26.63,-14.94 37.49,-15.49 11.95,-1.08 25.28,2.99 39.95,12.23 16.84,10.87 30.97,25.81 42.39,44.83l311.38 529.84 -131.37 0 -99.18 -163.84zm772.93 135.31l-375.78 -377.68 0 407.03 -101.89 0 0 -534.74c0,-15.76 4.08,-28.25 12.23,-37.49 8.15,-9.23 18.75,-13.85 31.79,-13.85 19.02,0 38.31,10.05 57.87,30.15l375.78 376.59 0 -406.74 101.9 0 0 535.54c0,37.5 -12.77,56.24 -38.32,56.24 -19.02,0 -40.21,-11.68 -63.58,-35.05zm663.85 -318.72l0 101.89 -335.03 0 0 -101.89 335.03 0zm-378.23 246.17l404.31 0 0 101.9 -506.21 0 0 -586.1 506.21 0 0 101.9 -404.31 0 0 382.3zm50.54 -508.64l207.05 -70.92 -14.68 -46.47 -207.04 70.92 14.67 46.47zm-3968.39 975.2c41.3,32.06 61.95,72 61.95,119.82 0,45.66 -19.56,84.51 -58.68,116.57 -42.94,35.32 -101.35,52.98 -175.26,52.98l-419.79 0 0 -586.08 419.79 0c73.91,0 132.32,18.21 175.26,54.61 39.12,32.6 58.68,72.55 58.68,119.83 0,48.37 -20.65,89.12 -61.95,122.27zm-155.69 187.47c37.5,0 67.38,-7.05 89.66,-21.19 19.57,-12.49 29.35,-27.98 29.35,-46.46 0,-18.47 -10.06,-33.96 -30.15,-46.46 -21.74,-14.67 -51.36,-22.01 -88.86,-22.01l-274.7 0 0 -101.89 274.7 0c37.5,0 67.12,-7.61 88.86,-22.83 20.09,-13.57 30.15,-30.15 30.15,-49.72 0,-19.56 -9.78,-36.14 -29.35,-49.72 -22.28,-14.68 -52.16,-22.01 -89.66,-22.01l-334.21 0 0 382.29 334.21 0zm686.66 102.72l-35.05 0c-98.9,0 -173.35,-19.3 -223.34,-57.88 -55.43,-42.92 -83.14,-111.67 -83.14,-206.23l0 -321.97 101.88 0 0 321.97c0,61.96 19.03,105.7 57.06,131.24 31.52,20.65 80.7,30.97 147.54,30.97l35.05 0c66.85,0 116.02,-10.32 147.55,-30.97 38.03,-25.54 57.06,-69.28 57.06,-131.24l0 -321.97 101.88 0 0 321.97c0,94.56 -27.98,163.31 -83.95,206.23 -49.46,38.58 -123.63,57.88 -222.54,57.88zm737.21 -484.2l0 484.2 -101.89 0 0 -484.2 -231.5 0 0 -101.88 564.08 0 0 101.88 -230.69 0zm607.6 0l0 484.2 -101.89 0 0 -484.2 -231.5 0 0 -101.88 564.08 0 0 101.88 -230.69 0zm591.3 0c-58.69,0 -106.24,19.29 -142.65,57.88 -32.06,34.23 -49.18,76.62 -51.35,127.16 -1.64,53.26 13.59,98.36 45.64,135.31 35.86,41.3 85.32,61.95 148.36,61.95l163.84 0c63.04,0 112.49,-20.65 148.35,-61.95 32.06,-36.95 47.01,-82.05 44.84,-135.31 -1.64,-50.54 -18.75,-92.93 -51.36,-127.16 -35.87,-38.59 -83.14,-57.88 -141.83,-57.88l-163.84 0zm0 484.2c-91.3,0 -164.66,-31.25 -220.08,-93.75 -50.01,-57.06 -75,-125.52 -75,-205.41 0,-78.79 23.91,-144.55 71.73,-197.26 54.34,-59.78 128.79,-89.66 223.35,-89.66l163.84 0c94.56,0 168.74,29.88 222.53,89.66 48.37,52.71 72.55,118.47 72.55,197.26 0,79.89 -24.99,148.35 -75,205.41 -55.42,62.5 -128.78,93.75 -220.08,93.75l-163.84 0zm1036.36 -29.35l-375.78 -377.68 0 407.03 -101.9 0 0 -534.74c0,-15.76 4.09,-28.25 12.24,-37.49 8.14,-9.23 18.74,-13.85 31.78,-13.85 19.03,0 38.32,10.05 57.88,30.15l375.78 376.59 0 -406.74 101.9 0 0 535.54c0,37.5 -12.78,56.24 -38.32,56.24 -19.02,0 -40.22,-11.68 -63.58,-35.05zm676.88 29.35l-446.69 0 0 -101.9 446.69 0c33.69,0 60.6,-8.42 80.71,-25.26 18.47,-15.76 27.71,-34.52 27.71,-56.25 0,-21.74 -8.97,-39.94 -26.91,-54.61 -20.1,-16.3 -47.27,-24.46 -81.51,-24.46l-277.14 0c-57.61,0 -103.25,-16.84 -136.95,-50.54 -30.43,-30.43 -45.64,-67.65 -45.64,-111.67 0,-43.47 15.21,-80.42 45.64,-110.85 33.7,-33.7 79.34,-50.54 136.95,-50.54l442.62 0 0 101.88 -442.62 0c-21.75,0 -38.86,5.99 -51.36,17.94 -12.49,11.96 -18.75,26.08 -18.75,42.39 0,16.3 5.71,29.88 17.12,40.75 13.05,12.51 30.71,18.75 52.99,18.75l277.14 0c62.5,0 112.49,19.02 149.99,57.06 33.69,34.78 50.54,76.9 50.54,126.35 0,49.45 -16.57,91.02 -49.72,124.71 -36.95,37.5 -87.23,56.25 -150.81,56.25z"/>
  <path class="fil1" d="M9035.14 4550.12l-128.5 0 0 -85.67c0,-24.95 -1.35,-40.44 -4.06,-46.68 -2.7,-6.14 -8.74,-9.25 -17.98,-9.25 -10.4,0 -17.06,3.74 -19.86,11.22 -2.81,7.59 -4.27,23.81 -4.27,48.76l0 228.95c0,24.01 1.46,39.61 4.27,46.99 2.8,7.27 9.15,10.92 18.91,10.92 9.47,0 15.71,-3.65 18.62,-11.03 2.91,-7.27 4.37,-24.54 4.37,-51.67l0 -62.07 128.5 0 0 19.24c0,51.15 -3.64,87.44 -10.81,108.75 -7.17,21.42 -23.19,40.13 -47.83,56.24 -24.74,16.12 -55.1,24.13 -91.28,24.13 -37.54,0 -68.52,-6.76 -92.95,-20.38 -24.33,-13.62 -40.55,-32.44 -48.45,-56.57 -7.9,-24.11 -11.85,-60.3 -11.85,-108.64l0 -144.1c0,-35.56 1.24,-62.17 3.63,-79.95 2.5,-17.79 9.68,-34.93 21.84,-51.37 12.06,-16.42 28.8,-29.42 50.21,-38.87 21.43,-9.47 46.07,-14.14 73.93,-14.14 37.74,0 68.93,7.27 93.57,21.93 24.53,14.55 40.65,32.75 48.45,54.58 7.7,21.83 11.54,55.73 11.54,101.79l0 46.89zm338.52 74.02c0,49.6 -1.14,84.64 -3.53,105.22 -2.29,20.69 -9.57,39.51 -21.83,56.56 -12.28,17.05 -28.91,30.16 -49.81,39.3 -20.89,9.15 -45.22,13.73 -72.98,13.73 -26.41,0 -50.01,-4.37 -71.01,-13 -21,-8.63 -37.95,-21.52 -50.64,-38.78 -12.79,-17.26 -20.38,-36.08 -22.87,-56.35 -2.39,-20.38 -3.64,-55.94 -3.64,-106.68l0 -84.42c0,-49.59 1.14,-84.63 3.53,-105.21 2.3,-20.69 9.57,-39.51 21.84,-56.57 12.27,-17.04 28.9,-30.14 49.8,-39.29 20.9,-9.15 45.23,-13.72 72.99,-13.72 26.41,0 50,4.36 71.01,12.99 21,8.63 37.95,21.52 50.63,38.78 12.79,17.26 20.38,36.07 22.87,56.35 2.39,20.38 3.64,55.93 3.64,106.67l0 84.42zm-128.5 -162.08c0,-22.88 -1.25,-37.54 -3.74,-43.98 -2.5,-6.35 -7.59,-9.56 -15.29,-9.56 -6.55,0 -11.54,2.59 -15.08,7.79 -3.42,5.1 -5.2,20.38 -5.2,45.75l0 230.29c0,28.59 1.15,46.27 3.44,52.91 2.29,6.76 7.59,10.1 15.9,10.1 8.53,0 14.04,-3.85 16.44,-11.54 2.39,-7.7 3.53,-26.1 3.53,-55.11l0 -226.65zm176.75 -127.16l90.77 0c60.51,0 101.47,2.29 122.88,6.97 21.42,4.68 38.89,16.64 52.41,35.87 13.51,19.13 20.27,49.8 20.27,91.8 0,38.37 -4.78,64.16 -14.35,77.35 -9.46,13.21 -28.28,21.11 -56.35,23.71 25.37,6.34 42.53,14.77 51.26,25.37 8.73,10.5 14.14,20.28 16.22,29.11 2.18,8.84 3.22,33.17 3.22,72.99l0 130.27 -119.15 0 0 -164.17c0,-26.4 -2.08,-42.72 -6.24,-49.07 -4.06,-6.35 -14.86,-9.46 -32.44,-9.46l0 222.7 -128.5 0 0 -493.44zm128.5 84.22l0 109.79c14.35,0 24.34,-1.97 30.05,-5.93 5.72,-3.95 8.63,-16.84 8.63,-38.57l0 -27.13c0,-15.71 -2.8,-26 -8.32,-30.88 -5.51,-4.89 -15.7,-7.28 -30.36,-7.28zm207.42 -84.22l95.97 0c61.86,0 103.75,2.81 125.59,8.53 21.83,5.72 38.46,15.08 49.8,28.07 11.33,12.99 18.5,27.45 21.31,43.36 2.81,16 4.27,47.3 4.27,94.09l0 172.8c0,44.28 -2.09,73.91 -6.24,88.78 -4.16,14.97 -11.44,26.72 -21.74,35.15 -10.39,8.42 -23.18,14.24 -38.46,17.67 -15.18,3.32 -38.16,4.99 -68.83,4.99l-161.67 0 0 -493.44zm128.5 84.22l0 325c18.2,0 29.43,-3.74 33.58,-11.12 4.27,-7.48 6.35,-27.66 6.35,-60.61l0 -191.93c0,-22.36 -0.73,-36.7 -2.08,-43.05 -1.46,-6.34 -4.57,-10.91 -9.67,-13.82 -4.99,-3.02 -14.34,-4.47 -28.18,-4.47zm216.26 -84.22l213.97 0 0 98.56 -85.46 0 0 94.2 79.85 0 0 93.58 -79.85 0 0 108.53 94.19 0 0 98.57 -222.7 0 0 -493.44zm387.7 0l0 394.87 77.36 0 0 98.57 -205.86 0 0 -493.44 128.5 0zm237.26 0l0 493.44 -128.5 0 0 -493.44 128.5 0zm272.61 0l73.4 493.44 -131.1 0 -6.96 -88.58 -46.27 0 -6.96 88.58 -132.77 0 65.08 -493.44 185.58 0zm-68.1 317.52c-6.13,-55.93 -12.57,-125.17 -19.44,-207.83 -12.68,94.82 -20.69,164.06 -24.12,207.83l43.56 0zm337.16 -317.52l127.68 0c40.34,0 70.9,3.12 91.7,9.47 20.79,6.24 37.53,19.02 50.32,38.15 12.79,19.24 19.13,50.11 19.13,92.74 0,28.8 -4.47,48.87 -13.51,60.2 -9.05,11.43 -26.94,20.07 -53.55,26.2 29.74,6.76 49.9,17.88 60.51,33.37 10.61,15.6 15.91,39.4 15.91,71.63l0 45.76c0,33.37 -3.85,58.01 -11.44,74.12 -7.59,16.02 -19.65,27.03 -36.28,32.96 -16.64,5.93 -50.74,8.84 -102.31,8.84l-148.16 0 0 -493.44zm128.51 84.22l0 109.79c5.4,-0.21 9.56,-0.31 12.58,-0.31 12.27,0 20.17,-3.12 23.49,-9.25 3.44,-6.24 5.11,-24.03 5.11,-53.24 0,-15.49 -1.36,-26.31 -4.16,-32.54 -2.81,-6.13 -6.45,-10.09 -10.93,-11.75 -4.46,-1.56 -13.2,-2.5 -26.09,-2.7zm0 186.52l0 138.48c17.68,-0.62 29.01,-3.43 33.89,-8.52 4.89,-5.09 7.29,-17.67 7.29,-37.64l0 -46.16c0,-21.21 -2.19,-34 -6.55,-38.57 -4.37,-4.48 -15.91,-6.97 -34.63,-7.59zm437.29 -270.74l73.4 493.44 -131.1 0 -6.96 -88.58 -46.27 0 -6.96 88.58 -132.77 0 65.08 -493.44 185.58 0zm-68.1 317.52c-6.13,-55.93 -12.57,-125.17 -19.44,-207.83 -12.68,94.82 -20.69,164.06 -24.12,207.83l43.56 0zm163.55 -317.52l90.76 0c60.51,0 101.48,2.29 122.89,6.97 21.42,4.68 38.89,16.64 52.41,35.87 13.51,19.13 20.27,49.8 20.27,91.8 0,38.37 -4.78,64.16 -14.35,77.35 -9.46,13.21 -28.28,21.11 -56.35,23.71 25.37,6.34 42.52,14.77 51.26,25.37 8.73,10.5 14.13,20.28 16.22,29.11 2.18,8.84 3.22,33.17 3.22,72.99l0 130.27 -119.15 0 0 -164.17c0,-26.4 -2.08,-42.72 -6.24,-49.07 -4.06,-6.35 -14.86,-9.46 -32.44,-9.46l0 222.7 -128.5 0 0 -493.44zm128.5 84.22l0 109.79c14.35,0 24.34,-1.97 30.05,-5.93 5.72,-3.95 8.63,-16.84 8.63,-38.57l0 -27.13c0,-15.71 -2.8,-26 -8.32,-30.88 -5.51,-4.89 -15.7,-7.28 -30.36,-7.28zm207.42 -84.22l127.67 0c40.34,0 70.91,3.12 91.7,9.47 20.8,6.24 37.54,19.02 50.32,38.15 12.79,19.24 19.13,50.11 19.13,92.74 0,28.8 -4.46,48.87 -13.51,60.2 -9.04,11.43 -26.93,20.07 -53.55,26.2 29.74,6.76 49.91,17.88 60.51,33.37 10.61,15.6 15.91,39.4 15.91,71.63l0 45.76c0,33.37 -3.84,58.01 -11.43,74.12 -7.59,16.02 -19.65,27.03 -36.29,32.96 -16.63,5.93 -50.74,8.84 -102.31,8.84l-148.15 0 0 -493.44zm128.5 84.22l0 109.79c5.41,-0.21 9.57,-0.31 12.59,-0.31 12.26,0 20.16,-3.12 23.49,-9.25 3.43,-6.24 5.1,-24.03 5.1,-53.24 0,-15.49 -1.35,-26.31 -4.16,-32.54 -2.81,-6.13 -6.45,-10.09 -10.92,-11.75 -4.47,-1.56 -13.21,-2.5 -26.1,-2.7zm0 186.52l0 138.48c17.68,-0.62 29.01,-3.43 33.9,-8.52 4.88,-5.09 7.28,-17.67 7.28,-37.64l0 -46.16c0,-21.21 -2.19,-34 -6.55,-38.57 -4.37,-4.48 -15.91,-6.97 -34.63,-7.59zm437.3 -270.74l73.4 493.44 -131.1 0 -6.97 -88.58 -46.27 0 -6.96 88.58 -132.77 0 65.08 -493.44 185.59 0zm-68.1 317.52c-6.13,-55.93 -12.58,-125.17 -19.44,-207.83 -12.69,94.82 -20.7,164.06 -24.12,207.83l43.56 0zm163.54 -317.52l90.77 0c60.51,0 101.47,2.29 122.88,6.97 21.43,4.68 38.89,16.64 52.41,35.87 13.51,19.13 20.27,49.8 20.27,91.8 0,38.37 -4.78,64.16 -14.35,77.35 -9.46,13.21 -28.28,21.11 -56.35,23.71 25.37,6.34 42.53,14.77 51.26,25.37 8.73,10.5 14.14,20.28 16.22,29.11 2.18,8.84 3.22,33.17 3.22,72.99l0 130.27 -119.15 0 0 -164.17c0,-26.4 -2.08,-42.72 -6.24,-49.07 -4.05,-6.35 -14.86,-9.46 -32.44,-9.46l0 222.7 -128.5 0 0 -493.44zm128.5 84.22l0 109.79c14.35,0 24.34,-1.97 30.05,-5.93 5.73,-3.95 8.63,-16.84 8.63,-38.57l0 -27.13c0,-15.71 -2.8,-26 -8.31,-30.88 -5.52,-4.89 -15.7,-7.28 -30.37,-7.28zm428.77 -84.22l73.4 493.44 -131.1 0 -6.96 -88.58 -46.28 0 -6.96 88.58 -132.77 0 65.08 -493.44 185.59 0zm-68.1 317.52c-6.13,-55.93 -12.58,-125.17 -19.44,-207.83 -12.69,94.82 -20.69,164.06 -24.12,207.83l43.56 0zm-2153.97 -75.11l-21.89 181.62c-3.49,28.8 -6.39,48.42 -8.71,58.88 -2.33,10.47 -6.2,19.11 -11.63,25.9 -5.35,6.84 -12.91,11.81 -22.53,15.04 -9.62,3.22 -25.05,4.84 -46.16,4.84l-46.3 0 0 -40.28c11.88,0 19.5,-0.59 22.86,-1.82 3.42,-1.16 5.17,-3.87 5.17,-8 0,-2.06 -1.62,-10.79 -4.78,-26.28l-41.84 -209.9 69.28 0 25.05 169.74 12.33 -169.74 69.15 0z"/>
  <path class="fil0" d="M8529.05 4975.37l0 623.45 122.13 0 0 155.61 -325.02 0 0 -779.06 202.89 0zm545.64 0l115.9 779.06 -207 0 -11 -139.86 -73.05 0 -10.99 139.86 -209.63 0 102.76 -779.06 293.01 0zm-107.52 501.32c-9.69,-88.31 -19.86,-197.64 -30.69,-328.14 -20.03,149.7 -32.67,259.03 -38.09,328.14l68.78 0zm686.65 -264.94l-188.12 0 0 -57.62c0,-26.92 -2.46,-44.16 -7.22,-51.54 -4.76,-7.39 -12.64,-11 -23.8,-11 -12.15,0 -21.34,4.92 -27.58,14.93 -6.24,9.85 -9.35,24.8 -9.35,44.98 0,25.94 3.6,45.47 10.66,58.61 6.9,12.97 25.94,28.88 57.29,47.6 89.79,53.68 146.43,97.83 169.74,132.14 23.47,34.31 35.12,89.63 35.12,165.8 0,55.48 -6.56,96.35 -19.53,122.78 -12.97,26.27 -37.92,48.26 -75.18,65.99 -37.1,17.89 -80.27,26.76 -129.68,26.76 -54.17,0 -100.3,-10.34 -138.71,-30.86 -38.25,-20.52 -63.2,-46.62 -75.18,-78.3 -11.82,-31.85 -17.73,-76.99 -17.73,-135.27l0 -51.05 188.12 0 0 94.72c0,29.22 2.62,47.93 7.87,56.3 5.26,8.37 14.62,12.48 28.08,12.48 13.46,0 23.47,-5.26 30.03,-15.92 6.58,-10.51 9.86,-26.27 9.86,-46.95 0,-45.8 -6.24,-75.84 -18.72,-89.79 -12.96,-14.12 -44.48,-37.76 -94.71,-70.92 -50.23,-33.32 -83.39,-57.61 -99.81,-72.72 -16.25,-15.1 -29.87,-35.94 -40.54,-62.54 -10.67,-26.59 -16.09,-60.57 -16.09,-101.93 0,-59.59 7.55,-103.25 22.82,-130.83 15.27,-27.58 39.72,-49.09 73.7,-64.68 33.98,-15.6 74.85,-23.31 122.95,-23.31 52.53,0 97.18,8.54 134.28,25.44 36.93,17.07 61.39,38.41 73.37,64.35 11.99,25.78 18.06,69.6 18.06,131.48l0 30.87zm254.6 -236.38l151.51 0c97.67,0 163.82,4.43 198.3,13.46 34.47,9.03 60.74,23.8 78.62,44.32 17.9,20.52 29.23,43.34 33.66,68.45 4.43,25.28 6.73,74.69 6.73,148.56l0 272.82c0,69.93 -3.28,116.71 -9.85,140.19 -6.56,23.63 -18.06,42.18 -34.31,55.48 -16.42,13.29 -36.6,22.49 -60.74,27.91 -23.96,5.25 -60.24,7.87 -108.66,7.87l-255.26 0 0 -779.06zm202.89 132.96l0 513.14c28.72,0 46.46,-5.91 53.02,-17.56 6.73,-11.83 10.02,-43.67 10.02,-95.71l0 -303.02c0,-35.29 -1.15,-57.95 -3.29,-67.96 -2.3,-10.01 -7.22,-17.23 -15.26,-21.83 -7.88,-4.76 -22.66,-7.06 -44.49,-7.06zm801.39 -132.96l0 520.85c0,59.09 -1.97,100.63 -5.75,124.43 -3.94,23.97 -15.26,48.59 -34.14,73.7 -18.88,25.28 -43.83,44.33 -74.69,57.3 -31.02,12.96 -67.47,19.53 -109.49,19.53 -46.45,0 -87.49,-7.72 -122.95,-23.15 -35.62,-15.43 -62.21,-35.46 -79.78,-60.08 -17.73,-24.78 -28.07,-50.89 -31.35,-78.3 -3.12,-27.41 -4.76,-85.19 -4.76,-173.01l0 -461.27 202.89 0 0 584.38c0,33.98 1.81,55.81 5.42,65.17 3.61,9.52 11,14.28 22,14.28 12.47,0 20.68,-5.26 24.29,-15.6 3.61,-10.5 5.42,-35.12 5.42,-73.86l0 -574.37 202.89 0zm78.63 0l143.3 0c95.54,0 160.21,3.61 194.03,11 33.82,7.38 61.39,26.26 82.73,56.63 21.34,30.21 32.01,78.63 32.01,144.94 0,60.58 -7.55,101.29 -22.65,122.14 -14.94,20.84 -44.65,33.32 -88.97,37.42 40.05,10.01 67.13,23.31 80.92,40.06 13.79,16.57 22.33,32 25.61,45.96 3.45,13.95 5.09,52.36 5.09,115.23l0 205.68 -188.11 0 0 -259.19c0,-41.7 -3.29,-67.47 -9.86,-77.48 -6.4,-10.01 -23.47,-14.94 -51.21,-14.94l0 351.61 -202.89 0 0 -779.06zm202.89 132.96l0 173.35c22.65,0 38.41,-3.12 47.43,-9.36 9.03,-6.24 13.64,-26.59 13.64,-60.9l0 -42.85c0,-24.78 -4.44,-41.03 -13.14,-48.75 -8.7,-7.71 -24.79,-11.49 -47.93,-11.49zm676.96 -132.96l115.9 779.06 -207 0 -11 -139.86 -73.05 0 -10.99 139.86 -209.63 0 102.76 -779.06 293.01 0zm-107.52 501.32c-9.68,-88.31 -19.86,-197.64 -30.69,-328.14 -20.03,149.7 -32.67,259.03 -38.09,328.14l68.78 0zm710.29 -501.32l0 779.06 -177.29 0 -105.38 -354.24 0 354.24 -169.4 0 0 -779.06 169.4 0 113.27 350.79 0 -350.79 169.4 0zm545.15 287.6l-202.89 0 0 -70.76c0,-44.64 -1.81,-72.56 -5.59,-83.72 -3.77,-11.32 -12.8,-16.9 -26.91,-16.9 -12.15,0 -20.52,4.76 -24.96,14.44 -4.43,9.52 -6.56,34.31 -6.56,74.03l0 373.62c0,34.8 2.13,57.94 6.56,68.94 4.44,11 13.13,16.58 26.27,16.58 14.44,0 24.13,-6.24 29.38,-18.72 5.09,-12.47 7.71,-36.93 7.71,-73.21l0 -92.25 -39.39 0 0 -118.19 236.38 0 0 417.6 -127.55 0 -18.71 -55.8c-13.79,24.12 -31.19,42.18 -52.04,54.33 -21.01,12.15 -45.8,18.22 -74.2,18.22 -33.98,0 -65.66,-8.21 -95.37,-24.79 -29.54,-16.58 -52.03,-36.94 -67.3,-61.4 -15.43,-24.29 -24.95,-49.9 -28.89,-76.65 -3.78,-26.76 -5.75,-66.97 -5.75,-120.49l0 -231.46c0,-74.36 3.95,-128.36 11.99,-162.01 8.04,-33.82 31.02,-64.68 68.94,-92.75 37.92,-28.07 87,-42.02 147.25,-42.02 59.26,0 108.34,12.14 147.4,36.6 39.07,24.46 64.68,53.36 76.5,86.84 11.82,33.65 17.73,82.24 17.73,146.26l0 33.66zm541.04 169.07c0,78.3 -1.81,133.62 -5.58,166.12 -3.61,32.66 -15.1,62.38 -34.47,89.3 -19.37,26.92 -45.64,47.6 -78.63,62.05 -33,14.45 -71.41,21.67 -115.24,21.67 -41.69,0 -78.95,-6.9 -112.11,-20.52 -33.16,-13.63 -59.92,-33.98 -79.95,-61.23 -20.18,-27.25 -32.17,-56.96 -36.11,-88.97 -3.78,-32.17 -5.75,-88.31 -5.75,-168.42l0 -133.29c0,-78.3 1.81,-133.62 5.59,-166.12 3.61,-32.67 15.1,-62.38 34.47,-89.3 19.37,-26.92 45.63,-47.61 78.63,-62.05 32.99,-14.45 71.41,-21.67 115.23,-21.67 41.7,0 78.96,6.89 112.12,20.52 33.16,13.62 59.91,33.98 79.94,61.23 20.19,27.24 32.17,56.95 36.11,88.97 3.78,32.17 5.75,88.31 5.75,168.42l0 133.29zm-202.89 -255.91c0,-36.12 -1.97,-59.26 -5.91,-69.44 -3.94,-10.01 -11.99,-15.1 -24.13,-15.1 -10.35,0 -18.22,4.1 -23.81,12.31 -5.41,8.05 -8.2,32.17 -8.2,72.23l0 363.59c0,45.14 1.81,73.05 5.42,83.56 3.61,10.66 11.98,15.92 25.11,15.92 13.46,0 22.16,-6.07 25.94,-18.22 3.77,-12.15 5.58,-41.21 5.58,-87.01l0 -357.84z"/>
  <path class="fil1 str0" d="M780.56 16803.72l117.52 0c54.25,0 98.44,28.4 132.44,85.18 11.2,22.17 16.8,45.21 16.8,69.16l0 5.6c0,53.22 -25.71,96.89 -77.16,131.02l-3.7 1.91c82.4,142.75 123.53,216.73 123.53,221.95l0 7c0,20.25 -12.48,32.47 -37.31,36.67l-2.3 0c-18.08,0 -35.53,-18.08 -52.08,-54.11l-112.18 -191.9 -62.64 0 0 209.46c0,20.13 -12.49,32.35 -37.45,36.55l-2.28 0c-20.77,0 -33.49,-12.86 -38.21,-38.45l0 -478.15c2.93,-27.89 14.64,-41.89 35.02,-41.89zm42.92 76.4l0 158.92 68.88 0c38.71,0 64.3,-21.01 76.66,-63.16l1.14 -10.18 0 -10.45c0,-30.68 -17.32,-54.12 -52.08,-70.29 -9.68,-3.18 -25.72,-4.84 -48.13,-4.84l-46.47 0zm320.75 -74.87l6.74 0c23.56,4.97 35.41,16.17 35.41,33.62l0 300.64c0,60.48 16.8,100.59 50.29,120.58 21.39,16.68 45.08,24.96 71.18,24.96 50.17,0 88.12,-25.85 113.71,-77.55 5.22,-16.17 7.77,-33.24 7.77,-51.19l0 -314.52c4.2,-24.31 16.42,-36.54 36.54,-36.54l5.22 0c23.56,4.45 35.4,16.68 35.4,36.54l0 328.65c0,59.73 -28.27,111.55 -84.93,155.61 -36.03,24.06 -72.58,36.16 -109.63,36.16l-9.68 0c-62.14,0 -116.01,-30.31 -161.72,-91.04 -20.88,-32.85 -31.32,-72.96 -31.32,-120.46l0 -304.08c2.93,-27.63 14.65,-41.38 35.02,-41.38zm757.51 406.2l0 -370.04c4.46,-23.55 16.68,-35.39 36.55,-35.39l4.07 0c20.12,0 32.35,12.22 36.55,36.54l0 480.44c0,21.64 -13.24,34.75 -39.86,39.21 -15.15,0 -34.89,-17.95 -58.96,-53.73l-273.26 -349.16 0 364.82c0,20.12 -12.48,32.35 -37.31,36.55l-1.78 0c-20.63,0 -33.36,-12.74 -38.07,-38.07l0 -475.23c2.92,-27.63 14.64,-41.37 35.15,-41.37l5.6 0c16.55,0 30.05,10.94 40.23,32.85 13.12,14.9 110.15,139.17 291.09,372.58zm423.65 -231.12l-104.43 363.16c-10.18,12.48 -21.13,18.72 -32.85,18.72l-5.6 0c-21.9,0 -36.03,-20.75 -42.53,-62.39 -80.6,-274.92 -124.4,-427.72 -131.66,-458.03 5.73,-25.33 17.57,-38.07 35.39,-38.07l6 0c22.15,0 36.03,17.06 41.76,51.19l94.74 330.31c67.22,-236.21 103.52,-358.7 108.99,-367.74 8.92,-9.18 18.47,-13.76 28.79,-13.76l4.06 0c23.05,0 37.57,19.74 43.3,59.34 6.11,17.19 37.31,124.28 93.21,321.4l105.18 -362.02c9.68,-12.48 19.6,-18.72 29.92,-18.72l6.62 0c23.69,4.96 35.53,16.18 35.53,33.62l0 8.53 -144.4 499.92c-11.2,10.94 -21.9,16.42 -32.08,16.42l-1.54 0c-24.07,0 -39.09,-20.37 -45.07,-61.24 -48,-163.25 -79.07,-270.21 -93.33,-320.64zm539.76 93.08l-45.07 -118.29 -43.67 118.29 88.74 0zm-45.83 -266.63c23.04,0 39.34,19.86 48.89,59.72 112.82,294.4 169.99,445.8 171.13,454.32l0 4.84c0,20.13 -12.09,32.35 -36.53,36.55l-2.56 0c-22.41,0 -37.69,-18.59 -45.97,-55.64l-59.96 -155.99 -148.48 0 -75.38 198.9c-11.2,8.53 -20.88,12.73 -29.16,12.73l-4.07 0c-24.33,-4.46 -36.55,-17.06 -36.55,-37.69l0 -3.44 48.51 -131.28c83.28,-217.1 128.74,-338.07 136.12,-363.28 11.97,-13.12 23.31,-19.74 34.01,-19.74zm358.7 209.59c87.86,-132.05 134.21,-199.79 138.92,-203.35 7,-5.22 13.5,-7.77 19.49,-7.77l8.52 0c17.2,0 28.91,12.23 35.03,36.54 0,11.46 -16.69,40.11 -50.31,85.82l-112.3 167.83 0 225.38c-3.19,27.64 -15.03,41.39 -35.28,41.39l-5.98 0c-17.95,0 -30.18,-10.7 -36.67,-32.09l0 -233.53c0,-1.27 -19.11,-30.3 -57.43,-87.22l-101.86 -153.44 -2.3 -12.99c5.72,-25.08 17.57,-37.69 35.53,-37.69l5.98 0c17.06,0 30.17,10.95 39.09,32.85l119.57 178.27z"/>
 </g>
</svg>
