<?xml version="1.0" encoding="UTF-8"?>
<!DOCTYPE svg PUBLIC "-//W3C//DTD SVG 1.1//EN" "http://www.w3.org/Graphics/SVG/1.1/DTD/svg11.dtd">
<!-- Creator: CorelDRAW 2017 -->
<svg xmlns="http://www.w3.org/2000/svg" xml:space="preserve" width="49.6992mm" height="62.3146mm" version="1.1" style="shape-rendering:geometricPrecision; text-rendering:geometricPrecision; image-rendering:optimizeQuality; fill-rule:evenodd; clip-rule:evenodd"
viewBox="0 0 4969.92 6231.46"
 xmlns:xlink="http://www.w3.org/1999/xlink">
 <defs>
  <style type="text/css">
   <![CDATA[
    .str1 {stroke:#FEFEFE;stroke-width:40.03;stroke-linecap:round;stroke-linejoin:round;stroke-miterlimit:22.9256}
    .str0 {stroke:#FEFEFE;stroke-width:43.11;stroke-linecap:round;stroke-linejoin:round;stroke-miterlimit:22.9256}
    .fil0 {fill:none}
    .fil5 {fill:none;fill-rule:nonzero}
    .fil4 {fill:#2576AD}
    .fil3 {fill:#FEFEFE;fill-rule:nonzero}
    .fil2 {fill:#FEFEFE;fill-rule:nonzero}
    .fil1 {fill:#EBECEC;fill-rule:nonzero}
    .fil6 {fill:#2576AD;fill-rule:nonzero}
    .fil8 {fill:#FEFEFE;fill-rule:nonzero;fill-opacity:0.890196}
    .fil7 {fill:#2B2A29;fill-rule:nonzero;fill-opacity:0.890196}
   ]]>
  </style>
   <clipPath id="id0">
    <rect x="133.11" y="55.44" width="4671.59" height="6120.56"/>
   </clipPath>
    <clipPath id="id1">
     <path d="M1937.12 3501.65l2899.71 0 0 2284.98 -2899.71 0 0 -2284.98z"/>
    </clipPath>
    <clipPath id="id2">
     <path d="M351.67 5143.66l1127.23 0 0 837.18 -1127.23 0 0 -837.18z"/>
    </clipPath>
    <clipPath id="id3">
     <path d="M3327.75 1726.2l1407 0 0 884.7 -1407 0 0 -884.7z"/>
    </clipPath>
 </defs>
 <g id="Capa_x0020_1">
  <metadata id="CorelCorpID_0Corel-Layer"/>
  <rect class="fil0" x="-0.01" y="-0" width="4969.93" height="6231.47"/>
  <g style="clip-path:url(#id0)">
   <image x="133.11" y="55.45" width="4671.58" height="6120.55" xlink:href="14996-yume-hime-y-sus-bellos-seres-de-luz-09bcb558-63a9-4bb7-95cc-967d570f9aca_Images\14996-yume-hime-y-sus-bellos-seres-de-luz-09bcb558-63a9-4bb7-95cc-967d570f9aca_ImgID1.png"/>
  </g>
  <path class="fil1" d="M1117.47 666.74c1.52,126.14 -41.48,233.06 -129,320.96 -87.52,87.71 -194.82,132.04 -321.91,132.8l-283.1 2.28 0 -906.38 280.82 0c125.56,0 232.11,43.76 319.63,131.09 87.51,87.52 132.03,193.87 133.56,319.25zm-154.11 1.14c-0.76,-83.52 -29.87,-153.92 -87.33,-211.37 -57.46,-57.27 -128.04,-86 -211.75,-86l-126.72 0 0 595.88 127.86 0c83.71,-0.76 154.49,-29.87 212.32,-87.13 57.84,-57.46 86.38,-127.86 85.62,-211.38zm472.03 12.75c-41.86,0 -77.63,14.65 -107.31,43.95 -29.68,29.3 -44.52,64.68 -44.52,106.54l0 288.24 -154.1 0 0 -288.24c0,-85.04 29.68,-156.96 89.04,-215.94 59.36,-58.79 131.65,-88.28 216.89,-88.28l0 153.73zm699.2 438.73l-163.81 0 -32.35 -89.04c-60.88,71.54 -138.5,107.3 -233.06,107.3 -85.24,0 -157.34,-29.68 -216.32,-89.04 -58.98,-59.36 -88.47,-131.27 -88.47,-215.75 0,-64.68 18.26,-123.09 54.79,-175.22 36.53,-52.13 85.24,-89.23 146.12,-111.3 35.77,-12.94 70.77,-19.41 105.02,-19.41 64.69,0 123.1,18.46 175.23,55.37 52.13,36.91 89.23,85.8 111.3,146.68l141.55 390.41zm-277.4 -287.1c0,-53.46 -21.69,-95.13 -65.06,-124.81 -25.12,-17.69 -54.04,-26.44 -86.76,-26.44 -53.27,0 -94.37,21.31 -123.29,64.12 -18.26,26.82 -27.39,55.74 -27.39,87.13 0,52.7 21.68,93.99 65.06,123.67 26.64,18.45 55.18,27.59 85.62,27.59 41.86,0 77.62,-14.65 107.3,-44.14 29.68,-29.3 44.52,-65.07 44.52,-107.12zm856.73 438.92c0,109.59 -44.9,194.07 -134.7,253.43 -51.75,34.24 -108.45,51.37 -170.09,51.37 -108.07,0 -192.54,-45.29 -253.42,-135.85 -35.01,-52.51 -52.51,-108.82 -52.51,-168.95 0,-39.57 7.61,-77.62 22.83,-114.15l142.69 57.08c-7.61,18.26 -11.41,37.29 -11.41,57.07 0,41.86 14.84,77.44 44.52,106.74 29.68,29.3 65.44,43.95 107.3,43.95 41.1,0 76.48,-14.84 106.16,-44.71 29.68,-29.87 44.52,-65.26 44.52,-106.55 0,-67.16 -31.58,-114.15 -94.55,-140.98 -19.03,4.57 -37.86,6.85 -56.89,6.85 -85.81,0 -158.1,-29.49 -216.89,-88.47 -58.79,-58.98 -88.28,-131.46 -88.28,-217.46 0,-85.23 29.49,-157.34 88.66,-216.32 59.17,-58.98 131.27,-88.47 216.13,-88.47l89.04 -211.19 121.95 51.75 -81.05 189.12c53.66,25.87 96.46,63.54 128.24,113.01 31.77,49.47 47.75,103.5 47.75,162.1 0,86.76 -31.58,159.82 -94.75,219.18 63.17,60.12 94.75,133.94 94.75,221.45zm-154.11 -440.63c0,-41.1 -14.84,-76.48 -44.52,-106.16 -29.68,-29.68 -65.06,-44.52 -106.16,-44.52 -41.86,0 -77.62,14.65 -107.3,43.95 -29.68,29.3 -44.52,64.87 -44.52,106.73 0,41.86 14.84,77.63 44.52,107.31 29.68,29.68 65.44,44.52 107.3,44.52 41.86,0 77.43,-14.84 106.73,-44.52 29.3,-29.68 43.95,-65.45 43.95,-107.31zm645.54 -303.65l-281.96 592.46 -285.38 -592.46 182.65 0 103.88 243.15 103.88 -243.15 176.93 0zm535.96 303.84c0,15.03 -1.14,30.25 -3.42,45.47l-446.35 0c9.9,31.97 28.16,57.65 54.8,77.06 26.63,19.4 56.69,29.11 90.18,29.11 46.42,0 84.85,-17.89 115.29,-53.66l93.61 124.43c-58.6,55.56 -128.23,83.33 -208.9,83.33 -86,0 -158.48,-29.49 -217.46,-88.28 -58.98,-58.98 -88.47,-131.27 -88.47,-217.08 0,-85.04 29.68,-156.96 89.04,-215.94 59.36,-58.79 131.65,-88.28 216.89,-88.28 85.23,0 157.34,29.3 216.32,88.09 58.98,58.79 88.47,130.71 88.47,215.75zm-172.37 -69.82c-28.16,-53.28 -72.3,-79.91 -132.42,-79.91 -60.88,0 -105.4,26.63 -133.56,79.91l265.98 0zm603.3 183.4c0,36.53 -12.17,69.64 -36.53,99.51 -48.7,59.55 -117.96,88.09 -207.76,85.8 -35.77,-0.76 -74.77,-8.75 -117.01,-23.97 -42.23,-15.22 -76.67,-34.24 -103.31,-57.08l85.62 -110.72c41.1,38.81 84.85,58.21 131.28,58.21l3.42 0c19.03,0 36.15,-3.42 51.37,-10.27 19.79,-9.13 29.68,-22.07 29.68,-38.81l0 -4.57c-2.28,-17.5 -14.08,-30.06 -35.39,-37.67 -8.37,-1.52 -26.25,-4.95 -53.65,-10.27 -34.25,-6.85 -63.16,-15.22 -86.76,-25.12 -69.25,-29.68 -103.88,-81.81 -103.88,-156.39 0,-71.53 35.39,-125.19 106.17,-160.96 31.2,-15.98 65.06,-24.35 101.59,-25.11 38.06,-0.76 77.63,5.71 118.72,19.41 47.19,15.98 80.67,36.91 100.46,62.78l-102.74 92.47c-26.63,-27.4 -55.55,-41.1 -86.76,-41.1 -48.7,0 -73.05,15.98 -73.05,48.14l0 2.28c0,15.22 19.78,28.16 59.36,38.81 3.04,0.76 28.15,5.71 75.34,14.84 95.89,18.46 143.83,77.06 143.83,176.37l0 3.42zm273.4 175.04c-85.24,0 -157.53,-29.49 -216.89,-88.28 -59.36,-58.98 -89.04,-131.09 -89.04,-216.13l0 -598.55 154.1 0 0 310.5 151.83 0 0 131.28 -151.83 0 0 156.39c0,41.86 14.84,77.43 44.52,106.73 29.68,29.3 65.45,43.95 107.31,43.95l0 154.11zm132.99 -723.74c0,25.88 -8.75,47.76 -26.25,65.64 -17.51,17.89 -39.2,26.83 -65.07,26.83 -25.88,0 -47.75,-8.94 -65.64,-26.83 -17.88,-17.88 -26.83,-39.76 -26.83,-65.64 0,-25.87 8.95,-47.56 26.83,-65.06 17.89,-17.51 39.76,-26.26 65.64,-26.26 25.11,0 46.61,8.94 64.5,26.83 17.88,17.88 26.82,39.38 26.82,64.49zm-13.7 723.74l-154.1 0 0 -592.46 154.1 0 0 592.46z"/>
  <path class="fil2" d="M1184.5 284.03l2.29 0c6.91,1.4 10.4,4.47 10.4,9.15l0 185.92 12.02 0c4.99,0 8.27,3.69 9.78,11.03l0 0.41c-1.2,7.34 -4.89,11.03 -10.98,11.03l-22.26 0c-5.93,0 -9.63,-3.8 -11.03,-11.44l0 -193.62c0.93,-8.32 4.16,-12.48 9.78,-12.48zm119.45 61.8c29.39,0 52.69,14.41 69.86,43.22 5.25,11.71 7.91,23.83 7.91,36.42l0 65.9c0,5.57 -3.59,9 -10.77,10.2l-0.62 0c-4.84,0 -8.43,-2.86 -10.77,-8.53l0 -0.63 0.62 -14.14 0 -0.63c-16.75,15.97 -34.8,23.93 -54.1,23.93l-4.42 0c-26.37,0 -48.43,-13.26 -66.06,-39.74 -6.4,-12.8 -9.63,-25.65 -9.63,-38.65 0,-28.92 14.21,-51.86 42.61,-68.82 12.12,-5.67 23.87,-8.53 35.37,-8.53zm-55.82 76.72l0 1.67c0,22.68 11.4,39.74 34.13,51.24 7.23,2.65 13.68,3.95 19.4,3.95l4.37 0c18.94,0 34.54,-9.47 46.82,-28.35 4.47,-8.95 6.71,-17.48 6.71,-25.59l0 -2.29c0,-21.85 -10.77,-38.6 -32.31,-50.15 -7.54,-3.38 -15.29,-5.04 -23.3,-5.04l-0.62 0c-23,0 -40.27,11.96 -51.81,35.84 -2.24,7.38 -3.39,13.63 -3.39,18.72zm240.45 -78.28c7.33,1.82 11.02,5.09 11.02,9.78l0 12.69c16.75,-14.98 34.7,-22.47 53.79,-22.47 10.25,0 21.17,2.49 32.77,7.49 3.07,3.17 4.58,6.24 4.58,9.2l0 0.58c-1.25,7.23 -4.84,10.87 -10.82,10.87l-0.62 0c-10.46,-3.38 -18.32,-5.05 -23.62,-5.05l-3.33 0c-22.47,0 -38.91,11.65 -49.42,34.91 -2.23,6.24 -3.33,13.26 -3.33,21.22l0 67.73c0,5.67 -3.69,9.15 -11.02,10.35l-0.58 0c-5.82,0 -9.46,-3.8 -10.87,-11.44l0 -132.6c0.94,-8.84 4.73,-13.26 11.45,-13.26zm179.89 0.93c30.07,0 53.42,14.31 70.12,42.87 5.67,11.18 8.53,23.3 8.53,36.41l0 2.91c-1.35,7.65 -4.94,11.45 -10.82,11.45l-120.26 0c4.47,15.19 14.15,26.84 28.97,34.9 8.74,3.38 16.91,5.05 24.5,5.05 8.84,0 18.99,-2.87 30.33,-8.54l3.38 0c6.81,1.31 10.2,4.79 10.2,10.36l0 1.66c0,9.31 -13.69,15.76 -41,19.3l-3.95 0c-28.04,0 -50.51,-13.11 -67.36,-39.38 -6.82,-12.38 -10.2,-25.33 -10.2,-38.91 0,-28.56 13.47,-51.34 40.52,-68.3 13.11,-6.5 25.44,-9.78 37.04,-9.78zm-54.25 71.48l109.55 0c0,-7.86 -4.58,-17.95 -13.68,-30.38 -12.54,-11.81 -24.87,-17.69 -37.04,-17.69l-6.24 0c-18.31,0 -33.35,8.95 -45.16,26.84 -4.05,7.13 -6.55,14.2 -7.43,21.23zm146.54 -71.79l1.1 0c5.98,0 11.18,6.29 15.55,18.88l49.05 100.66c35.58,-75.32 54.47,-114.23 56.7,-116.63 2.66,-1.92 5.1,-2.91 7.44,-2.91 7.65,1.41 11.45,5.05 11.45,10.82l0 0.62c0,1.93 -8.38,20.24 -25.13,54.94l-42.39 86.81c-3.02,2.35 -5.73,3.49 -8.07,3.49l-0.47 0c-6.5,0 -12.22,-7.28 -17.21,-21.8 -36.88,-75.32 -56.34,-115.89 -58.37,-121.77l0 -2.76c1.3,-6.92 4.79,-10.35 10.35,-10.35zm167.36 -39.33c7.33,1.83 11.03,5.1 11.03,9.73l0 3.38c0,5.36 -4.01,8.64 -12.07,9.73 -5.2,0 -8.69,-3.8 -10.4,-11.39 1.5,-7.65 5.35,-11.45 11.44,-11.45zm0 39.02c7.33,1.87 11.03,5.1 11.03,9.78l0 136.86c0,5.67 -3.7,9.15 -11.03,10.35l-0.57 0c-5.83,0 -9.47,-3.8 -10.87,-11.44l0 -132.44c0.93,-8.74 4.73,-13.11 11.44,-13.11zm89.07 1.87c26.12,0 46.61,11.86 61.54,35.58l0.47 4.42 0 0.63c0,5.98 -3.75,9.57 -11.29,10.66 -4.94,0 -10.04,-4.32 -15.24,-12.95 -10.46,-10.14 -22.27,-15.24 -35.48,-15.24 -17.37,0 -31.11,8.27 -41.14,24.86l-0.47 2.86c0,5 5.62,8.01 16.9,9 43.28,10.51 66.95,16.49 71.01,18 10.87,7.13 16.33,16.18 16.33,27.15l0 0.47c0,15.61 -11.49,29.97 -34.43,42.97 -9.89,4.47 -20.4,6.71 -31.58,6.71 -22.84,0 -42.19,-10.72 -58.05,-32.1 -1.51,-2.23 -2.29,-4.31 -2.29,-6.24l0 -3.33c0,-5.51 4.16,-8.68 12.48,-9.62 3.59,0 8.64,4.73 15.25,14.15 10.09,9.36 21.69,14.04 34.9,14.04 15.87,0 29.03,-7.54 39.48,-22.57l1.09 -3.38 0 -0.63c0,-4.84 -3.38,-7.64 -10.09,-8.37 -50.51,-11.29 -77.19,-18.26 -80.16,-20.91 -9.36,-7.13 -13.99,-15.77 -13.99,-25.96 0,-14.25 10.3,-27.99 30.9,-41.2 11.39,-5.98 22.68,-9 33.86,-9zm103.43 -56.8l2.13 0c6.71,1.4 10.09,4.42 10.09,9l0 50.3 22.99 0 5.05 -0.63c5.2,0 8.69,3.8 10.51,11.29 0,5.1 -3.12,8.85 -9.42,11.19l-8.43 -0.63 -20.7 0 0 82.14c0,14.36 4.68,23.15 14.05,26.37l12.79 1.09 6.24 0c4.84,0 8.02,3.54 9.42,10.67l0 0.47c-1.2,7.12 -4.73,10.66 -10.66,10.66l-11.71 0c-17.79,0 -31,-9.73 -39.69,-29.13 -1.51,-4.79 -2.29,-10.35 -2.29,-16.75l0 -85.52 -11.13 0 -9 0.63c-6.29,-2.24 -9.41,-5.99 -9.41,-11.14 1.19,-7.12 4.57,-10.71 10.04,-10.71l0 -0.63 5.61 0.63 13.89 0 0 -46.97c0.94,-8.22 4.11,-12.33 9.63,-12.33zm133.28 56.18c29.39,0 52.69,14.41 69.86,43.22 5.25,11.71 7.91,23.83 7.91,36.42l0 65.9c0,5.57 -3.59,9 -10.77,10.2l-0.62 0c-4.84,0 -8.43,-2.86 -10.77,-8.53l0 -0.63 0.62 -14.14 0 -0.63c-16.75,15.97 -34.8,23.93 -54.1,23.93l-4.42 0c-26.37,0 -48.43,-13.26 -66.06,-39.74 -6.4,-12.8 -9.63,-25.65 -9.63,-38.65 0,-28.92 14.21,-51.86 42.61,-68.82 12.12,-5.67 23.87,-8.53 35.37,-8.53zm-55.82 76.72l0 1.67c0,22.68 11.4,39.74 34.13,51.24 7.23,2.65 13.68,3.95 19.4,3.95l4.37 0c18.94,0 34.54,-9.47 46.82,-28.35 4.47,-8.95 6.71,-17.48 6.71,-25.59l0 -2.29c0,-21.85 -10.77,-38.6 -32.31,-50.15 -7.54,-3.38 -15.29,-5.04 -23.3,-5.04l-0.62 0c-23,0 -40.27,11.96 -51.81,35.84 -2.24,7.38 -3.39,13.63 -3.39,18.72z"/>
  <g id="_2735346447664">
   <g style="clip-path:url(#id1)">
    <image x="1937.12" y="3501.65" width="2899.71" height="2284.98" xlink:href="14996-yume-hime-y-sus-bellos-seres-de-luz-09bcb558-63a9-4bb7-95cc-967d570f9aca_Images\14996-yume-hime-y-sus-bellos-seres-de-luz-09bcb558-63a9-4bb7-95cc-967d570f9aca_ImgID2.png"/>
   </g>
  </g>
  <path class="fil3" d="M2698.17 3692.07l-176.49 593.78 0 336.89 -223.55 0 0 -336.89 -170.6 -593.78 222.18 0c34.31,182.18 54.12,304.54 59.02,367.29 13.92,-99.22 36.28,-221.59 67.46,-367.29l221.98 0zm590.83 0l0 622.21c0,70.6 -2.36,120.21 -6.87,148.64 -4.7,28.63 -18.23,58.05 -40.78,88.05 -22.55,30.2 -52.36,52.94 -89.23,68.44 -37.06,15.49 -80.59,23.33 -130.79,23.33 -55.5,0 -104.52,-9.21 -146.88,-27.65 -42.55,-18.43 -74.32,-42.35 -95.3,-71.77 -21.18,-29.61 -33.53,-60.79 -37.45,-93.54 -3.73,-32.74 -5.69,-101.77 -5.69,-206.68l0 -551.03 242.37 0 0 698.1c0,40.59 2.16,66.67 6.47,77.85 4.32,11.37 13.14,17.06 26.28,17.06 14.9,0 24.71,-6.27 29.02,-18.63 4.32,-12.55 6.47,-41.96 6.47,-88.24l0 -686.14 242.38 0zm839.87 0l0 930.67 -211.78 0 -0.59 -628.29 -84.12 628.29 -148.25 0 -88.83 -614.17 -0.59 614.17 -211.78 0 0 -930.67 312.77 0c8.83,56.28 18.43,122.56 28.83,198.26l34.31 236.29 55.11 -434.55 314.92 0zm97.46 0l403.56 0 0 185.9 -161.19 0 0 177.66 150.6 0 0 176.49 -150.6 0 0 204.72 177.66 0 0 185.9 -420.03 0 0 -930.67zm-1488.16 973.46l0 930.67 -242.37 0 0 -390.62 -70.6 0 0 390.62 -242.37 0 0 -930.67 242.37 0 0 332.97 70.6 0 0 -332.97 242.37 0zm409.5 0l0 930.67 -242.37 0 0 -930.67 242.37 0zm911.9 0l0 930.67 -211.78 0 -0.59 -628.29 -84.12 628.29 -148.25 0 -88.83 -614.17 -0.59 614.17 -211.78 0 0 -930.67 312.77 0c8.83,56.28 18.43,122.56 28.83,198.26l34.31 236.29 55.11 -434.55 314.92 0zm166.74 0l403.56 0 0 185.9 -161.19 0 0 177.66 150.6 0 0 176.49 -150.6 0 0 204.72 177.66 0 0 185.9 -420.03 0 0 -930.67z"/>
  <rect class="fil4" transform="matrix(4.25744E-15 -0.160752 0.209427 5.54657E-15 1860.55 5551.06)" width="6870.15" height="1205.29"/>
  <rect class="fil4" x="1761.89" y="5640.63" width="3013.36" height="354.06"/>
  <path class="fil3" d="M1921.44 5511.07l0.89 -4.52 0 -63.83 -0.35 -1.3c0,-5.49 3.3,-8.65 9.92,-9.51 5.68,1.21 8.51,4.46 8.51,9.78l0 57.56 39 0 0 -36.7 -0.35 -4.67c0,-4.4 2.98,-7.27 8.95,-8.57 4.23,0 7.39,2.49 9.49,7.42l-0.36 7.12 0 35.4 36.88 0 0 -59.13c0,-4.55 3.25,-7.32 9.75,-8.3 5.55,1.66 8.33,4.52 8.33,8.57l0 68.34c-1.03,5.73 -3.99,8.6 -8.84,8.6l-112.27 0c-5.76,-0.86 -8.66,-2.95 -8.66,-6.26l-0.89 0zm95.68 -169.34l-85.87 0c-5.46,-1.03 -8.21,-3.87 -8.21,-8.48l0 -0.94c0,-4.67 2.84,-7.51 8.48,-8.48l111.48 0c5.02,0 8.07,3.07 9.1,9.25 0,3.51 -4.17,8.09 -12.47,13.68l-81.02 63.4 84.65 0c4.67,0 7.51,2.9 8.48,8.66l0 0.42c0,4.78 -2.95,7.74 -8.83,8.83l-110.27 0c-6.41,-0.68 -9.6,-3.4 -9.6,-8.15l0 -1.3c0,-3.85 2.54,-6.98 7.62,-9.34 3.46,-3.04 32.3,-25.56 86.46,-67.55zm-95.68 -74.96l0.89 -4.52 0 -63.83 -0.35 -1.3c0,-5.49 3.3,-8.65 9.92,-9.51 5.68,1.21 8.51,4.46 8.51,9.78l0 57.56 39 0 0 -36.7 -0.35 -4.67c0,-4.4 2.98,-7.27 8.95,-8.57 4.23,0 7.39,2.49 9.49,7.42l-0.36 7.12 0 35.4 36.88 0 0 -59.13c0,-4.55 3.25,-7.32 9.75,-8.3 5.55,1.66 8.33,4.52 8.33,8.57l0 68.34c-1.03,5.73 -3.99,8.6 -8.84,8.6l-112.27 0c-5.76,-0.86 -8.66,-2.95 -8.66,-6.26l-0.89 0zm1.07 -91.21l0 -1.39c0,-3.58 2.01,-6.38 6.05,-8.39l44.15 -34.63 -48.64 -37.94c-1.03,-1.83 -1.56,-3.52 -1.56,-4.99l0 -1.07c0,-4.61 2.86,-7.44 8.57,-8.48l0.53 0c2.54,0 7.47,3.16 14.8,9.46l41.01 31.85 51.68 -40.33 3.49 -0.98 0.94 0c5.7,1.04 8.57,3.99 8.57,8.84l0 0.35c0,3.93 -2.48,7.06 -7.45,9.43l-43.11 33.86 48.58 37.91c1.33,1.77 1.98,3.6 1.98,5.43l0 0.62c-1.03,5.71 -3.99,8.57 -8.84,8.57l-0.94 0c-2.07,0 -9.1,-4.87 -21.04,-14.62l-34.45 -26.66c-33.48,26.42 -51.09,40.04 -52.8,40.84l-2.78 0.53c-5.82,-1.33 -8.74,-4.08 -8.74,-8.21zm0 -166.23c0,-13.45 4.22,-26.09 12.64,-38 2.43,-1.27 4.29,-1.89 5.62,-1.89l0.68 0c5.26,0 8.21,3.07 8.83,9.25l0 1.12 -6.06 11.79c-2.3,7.27 -3.45,13.18 -3.45,17.73 0,14.74 6.73,27.42 20.18,38.11 9.01,5.35 17.81,8.04 26.35,8.04 17.23,0 30.88,-8.07 40.98,-24.23 3.7,-7.12 5.56,-14.21 5.56,-21.3l0 -0.95c0,-9.07 -3.07,-18.49 -9.19,-28.3l0 -3.05c1.21,-5.46 4.05,-8.21 8.51,-8.21l0.95 0c5.88,0 11.19,7.92 15.92,23.81 1.39,4.79 2.07,9.81 2.07,15.04l0 1.66c0,21.36 -9.87,39.21 -29.64,53.57 -11.49,6.82 -23.19,10.22 -35.16,10.22 -22.45,0 -40.74,-10.22 -54.84,-30.64 -6.64,-10.96 -9.95,-22.22 -9.95,-33.77zm0.35 -56.26l0 -1.56c1.15,-5.47 3.75,-8.22 7.8,-8.22l103.53 0 0 -50.82c0,-5.02 3.19,-7.97 9.61,-8.89 5.52,1.66 8.3,4.64 8.3,8.89l0 59.9c0,4.78 -2.99,7.74 -8.92,8.83l-110.72 0c-6.41,-0.68 -9.6,-3.4 -9.6,-8.13zm0 -85.86l0 -1.57c1.15,-5.46 3.75,-8.21 7.8,-8.21l69.76 0c14.04,0 23.34,-3.9 27.98,-11.67 3.87,-4.97 5.79,-10.46 5.79,-16.52 0,-11.64 -5.99,-20.44 -17.99,-26.38 -3.75,-1.21 -7.71,-1.81 -11.88,-1.81l-72.98 0c-5.64,-0.97 -8.48,-3.81 -8.48,-8.48l0 -1.21c1.04,-5.46 3.87,-8.21 8.48,-8.21l76.26 0c13.86,0 25.88,6.56 36.11,19.71 5.58,8.36 8.39,16.84 8.39,25.44l0 2.24c0,14.42 -7.03,26.92 -21.13,37.53 -7.62,4.84 -16.93,7.26 -27.95,7.26l-70.56 0c-6.41,-0.68 -9.6,-3.39 -9.6,-8.12zm-0.35 -128.53c0,-11.58 5.32,-21.3 15.98,-29.16l2.19 -0.62 2.33 0c4.26,0 6.89,2.92 7.86,8.74 0,2.66 -2.54,6.27 -7.59,10.85 -2.04,3.16 -3.04,6.2 -3.04,9.16l0 2c0,6.21 3.36,10.97 10.13,14.19 1.51,0.71 2.98,1.06 4.49,1.06l2.69 0c7.15,0 12.35,-4.31 15.6,-12.97 0,-7.56 3.63,-15.84 10.9,-24.85 8.84,-8.72 18.53,-13.06 29.08,-13.06 13,0 23.6,5.56 31.88,16.64 4.73,6.82 7.09,14.33 7.09,22.6 0,13.38 -5.88,24.55 -17.67,33.48l-3.72 0.97c-5.94,-1.09 -8.93,-4.11 -8.93,-9.01 0,-3.1 2.55,-6.68 7.66,-10.64 3.28,-4.78 4.93,-9.19 4.93,-13.18l0 -2.92c0,-7.74 -4.4,-14.01 -13.24,-18.79 -2.83,-0.71 -4.93,-1.07 -6.32,-1.07l-3.31 0c-7.65,0 -13.91,4.47 -18.79,13.36l-4.67 16.9c-7.83,13.62 -18.11,20.45 -30.82,20.45l-2.33 0c-12.59,0 -22.4,-6.71 -29.43,-20.1 -1.98,-5.02 -2.95,-9.69 -2.95,-14.03zm-1.07 -51.92l0.36 -2.01 0 -11.9 -0.36 -1.57c1.33,-6.12 4.52,-9.19 9.55,-9.19 5.94,1.03 8.89,3.99 8.89,8.83l0 -1.21 94.14 0 0 0.62c0,-4.28 2.89,-7.03 8.65,-8.24l0.86 0c5.7,1.03 8.57,3.99 8.57,8.83l0 15.93c-1.03,5.7 -3.99,8.57 -8.84,8.57l-0.59 0c-5.76,-1.21 -8.65,-3.96 -8.65,-8.24l0 0.62 -94.14 0 0 -1.22c0,5.2 -3.1,8.13 -9.34,8.84l-0.53 0c-4.05,0 -6.88,-2.9 -8.57,-8.66zm95.32 -83.49l-90.88 -34.01c-2.49,-2.6 -3.73,-5.11 -3.73,-7.54l0 -0.35c0,-4.79 3.13,-7.77 9.43,-8.92l112.13 41.57c5.58,1.27 8.39,4.28 8.39,9.07l0 0.27c0,5.31 -4.88,9.13 -14.63,11.43 -68.93,26.09 -104.18,39.12 -105.8,39.12l-0.68 0c-4.97,0 -7.92,-3.1 -8.84,-9.34 0,-5.02 5.2,-8.86 15.57,-11.52l79.04 -29.78zm-31.67 -95.56l-27.45 10.46 27.45 10.14 0 -20.6zm-61.87 10.64c0,-5.35 4.61,-9.13 13.85,-11.35 68.32,-26.18 103.45,-39.44 105.43,-39.71l1.12 0c4.67,0 7.5,2.81 8.48,8.48l0 0.59c0,5.2 -4.31,8.75 -12.91,10.67l-36.2 13.92 0 34.45 46.15 17.49c1.98,2.6 2.96,4.84 2.96,6.76l0 0.95c-1.03,5.64 -3.96,8.48 -8.75,8.48l-0.79 0 -30.47 -11.26c-50.37,-19.32 -78.44,-29.87 -84.29,-31.58 -3.05,-2.78 -4.58,-5.41 -4.58,-7.89z"/>
  <g>
   <path class="fil5 str0" d="M393.06 4881.66l48.27 0c32.18,0 53.97,1.21 65.36,3.7 11.39,2.49 20.68,8.85 27.86,19.08 7.19,10.17 10.79,26.48 10.79,48.82 0,20.4 -2.55,34.11 -7.64,41.14 -5.03,7.02 -15.03,11.22 -29.96,12.6 13.49,3.37 22.61,7.85 27.26,13.49 4.64,5.59 7.52,10.78 8.62,15.48 1.16,4.7 1.72,17.64 1.72,38.82l0 69.28 -63.37 0 0 -87.31c0,-14.04 -1.11,-22.72 -3.32,-26.09 -2.15,-3.38 -7.9,-5.03 -17.25,-5.03l0 118.43 -68.34 0 0 -262.41zm68.34 44.78l0 58.39c7.63,0 12.94,-1.05 15.98,-3.15 3.04,-2.1 4.59,-8.96 4.59,-20.51l0 -14.44c0,-8.35 -1.49,-13.82 -4.42,-16.42 -2.93,-2.6 -8.35,-3.87 -16.15,-3.87zm257.94 2.66l0 214.97 -66.52 0 1.17 -17.91c-4.54,7.29 -10.12,12.77 -16.76,16.42 -6.63,3.65 -14.26,5.47 -22.89,5.47 -9.78,0 -17.97,-1.71 -24.44,-5.2 -6.47,-3.42 -11.22,-8.01 -14.32,-13.76 -3.04,-5.75 -4.97,-11.67 -5.75,-17.92 -0.72,-6.19 -1.1,-18.52 -1.1,-37.04l0 -145.03 65.35 0 0 146.3c0,16.75 0.5,26.65 1.55,29.8 0.99,3.15 3.81,4.7 8.35,4.7 4.81,0 7.74,-1.6 8.62,-4.87 0.94,-3.2 1.39,-13.65 1.39,-31.24l0 -144.69 65.35 0zm90.07 0l-0.99 19.96c4.75,-7.97 10.56,-13.94 17.41,-17.97 6.86,-3.98 14.77,-5.98 23.78,-5.98 11.22,0 20.4,2.66 27.53,7.97 7.14,5.25 11.73,11.94 13.77,20.01 2.05,8.02 3.1,21.46 3.1,40.25l0 150.73 -65.36 0 0 -148.9c0,-14.76 -0.49,-23.83 -1.49,-27.04 -0.94,-3.26 -3.65,-4.86 -8.13,-4.86 -4.7,0 -7.63,1.88 -8.84,5.58 -1.17,3.76 -1.77,13.71 -1.77,29.91l0 145.31 -65.36 0 0 -214.97 66.35 0zm318.49 0l-25.94 214.97 -71.16 0c-3.65,-26.26 -8.18,-60.93 -13.54,-104 -2.05,18.96 -4.65,38.04 -7.85,57.22l-6.97 46.78 -70.83 0 -27.65 -214.97 56.02 0c0.66,5.64 5.47,46.72 14.48,123.3 0.94,-7.97 5.75,-49.1 14.54,-123.3l54.24 0 13.5 123.3c2.15,-36.05 7.13,-77.19 14.92,-123.3l56.24 0zm69.17 83.27l-61.37 0 0 -14.44c0,-16.64 1.93,-29.47 5.75,-38.53 3.81,-9.02 11.55,-16.98 23.11,-23.89 11.55,-6.91 26.54,-10.4 45.06,-10.4 22.12,0 38.82,3.93 50.04,11.78 11.22,7.8 17.97,17.42 20.24,28.81 2.26,11.39 3.42,34.89 3.42,70.44l0 107.93 -63.69 0 0 -19.19c-3.98,7.74 -9.18,13.49 -15.48,17.37 -6.31,3.87 -13.83,5.8 -22.62,5.8 -11.44,0 -21.95,-3.21 -31.51,-9.62 -9.57,-6.47 -14.32,-20.51 -14.32,-42.24l0 -17.7c0,-16.09 2.54,-27.03 7.63,-32.89 5.08,-5.87 17.69,-12.67 37.82,-20.41 21.5,-8.46 33,-14.1 34.55,-17.03 1.5,-2.93 2.27,-8.84 2.27,-17.86 0,-11.22 -0.83,-18.52 -2.54,-21.95 -1.66,-3.37 -4.48,-5.08 -8.41,-5.08 -4.48,0 -7.24,1.43 -8.29,4.31 -1.11,2.82 -1.66,10.28 -1.66,22.28l0 22.51zm20.9 29.47c-10.56,7.68 -16.7,14.1 -18.36,19.29 -1.71,5.2 -2.54,12.61 -2.54,22.34 0,11.17 0.72,18.3 2.21,21.56 1.44,3.27 4.37,4.87 8.74,4.87 4.14,0 6.8,-1.27 8.07,-3.82 1.27,-2.54 1.88,-9.17 1.88,-20.01l0 -44.23zm224.82 -112.74l-18.75 155.53c-2.98,24.66 -5.47,41.47 -7.46,50.43 -1.99,8.95 -5.31,16.36 -9.95,22.17 -4.59,5.86 -11.06,10.12 -19.3,12.88 -8.24,2.77 -21.45,4.15 -39.53,4.15l-39.65 0 0 -34.5c10.18,0 16.7,-0.5 19.58,-1.55 2.93,-1 4.42,-3.32 4.42,-6.86 0,-1.77 -1.38,-9.23 -4.09,-22.5l-35.83 -179.75 59.33 0 21.45 145.36 10.56 -145.36 59.22 0z"/>
   <path id="1" class="fil6" d="M393.06 4881.66l48.27 0c32.18,0 53.97,1.21 65.36,3.7 11.39,2.49 20.68,8.85 27.86,19.08 7.19,10.17 10.79,26.48 10.79,48.82 0,20.4 -2.55,34.11 -7.64,41.14 -5.03,7.02 -15.03,11.22 -29.96,12.6 13.49,3.37 22.61,7.85 27.26,13.49 4.64,5.59 7.52,10.78 8.62,15.48 1.16,4.7 1.72,17.64 1.72,38.82l0 69.28 -63.37 0 0 -87.31c0,-14.04 -1.11,-22.72 -3.32,-26.09 -2.15,-3.38 -7.9,-5.03 -17.25,-5.03l0 118.43 -68.34 0 0 -262.41zm68.34 44.78l0 58.39c7.63,0 12.94,-1.05 15.98,-3.15 3.04,-2.1 4.59,-8.96 4.59,-20.51l0 -14.44c0,-8.35 -1.49,-13.82 -4.42,-16.42 -2.93,-2.6 -8.35,-3.87 -16.15,-3.87zm257.94 2.66l0 214.97 -66.52 0 1.17 -17.91c-4.54,7.29 -10.12,12.77 -16.76,16.42 -6.63,3.65 -14.26,5.47 -22.89,5.47 -9.78,0 -17.97,-1.71 -24.44,-5.2 -6.47,-3.42 -11.22,-8.01 -14.32,-13.76 -3.04,-5.75 -4.97,-11.67 -5.75,-17.92 -0.72,-6.19 -1.1,-18.52 -1.1,-37.04l0 -145.03 65.35 0 0 146.3c0,16.75 0.5,26.65 1.55,29.8 0.99,3.15 3.81,4.7 8.35,4.7 4.81,0 7.74,-1.6 8.62,-4.87 0.94,-3.2 1.39,-13.65 1.39,-31.24l0 -144.69 65.35 0zm90.07 0l-0.99 19.96c4.75,-7.97 10.56,-13.94 17.41,-17.97 6.86,-3.98 14.77,-5.98 23.78,-5.98 11.22,0 20.4,2.66 27.53,7.97 7.14,5.25 11.73,11.94 13.77,20.01 2.05,8.02 3.1,21.46 3.1,40.25l0 150.73 -65.36 0 0 -148.9c0,-14.76 -0.49,-23.83 -1.49,-27.04 -0.94,-3.26 -3.65,-4.86 -8.13,-4.86 -4.7,0 -7.63,1.88 -8.84,5.58 -1.17,3.76 -1.77,13.71 -1.77,29.91l0 145.31 -65.36 0 0 -214.97 66.35 0zm318.49 0l-25.94 214.97 -71.16 0c-3.65,-26.26 -8.18,-60.93 -13.54,-104 -2.05,18.96 -4.65,38.04 -7.85,57.22l-6.97 46.78 -70.83 0 -27.65 -214.97 56.02 0c0.66,5.64 5.47,46.72 14.48,123.3 0.94,-7.97 5.75,-49.1 14.54,-123.3l54.24 0 13.5 123.3c2.15,-36.05 7.13,-77.19 14.92,-123.3l56.24 0zm69.17 83.27l-61.37 0 0 -14.44c0,-16.64 1.93,-29.47 5.75,-38.53 3.81,-9.02 11.55,-16.98 23.11,-23.89 11.55,-6.91 26.54,-10.4 45.06,-10.4 22.12,0 38.82,3.93 50.04,11.78 11.22,7.8 17.97,17.42 20.24,28.81 2.26,11.39 3.42,34.89 3.42,70.44l0 107.93 -63.69 0 0 -19.19c-3.98,7.74 -9.18,13.49 -15.48,17.37 -6.31,3.87 -13.83,5.8 -22.62,5.8 -11.44,0 -21.95,-3.21 -31.51,-9.62 -9.57,-6.47 -14.32,-20.51 -14.32,-42.24l0 -17.7c0,-16.09 2.54,-27.03 7.63,-32.89 5.08,-5.87 17.69,-12.67 37.82,-20.41 21.5,-8.46 33,-14.1 34.55,-17.03 1.5,-2.93 2.27,-8.84 2.27,-17.86 0,-11.22 -0.83,-18.52 -2.54,-21.95 -1.66,-3.37 -4.48,-5.08 -8.41,-5.08 -4.48,0 -7.24,1.43 -8.29,4.31 -1.11,2.82 -1.66,10.28 -1.66,22.28l0 22.51zm20.9 29.47c-10.56,7.68 -16.7,14.1 -18.36,19.29 -1.71,5.2 -2.54,12.61 -2.54,22.34 0,11.17 0.72,18.3 2.21,21.56 1.44,3.27 4.37,4.87 8.74,4.87 4.14,0 6.8,-1.27 8.07,-3.82 1.27,-2.54 1.88,-9.17 1.88,-20.01l0 -44.23zm224.82 -112.74l-18.75 155.53c-2.98,24.66 -5.47,41.47 -7.46,50.43 -1.99,8.95 -5.31,16.36 -9.95,22.17 -4.59,5.86 -11.06,10.12 -19.3,12.88 -8.24,2.77 -21.45,4.15 -39.53,4.15l-39.65 0 0 -34.5c10.18,0 16.7,-0.5 19.58,-1.55 2.93,-1 4.42,-3.32 4.42,-6.86 0,-1.77 -1.38,-9.23 -4.09,-22.5l-35.83 -179.75 59.33 0 21.45 145.36 10.56 -145.36 59.22 0z"/>
  </g>
  <g>
   <path class="fil5 str1" d="M3621.65 2705.91l0 162.9c0,18.48 -0.61,31.47 -1.79,38.92 -1.23,7.49 -4.78,15.19 -10.68,23.05 -5.91,7.91 -13.71,13.86 -23.36,17.92 -9.7,4.05 -21.1,6.11 -34.24,6.11 -14.53,0 -27.37,-2.42 -38.46,-7.24 -11.14,-4.83 -19.46,-11.09 -24.95,-18.79 -5.54,-7.76 -8.78,-15.92 -9.81,-24.49 -0.97,-8.58 -1.48,-26.65 -1.48,-54.11l0 -144.27 63.45 0 0 182.77c0,10.63 0.57,17.46 1.7,20.38 1.13,2.98 3.44,4.47 6.88,4.47 3.9,0 6.46,-1.64 7.59,-4.88 1.13,-3.28 1.7,-10.98 1.7,-23.1l0 -179.64 63.45 0zm84.36 44.05l-0.92 18.53c4.41,-7.39 9.8,-12.93 16.17,-16.68 6.36,-3.7 13.71,-5.55 22.07,-5.55 10.43,0 18.95,2.47 25.57,7.4 6.62,4.87 10.88,11.09 12.78,18.58 1.9,7.45 2.88,19.92 2.88,37.38l0 139.95 -60.68 0 0 -138.26c0,-13.71 -0.47,-22.13 -1.39,-25.1 -0.87,-3.03 -3.39,-4.52 -7.55,-4.52 -4.36,0 -7.08,1.74 -8.21,5.18 -1.08,3.49 -1.64,12.74 -1.64,27.78l0 134.92 -60.69 0 0 -199.61 61.61 0zm163.26 -26.49l0 31.42 16.94 0 0 31.73 -16.94 0 0 106.73c0,13.09 0.71,20.44 2.1,21.92 1.39,1.49 7.14,2.26 17.3,2.26l0 32.04 -24.59 0c-13.86,0 -23.77,-0.56 -29.73,-1.75 -5.9,-1.13 -11.14,-3.79 -15.65,-7.95 -4.52,-4.16 -7.35,-8.89 -8.48,-14.28 -1.07,-5.34 -1.64,-17.91 -1.64,-37.73l0 -101.24 -12.94 0 0 -31.73 12.94 0 0 -31.42 60.69 0zm169.01 26.49l0 199.61 -61.76 0 1.07 -16.63c-4.21,6.77 -9.39,11.86 -15.55,15.24 -6.16,3.39 -13.25,5.09 -21.26,5.09 -9.08,0 -16.68,-1.6 -22.69,-4.83 -6.01,-3.18 -10.42,-7.44 -13.3,-12.78 -2.82,-5.34 -4.62,-10.84 -5.34,-16.64 -0.66,-5.75 -1.02,-17.2 -1.02,-34.4l0 -134.66 60.68 0 0 135.85c0,15.55 0.46,24.74 1.44,27.67 0.92,2.92 3.54,4.36 7.75,4.36 4.47,0 7.19,-1.49 8.01,-4.52 0.87,-2.97 1.28,-12.68 1.28,-29l0 -134.36 60.69 0zm156.63 75.47l-57.29 0 0 -23.1c0,-8.01 -0.67,-13.45 -2,-16.33 -1.34,-2.87 -3.8,-4.31 -7.4,-4.31 -3.59,0 -6,1.23 -7.23,3.75 -1.24,2.51 -1.85,8.11 -1.85,16.84l0 94.2c0,7.14 0.92,12.48 2.77,16.02 1.8,3.54 4.52,5.34 8.11,5.34 4.16,0 6.98,-1.85 8.47,-5.54 1.49,-3.7 2.21,-10.68 2.21,-21l0 -23.67 54.21 0c-0.1,15.92 -0.66,27.88 -1.74,35.84 -1.03,7.95 -4.42,16.12 -10.11,24.49 -5.65,8.36 -13.1,14.68 -22.23,18.94 -9.14,4.26 -20.44,6.37 -33.94,6.37 -17.15,0 -30.8,-2.93 -40.87,-8.83 -10.01,-5.86 -17.14,-14.07 -21.3,-24.65 -4.16,-10.62 -6.27,-25.62 -6.27,-45.13l0 -56.73c0,-16.99 1.7,-29.77 5.14,-38.4 3.39,-8.62 10.68,-16.32 21.87,-23.1 11.14,-6.78 24.69,-10.17 40.71,-10.17 15.86,0 29.42,3.39 40.71,10.12 11.25,6.72 18.74,15.19 22.44,25.46 3.75,10.27 5.59,24.8 5.59,43.59zm148.69 -75.47l-24.64 79.63 31.72 119.98 -58.06 0 -19.1 -86.92 -0.15 86.92 -60.69 0 0 -243.66 60.69 0 0.15 102.48 19.1 -58.43 50.98 0zm154.02 103.19l-78.86 0 0 43.28c0,9.04 0.66,14.89 1.95,17.51 1.33,2.62 3.85,3.9 7.6,3.9 4.67,0 7.8,-1.74 9.34,-5.18 1.59,-3.49 2.36,-10.22 2.36,-20.18l0 -26.39 57.61 0 0 14.79c0,12.37 -0.77,21.87 -2.32,28.49 -1.59,6.62 -5.23,13.71 -10.93,21.26 -5.7,7.54 -12.99,13.19 -21.77,16.99 -8.78,3.75 -19.76,5.65 -33.01,5.65 -12.84,0 -24.18,-1.85 -34.04,-5.6 -9.8,-3.7 -17.45,-8.78 -22.95,-15.25 -5.49,-6.47 -9.24,-13.6 -11.34,-21.41 -2.11,-7.75 -3.19,-19.04 -3.19,-33.93l0 -58.27c0,-17.46 2.36,-31.22 7.09,-41.33 4.72,-10.06 12.42,-17.82 23.15,-23.16 10.78,-5.39 23.11,-8.06 37.07,-8.06 17.04,0 31.11,3.24 42.2,9.71 11.09,6.47 18.89,15.04 23.36,25.72 4.47,10.63 6.68,25.67 6.68,45.02l0 26.44zm-60.69 -32.34l0 -14.58c0,-10.37 -0.56,-16.99 -1.69,-20.02 -1.13,-3.03 -3.44,-4.52 -6.93,-4.52 -4.32,0 -6.99,1.28 -8.01,3.85 -1.03,2.57 -1.54,9.45 -1.54,20.69l0 14.58 18.17 0zm218.76 -114.9l0 243.66 -60.68 0 0 -14.53c-5.86,6.11 -11.96,10.63 -18.38,13.66 -6.47,3.03 -13.2,4.57 -20.23,4.57 -9.45,0 -17.66,-2.47 -24.59,-7.45 -6.93,-4.98 -11.4,-10.73 -13.35,-17.25 -1.95,-6.52 -2.93,-17.15 -2.93,-31.93l0 -93.49c0,-15.35 0.98,-26.24 2.93,-32.65 1.95,-6.42 6.47,-12.07 13.5,-16.95 7.04,-4.87 15.46,-7.29 25.21,-7.29 7.55,0 14.43,1.39 20.74,4.11 6.26,2.72 11.96,6.78 17.1,12.27l0 -56.73 60.68 0zm-60.68 94.26c0,-7.29 -0.62,-12.22 -1.9,-14.73 -1.29,-2.52 -3.8,-3.75 -7.55,-3.75 -3.7,0 -6.16,1.13 -7.44,3.39 -1.29,2.26 -1.9,7.29 -1.9,15.09l0 97.8c0,8.12 0.61,13.45 1.85,16.02 1.23,2.57 3.54,3.85 7.03,3.85 3.95,0 6.62,-1.44 7.91,-4.31 1.33,-2.82 2,-9.81 2,-20.95l0 -92.41z"/>
   <path id="1" class="fil6" d="M3621.65 2705.91l0 162.9c0,18.48 -0.61,31.47 -1.79,38.92 -1.23,7.49 -4.78,15.19 -10.68,23.05 -5.91,7.91 -13.71,13.86 -23.36,17.92 -9.7,4.05 -21.1,6.11 -34.24,6.11 -14.53,0 -27.37,-2.42 -38.46,-7.24 -11.14,-4.83 -19.46,-11.09 -24.95,-18.79 -5.54,-7.76 -8.78,-15.92 -9.81,-24.49 -0.97,-8.58 -1.48,-26.65 -1.48,-54.11l0 -144.27 63.45 0 0 182.77c0,10.63 0.57,17.46 1.7,20.38 1.13,2.98 3.44,4.47 6.88,4.47 3.9,0 6.46,-1.64 7.59,-4.88 1.13,-3.28 1.7,-10.98 1.7,-23.1l0 -179.64 63.45 0zm84.36 44.05l-0.92 18.53c4.41,-7.39 9.8,-12.93 16.17,-16.68 6.36,-3.7 13.71,-5.55 22.07,-5.55 10.43,0 18.95,2.47 25.57,7.4 6.62,4.87 10.88,11.09 12.78,18.58 1.9,7.45 2.88,19.92 2.88,37.38l0 139.95 -60.68 0 0 -138.26c0,-13.71 -0.47,-22.13 -1.39,-25.1 -0.87,-3.03 -3.39,-4.52 -7.55,-4.52 -4.36,0 -7.08,1.74 -8.21,5.18 -1.08,3.49 -1.64,12.74 -1.64,27.78l0 134.92 -60.69 0 0 -199.61 61.61 0zm163.26 -26.49l0 31.42 16.94 0 0 31.73 -16.94 0 0 106.73c0,13.09 0.71,20.44 2.1,21.92 1.39,1.49 7.14,2.26 17.3,2.26l0 32.04 -24.59 0c-13.86,0 -23.77,-0.56 -29.73,-1.75 -5.9,-1.13 -11.14,-3.79 -15.65,-7.95 -4.52,-4.16 -7.35,-8.89 -8.48,-14.28 -1.07,-5.34 -1.64,-17.91 -1.64,-37.73l0 -101.24 -12.94 0 0 -31.73 12.94 0 0 -31.42 60.69 0zm169.01 26.49l0 199.61 -61.76 0 1.07 -16.63c-4.21,6.77 -9.39,11.86 -15.55,15.24 -6.16,3.39 -13.25,5.09 -21.26,5.09 -9.08,0 -16.68,-1.6 -22.69,-4.83 -6.01,-3.18 -10.42,-7.44 -13.3,-12.78 -2.82,-5.34 -4.62,-10.84 -5.34,-16.64 -0.66,-5.75 -1.02,-17.2 -1.02,-34.4l0 -134.66 60.68 0 0 135.85c0,15.55 0.46,24.74 1.44,27.67 0.92,2.92 3.54,4.36 7.75,4.36 4.47,0 7.19,-1.49 8.01,-4.52 0.87,-2.97 1.28,-12.68 1.28,-29l0 -134.36 60.69 0zm156.63 75.47l-57.29 0 0 -23.1c0,-8.01 -0.67,-13.45 -2,-16.33 -1.34,-2.87 -3.8,-4.31 -7.4,-4.31 -3.59,0 -6,1.23 -7.23,3.75 -1.24,2.51 -1.85,8.11 -1.85,16.84l0 94.2c0,7.14 0.92,12.48 2.77,16.02 1.8,3.54 4.52,5.34 8.11,5.34 4.16,0 6.98,-1.85 8.47,-5.54 1.49,-3.7 2.21,-10.68 2.21,-21l0 -23.67 54.21 0c-0.1,15.92 -0.66,27.88 -1.74,35.84 -1.03,7.95 -4.42,16.12 -10.11,24.49 -5.65,8.36 -13.1,14.68 -22.23,18.94 -9.14,4.26 -20.44,6.37 -33.94,6.37 -17.15,0 -30.8,-2.93 -40.87,-8.83 -10.01,-5.86 -17.14,-14.07 -21.3,-24.65 -4.16,-10.62 -6.27,-25.62 -6.27,-45.13l0 -56.73c0,-16.99 1.7,-29.77 5.14,-38.4 3.39,-8.62 10.68,-16.32 21.87,-23.1 11.14,-6.78 24.69,-10.17 40.71,-10.17 15.86,0 29.42,3.39 40.71,10.12 11.25,6.72 18.74,15.19 22.44,25.46 3.75,10.27 5.59,24.8 5.59,43.59zm148.69 -75.47l-24.64 79.63 31.72 119.98 -58.06 0 -19.1 -86.92 -0.15 86.92 -60.69 0 0 -243.66 60.69 0 0.15 102.48 19.1 -58.43 50.98 0zm154.02 103.19l-78.86 0 0 43.28c0,9.04 0.66,14.89 1.95,17.51 1.33,2.62 3.85,3.9 7.6,3.9 4.67,0 7.8,-1.74 9.34,-5.18 1.59,-3.49 2.36,-10.22 2.36,-20.18l0 -26.39 57.61 0 0 14.79c0,12.37 -0.77,21.87 -2.32,28.49 -1.59,6.62 -5.23,13.71 -10.93,21.26 -5.7,7.54 -12.99,13.19 -21.77,16.99 -8.78,3.75 -19.76,5.65 -33.01,5.65 -12.84,0 -24.18,-1.85 -34.04,-5.6 -9.8,-3.7 -17.45,-8.78 -22.95,-15.25 -5.49,-6.47 -9.24,-13.6 -11.34,-21.41 -2.11,-7.75 -3.19,-19.04 -3.19,-33.93l0 -58.27c0,-17.46 2.36,-31.22 7.09,-41.33 4.72,-10.06 12.42,-17.82 23.15,-23.16 10.78,-5.39 23.11,-8.06 37.07,-8.06 17.04,0 31.11,3.24 42.2,9.71 11.09,6.47 18.89,15.04 23.36,25.72 4.47,10.63 6.68,25.67 6.68,45.02l0 26.44zm-60.69 -32.34l0 -14.58c0,-10.37 -0.56,-16.99 -1.69,-20.02 -1.13,-3.03 -3.44,-4.52 -6.93,-4.52 -4.32,0 -6.99,1.28 -8.01,3.85 -1.03,2.57 -1.54,9.45 -1.54,20.69l0 14.58 18.17 0zm218.76 -114.9l0 243.66 -60.68 0 0 -14.53c-5.86,6.11 -11.96,10.63 -18.38,13.66 -6.47,3.03 -13.2,4.57 -20.23,4.57 -9.45,0 -17.66,-2.47 -24.59,-7.45 -6.93,-4.98 -11.4,-10.73 -13.35,-17.25 -1.95,-6.52 -2.93,-17.15 -2.93,-31.93l0 -93.49c0,-15.35 0.98,-26.24 2.93,-32.65 1.95,-6.42 6.47,-12.07 13.5,-16.95 7.04,-4.87 15.46,-7.29 25.21,-7.29 7.55,0 14.43,1.39 20.74,4.11 6.26,2.72 11.96,6.78 17.1,12.27l0 -56.73 60.68 0zm-60.68 94.26c0,-7.29 -0.62,-12.22 -1.9,-14.73 -1.29,-2.52 -3.8,-3.75 -7.55,-3.75 -3.7,0 -6.16,1.13 -7.44,3.39 -1.29,2.26 -1.9,7.29 -1.9,15.09l0 97.8c0,8.12 0.61,13.45 1.85,16.02 1.23,2.57 3.54,3.85 7.03,3.85 3.95,0 6.62,-1.44 7.91,-4.31 1.33,-2.82 2,-9.81 2,-20.95l0 -92.41z"/>
  </g>
  <g>
   <g style="clip-path:url(#id2)">
    <image x="351.67" y="5143.66" width="1127.23" height="837.18" xlink:href="14996-yume-hime-y-sus-bellos-seres-de-luz-09bcb558-63a9-4bb7-95cc-967d570f9aca_Images\14996-yume-hime-y-sus-bellos-seres-de-luz-09bcb558-63a9-4bb7-95cc-967d570f9aca_ImgID3.png"/>
   </g>
  </g>
  <path class="fil1" d="M431.86 5215.21l7.2 1.19 32.54 0 2.17 -0.3c18.31,0 33.77,8.44 46.4,25.28 6.47,9.47 9.68,19.69 9.68,30.8l0 1.58c0,13.48 -4.1,24.93 -12.29,34.26 22.01,12.05 33.02,31.3 33.02,57.81 0,26.61 -13.77,47 -41.37,61.26 -8.93,3.11 -16.98,4.64 -23.99,4.64l-49.46 0c-9.53,-1.72 -14.32,-6.66 -14.32,-14.76l0 -186.11c1.43,-9.63 4.94,-14.46 10.42,-14.46l0 -1.19zm19.5 31.1l0 52.43 15.74 0c15.9,0 26.02,-5.43 30.36,-16.29 1.24,-3.21 1.88,-6.32 1.88,-9.43l0 -1.58c0,-11.95 -6.96,-20.09 -20.93,-24.54l-10.86 -0.59 -16.19 0zm0 82.35l0 73.16 23.99 0c19.2,0 31.99,-5.33 38.36,-15.95 4.24,-6.12 6.36,-12.83 6.36,-20.19l0 -1.04c0,-17.47 -9.52,-29.17 -28.63,-35.1l-14.61 -0.88 -25.47 0zm116.95 -115.23l7.55 1.48 106.63 0 2.17 -0.59c9.19,0 14.47,5.53 15.9,16.59 -2.03,9.48 -7.46,14.22 -16.34,14.22l-96.17 0 0 65.16 61.32 0 7.8 -0.59c7.35,0 12.14,4.98 14.31,14.96 0,7.06 -4.14,12.34 -12.39,15.84l-11.9 -0.59 -59.14 0 0 61.61 98.79 0c7.6,0 12.24,5.43 13.87,16.29 -2.77,9.28 -7.56,13.92 -14.32,13.92l-114.18 0c-9.58,-1.72 -14.37,-6.66 -14.37,-14.76l0 -187.59c1.43,-9.63 4.94,-14.47 10.47,-14.47l0 -1.48zm149.09 1.78l7.2 1.19 32.54 0 2.17 -0.3c18.31,0 33.77,8.44 46.4,25.28 6.47,9.47 9.68,19.69 9.68,30.8l0 1.58c0,13.48 -4.1,24.93 -12.29,34.26 22.01,12.05 33.02,31.3 33.02,57.81 0,26.61 -13.77,47 -41.37,61.26 -8.93,3.11 -16.98,4.64 -23.99,4.64l-49.46 0c-9.53,-1.72 -14.32,-6.66 -14.32,-14.76l0 -186.11c1.43,-9.63 4.94,-14.46 10.42,-14.46l0 -1.19zm19.5 31.1l0 52.43 15.74 0c15.9,0 26.02,-5.43 30.36,-16.29 1.24,-3.21 1.88,-6.32 1.88,-9.43l0 -1.58c0,-11.95 -6.96,-20.09 -20.93,-24.54l-10.86 -0.59 -16.19 0zm0 82.35l0 73.16 23.99 0c19.2,0 31.99,-5.33 38.36,-15.95 4.24,-6.12 6.36,-12.83 6.36,-20.19l0 -1.04c0,-17.47 -9.52,-29.17 -28.63,-35.1l-14.61 -0.88 -25.47 0zm116.95 -115.23l7.55 1.48 106.63 0 2.17 -0.59c9.19,0 14.47,5.53 15.9,16.59 -2.03,9.48 -7.46,14.22 -16.34,14.22l-96.17 0 0 65.16 61.32 0 7.8 -0.59c7.35,0 12.14,4.98 14.31,14.96 0,7.06 -4.14,12.34 -12.39,15.84l-11.9 -0.59 -59.14 0 0 61.61 98.79 0c7.6,0 12.24,5.43 13.87,16.29 -2.77,9.28 -7.56,13.92 -14.32,13.92l-114.18 0c-9.58,-1.72 -14.37,-6.66 -14.37,-14.76l0 -187.59c1.43,-9.63 4.94,-14.47 10.47,-14.47l0 -1.48zm-418.83 241.44l147.7 0c7.7,0 12.44,4.79 14.17,14.32l0 0.84c0,3.85 -4.35,10.86 -13.03,20.98l-116.26 150.17 114.82 0c9.63,1.43 14.47,6.37 14.47,14.81l0 1.04c-1.73,9.57 -6.67,14.36 -14.76,14.36l-145.93 0c-8.29,0 -13.23,-5.23 -14.76,-15.65 0,-3.95 9.08,-17.18 27.2,-39.74l101.65 -131.21 -113.94 0c-9.92,-1.93 -14.91,-7.11 -14.91,-15.6 2.12,-9.53 6.66,-14.32 13.58,-14.32zm267.85 104.56l-17.47 -45.86 -16.93 45.86 34.4 0zm-17.77 -103.37c8.94,0 15.26,7.7 18.96,23.15 43.74,114.13 65.9,172.83 66.35,176.14l0 1.87c0,7.8 -4.69,12.54 -14.17,14.17l-0.99 0c-8.69,0 -14.61,-7.2 -17.82,-21.57l-23.25 -60.47 -57.56 0 -29.23 77.11c-4.34,3.3 -8.09,4.93 -11.3,4.93l-1.58 0c-9.43,-1.72 -14.17,-6.61 -14.17,-14.61l0 -1.33 18.81 -50.9c32.28,-84.17 49.91,-131.07 52.77,-140.84 4.64,-5.09 9.04,-7.65 13.18,-7.65zm101.06 -0.6l2.61 0c9.14,1.93 13.73,6.27 13.73,12.99l0 82.09 94.19 0 0 -80.91c1.63,-9.43 6.37,-14.17 14.17,-14.17l2.02 0c9.13,1.73 13.72,6.47 13.72,14.17l0 188.19c0,7.01 -4.78,11.55 -14.31,13.57l-1.43 0c-9.43,-1.72 -14.17,-6.66 -14.17,-14.76l0 -76.76 -94.19 0 0 77.31c0,7.84 -4.74,12.58 -14.17,14.21l-0.99 0c-8,0 -12.93,-4.98 -14.76,-14.91l0 -184.97c1.14,-10.72 5.68,-16.05 13.58,-16.05zm248.06 103.97l-17.47 -45.86 -16.93 45.86 34.4 0zm-17.77 -103.37c8.94,0 15.26,7.7 18.96,23.15 43.74,114.13 65.9,172.83 66.35,176.14l0 1.87c0,7.8 -4.69,12.54 -14.17,14.17l-0.99 0c-8.69,0 -14.61,-7.2 -17.82,-21.57l-23.25 -60.47 -57.56 0 -29.23 77.11c-4.34,3.3 -8.09,4.93 -11.3,4.93l-1.58 0c-9.43,-1.72 -14.17,-6.61 -14.17,-14.61l0 -1.33 18.81 -50.9c32.28,-84.17 49.91,-131.07 52.77,-140.84 4.64,-5.09 9.04,-7.65 13.18,-7.65zm101.06 -1.19l45.56 0c21.03,0 38.16,11.01 51.34,33.03 4.35,8.59 6.52,17.52 6.52,26.8l0 2.18c0,20.63 -9.97,37.56 -29.92,50.79l-1.43 0.74c31.94,55.34 47.89,84.03 47.89,86.05l0 2.72c0,7.84 -4.84,12.58 -14.47,14.21l-0.89 0c-7.01,0 -13.77,-7.01 -20.19,-20.98l-43.49 -74.39 -24.29 0 0 81.2c0,7.8 -4.84,12.54 -14.51,14.17l-0.89 0c-8.05,0 -12.98,-4.98 -14.81,-14.91l0 -185.37c1.14,-10.81 5.68,-16.24 13.58,-16.24zm16.63 29.62l0 61.61 26.71 0c15.01,0 24.93,-8.15 29.72,-24.49l0.44 -3.94 0 -4.05c0,-11.9 -6.71,-20.98 -20.19,-27.25 -3.75,-1.24 -9.97,-1.88 -18.66,-1.88l-18.02 0zm207.39 74.94l-17.47 -45.86 -16.93 45.86 34.4 0zm-17.77 -103.37c8.94,0 15.26,7.7 18.96,23.15 43.74,114.13 65.9,172.83 66.35,176.14l0 1.87c0,7.8 -4.69,12.54 -14.17,14.17l-0.99 0c-8.69,0 -14.61,-7.2 -17.82,-21.57l-23.25 -60.47 -57.56 0 -29.23 77.11c-4.34,3.3 -8.09,4.93 -11.3,4.93l-1.58 0c-9.43,-1.72 -14.17,-6.61 -14.17,-14.61l0 -1.33 18.81 -50.9c32.28,-84.17 49.91,-131.07 52.77,-140.84 4.64,-5.09 9.04,-7.65 13.18,-7.65zm-891.9 238.47l7.2 1.19 32.54 0 2.17 -0.3c18.31,0 33.77,8.44 46.4,25.28 6.47,9.47 9.68,19.69 9.68,30.8l0 1.58c0,13.48 -4.1,24.93 -12.29,34.26 22.01,12.05 33.02,31.3 33.02,57.81 0,26.61 -13.77,47 -41.37,61.26 -8.93,3.11 -16.98,4.64 -23.99,4.64l-49.46 0c-9.53,-1.72 -14.32,-6.66 -14.32,-14.76l0 -186.11c1.43,-9.63 4.94,-14.46 10.42,-14.46l0 -1.19zm19.5 31.1l0 52.43 15.74 0c15.9,0 26.02,-5.43 30.36,-16.29 1.24,-3.21 1.88,-6.32 1.88,-9.43l0 -1.58c0,-11.95 -6.96,-20.09 -20.93,-24.54l-10.86 -0.59 -16.19 0zm0 82.35l0 73.16 23.99 0c19.2,0 31.99,-5.33 38.36,-15.95 4.24,-6.12 6.36,-12.83 6.36,-20.19l0 -1.04c0,-17.47 -9.52,-29.17 -28.63,-35.1l-14.61 -0.88 -25.47 0zm116.95 -115.23l7.55 1.48 106.63 0 2.17 -0.59c9.19,0 14.47,5.53 15.9,16.59 -2.03,9.48 -7.46,14.22 -16.34,14.22l-96.17 0 0 65.16 61.32 0 7.8 -0.59c7.35,0 12.14,4.98 14.31,14.96 0,7.06 -4.14,12.34 -12.39,15.84l-11.9 -0.59 -59.14 0 0 61.61 98.79 0c7.6,0 12.24,5.43 13.87,16.29 -2.77,9.28 -7.56,13.92 -14.32,13.92l-114.18 0c-9.58,-1.72 -14.37,-6.66 -14.37,-14.76l0 -187.59c1.43,-9.63 4.94,-14.47 10.47,-14.47l0 -1.48zm282.92 159.85l0 -143.46c1.73,-9.13 6.47,-13.72 14.17,-13.72l1.58 0c7.8,0 12.54,4.74 14.17,14.17l0 186.26c0,8.39 -5.14,13.48 -15.46,15.2 -5.87,0 -13.52,-6.96 -22.85,-20.83l-105.94 -135.36 0 141.43c0,7.8 -4.84,12.54 -14.47,14.17l-0.69 0c-8,0 -12.93,-4.94 -14.76,-14.76l0 -184.24c1.14,-10.71 5.68,-16.04 13.63,-16.04l2.17 0c6.41,0 11.65,4.24 15.6,12.74 5.08,5.77 42.7,53.95 112.85,144.44zm51.79 -159.85l7.55 1.48 106.63 0 2.17 -0.59c9.19,0 14.47,5.53 15.9,16.59 -2.03,9.48 -7.46,14.22 -16.34,14.22l-96.17 0 0 65.16 61.32 0 7.8 -0.59c7.35,0 12.14,4.98 14.31,14.96 0,7.06 -4.14,12.34 -12.39,15.84l-11.9 -0.59 -59.14 0 0 61.61 98.79 0c7.6,0 12.24,5.43 13.87,16.29 -2.77,9.28 -7.56,13.92 -14.32,13.92l-114.18 0c-9.58,-1.72 -14.37,-6.66 -14.37,-14.76l0 -187.59c1.43,-9.63 4.94,-14.47 10.47,-14.47l0 -1.48zm152.25 1.78l135.31 0c9.18,1.73 13.77,6.47 13.77,14.17l0 2.17c0,7.9 -5.38,12.44 -16.04,13.58l-50.36 0 0 172.43c0,7.8 -4.83,12.54 -14.46,14.17l-0.69 0c-8,0 -12.93,-4.98 -14.76,-14.91l0 -171.69 -51.49 0c-9.92,-1.93 -14.91,-7.11 -14.91,-15.6 2.12,-9.53 6.67,-14.32 13.63,-14.32z"/>
  <g>
   <g style="clip-path:url(#id3)">
    <image x="3327.75" y="1726.2" width="1407" height="884.7" xlink:href="14996-yume-hime-y-sus-bellos-seres-de-luz-09bcb558-63a9-4bb7-95cc-967d570f9aca_Images\14996-yume-hime-y-sus-bellos-seres-de-luz-09bcb558-63a9-4bb7-95cc-967d570f9aca_ImgID4.png"/>
   </g>
  </g>
  <g>
   <path class="fil6" d="M4103.32 1799.92l34.96 235.01 -62.45 0 -3.31 -42.19 -22.04 0 -3.32 42.19 -63.23 0 31 -235.01 88.39 0zm-32.44 151.22c-2.92,-26.64 -5.99,-59.62 -9.26,-98.98 -6.04,45.16 -9.85,78.14 -11.49,98.98l20.75 0zm266.26 -151.22l0 235.01 -53.48 0 -0.15 -158.66 -21.24 158.66 -37.44 0 -22.43 -155.09 -0.15 155.09 -53.48 0 0 -235.01 78.98 0c2.23,14.21 4.66,30.94 7.28,50.06l8.67 59.67 13.91 -109.73 79.53 0zm130.04 0l34.96 235.01 -62.45 0 -3.31 -42.19 -22.04 0 -3.32 42.19 -63.23 0 31 -235.01 88.39 0zm-32.44 151.22c-2.92,-26.64 -5.99,-59.62 -9.26,-98.98 -6.04,45.16 -9.85,78.14 -11.49,98.98l20.75 0zm77.89 -151.22l43.23 0c28.82,0 48.33,1.09 58.53,3.31 10.2,2.23 18.52,7.93 24.96,17.09 6.44,9.11 9.65,23.72 9.65,43.72 0,18.27 -2.27,30.56 -6.83,36.84 -4.5,6.29 -13.47,10.06 -26.84,11.29 12.09,3.02 20.26,7.04 24.42,12.09 4.15,5 6.73,9.65 7.72,13.86 1.04,4.21 1.53,15.8 1.53,34.76l0 62.05 -56.74 0 0 -78.19c0,-12.58 -0.99,-20.35 -2.97,-23.37 -1.94,-3.02 -7.09,-4.51 -15.45,-4.51l0 106.07 -61.21 0 0 -235.01zm61.21 40.11l0 52.29c6.83,0 11.58,-0.94 14.31,-2.83 2.72,-1.88 4.11,-8.02 4.11,-18.37l0 -12.92c0,-7.48 -1.34,-12.38 -3.96,-14.71 -2.63,-2.33 -7.48,-3.46 -14.46,-3.46z"/>
   <path class="fil1" d="M3453.04 2160.75l1.27 0c8.28,0 13.23,5.19 14.86,15.61 -1.79,9.86 -6.9,14.81 -15.33,14.81l-0.44 0c-8.44,0 -13.51,-4.83 -15.21,-14.45l0 -1.03c1.86,-9.95 6.81,-14.94 14.85,-14.94zm0.32 35.3c7.88,1.38 11.81,5.34 11.81,11.84l0 0.79c0,21.12 -9.91,37.52 -29.75,49.2 -6.62,6.38 -9.95,14.02 -9.95,22.98 0,11.44 5.99,20.28 17.99,26.46 4.47,1.62 8.4,2.45 11.72,2.45 11.29,0 20.09,-5.7 26.34,-17.07 1.39,-2.3 2.62,-7.72 3.61,-16.24 3.88,-4.64 7.76,-6.97 11.72,-6.97 7.81,1.86 11.73,5.82 11.73,11.84 0,17.43 -8.56,32.24 -25.67,44.45 -9.51,5.34 -18.74,8 -27.73,8 -17.7,0 -32.32,-7.61 -43.85,-22.86 -6.57,-9.27 -9.86,-19.57 -9.86,-30.86 0,-20.2 9.9,-36.28 29.75,-48.28 6.93,-6.26 10.42,-15.77 10.42,-28.56 3.56,-4.8 7.44,-7.17 11.72,-7.17zm144.74 -76.65c18.03,0 34.98,5.66 50.94,16.95 1.71,3.25 2.54,5.75 2.54,7.53l0 0.91c0,7.05 -4.12,11.01 -12.4,11.84l-1.5 0 -15.81 -8.12c-9.74,-3.09 -17.67,-4.63 -23.77,-4.63 -19.76,0 -36.76,9.03 -51.1,27.05 -7.17,12.08 -10.77,23.89 -10.77,35.34 0,23.09 10.81,41.39 32.48,54.94 9.55,4.95 19.05,7.45 28.56,7.45l1.27 0c12.16,0 24.8,-4.12 37.95,-12.32l4.08 0c7.33,1.62 11.01,5.42 11.01,11.4l0 1.27c0,7.88 -10.62,15.01 -31.93,21.35 -6.41,1.86 -13.15,2.78 -20.16,2.78l-2.22 0c-28.64,0 -52.56,-13.24 -71.81,-39.74 -9.15,-15.4 -13.71,-31.09 -13.71,-47.13 0,-30.11 13.71,-54.63 41.08,-73.52 14.69,-8.92 29.79,-13.35 45.27,-13.35zm151.36 0.24c29.23,0 53.67,13.54 73.32,40.6 8.91,15.41 13.35,30.93 13.35,46.54 0,28.96 -13.07,53 -39.22,72.21 -14.85,9.43 -30.42,14.15 -46.66,14.15l-1.74 0c-29.87,0 -54.19,-13.87 -73.01,-41.56 -8.59,-14.06 -12.87,-29.27 -12.87,-45.59 0,-27.69 12.16,-50.98 36.44,-69.88 15.85,-10.97 32.64,-16.47 50.39,-16.47zm-62.83 87.62c0,20.04 8.92,36.95 26.7,50.74 11.01,7.41 22.74,11.13 35.18,11.13l2.22 0c19.56,0 36.16,-8.75 49.79,-26.22 7.72,-11.17 11.6,-23.33 11.6,-36.6 0,-22.66 -10.41,-40.61 -31.21,-53.84 -10.22,-5.9 -20.72,-8.83 -31.45,-8.83 -20.76,0 -37.99,9.07 -51.69,27.17 -7.41,10.66 -11.14,22.82 -11.14,36.45zm270 38.97l0 -115.11c1.38,-7.32 5.18,-11.01 11.36,-11.01l1.27 0c6.26,0 10.06,3.8 11.37,11.37l0 149.45c0,6.74 -4.12,10.82 -12.4,12.21 -4.71,0 -10.85,-5.59 -18.34,-16.72l-85.01 -108.62 0 113.49c0,6.26 -3.88,10.06 -11.6,11.37l-0.56 0c-6.41,0 -10.37,-3.96 -11.84,-11.84l0 -147.83c0.91,-8.6 4.56,-12.88 10.93,-12.88l1.75 0c5.15,0 9.34,3.41 12.51,10.22 4.08,4.64 34.27,43.3 90.56,115.9zm102.98 -126.83l108.58 0c7.37,1.38 11.05,5.19 11.05,11.37l0 1.74c0,6.34 -4.32,9.98 -12.87,10.89l-40.41 0 0 138.37c0,6.26 -3.88,10.06 -11.6,11.37l-0.56 0c-6.42,0 -10.38,-4.01 -11.84,-11.97l0 -137.77 -41.32 0c-7.96,-1.54 -11.96,-5.7 -11.96,-12.51 1.7,-7.65 5.35,-11.49 10.93,-11.49zm198.86 0.24c29.23,0 53.67,13.54 73.32,40.6 8.91,15.41 13.35,30.93 13.35,46.54 0,28.96 -13.07,53 -39.22,72.21 -14.85,9.43 -30.42,14.15 -46.66,14.15l-1.74 0c-29.87,0 -54.19,-13.87 -73.01,-41.56 -8.59,-14.06 -12.87,-29.27 -12.87,-45.59 0,-27.69 12.16,-50.98 36.44,-69.88 15.85,-10.97 32.64,-16.47 50.39,-16.47zm-62.83 87.62c0,20.04 8.92,36.95 26.7,50.74 11.01,7.41 22.74,11.13 35.18,11.13l2.22 0c19.56,0 36.16,-8.75 49.79,-26.22 7.72,-11.17 11.6,-23.33 11.6,-36.6 0,-22.66 -10.41,-40.61 -31.21,-53.84 -10.22,-5.9 -20.72,-8.83 -31.45,-8.83 -20.76,0 -37.99,9.07 -51.69,27.17 -7.41,10.66 -11.14,22.82 -11.14,36.45zm162.61 -89.29l6.06 1.43 21.94 0 4.88 -0.48c26.14,0 48.8,11.29 67.93,33.91 12.32,15.92 18.46,33.95 18.46,54.07 0,27.77 -12.2,51.14 -36.6,70.11 -15.53,10.74 -31.97,16.13 -49.24,16.13l-30.3 0c-7.65,-1.39 -11.49,-5.35 -11.49,-11.85l0 -150.29c1.15,-7.72 3.96,-11.6 8.36,-11.6l0 -1.43zm15.88 25.2l0 125.72 15.41 0c26.42,0 45.99,-12.79 58.75,-38.34 3.32,-8.68 4.99,-16.96 4.99,-24.92 0,-19.09 -8.52,-35.77 -25.51,-50.07 -10.34,-8.28 -26.03,-12.39 -47.02,-12.39l-6.62 0zm194.89 -23.53c29.23,0 53.67,13.54 73.32,40.6 8.91,15.41 13.35,30.93 13.35,46.54 0,28.96 -13.07,53 -39.22,72.21 -14.85,9.43 -30.42,14.15 -46.66,14.15l-1.74 0c-29.87,0 -54.19,-13.87 -73.01,-41.56 -8.59,-14.06 -12.87,-29.27 -12.87,-45.59 0,-27.69 12.16,-50.98 36.44,-69.88 15.85,-10.97 32.64,-16.47 50.39,-16.47zm-62.83 87.62c0,20.04 8.92,36.95 26.7,50.74 11.01,7.41 22.74,11.13 35.18,11.13l2.22 0c19.56,0 36.16,-8.75 49.79,-26.22 7.72,-11.17 11.6,-23.33 11.6,-36.6 0,-22.66 -10.41,-40.61 -31.21,-53.84 -10.22,-5.9 -20.72,-8.83 -31.45,-8.83 -20.76,0 -37.99,9.07 -51.69,27.17 -7.41,10.66 -11.14,22.82 -11.14,36.45zm-1024.81 221.62c27.33,-41.08 41.75,-62.15 43.22,-63.26 2.18,-1.62 4.2,-2.42 6.06,-2.42l2.65 0c5.35,0 8.99,3.81 10.89,11.37 0,3.57 -5.18,12.48 -15.64,26.7l-34.94 52.21 0 70.11c-0.99,8.6 -4.67,12.88 -10.97,12.88l-1.86 0c-5.59,0 -9.39,-3.33 -11.41,-9.99l0 -72.64c0,-0.4 -5.94,-9.43 -17.87,-27.14l-31.69 -47.73 -0.71 -4.04c1.78,-7.8 5.47,-11.73 11.05,-11.73l1.86 0c5.31,0 9.39,3.41 12.17,10.22l37.19 55.46zm136.62 -66.15l108.58 0c7.37,1.38 11.05,5.19 11.05,11.37l0 1.74c0,6.34 -4.32,9.98 -12.87,10.89l-40.41 0 0 138.37c0,6.26 -3.88,10.06 -11.6,11.37l-0.56 0c-6.42,0 -10.38,-4.01 -11.84,-11.97l0 -137.77 -41.32 0c-7.96,-1.54 -11.96,-5.7 -11.96,-12.51 1.7,-7.65 5.35,-11.49 10.93,-11.49zm171.56 83.9l-14.02 -36.8 -13.59 36.8 27.61 0zm-14.26 -82.95c7.17,0 12.24,6.18 15.21,18.58 35.1,91.58 52.89,138.68 53.24,141.33l0 1.51c0,6.26 -3.76,10.06 -11.37,11.37l-0.79 0c-6.97,0 -11.72,-5.79 -14.3,-17.32l-18.66 -48.52 -46.18 0 -23.45 61.87c-3.49,2.66 -6.5,3.97 -9.07,3.97l-1.27 0c-7.57,-1.39 -11.37,-5.31 -11.37,-11.73l0 -1.07 15.09 -40.84c25.91,-67.54 40.05,-105.17 42.35,-113.01 3.72,-4.08 7.25,-6.14 10.57,-6.14zm156.55 -0.95c18.03,0 34.98,5.66 50.94,16.95 1.71,3.25 2.54,5.75 2.54,7.53l0 0.91c0,7.05 -4.12,11.01 -12.4,11.84l-1.5 0 -15.81 -8.12c-9.74,-3.09 -17.67,-4.63 -23.77,-4.63 -19.76,0 -36.76,9.03 -51.1,27.05 -7.17,12.08 -10.77,23.89 -10.77,35.34 0,23.09 10.81,41.39 32.48,54.94 9.55,4.95 19.05,7.45 28.56,7.45l1.27 0c12.16,0 24.8,-4.12 37.95,-12.32l4.08 0c7.33,1.62 11.01,5.42 11.01,11.4l0 1.27c0,7.88 -10.62,15.01 -31.93,21.35 -6.41,1.86 -13.15,2.78 -20.16,2.78l-2.22 0c-28.64,0 -52.56,-13.24 -71.81,-39.74 -9.15,-15.4 -13.71,-31.09 -13.71,-47.13 0,-30.11 13.71,-54.63 41.08,-73.52 14.69,-8.92 29.79,-13.35 45.27,-13.35zm151.36 0.24c29.23,0 53.67,13.54 73.32,40.6 8.91,15.41 13.35,30.93 13.35,46.54 0,28.96 -13.07,53 -39.22,72.21 -14.85,9.43 -30.42,14.15 -46.66,14.15l-1.74 0c-29.87,0 -54.19,-13.87 -73.01,-41.56 -8.59,-14.06 -12.87,-29.27 -12.87,-45.59 0,-27.69 12.16,-50.98 36.44,-69.88 15.85,-10.97 32.64,-16.47 50.39,-16.47zm-62.83 87.62c0,20.04 8.92,36.95 26.7,50.74 11.01,7.41 22.74,11.13 35.18,11.13l2.22 0c19.56,0 36.16,-8.75 49.79,-26.22 7.72,-11.17 11.6,-23.33 11.6,-36.6 0,-22.66 -10.41,-40.61 -31.21,-53.84 -10.22,-5.9 -20.72,-8.83 -31.45,-8.83 -20.76,0 -37.99,9.07 -51.69,27.17 -7.41,10.66 -11.14,22.82 -11.14,36.45zm270 38.97l0 -115.11c1.38,-7.32 5.18,-11.01 11.36,-11.01l1.27 0c6.26,0 10.06,3.8 11.37,11.37l0 149.45c0,6.74 -4.12,10.82 -12.4,12.21 -4.71,0 -10.85,-5.59 -18.34,-16.72l-85.01 -108.62 0 113.49c0,6.26 -3.88,10.06 -11.6,11.37l-0.56 0c-6.41,0 -10.37,-3.96 -11.84,-11.84l0 -147.83c0.91,-8.6 4.56,-12.88 10.93,-12.88l1.75 0c5.15,0 9.34,3.41 12.51,10.22 4.08,4.64 34.27,43.3 90.56,115.9zm41.55 -128.26l6.06 1.19 85.56 0 1.74 -0.47c7.37,0 11.61,4.43 12.76,13.3 -1.63,7.61 -5.98,11.41 -13.11,11.41l-77.17 0 0 52.29 49.2 0 6.26 -0.47c5.9,0 9.74,4 11.49,12 0,5.66 -3.33,9.9 -9.95,12.71l-9.54 -0.47 -47.46 0 0 49.43 79.27 0c6.1,0 9.82,4.36 11.13,13.07 -2.22,7.45 -6.06,11.18 -11.49,11.18l-91.62 0c-7.69,-1.39 -11.53,-5.35 -11.53,-11.85l0 -150.52c1.15,-7.73 3.96,-11.61 8.4,-11.61l0 -1.19zm163.68 1.43c15.52,0 28.56,7.13 39.09,21.43l0.83 2.93 0 3.13c0,5.7 -3.92,9.23 -11.72,10.54 -3.57,0 -8.4,-3.41 -14.54,-10.18 -4.24,-2.74 -8.32,-4.08 -12.28,-4.08l-2.69 0c-8.32,0 -14.7,4.51 -19.01,13.58 -0.96,2.02 -1.43,4 -1.43,6.02l0 3.61c0,9.58 5.78,16.56 17.39,20.91 10.14,0 21.23,4.87 33.31,14.62 11.69,11.84 17.51,24.84 17.51,38.98 0,17.43 -7.45,31.65 -22.3,42.74 -9.15,6.34 -19.21,9.51 -30.3,9.51 -17.95,0 -32.92,-7.89 -44.88,-23.69l-1.31 -4.99c1.46,-7.97 5.51,-11.97 12.08,-11.97 4.16,0 8.95,3.41 14.26,10.26 6.42,4.4 12.32,6.62 17.67,6.62l3.92 0c10.38,0 18.78,-5.9 25.19,-17.75 0.95,-3.8 1.43,-6.61 1.43,-8.47l0 -4.44c0,-10.26 -5.98,-18.66 -17.91,-25.19l-22.65 -6.26c-18.26,-10.5 -27.42,-24.28 -27.42,-41.32l0 -3.13c0,-16.87 9,-30.02 26.94,-39.45 6.73,-2.65 12.99,-3.96 18.82,-3.96zm112.18 0.24c14.93,0 28.44,6.57 40.52,19.68 8.48,10.7 12.72,22.3 12.72,34.86 0,15.69 -7.05,29.71 -21.19,41.99 -12.48,6.89 -18.74,16.87 -18.74,29.95 -1.15,7.96 -5.35,11.96 -12.52,11.96 -7.64,-1.7 -11.48,-5.35 -11.48,-10.93l0 -3.45c0,-19.61 10.02,-35.61 30.1,-48.05 6.38,-6.38 9.59,-13.94 9.59,-22.78 0,-11.05 -5.87,-19.92 -17.63,-26.58 -5.27,-1.62 -9.51,-2.41 -12.68,-2.41 -11.52,0 -20.51,6.1 -27.01,18.34l-3.13 15.33c-3.49,4.47 -7.17,6.73 -11.05,6.73 -7.96,-1.7 -11.93,-5.66 -11.93,-11.84 0,-16.96 8.32,-31.73 24.92,-44.29 10.14,-5.66 19.96,-8.51 29.51,-8.51zm-0.71 143.59l2.22 0c6.81,0 11.6,4.16 14.38,12.52l0 3.96c-1.75,9.42 -7.13,14.14 -16.13,14.14 -9.66,-2.1 -14.49,-7.05 -14.49,-14.86 0,-8.67 4.67,-13.94 14.02,-15.76z"/>
  </g>
  <path class="fil3" d="M4201.4 3026.96l1.97 0c6.86,1.45 10.32,4.71 10.32,9.8l0 130.01 63.82 0c6.3,0 10.01,4.01 11.16,12.06 -2.07,6.94 -5.82,10.43 -11.16,10.43l-75.22 0c-6.01,0 -9.72,-3.75 -11.09,-11.21l0 -139.03c0.85,-8.05 4.27,-12.06 10.2,-12.06zm170.24 78.15l-13.14 -34.48 -12.73 34.48 25.87 0zm-13.36 -77.7c6.72,0 11.46,5.79 14.25,17.4 32.87,85.79 49.53,129.9 49.87,132.39l0 1.41c0,5.86 -3.53,9.42 -10.65,10.65l-0.74 0c-6.53,0 -10.99,-5.42 -13.4,-16.22l-17.48 -45.45 -43.26 0 -21.97 57.96c-3.26,2.48 -6.08,3.71 -8.49,3.71l-1.19 0c-7.09,-1.3 -10.65,-4.97 -10.65,-10.98l0 -1.01 14.14 -38.25c24.26,-63.26 37.51,-98.51 39.66,-105.86 3.49,-3.82 6.79,-5.75 9.91,-5.75zm73.58 -2.23l5.68 1.34 20.55 0 4.57 -0.45c24.49,0 45.71,10.58 63.63,31.76 11.54,14.92 17.29,31.8 17.29,50.65 0,26.01 -11.43,47.9 -34.28,65.68 -14.55,10.05 -29.95,15.1 -46.12,15.1l-28.39 0c-7.16,-1.3 -10.76,-5.01 -10.76,-11.09l0 -140.78c1.08,-7.24 3.71,-10.87 7.83,-10.87l0 -1.34zm14.88 23.6l0 117.77 14.43 0c24.75,0 43.08,-11.98 55.03,-35.92 3.12,-8.12 4.67,-15.88 4.67,-23.34 0,-17.88 -7.97,-33.5 -23.89,-46.9 -9.69,-7.75 -24.38,-11.61 -44.05,-11.61l-6.19 0zm159.44 39.7c25.6,-38.48 39.11,-58.22 40.48,-59.25 2.04,-1.53 3.93,-2.27 5.68,-2.27l2.48 0c5.01,0 8.43,3.56 10.21,10.65 0,3.34 -4.86,11.69 -14.66,25.01l-32.73 48.9 0 65.68c-0.92,8.05 -4.38,12.06 -10.27,12.06l-1.75 0c-5.23,0 -8.79,-3.12 -10.69,-9.35l0 -68.05c0,-0.37 -5.56,-8.83 -16.73,-25.42l-29.68 -44.71 -0.67 -3.78c1.67,-7.31 5.12,-10.99 10.35,-10.99l1.74 0c4.98,0 8.8,3.19 11.4,9.58l34.84 51.94zm-873.23 187.02l0 87.68c0,5.86 -3.56,9.42 -10.65,10.65l-0.74 0c-6.01,0 -9.72,-3.75 -11.09,-11.21l0 -139.03c0.85,-8.05 4.26,-12.06 10.16,-12.06l1.64 0c6.01,0 10.01,4.27 12.02,12.84l49.9 111.61c0.67,-2.56 11.62,-28.05 32.88,-76.47l20.44 -44.04c2.45,-2.64 5.12,-3.94 8.06,-3.94l1.59 0c5.97,0 9.39,4.01 10.24,12.06l0 139.03c-1.37,7.46 -5.08,11.21 -11.09,11.21l-0.74 0c-7.09,-1.23 -10.65,-4.79 -10.65,-10.65l0 -87.79c-26.98,61.04 -41.04,92.58 -42.3,94.51 -2.97,2.63 -5.87,3.93 -8.69,3.93 -6.38,0 -11.61,-6.46 -15.77,-19.37l-35.21 -78.96zm214.35 -64.19c27.39,0 50.28,12.69 68.69,38.03 8.34,14.44 12.5,28.98 12.5,43.6 0,27.12 -12.24,49.65 -36.73,67.64 -13.92,8.83 -28.5,13.25 -43.71,13.25l-1.64 0c-27.97,0 -50.76,-12.99 -68.38,-38.92 -8.05,-13.18 -12.06,-27.42 -12.06,-42.71 0,-25.94 11.39,-47.76 34.14,-65.45 14.84,-10.28 30.57,-15.44 47.19,-15.44zm-58.84 82.08c0,18.77 8.34,34.61 25,47.53 10.32,6.94 21.3,10.42 32.95,10.42l2.08 0c18.33,0 33.88,-8.2 46.64,-24.56 7.24,-10.46 10.87,-21.85 10.87,-34.28 0,-21.23 -9.75,-38.04 -29.23,-50.43 -9.58,-5.53 -19.41,-8.27 -29.47,-8.27 -19.44,0 -35.58,8.49 -48.42,25.45 -6.94,9.98 -10.42,21.37 -10.42,34.14zm154.68 -82.3l34.25 0c15.81,0 28.68,8.27 38.59,24.82 3.27,6.46 4.9,13.17 4.9,20.15l0 1.63c0,15.51 -7.5,28.24 -22.49,38.18l-1.07 0.56c24,41.59 35.99,63.15 35.99,64.67l0 2.04c0,5.9 -3.64,9.46 -10.87,10.69l-0.67 0c-5.27,0 -10.35,-5.27 -15.18,-15.77l-32.69 -55.92 -18.25 0 0 61.04c0,5.86 -3.64,9.42 -10.91,10.65l-0.67 0c-6.05,0 -9.76,-3.75 -11.13,-11.21l0 -139.33c0.85,-8.12 4.27,-12.2 10.2,-12.2zm12.51 22.26l0 46.31 20.07 0c11.28,0 18.74,-6.13 22.34,-18.41l0.33 -2.97 0 -3.04c0,-8.94 -5.04,-15.77 -15.17,-20.48 -2.82,-0.93 -7.5,-1.41 -14.03,-1.41l-13.54 0zm158.47 -22.26c17.26,0 32.95,4.93 47.09,14.8 2.04,2.75 3.04,5.31 3.04,7.72l0 0.41c0,6.01 -3.74,9.72 -11.2,11.09 -1.6,0 -7.46,-2.37 -17.63,-7.16 -5.93,-2.34 -11.65,-3.49 -17.14,-3.49l-6.64 0c-14.36,0 -28.16,7.02 -41.41,21 -8.57,11.77 -12.84,23.79 -12.84,36.14l0 1.64c0,20.15 9.35,36.66 28.02,49.5 9.72,5.45 19.44,8.16 29.12,8.16l1.64 0c9.57,0 18.62,-2.34 27.16,-6.98l0 -32.2 -26.76 0c-7.08,-1.23 -10.65,-4.94 -10.65,-11.1l0 -0.52c1.23,-7.23 4.9,-10.87 10.99,-10.87l38.25 0c5.87,0 9.43,3.64 10.65,10.87l0 45.79c0,8.05 -2.22,13.1 -6.64,15.21 -14.4,8.5 -28.5,12.73 -42.26,12.73l-2.38 0c-26.79,0 -49.2,-12.39 -67.27,-37.22 -8.53,-14.13 -12.8,-28.86 -12.8,-44.15 0,-27.27 12.1,-49.83 36.29,-67.68 14.95,-9.13 29.39,-13.69 43.37,-13.69zm133.29 78.59l-13.14 -34.48 -12.73 34.48 25.87 0zm-13.36 -77.7c6.72,0 11.46,5.79 14.25,17.4 32.87,85.79 49.53,129.9 49.87,132.39l0 1.41c0,5.86 -3.53,9.42 -10.65,10.65l-0.74 0c-6.53,0 -10.99,-5.42 -13.4,-16.22l-17.48 -45.45 -43.26 0 -21.97 57.96c-3.26,2.48 -6.08,3.71 -8.49,3.71l-1.19 0c-7.09,-1.3 -10.65,-4.97 -10.65,-10.98l0 -1.01 14.14 -38.25c24.26,-63.26 37.51,-98.51 39.66,-105.86 3.49,-3.82 6.79,-5.75 9.91,-5.75zm174.17 117.92l0 -107.83c1.3,-6.86 4.86,-10.32 10.65,-10.32l1.19 0c5.86,0 9.42,3.57 10.65,10.65l0 140c0,6.31 -3.86,10.13 -11.62,11.43 -4.41,0 -10.16,-5.23 -17.18,-15.66l-79.62 -101.74 0 106.31c0,5.86 -3.64,9.42 -10.88,10.64l-0.52 0c-6.01,0 -9.72,-3.71 -11.09,-11.09l0 -138.48c0.85,-8.05 4.27,-12.06 10.24,-12.06l1.63 0c4.83,0 8.76,3.2 11.73,9.58 3.82,4.34 32.09,40.55 84.82,108.57zm108.13 -40.22l-13.14 -34.48 -12.73 34.48 25.87 0zm-13.36 -77.7c6.72,0 11.46,5.79 14.25,17.4 32.87,85.79 49.53,129.9 49.87,132.39l0 1.41c0,5.86 -3.53,9.42 -10.65,10.65l-0.74 0c-6.53,0 -10.99,-5.42 -13.4,-16.22l-17.48 -45.45 -43.26 0 -21.97 57.96c-3.26,2.48 -6.08,3.71 -8.49,3.71l-1.19 0c-7.09,-1.3 -10.65,-4.97 -10.65,-10.98l0 -1.01 14.14 -38.25c24.26,-63.26 37.51,-98.51 39.66,-105.86 3.49,-3.82 6.79,-5.75 9.91,-5.75z"/>
  <path class="fil7" d="M2037.92 5727.08l-15.57 129.16c-2.48,20.48 -4.54,34.44 -6.2,41.88 -1.65,7.43 -4.4,13.59 -8.26,18.41 -3.81,4.87 -9.18,8.4 -16.03,10.7 -6.84,2.29 -17.81,3.44 -32.83,3.44l-32.92 0 0 -28.65c8.45,0 13.87,-0.41 16.26,-1.29 2.43,-0.82 3.67,-2.75 3.67,-5.69 0,-1.47 -1.15,-7.67 -3.4,-18.69l-29.75 -149.27 49.27 0 17.81 120.71 8.77 -120.71 49.18 0zm169.34 57.02l-47.94 0 0 -9.68c0,-8.27 -0.46,-13.46 -1.42,-15.66 -0.92,-2.21 -3.31,-3.31 -7.07,-3.31 -3.03,0 -5.33,1.01 -6.84,3.03 -1.52,2.02 -2.3,5.05 -2.3,9.09 0,5.47 0.37,9.51 1.15,12.03 0.73,2.58 3.03,5.38 6.84,8.41 3.76,3.07 11.57,7.53 23.37,13.36 15.75,7.71 26.04,14.97 30.95,21.81 4.91,6.8 7.39,16.71 7.39,29.71 0,14.55 -1.88,25.53 -5.65,32.92 -3.76,7.39 -10.05,13.13 -18.87,17.13 -8.86,3.99 -19.47,5.97 -31.96,5.97 -13.77,0 -25.62,-2.16 -35.4,-6.43 -9.82,-4.32 -16.57,-10.15 -20.25,-17.5 -3.67,-7.34 -5.51,-18.46 -5.51,-33.33l0 -8.59 48.22 0 0 11.25c0,9.55 0.59,15.75 1.79,18.64 1.24,2.85 3.62,4.27 7.16,4.27 3.86,0 6.52,-0.96 8.03,-2.89 1.52,-1.93 2.3,-6.01 2.3,-12.17 0,-8.54 -0.96,-13.86 -2.94,-16.02 -2.06,-2.16 -12.58,-8.54 -31.54,-19.15 -15.94,-8.95 -25.67,-17.08 -29.16,-24.43 -3.49,-7.3 -5.23,-15.98 -5.23,-26.03 0,-14.28 1.88,-24.8 5.64,-31.55 3.77,-6.79 10.15,-12.03 19.15,-15.7 9,-3.67 19.47,-5.51 31.36,-5.51 11.85,0 21.9,1.52 30.17,4.5 8.31,3.03 14.65,6.98 19.1,11.94 4.41,4.91 7.12,9.5 8.04,13.73 0.96,4.22 1.42,10.83 1.42,19.79l0 10.37zm142.89 -57.02l0 178.52 -55.23 0 0.96 -14.88c-3.77,6.06 -8.4,10.61 -13.91,13.64 -5.51,3.03 -11.85,4.55 -19.01,4.55 -8.13,0 -14.93,-1.43 -20.3,-4.32 -5.37,-2.85 -9.32,-6.66 -11.89,-11.43 -2.53,-4.78 -4.13,-9.69 -4.78,-14.88 -0.59,-5.14 -0.91,-15.38 -0.91,-30.76l0 -120.44 54.27 0 0 121.49c0,13.91 0.41,22.13 1.29,24.75 0.82,2.62 3.16,3.9 6.93,3.9 3.99,0 6.43,-1.33 7.16,-4.04 0.78,-2.66 1.15,-11.34 1.15,-25.94l0 -120.16 54.27 0zm130.73 57.02l-47.94 0 0 -9.68c0,-8.27 -0.46,-13.46 -1.42,-15.66 -0.92,-2.21 -3.31,-3.31 -7.07,-3.31 -3.03,0 -5.33,1.01 -6.84,3.03 -1.52,2.02 -2.3,5.05 -2.3,9.09 0,5.47 0.37,9.51 1.15,12.03 0.73,2.58 3.03,5.38 6.84,8.41 3.76,3.07 11.57,7.53 23.37,13.36 15.75,7.71 26.04,14.97 30.95,21.81 4.91,6.8 7.39,16.71 7.39,29.71 0,14.55 -1.88,25.53 -5.65,32.92 -3.76,7.39 -10.05,13.13 -18.87,17.13 -8.86,3.99 -19.47,5.97 -31.96,5.97 -13.77,0 -25.62,-2.16 -35.4,-6.43 -9.82,-4.32 -16.57,-10.15 -20.25,-17.5 -3.67,-7.34 -5.51,-18.46 -5.51,-33.33l0 -8.59 48.22 0 0 11.25c0,9.55 0.59,15.75 1.79,18.64 1.24,2.85 3.62,4.27 7.16,4.27 3.86,0 6.52,-0.96 8.03,-2.89 1.52,-1.93 2.3,-6.01 2.3,-12.17 0,-8.54 -0.96,-13.86 -2.94,-16.02 -2.06,-2.16 -12.58,-8.54 -31.54,-19.15 -15.94,-8.95 -25.67,-17.08 -29.16,-24.43 -3.49,-7.3 -5.23,-15.98 -5.23,-26.03 0,-14.28 1.88,-24.8 5.64,-31.55 3.77,-6.79 10.15,-12.03 19.15,-15.7 9,-3.67 19.47,-5.51 31.36,-5.51 11.85,0 21.9,1.52 30.17,4.5 8.31,3.03 14.65,6.98 19.1,11.94 4.41,4.91 7.12,9.5 8.04,13.73 0.96,4.22 1.42,10.83 1.42,19.79l0 10.37zm121.5 -96.42l0 51.66c4.5,-5.24 9.5,-9.14 15.06,-11.71 5.51,-2.57 11.52,-3.86 18,-3.86 7.43,0 13.91,1.15 19.42,3.49 5.46,2.34 9.64,5.6 12.53,9.83 2.9,4.22 4.6,8.35 5.19,12.39 0.6,4.04 0.87,12.68 0.87,25.85l0 80.54c0,13.09 -0.87,22.87 -2.61,29.25 -1.79,6.43 -5.88,11.99 -12.35,16.71 -6.52,4.73 -14.19,7.08 -23.1,7.08 -6.38,0 -12.35,-1.43 -17.91,-4.23 -5.51,-2.8 -10.6,-6.98 -15.2,-12.58l-3.49 13.5 -50.69 0 0 -217.92 54.28 0zm16.8 90.09c0,-9.23 -0.6,-15.25 -1.79,-18.09 -1.15,-2.8 -3.49,-4.23 -6.93,-4.23 -3.4,0 -5.56,1.24 -6.57,3.72 -1.01,2.44 -1.51,8.68 -1.51,18.6l0 77c0,9.6 0.55,15.75 1.69,18.41 1.15,2.71 3.4,4.04 6.8,4.04 3.44,0 5.69,-1.37 6.75,-4.17 1.06,-2.76 1.56,-9.46 1.56,-20.02l0 -75.26zm195.19 41.6l-70.53 0 0 38.71c0,8.08 0.6,13.31 1.75,15.65 1.19,2.35 3.44,3.49 6.79,3.49 4.18,0 6.98,-1.56 8.36,-4.63 1.42,-3.13 2.11,-9.14 2.11,-18.05l0 -23.6 51.52 0 0 13.22c0,11.07 -0.69,19.56 -2.07,25.49 -1.42,5.92 -4.68,12.26 -9.78,19.01 -5.09,6.75 -11.61,11.8 -19.46,15.2 -7.86,3.35 -17.68,5.05 -29.53,5.05 -11.48,0 -21.63,-1.66 -30.44,-5.01 -8.77,-3.3 -15.61,-7.85 -20.53,-13.64 -4.91,-5.78 -8.26,-12.16 -10.14,-19.14 -1.89,-6.94 -2.85,-17.04 -2.85,-30.35l0 -52.12c0,-15.61 2.11,-27.92 6.34,-36.96 4.22,-9 11.11,-15.94 20.7,-20.71 9.65,-4.82 20.67,-7.21 33.16,-7.21 15.24,0 27.82,2.89 37.74,8.68 9.92,5.78 16.9,13.45 20.89,23 4,9.51 5.97,22.96 5.97,40.27l0 23.65zm-54.27 -28.93l0 -13.04c0,-9.27 -0.51,-15.2 -1.52,-17.91 -1.01,-2.71 -3.07,-4.04 -6.2,-4.04 -3.85,0 -6.24,1.15 -7.16,3.45 -0.92,2.29 -1.38,8.44 -1.38,18.5l0 13.04 16.26 0zm127.88 -102.76l0 217.92 -55.93 0 0 -217.92 55.93 0zm75.49 0l0 217.92 -55.93 0 0 -217.92 55.93 0zm142.44 102.07l0 43.76c0,16.07 -0.83,27.83 -2.44,35.36 -1.61,7.48 -5.05,14.46 -10.33,20.98 -5.28,6.52 -12.08,11.3 -20.39,14.42 -8.31,3.07 -17.81,4.64 -28.56,4.64 -12.03,0 -22.22,-1.34 -30.53,-3.95 -8.36,-2.67 -14.83,-6.66 -19.42,-11.99 -4.64,-5.37 -7.95,-11.84 -9.92,-19.42 -1.98,-7.58 -2.94,-18.96 -2.94,-34.12l0 -45.77c0,-16.63 1.79,-29.58 5.37,-38.94 3.58,-9.32 10.06,-16.81 19.38,-22.46 9.32,-5.64 21.26,-8.49 35.77,-8.49 12.17,0 22.63,1.84 31.4,5.46 8.73,3.63 15.48,8.36 20.25,14.19 4.73,5.83 7.99,11.85 9.74,18.05 1.74,6.2 2.62,15.61 2.62,28.28zm-54.28 -13.45c0,-9.14 -0.5,-14.92 -1.47,-17.27 -1.01,-2.38 -3.12,-3.58 -6.38,-3.58 -3.26,0 -5.42,1.2 -6.52,3.58 -1.06,2.35 -1.61,8.13 -1.61,17.27l0 80.58c0,8.45 0.55,13.96 1.61,16.49 1.1,2.57 3.21,3.85 6.38,3.85 3.26,0 5.37,-1.14 6.43,-3.49 1.06,-2.34 1.56,-7.34 1.56,-15.06l0 -82.37zm183.26 7.8l-47.94 0 0 -9.68c0,-8.27 -0.46,-13.46 -1.42,-15.66 -0.92,-2.21 -3.31,-3.31 -7.07,-3.31 -3.03,0 -5.33,1.01 -6.84,3.03 -1.52,2.02 -2.3,5.05 -2.3,9.09 0,5.47 0.37,9.51 1.15,12.03 0.73,2.58 3.03,5.38 6.84,8.41 3.76,3.07 11.57,7.53 23.37,13.36 15.75,7.71 26.04,14.97 30.95,21.81 4.91,6.8 7.39,16.71 7.39,29.71 0,14.55 -1.88,25.53 -5.65,32.92 -3.76,7.39 -10.05,13.13 -18.87,17.13 -8.86,3.99 -19.47,5.97 -31.96,5.97 -13.77,0 -25.62,-2.16 -35.4,-6.43 -9.82,-4.32 -16.57,-10.15 -20.25,-17.5 -3.67,-7.34 -5.51,-18.46 -5.51,-33.33l0 -8.59 48.22 0 0 11.25c0,9.55 0.59,15.75 1.79,18.64 1.24,2.85 3.62,4.27 7.16,4.27 3.86,0 6.52,-0.96 8.03,-2.89 1.52,-1.93 2.3,-6.01 2.3,-12.17 0,-8.54 -0.96,-13.86 -2.94,-16.02 -2.06,-2.16 -12.58,-8.54 -31.54,-19.15 -15.94,-8.95 -25.67,-17.08 -29.16,-24.43 -3.49,-7.3 -5.23,-15.98 -5.23,-26.03 0,-14.28 1.88,-24.8 5.64,-31.55 3.77,-6.79 10.15,-12.03 19.15,-15.7 9,-3.67 19.47,-5.51 31.36,-5.51 11.85,0 21.9,1.52 30.17,4.5 8.31,3.03 14.65,6.98 19.1,11.94 4.41,4.91 7.12,9.5 8.04,13.73 0.96,4.22 1.42,10.83 1.42,19.79l0 10.37zm178.25 0l-47.94 0 0 -9.68c0,-8.27 -0.46,-13.46 -1.42,-15.66 -0.92,-2.21 -3.31,-3.31 -7.07,-3.31 -3.03,0 -5.33,1.01 -6.84,3.03 -1.52,2.02 -2.3,5.05 -2.3,9.09 0,5.47 0.37,9.51 1.15,12.03 0.73,2.58 3.03,5.38 6.84,8.41 3.76,3.07 11.57,7.53 23.37,13.36 15.75,7.71 26.04,14.97 30.95,21.81 4.91,6.8 7.39,16.71 7.39,29.71 0,14.55 -1.88,25.53 -5.65,32.92 -3.76,7.39 -10.05,13.13 -18.87,17.13 -8.86,3.99 -19.47,5.97 -31.96,5.97 -13.77,0 -25.62,-2.16 -35.4,-6.43 -9.82,-4.32 -16.57,-10.15 -20.25,-17.5 -3.67,-7.34 -5.51,-18.46 -5.51,-33.33l0 -8.59 48.22 0 0 11.25c0,9.55 0.59,15.75 1.79,18.64 1.24,2.85 3.62,4.27 7.16,4.27 3.86,0 6.52,-0.96 8.03,-2.89 1.52,-1.93 2.3,-6.01 2.3,-12.17 0,-8.54 -0.96,-13.86 -2.94,-16.02 -2.06,-2.16 -12.58,-8.54 -31.54,-19.15 -15.94,-8.95 -25.67,-17.08 -29.16,-24.43 -3.49,-7.3 -5.23,-15.98 -5.23,-26.03 0,-14.28 1.88,-24.8 5.64,-31.55 3.77,-6.79 10.15,-12.03 19.15,-15.7 9,-3.67 19.47,-5.51 31.36,-5.51 11.85,0 21.9,1.52 30.17,4.5 8.31,3.03 14.65,6.98 19.1,11.94 4.41,4.91 7.12,9.5 8.04,13.73 0.96,4.22 1.42,10.83 1.42,19.79l0 10.37zm141.79 35.27l-70.53 0 0 38.71c0,8.08 0.6,13.31 1.75,15.65 1.19,2.35 3.44,3.49 6.79,3.49 4.18,0 6.98,-1.56 8.36,-4.63 1.42,-3.13 2.11,-9.14 2.11,-18.05l0 -23.6 51.52 0 0 13.22c0,11.07 -0.69,19.56 -2.07,25.49 -1.42,5.92 -4.68,12.26 -9.78,19.01 -5.09,6.75 -11.61,11.8 -19.46,15.2 -7.86,3.35 -17.68,5.05 -29.53,5.05 -11.48,0 -21.63,-1.66 -30.44,-5.01 -8.77,-3.3 -15.61,-7.85 -20.53,-13.64 -4.91,-5.78 -8.26,-12.16 -10.14,-19.14 -1.89,-6.94 -2.85,-17.04 -2.85,-30.35l0 -52.12c0,-15.61 2.11,-27.92 6.34,-36.96 4.22,-9 11.11,-15.94 20.7,-20.71 9.65,-4.82 20.67,-7.21 33.16,-7.21 15.24,0 27.82,2.89 37.74,8.68 9.92,5.78 16.9,13.45 20.89,23 4,9.51 5.97,22.96 5.97,40.27l0 23.65zm-54.27 -28.93l0 -13.04c0,-9.27 -0.51,-15.2 -1.52,-17.91 -1.01,-2.71 -3.07,-4.04 -6.2,-4.04 -3.85,0 -6.24,1.15 -7.16,3.45 -0.92,2.29 -1.38,8.44 -1.38,18.5l0 13.04 16.26 0zm125.95 -63.36l-1.93 23.51c7.95,-16.9 19.42,-25.81 34.44,-26.82l0 62.81c-9.96,0 -17.31,1.34 -21.99,4.04 -4.69,2.71 -7.53,6.43 -8.64,11.25 -1.05,4.78 -1.6,15.85 -1.6,33.2l0 70.53 -54.28 0 0 -178.52 54 0zm167.73 92.29l-70.53 0 0 38.71c0,8.08 0.6,13.31 1.75,15.65 1.19,2.35 3.44,3.49 6.79,3.49 4.18,0 6.98,-1.56 8.36,-4.63 1.42,-3.13 2.11,-9.14 2.11,-18.05l0 -23.6 51.52 0 0 13.22c0,11.07 -0.69,19.56 -2.07,25.49 -1.42,5.92 -4.68,12.26 -9.78,19.01 -5.09,6.75 -11.61,11.8 -19.46,15.2 -7.86,3.35 -17.68,5.05 -29.53,5.05 -11.48,0 -21.63,-1.66 -30.44,-5.01 -8.77,-3.3 -15.61,-7.85 -20.53,-13.64 -4.91,-5.78 -8.26,-12.16 -10.14,-19.14 -1.89,-6.94 -2.85,-17.04 -2.85,-30.35l0 -52.12c0,-15.61 2.11,-27.92 6.34,-36.96 4.22,-9 11.11,-15.94 20.7,-20.71 9.65,-4.82 20.67,-7.21 33.16,-7.21 15.24,0 27.82,2.89 37.74,8.68 9.92,5.78 16.9,13.45 20.89,23 4,9.51 5.97,22.96 5.97,40.27l0 23.65zm-54.27 -28.93l0 -13.04c0,-9.27 -0.51,-15.2 -1.52,-17.91 -1.01,-2.71 -3.07,-4.04 -6.2,-4.04 -3.85,0 -6.24,1.15 -7.16,3.45 -0.92,2.29 -1.38,8.44 -1.38,18.5l0 13.04 16.26 0zm182.98 -6.34l-47.94 0 0 -9.68c0,-8.27 -0.46,-13.46 -1.42,-15.66 -0.92,-2.21 -3.31,-3.31 -7.07,-3.31 -3.03,0 -5.33,1.01 -6.84,3.03 -1.52,2.02 -2.3,5.05 -2.3,9.09 0,5.47 0.37,9.51 1.15,12.03 0.73,2.58 3.03,5.38 6.84,8.41 3.76,3.07 11.57,7.53 23.37,13.36 15.75,7.71 26.04,14.97 30.95,21.81 4.91,6.8 7.39,16.71 7.39,29.71 0,14.55 -1.88,25.53 -5.65,32.92 -3.76,7.39 -10.05,13.13 -18.87,17.13 -8.86,3.99 -19.47,5.97 -31.96,5.97 -13.77,0 -25.62,-2.16 -35.4,-6.43 -9.82,-4.32 -16.57,-10.15 -20.25,-17.5 -3.67,-7.34 -5.51,-18.46 -5.51,-33.33l0 -8.59 48.22 0 0 11.25c0,9.55 0.59,15.75 1.79,18.64 1.24,2.85 3.62,4.27 7.16,4.27 3.86,0 6.52,-0.96 8.03,-2.89 1.52,-1.93 2.3,-6.01 2.3,-12.17 0,-8.54 -0.96,-13.86 -2.94,-16.02 -2.06,-2.16 -12.58,-8.54 -31.54,-19.15 -15.94,-8.95 -25.67,-17.08 -29.16,-24.43 -3.49,-7.3 -5.23,-15.98 -5.23,-26.03 0,-14.28 1.88,-24.8 5.64,-31.55 3.77,-6.79 10.15,-12.03 19.15,-15.7 9,-3.67 19.47,-5.51 31.36,-5.51 11.85,0 21.9,1.52 30.17,4.5 8.31,3.03 14.65,6.98 19.1,11.94 4.41,4.91 7.12,9.5 8.04,13.73 0.96,4.22 1.42,10.83 1.42,19.79l0 10.37zm190.92 -96.42l0 217.92 -54.27 0 0 -12.99c-5.24,5.46 -10.7,9.5 -16.44,12.21 -5.79,2.71 -11.8,4.09 -18.09,4.09 -8.45,0 -15.8,-2.21 -21.99,-6.66 -6.2,-4.46 -10.2,-9.6 -11.94,-15.43 -1.75,-5.83 -2.62,-15.34 -2.62,-28.56l0 -83.61c0,-13.73 0.87,-23.47 2.62,-29.21 1.74,-5.74 5.78,-10.79 12.07,-15.15 6.29,-4.36 13.82,-6.52 22.55,-6.52 6.75,0 12.9,1.24 18.55,3.67 5.6,2.44 10.7,6.06 15.29,10.98l0 -50.74 54.27 0zm-54.27 84.3c0,-6.52 -0.55,-10.93 -1.7,-13.18 -1.15,-2.25 -3.4,-3.35 -6.75,-3.35 -3.31,0 -5.51,1.01 -6.66,3.03 -1.15,2.02 -1.7,6.52 -1.7,13.5l0 87.47c0,7.26 0.55,12.03 1.66,14.33 1.1,2.3 3.16,3.44 6.29,3.44 3.53,0 5.92,-1.28 7.07,-3.85 1.19,-2.53 1.79,-8.77 1.79,-18.74l0 -82.65zm196.84 47.39l-70.53 0 0 38.71c0,8.08 0.6,13.31 1.75,15.65 1.19,2.35 3.44,3.49 6.79,3.49 4.18,0 6.98,-1.56 8.36,-4.63 1.42,-3.13 2.11,-9.14 2.11,-18.05l0 -23.6 51.52 0 0 13.22c0,11.07 -0.69,19.56 -2.07,25.49 -1.42,5.92 -4.68,12.26 -9.78,19.01 -5.09,6.75 -11.61,11.8 -19.46,15.2 -7.86,3.35 -17.68,5.05 -29.53,5.05 -11.48,0 -21.63,-1.66 -30.44,-5.01 -8.77,-3.3 -15.61,-7.85 -20.53,-13.64 -4.91,-5.78 -8.26,-12.16 -10.14,-19.14 -1.89,-6.94 -2.85,-17.04 -2.85,-30.35l0 -52.12c0,-15.61 2.11,-27.92 6.34,-36.96 4.22,-9 11.11,-15.94 20.7,-20.71 9.65,-4.82 20.67,-7.21 33.16,-7.21 15.24,0 27.82,2.89 37.74,8.68 9.92,5.78 16.9,13.45 20.89,23 4,9.51 5.97,22.96 5.97,40.27l0 23.65zm-54.27 -28.93l0 -13.04c0,-9.27 -0.51,-15.2 -1.52,-17.91 -1.01,-2.71 -3.07,-4.04 -6.2,-4.04 -3.85,0 -6.24,1.15 -7.16,3.45 -0.92,2.29 -1.38,8.44 -1.38,18.5l0 13.04 16.26 0zm176.46 -102.76l0 217.92 -55.93 0 0 -217.92 55.93 0zm143.81 39.4l0 178.52 -55.23 0 0.96 -14.88c-3.77,6.06 -8.4,10.61 -13.91,13.64 -5.51,3.03 -11.85,4.55 -19.01,4.55 -8.13,0 -14.93,-1.43 -20.3,-4.32 -5.37,-2.85 -9.32,-6.66 -11.89,-11.43 -2.53,-4.78 -4.13,-9.69 -4.78,-14.88 -0.59,-5.14 -0.91,-15.38 -0.91,-30.76l0 -120.44 54.27 0 0 121.49c0,13.91 0.41,22.13 1.29,24.75 0.82,2.62 3.16,3.9 6.93,3.9 3.99,0 6.43,-1.33 7.16,-4.04 0.78,-2.66 1.15,-11.34 1.15,-25.94l0 -120.16 54.27 0zm104.28 0l0 39.58 -39.99 103.13 39.99 0 0 35.81 -92.57 0 0 -37.42 40.82 -105.29 -36.68 0 0 -35.81 88.43 0z"/>
  <path class="fil8" d="M2026.34 5748.32l-15.57 129.16c-2.48,20.48 -4.54,34.44 -6.2,41.88 -1.65,7.43 -4.4,13.59 -8.26,18.41 -3.81,4.87 -9.18,8.4 -16.03,10.7 -6.84,2.29 -17.81,3.44 -32.83,3.44l-32.92 0 0 -28.65c8.45,0 13.87,-0.41 16.26,-1.29 2.43,-0.82 3.67,-2.75 3.67,-5.69 0,-1.47 -1.15,-7.67 -3.4,-18.69l-29.75 -149.27 49.27 0 17.81 120.71 8.77 -120.71 49.18 0zm169.34 57.02l-47.94 0 0 -9.68c0,-8.27 -0.46,-13.46 -1.42,-15.66 -0.92,-2.21 -3.31,-3.31 -7.07,-3.31 -3.03,0 -5.33,1.01 -6.84,3.03 -1.52,2.02 -2.3,5.05 -2.3,9.09 0,5.47 0.37,9.51 1.15,12.03 0.73,2.58 3.03,5.38 6.84,8.41 3.76,3.07 11.57,7.53 23.37,13.36 15.75,7.71 26.04,14.97 30.95,21.81 4.91,6.8 7.39,16.71 7.39,29.71 0,14.55 -1.88,25.53 -5.65,32.92 -3.76,7.39 -10.05,13.13 -18.87,17.13 -8.86,3.99 -19.47,5.97 -31.96,5.97 -13.77,0 -25.62,-2.16 -35.4,-6.43 -9.82,-4.32 -16.57,-10.15 -20.25,-17.5 -3.67,-7.34 -5.51,-18.46 -5.51,-33.33l0 -8.59 48.22 0 0 11.25c0,9.55 0.59,15.75 1.79,18.64 1.24,2.85 3.62,4.27 7.16,4.27 3.86,0 6.52,-0.96 8.03,-2.89 1.52,-1.93 2.3,-6.01 2.3,-12.17 0,-8.54 -0.96,-13.86 -2.94,-16.02 -2.06,-2.16 -12.58,-8.54 -31.54,-19.15 -15.94,-8.95 -25.67,-17.08 -29.16,-24.43 -3.49,-7.3 -5.23,-15.98 -5.23,-26.03 0,-14.28 1.88,-24.8 5.64,-31.55 3.77,-6.79 10.15,-12.03 19.15,-15.7 9,-3.67 19.47,-5.51 31.36,-5.51 11.85,0 21.9,1.52 30.17,4.5 8.31,3.03 14.65,6.98 19.1,11.94 4.41,4.91 7.12,9.5 8.04,13.73 0.96,4.22 1.42,10.83 1.42,19.79l0 10.37zm142.89 -57.02l0 178.52 -55.23 0 0.96 -14.88c-3.77,6.06 -8.4,10.61 -13.91,13.64 -5.51,3.03 -11.85,4.55 -19.01,4.55 -8.13,0 -14.93,-1.43 -20.3,-4.32 -5.37,-2.85 -9.32,-6.66 -11.89,-11.43 -2.53,-4.78 -4.13,-9.69 -4.78,-14.88 -0.59,-5.14 -0.91,-15.38 -0.91,-30.76l0 -120.44 54.27 0 0 121.49c0,13.91 0.41,22.13 1.29,24.75 0.82,2.62 3.16,3.9 6.93,3.9 3.99,0 6.43,-1.33 7.16,-4.04 0.78,-2.66 1.15,-11.34 1.15,-25.94l0 -120.16 54.27 0zm130.73 57.02l-47.94 0 0 -9.68c0,-8.27 -0.46,-13.46 -1.42,-15.66 -0.92,-2.21 -3.31,-3.31 -7.07,-3.31 -3.03,0 -5.33,1.01 -6.84,3.03 -1.52,2.02 -2.3,5.05 -2.3,9.09 0,5.47 0.37,9.51 1.15,12.03 0.73,2.58 3.03,5.38 6.84,8.41 3.76,3.07 11.57,7.53 23.37,13.36 15.75,7.71 26.04,14.97 30.95,21.81 4.91,6.8 7.39,16.71 7.39,29.71 0,14.55 -1.88,25.53 -5.65,32.92 -3.76,7.39 -10.05,13.13 -18.87,17.13 -8.86,3.99 -19.47,5.97 -31.96,5.97 -13.77,0 -25.62,-2.16 -35.4,-6.43 -9.82,-4.32 -16.57,-10.15 -20.25,-17.5 -3.67,-7.34 -5.51,-18.46 -5.51,-33.33l0 -8.59 48.22 0 0 11.25c0,9.55 0.59,15.75 1.79,18.64 1.24,2.85 3.62,4.27 7.16,4.27 3.86,0 6.52,-0.96 8.03,-2.89 1.52,-1.93 2.3,-6.01 2.3,-12.17 0,-8.54 -0.96,-13.86 -2.94,-16.02 -2.06,-2.16 -12.58,-8.54 -31.54,-19.15 -15.94,-8.95 -25.67,-17.08 -29.16,-24.43 -3.49,-7.3 -5.23,-15.98 -5.23,-26.03 0,-14.28 1.88,-24.8 5.64,-31.55 3.77,-6.79 10.15,-12.03 19.15,-15.7 9,-3.67 19.47,-5.51 31.36,-5.51 11.85,0 21.9,1.52 30.17,4.5 8.31,3.03 14.65,6.98 19.1,11.94 4.41,4.91 7.12,9.5 8.04,13.73 0.96,4.22 1.42,10.83 1.42,19.79l0 10.37zm121.5 -96.42l0 51.66c4.5,-5.24 9.5,-9.14 15.06,-11.71 5.51,-2.57 11.52,-3.86 18,-3.86 7.43,0 13.91,1.15 19.42,3.49 5.46,2.34 9.64,5.6 12.53,9.83 2.9,4.22 4.6,8.35 5.19,12.39 0.6,4.04 0.87,12.68 0.87,25.85l0 80.54c0,13.09 -0.87,22.87 -2.61,29.25 -1.79,6.43 -5.88,11.99 -12.35,16.71 -6.52,4.73 -14.19,7.08 -23.1,7.08 -6.38,0 -12.35,-1.43 -17.91,-4.23 -5.51,-2.8 -10.6,-6.98 -15.2,-12.58l-3.49 13.5 -50.69 0 0 -217.92 54.28 0zm16.8 90.09c0,-9.23 -0.6,-15.25 -1.79,-18.09 -1.15,-2.8 -3.49,-4.23 -6.93,-4.23 -3.4,0 -5.56,1.24 -6.57,3.72 -1.01,2.44 -1.51,8.68 -1.51,18.6l0 77c0,9.6 0.55,15.75 1.69,18.41 1.15,2.71 3.4,4.04 6.8,4.04 3.44,0 5.69,-1.37 6.75,-4.17 1.06,-2.76 1.56,-9.46 1.56,-20.02l0 -75.26zm195.19 41.6l-70.53 0 0 38.71c0,8.08 0.6,13.31 1.75,15.65 1.19,2.35 3.44,3.49 6.79,3.49 4.18,0 6.98,-1.56 8.36,-4.63 1.42,-3.13 2.11,-9.14 2.11,-18.05l0 -23.6 51.52 0 0 13.22c0,11.07 -0.69,19.56 -2.07,25.49 -1.42,5.92 -4.68,12.26 -9.78,19.01 -5.09,6.75 -11.61,11.8 -19.46,15.2 -7.86,3.35 -17.68,5.05 -29.53,5.05 -11.48,0 -21.63,-1.66 -30.44,-5.01 -8.77,-3.3 -15.61,-7.85 -20.53,-13.64 -4.91,-5.78 -8.26,-12.16 -10.14,-19.14 -1.89,-6.94 -2.85,-17.04 -2.85,-30.35l0 -52.12c0,-15.61 2.11,-27.92 6.34,-36.96 4.22,-9 11.11,-15.94 20.7,-20.71 9.65,-4.82 20.67,-7.21 33.16,-7.21 15.24,0 27.82,2.89 37.74,8.68 9.92,5.78 16.9,13.45 20.89,23 4,9.51 5.97,22.96 5.97,40.27l0 23.65zm-54.27 -28.93l0 -13.04c0,-9.27 -0.51,-15.2 -1.52,-17.91 -1.01,-2.71 -3.07,-4.04 -6.2,-4.04 -3.85,0 -6.24,1.15 -7.16,3.45 -0.92,2.29 -1.38,8.44 -1.38,18.5l0 13.04 16.26 0zm127.88 -102.76l0 217.92 -55.93 0 0 -217.92 55.93 0zm75.49 0l0 217.92 -55.93 0 0 -217.92 55.93 0zm142.44 102.07l0 43.76c0,16.07 -0.83,27.83 -2.44,35.36 -1.61,7.48 -5.05,14.46 -10.33,20.98 -5.28,6.52 -12.08,11.3 -20.39,14.42 -8.31,3.07 -17.81,4.64 -28.56,4.64 -12.03,0 -22.22,-1.34 -30.53,-3.95 -8.36,-2.67 -14.83,-6.66 -19.42,-11.99 -4.64,-5.37 -7.95,-11.84 -9.92,-19.42 -1.98,-7.58 -2.94,-18.96 -2.94,-34.12l0 -45.77c0,-16.63 1.79,-29.58 5.37,-38.94 3.58,-9.32 10.06,-16.81 19.38,-22.46 9.32,-5.64 21.26,-8.49 35.77,-8.49 12.17,0 22.63,1.84 31.4,5.46 8.73,3.63 15.48,8.36 20.25,14.19 4.73,5.83 7.99,11.85 9.74,18.05 1.74,6.2 2.62,15.61 2.62,28.28zm-54.28 -13.45c0,-9.14 -0.5,-14.92 -1.47,-17.27 -1.01,-2.38 -3.12,-3.58 -6.38,-3.58 -3.26,0 -5.42,1.2 -6.52,3.58 -1.06,2.35 -1.61,8.13 -1.61,17.27l0 80.58c0,8.45 0.55,13.96 1.61,16.49 1.1,2.57 3.21,3.85 6.38,3.85 3.26,0 5.37,-1.14 6.43,-3.49 1.06,-2.34 1.56,-7.34 1.56,-15.06l0 -82.37zm183.26 7.8l-47.94 0 0 -9.68c0,-8.27 -0.46,-13.46 -1.42,-15.66 -0.92,-2.21 -3.31,-3.31 -7.07,-3.31 -3.03,0 -5.33,1.01 -6.84,3.03 -1.52,2.02 -2.3,5.05 -2.3,9.09 0,5.47 0.37,9.51 1.15,12.03 0.73,2.58 3.03,5.38 6.84,8.41 3.76,3.07 11.57,7.53 23.37,13.36 15.75,7.71 26.04,14.97 30.95,21.81 4.91,6.8 7.39,16.71 7.39,29.71 0,14.55 -1.88,25.53 -5.65,32.92 -3.76,7.39 -10.05,13.13 -18.87,17.13 -8.86,3.99 -19.47,5.97 -31.96,5.97 -13.77,0 -25.62,-2.16 -35.4,-6.43 -9.82,-4.32 -16.57,-10.15 -20.25,-17.5 -3.67,-7.34 -5.51,-18.46 -5.51,-33.33l0 -8.59 48.22 0 0 11.25c0,9.55 0.59,15.75 1.79,18.64 1.24,2.85 3.62,4.27 7.16,4.27 3.86,0 6.52,-0.96 8.03,-2.89 1.52,-1.93 2.3,-6.01 2.3,-12.17 0,-8.54 -0.96,-13.86 -2.94,-16.02 -2.06,-2.16 -12.58,-8.54 -31.54,-19.15 -15.94,-8.95 -25.67,-17.08 -29.16,-24.43 -3.49,-7.3 -5.23,-15.98 -5.23,-26.03 0,-14.28 1.88,-24.8 5.64,-31.55 3.77,-6.79 10.15,-12.03 19.15,-15.7 9,-3.67 19.47,-5.51 31.36,-5.51 11.85,0 21.9,1.52 30.17,4.5 8.31,3.03 14.65,6.98 19.1,11.94 4.41,4.91 7.12,9.5 8.04,13.73 0.96,4.22 1.42,10.83 1.42,19.79l0 10.37zm178.25 0l-47.94 0 0 -9.68c0,-8.27 -0.46,-13.46 -1.42,-15.66 -0.92,-2.21 -3.31,-3.31 -7.07,-3.31 -3.03,0 -5.33,1.01 -6.84,3.03 -1.52,2.02 -2.3,5.05 -2.3,9.09 0,5.47 0.37,9.51 1.15,12.03 0.73,2.58 3.03,5.38 6.84,8.41 3.76,3.07 11.57,7.53 23.37,13.36 15.75,7.71 26.04,14.97 30.95,21.81 4.91,6.8 7.39,16.71 7.39,29.71 0,14.55 -1.88,25.53 -5.65,32.92 -3.76,7.39 -10.05,13.13 -18.87,17.13 -8.86,3.99 -19.47,5.97 -31.96,5.97 -13.77,0 -25.62,-2.16 -35.4,-6.43 -9.82,-4.32 -16.57,-10.15 -20.25,-17.5 -3.67,-7.34 -5.51,-18.46 -5.51,-33.33l0 -8.59 48.22 0 0 11.25c0,9.55 0.59,15.75 1.79,18.64 1.24,2.85 3.62,4.27 7.16,4.27 3.86,0 6.52,-0.96 8.03,-2.89 1.52,-1.93 2.3,-6.01 2.3,-12.17 0,-8.54 -0.96,-13.86 -2.94,-16.02 -2.06,-2.16 -12.58,-8.54 -31.54,-19.15 -15.94,-8.95 -25.67,-17.08 -29.16,-24.43 -3.49,-7.3 -5.23,-15.98 -5.23,-26.03 0,-14.28 1.88,-24.8 5.64,-31.55 3.77,-6.79 10.15,-12.03 19.15,-15.7 9,-3.67 19.47,-5.51 31.36,-5.51 11.85,0 21.9,1.52 30.17,4.5 8.31,3.03 14.65,6.98 19.1,11.94 4.41,4.91 7.12,9.5 8.04,13.73 0.96,4.22 1.42,10.83 1.42,19.79l0 10.37zm141.79 35.27l-70.53 0 0 38.71c0,8.08 0.6,13.31 1.75,15.65 1.19,2.35 3.44,3.49 6.79,3.49 4.18,0 6.98,-1.56 8.36,-4.63 1.42,-3.13 2.11,-9.14 2.11,-18.05l0 -23.6 51.52 0 0 13.22c0,11.07 -0.69,19.56 -2.07,25.49 -1.42,5.92 -4.68,12.26 -9.78,19.01 -5.09,6.75 -11.61,11.8 -19.46,15.2 -7.86,3.35 -17.68,5.05 -29.53,5.05 -11.48,0 -21.63,-1.66 -30.44,-5.01 -8.77,-3.3 -15.61,-7.85 -20.53,-13.64 -4.91,-5.78 -8.26,-12.16 -10.14,-19.14 -1.89,-6.94 -2.85,-17.04 -2.85,-30.35l0 -52.12c0,-15.61 2.11,-27.92 6.34,-36.96 4.22,-9 11.11,-15.94 20.7,-20.71 9.65,-4.82 20.67,-7.21 33.16,-7.21 15.24,0 27.82,2.89 37.74,8.68 9.92,5.78 16.9,13.45 20.89,23 4,9.51 5.97,22.96 5.97,40.27l0 23.65zm-54.27 -28.93l0 -13.04c0,-9.27 -0.51,-15.2 -1.52,-17.91 -1.01,-2.71 -3.07,-4.04 -6.2,-4.04 -3.85,0 -6.24,1.15 -7.16,3.45 -0.92,2.29 -1.38,8.44 -1.38,18.5l0 13.04 16.26 0zm125.95 -63.36l-1.93 23.51c7.95,-16.9 19.42,-25.81 34.44,-26.82l0 62.81c-9.96,0 -17.31,1.34 -21.99,4.04 -4.69,2.71 -7.53,6.43 -8.64,11.25 -1.05,4.78 -1.6,15.85 -1.6,33.2l0 70.53 -54.28 0 0 -178.52 54 0zm167.73 92.29l-70.53 0 0 38.71c0,8.08 0.6,13.31 1.75,15.65 1.19,2.35 3.44,3.49 6.79,3.49 4.18,0 6.98,-1.56 8.36,-4.63 1.42,-3.13 2.11,-9.14 2.11,-18.05l0 -23.6 51.52 0 0 13.22c0,11.07 -0.69,19.56 -2.07,25.49 -1.42,5.92 -4.68,12.26 -9.78,19.01 -5.09,6.75 -11.61,11.8 -19.46,15.2 -7.86,3.35 -17.68,5.05 -29.53,5.05 -11.48,0 -21.63,-1.66 -30.44,-5.01 -8.77,-3.3 -15.61,-7.85 -20.53,-13.64 -4.91,-5.78 -8.26,-12.16 -10.14,-19.14 -1.89,-6.94 -2.85,-17.04 -2.85,-30.35l0 -52.12c0,-15.61 2.11,-27.92 6.34,-36.96 4.22,-9 11.11,-15.94 20.7,-20.71 9.65,-4.82 20.67,-7.21 33.16,-7.21 15.24,0 27.82,2.89 37.74,8.68 9.92,5.78 16.9,13.45 20.89,23 4,9.51 5.97,22.96 5.97,40.27l0 23.65zm-54.27 -28.93l0 -13.04c0,-9.27 -0.51,-15.2 -1.52,-17.91 -1.01,-2.71 -3.07,-4.04 -6.2,-4.04 -3.85,0 -6.24,1.15 -7.16,3.45 -0.92,2.29 -1.38,8.44 -1.38,18.5l0 13.04 16.26 0zm182.98 -6.34l-47.94 0 0 -9.68c0,-8.27 -0.46,-13.46 -1.42,-15.66 -0.92,-2.21 -3.31,-3.31 -7.07,-3.31 -3.03,0 -5.33,1.01 -6.84,3.03 -1.52,2.02 -2.3,5.05 -2.3,9.09 0,5.47 0.37,9.51 1.15,12.03 0.73,2.58 3.03,5.38 6.84,8.41 3.76,3.07 11.57,7.53 23.37,13.36 15.75,7.71 26.04,14.97 30.95,21.81 4.91,6.8 7.39,16.71 7.39,29.71 0,14.55 -1.88,25.53 -5.65,32.92 -3.76,7.39 -10.05,13.13 -18.87,17.13 -8.86,3.99 -19.47,5.97 -31.96,5.97 -13.77,0 -25.62,-2.16 -35.4,-6.43 -9.82,-4.32 -16.57,-10.15 -20.25,-17.5 -3.67,-7.34 -5.51,-18.46 -5.51,-33.33l0 -8.59 48.22 0 0 11.25c0,9.55 0.59,15.75 1.79,18.64 1.24,2.85 3.62,4.27 7.16,4.27 3.86,0 6.52,-0.96 8.03,-2.89 1.52,-1.93 2.3,-6.01 2.3,-12.17 0,-8.54 -0.96,-13.86 -2.94,-16.02 -2.06,-2.16 -12.58,-8.54 -31.54,-19.15 -15.94,-8.95 -25.67,-17.08 -29.16,-24.43 -3.49,-7.3 -5.23,-15.98 -5.23,-26.03 0,-14.28 1.88,-24.8 5.64,-31.55 3.77,-6.79 10.15,-12.03 19.15,-15.7 9,-3.67 19.47,-5.51 31.36,-5.51 11.85,0 21.9,1.52 30.17,4.5 8.31,3.03 14.65,6.98 19.1,11.94 4.41,4.91 7.12,9.5 8.04,13.73 0.96,4.22 1.42,10.83 1.42,19.79l0 10.37zm190.92 -96.42l0 217.92 -54.27 0 0 -12.99c-5.24,5.46 -10.7,9.5 -16.44,12.21 -5.79,2.71 -11.8,4.09 -18.09,4.09 -8.45,0 -15.8,-2.21 -21.99,-6.66 -6.2,-4.46 -10.2,-9.6 -11.94,-15.43 -1.75,-5.83 -2.62,-15.34 -2.62,-28.56l0 -83.61c0,-13.73 0.87,-23.47 2.62,-29.21 1.74,-5.74 5.78,-10.79 12.07,-15.15 6.29,-4.36 13.82,-6.52 22.55,-6.52 6.75,0 12.9,1.24 18.55,3.67 5.6,2.44 10.7,6.06 15.29,10.98l0 -50.74 54.27 0zm-54.27 84.3c0,-6.52 -0.55,-10.93 -1.7,-13.18 -1.15,-2.25 -3.4,-3.35 -6.75,-3.35 -3.31,0 -5.51,1.01 -6.66,3.03 -1.15,2.02 -1.7,6.52 -1.7,13.5l0 87.47c0,7.26 0.55,12.03 1.66,14.33 1.1,2.3 3.16,3.44 6.29,3.44 3.53,0 5.92,-1.28 7.07,-3.85 1.19,-2.53 1.79,-8.77 1.79,-18.74l0 -82.65zm196.84 47.39l-70.53 0 0 38.71c0,8.08 0.6,13.31 1.75,15.65 1.19,2.35 3.44,3.49 6.79,3.49 4.18,0 6.98,-1.56 8.36,-4.63 1.42,-3.13 2.11,-9.14 2.11,-18.05l0 -23.6 51.52 0 0 13.22c0,11.07 -0.69,19.56 -2.07,25.49 -1.42,5.92 -4.68,12.26 -9.78,19.01 -5.09,6.75 -11.61,11.8 -19.46,15.2 -7.86,3.35 -17.68,5.05 -29.53,5.05 -11.48,0 -21.63,-1.66 -30.44,-5.01 -8.77,-3.3 -15.61,-7.85 -20.53,-13.64 -4.91,-5.78 -8.26,-12.16 -10.14,-19.14 -1.89,-6.94 -2.85,-17.04 -2.85,-30.35l0 -52.12c0,-15.61 2.11,-27.92 6.34,-36.96 4.22,-9 11.11,-15.94 20.7,-20.71 9.65,-4.82 20.67,-7.21 33.16,-7.21 15.24,0 27.82,2.89 37.74,8.68 9.92,5.78 16.9,13.45 20.89,23 4,9.51 5.97,22.96 5.97,40.27l0 23.65zm-54.27 -28.93l0 -13.04c0,-9.27 -0.51,-15.2 -1.52,-17.91 -1.01,-2.71 -3.07,-4.04 -6.2,-4.04 -3.85,0 -6.24,1.15 -7.16,3.45 -0.92,2.29 -1.38,8.44 -1.38,18.5l0 13.04 16.26 0zm176.46 -102.76l0 217.92 -55.93 0 0 -217.92 55.93 0zm143.81 39.4l0 178.52 -55.23 0 0.96 -14.88c-3.77,6.06 -8.4,10.61 -13.91,13.64 -5.51,3.03 -11.85,4.55 -19.01,4.55 -8.13,0 -14.93,-1.43 -20.3,-4.32 -5.37,-2.85 -9.32,-6.66 -11.89,-11.43 -2.53,-4.78 -4.13,-9.69 -4.78,-14.88 -0.59,-5.14 -0.91,-15.38 -0.91,-30.76l0 -120.44 54.27 0 0 121.49c0,13.91 0.41,22.13 1.29,24.75 0.82,2.62 3.16,3.9 6.93,3.9 3.99,0 6.43,-1.33 7.16,-4.04 0.78,-2.66 1.15,-11.34 1.15,-25.94l0 -120.16 54.27 0zm104.28 0l0 39.58 -39.99 103.13 39.99 0 0 35.81 -92.57 0 0 -37.42 40.82 -105.29 -36.68 0 0 -35.81 88.43 0z"/>
 </g>
</svg>
